<?xml version="1.0" encoding="UTF-8"?> <svg xmlns="http://www.w3.org/2000/svg" width="108" height="108" viewBox="0 0 108 108"><g id="prevention_icon" transform="translate(-366.859 -3680.121)"><g id="Ellipse_81" data-name="Ellipse 81" transform="translate(366.859 3680.121)" fill="none" stroke="rgba(76,61,142,0.25)" stroke-width="2" opacity="0.905"><circle cx="54" cy="54" r="54" stroke="none"></circle><circle cx="54" cy="54" r="53" fill="none"></circle></g><circle id="Ellipse_84" data-name="Ellipse 84" cx="43" cy="43" r="43" transform="translate(377.859 3691.121)" fill="#4c3d8e" opacity="0.091"></circle><g id="iconfinder_ArtificialIntelligence12_2890565" transform="translate(388.859 3702.121)"><g id="scale" transform="translate(1 1)"><path id="Path_2735" data-name="Path 2735" d="M31,0A31,31,0,1,0,62,31,31.037,31.037,0,0,0,31,0Zm0,59.418A28.417,28.417,0,1,1,59.418,31,28.449,28.449,0,0,1,31,59.418Z" fill="#463683"></path><path id="Path_2736" data-name="Path 2736" d="M41.6,11.359a1.29,1.29,0,0,0-1.826,0l-12,12a5.1,5.1,0,0,0-2.608-.732A5.167,5.167,0,1,0,30.333,27.8a5.116,5.116,0,0,0-.732-2.609l12-12A1.29,1.29,0,0,0,41.6,11.359ZM25.167,30.381A2.583,2.583,0,1,1,27.75,27.8,2.586,2.586,0,0,1,25.167,30.381Z" transform="translate(5.834 3.203)" fill="#463683"></path><path id="Path_2737" data-name="Path 2737" d="M11.638,24.662a1.291,1.291,0,0,0-1.292-1.292H5.18a1.292,1.292,0,1,0,0,2.583h5.167A1.292,1.292,0,0,0,11.638,24.662Z" transform="translate(1.134 6.817)" fill="#463683"></path><path id="Path_2738" data-name="Path 2738" d="M11.016,28.839,6.241,30.816A1.292,1.292,0,0,0,6.736,33.3a1.309,1.309,0,0,0,.495-.1l4.775-1.976a1.292,1.292,0,0,0-.989-2.387Z" transform="translate(1.588 8.383)" fill="#463683"></path><path id="Path_2739" data-name="Path 2739" d="M43.416,30.816l-4.771-1.978a1.292,1.292,0,0,0-.989,2.387L42.427,33.2a1.292,1.292,0,1,0,.989-2.387Z" transform="translate(10.751 8.383)" fill="#463683"></path><path id="Path_2740" data-name="Path 2740" d="M44.456,23l-5.163,0h0a1.292,1.292,0,0,0,0,2.583l5.164,0a1.292,1.292,0,1,0,0-2.583Z" transform="translate(11.084 6.709)" fill="#463683"></path><path id="Path_2741" data-name="Path 2741" d="M38.149,20.289a1.309,1.309,0,0,0,.495-.1l4.773-1.975a1.292,1.292,0,0,0-.989-2.387L37.654,17.8a1.292,1.292,0,0,0,.495,2.485Z" transform="translate(10.751 4.589)" fill="#463683"></path><path id="Path_2742" data-name="Path 2742" d="M29.537,12.7a1.289,1.289,0,0,0,1.688-.7L33.2,7.233a1.292,1.292,0,1,0-2.387-.989l-1.978,4.771A1.29,1.29,0,0,0,29.537,12.7Z" transform="translate(8.383 1.589)" fill="#463683"></path><path id="Path_2743" data-name="Path 2743" d="M24.18,12.12a1.292,1.292,0,0,0,1.292-1.292V5.662a1.292,1.292,0,0,0-2.583,0v5.167A1.291,1.291,0,0,0,24.18,12.12Z" transform="translate(6.676 1.275)" fill="#463683"></path><path id="Path_2744" data-name="Path 2744" d="M17.8,12a1.292,1.292,0,0,0,2.387-.988L18.216,6.244a1.292,1.292,0,0,0-2.387.988Z" transform="translate(4.588 1.589)" fill="#463683"></path><path id="Path_2745" data-name="Path 2745" d="M15.422,13.6l-3.65-3.654A1.291,1.291,0,1,0,9.946,11.77l3.65,3.654A1.291,1.291,0,1,0,15.422,13.6Z" transform="translate(2.79 2.79)" fill="#463683"></path><path id="Path_2746" data-name="Path 2746" d="M12.006,17.805,7.235,15.826a1.291,1.291,0,1,0-.989,2.386l4.771,1.979a1.291,1.291,0,1,0,.989-2.386Z" transform="translate(1.589 4.588)" fill="#463683"></path><path id="Path_2747" data-name="Path 2747" d="M38.542,32H15.292A1.291,1.291,0,0,0,14,33.292v7.75a1.291,1.291,0,0,0,1.292,1.292h23.25a1.291,1.291,0,0,0,1.292-1.292v-7.75A1.291,1.291,0,0,0,38.542,32ZM37.25,39.75H16.583V34.583H37.25Z" transform="translate(4.084 9.334)" fill="#463683"></path></g></g></g></svg> 