<?xml version="1.0" encoding="UTF-8"?> <svg xmlns="http://www.w3.org/2000/svg" width="90" height="90" viewBox="0 0 90 90"><g id="session_icon" transform="translate(-367.005 -3680.267)"><g id="Ellipse_81" data-name="Ellipse 81" transform="translate(367.005 3680.267)" fill="none" stroke="rgba(255,83,90,0.99)" stroke-width="2"><circle cx="45" cy="45" r="45" stroke="none"></circle><circle cx="45" cy="45" r="44" fill="none"></circle></g><circle id="Ellipse_84" data-name="Ellipse 84" cx="35.5" cy="35.5" r="35.5" transform="translate(376.005 3689.267)" fill="#ff535a" opacity="0.05"></circle><g id="iconfinder_key_1370047" transform="translate(386.286 3703.375)"><g id="Group_312" data-name="Group 312" transform="translate(-0.075 10.719)"><path id="Path_2693" data-name="Path 2693" d="M12.226,35.49a11.978,11.978,0,0,1-8.7-3.635A12.383,12.383,0,0,1,19.5,13.031a1.4,1.4,0,0,1,.26,1.817,1.373,1.373,0,0,1-1.817.26A9.535,9.535,0,0,0,5.345,16.147,9.73,9.73,0,0,0,19.106,29.908a1.792,1.792,0,0,0,.389-.519,1.288,1.288,0,0,1,1.947,1.688c-.13.26-.389.389-.519.519A11.494,11.494,0,0,1,12.226,35.49Z" transform="translate(0.075 -10.719)" fill="#fd5259"></path></g><g id="Group_313" data-name="Group 313" transform="translate(6.643 17.575)"><path id="Path_2694" data-name="Path 2694" d="M10.682,27.165a5.123,5.123,0,0,1-3.895-1.688A5.628,5.628,0,0,1,5.1,21.582a5.123,5.123,0,0,1,1.688-3.895A5.628,5.628,0,0,1,10.682,16a5.123,5.123,0,0,1,3.895,1.688,1.285,1.285,0,0,1-1.817,1.817,2.9,2.9,0,0,0-4.154,0A3.064,3.064,0,0,0,7.7,21.582a2.583,2.583,0,0,0,.909,2.077,2.9,2.9,0,0,0,4.154,0,1.285,1.285,0,0,1,1.817,1.817A5.123,5.123,0,0,1,10.682,27.165Z" transform="translate(-5.1 -16)" fill="#fd5259"></path></g><g id="Group_314" data-name="Group 314" transform="translate(20.274 15.887)"><path id="Path_2695" data-name="Path 2695" d="M42.083,29.11a4.422,4.422,0,0,1-3.375-1.688c-.649-.649-.909-.909-1.558-.909s-.909.26-1.558.909a4.056,4.056,0,0,1-3.375,1.688,4.422,4.422,0,0,1-3.375-1.688c-.649-.649-.909-.909-1.558-.909s-.909.26-1.558.909a4.056,4.056,0,0,1-3.375,1.688,4.422,4.422,0,0,1-3.375-1.688,3.156,3.156,0,0,0-1.168-.909,1.324,1.324,0,0,1,.519-2.6,5.064,5.064,0,0,1,2.467,1.558c.649.649.909.909,1.558.909s.909-.26,1.558-.909a4.056,4.056,0,0,1,3.375-1.688,4.422,4.422,0,0,1,3.375,1.688c.649.649.909.909,1.558.909s.909-.26,1.558-.909a4.056,4.056,0,0,1,3.375-1.688,4.422,4.422,0,0,1,3.375,1.688,4.142,4.142,0,0,0,.909.779L44.42,21.84,41.434,17.3H16.9a1.3,1.3,0,0,1,0-2.6H42.083a1.6,1.6,0,0,1,1.039.519l3.895,5.842a1.406,1.406,0,0,1,0,1.428l-3.895,5.842A1.033,1.033,0,0,1,42.083,29.11Z" transform="translate(-15.6 -14.7)" fill="#fd5259"></path></g></g></g></svg> 