<?xml version="1.0" encoding="UTF-8"?> <svg xmlns="http://www.w3.org/2000/svg" width="108" height="108" viewBox="0 0 108 108"><g id="prevention_icon" transform="translate(-366.859 -3680.121)"><g id="Ellipse_81" data-name="Ellipse 81" transform="translate(366.859 3680.121)" fill="none" stroke="rgba(81,208,179,0.25)" stroke-width="2" opacity="0.905"><circle cx="54" cy="54" r="54" stroke="none"></circle><circle cx="54" cy="54" r="53" fill="none"></circle></g><circle id="Ellipse_84" data-name="Ellipse 84" cx="43" cy="43" r="43" transform="translate(377.859 3691.121)" fill="#51d0b3" opacity="0.091"></circle><g id="iconfinder_keyboard_2428669" transform="translate(372.077 3673.625)"><path id="Path_2682" data-name="Path 2682" d="M26.124,72.044a1.124,1.124,0,0,0,1.124-1.124V45.369a2.026,2.026,0,0,1,2.024-2.024H72.44a1.124,1.124,0,0,0,0-2.248H29.272A4.277,4.277,0,0,0,25,45.369V70.919A1.124,1.124,0,0,0,26.124,72.044Z" transform="translate(0 0)" fill="#51d0b3"></path><path id="Path_2683" data-name="Path 2683" d="M72.441,63.818a1.124,1.124,0,0,0-1.124,1.124V90.331a2.026,2.026,0,0,1-2.024,2.024H26.124a1.124,1.124,0,0,0,0,2.248H69.293a4.277,4.277,0,0,0,4.272-4.272V64.942A1.124,1.124,0,0,0,72.441,63.818Z" transform="translate(0 -15.365)" fill="#51d0b3"></path><path id="Path_2684" data-name="Path 2684" d="M51.859,63.319H48.346a1.124,1.124,0,0,0-1.124,1.124V67.96a1.124,1.124,0,1,0,2.248,0V65.568h2.389a1.124,1.124,0,0,0,0-2.249Z" transform="translate(-15.027 -15.027)" fill="#51d0b3"></path><path id="Path_2685" data-name="Path 2685" d="M76.476,123.517a1.124,1.124,0,0,0,2.248,0v-2.392h11.86a1.124,1.124,0,0,0,0-2.248H77.6A1.124,1.124,0,0,0,76.476,120Z" transform="translate(-34.81 -52.597)" fill="#51d0b3"></path><path id="Path_2686" data-name="Path 2686" d="M77.6,69.085a1.124,1.124,0,0,0,1.124-1.124V65.568h2.389a1.124,1.124,0,0,0,0-2.248H77.6a1.124,1.124,0,0,0-1.124,1.124v3.517A1.124,1.124,0,0,0,77.6,69.085Z" transform="translate(-34.81 -15.028)" fill="#51d0b3"></path><path id="Path_2687" data-name="Path 2687" d="M110.366,63.319h-3.513a1.124,1.124,0,0,0-1.124,1.124V67.96a1.124,1.124,0,1,0,2.248,0V65.568h2.389a1.124,1.124,0,0,0,0-2.249Z" transform="translate(-54.591 -15.027)" fill="#51d0b3"></path><path id="Path_2688" data-name="Path 2688" d="M139.62,63.319h-3.514a1.124,1.124,0,0,0-1.124,1.124V67.96a1.124,1.124,0,1,0,2.248,0V65.568h2.389a1.124,1.124,0,0,0,0-2.249Z" transform="translate(-74.374 -15.027)" fill="#51d0b3"></path><path id="Path_2689" data-name="Path 2689" d="M51.859,91.1H48.346a1.124,1.124,0,0,0-1.124,1.124v3.517a1.124,1.124,0,1,0,2.248,0V93.346h2.389a1.124,1.124,0,0,0,0-2.249Z" transform="translate(-15.027 -33.812)" fill="#51d0b3"></path><path id="Path_2690" data-name="Path 2690" d="M76.476,95.739a1.124,1.124,0,1,0,2.248,0V93.346h2.389a1.124,1.124,0,0,0,0-2.248H77.6a1.124,1.124,0,0,0-1.124,1.124Z" transform="translate(-34.81 -33.812)" fill="#51d0b3"></path><path id="Path_2691" data-name="Path 2691" d="M110.366,91.1h-3.513a1.124,1.124,0,0,0-1.124,1.124v3.517a1.124,1.124,0,1,0,2.248,0V93.346h2.389a1.124,1.124,0,0,0,0-2.249Z" transform="translate(-54.591 -33.812)" fill="#51d0b3"></path><path id="Path_2692" data-name="Path 2692" d="M139.62,91.1h-3.514a1.124,1.124,0,0,0-1.124,1.124v3.517a1.124,1.124,0,1,0,2.248,0V93.346h2.389a1.124,1.124,0,0,0,0-2.249Z" transform="translate(-74.374 -33.812)" fill="#51d0b3"></path></g></g></svg> 