<?xml version="1.0" encoding="UTF-8"?> <svg xmlns="http://www.w3.org/2000/svg" width="108" height="108" viewBox="0 0 108 108"><g id="session_icon" transform="translate(-367.005 -3680.267)"><g id="Ellipse_81" data-name="Ellipse 81" transform="translate(367.005 3680.267)" fill="none" stroke="rgba(255,83,90,0.25)" stroke-width="2"><circle cx="54" cy="54" r="54" stroke="none"></circle><circle cx="54" cy="54" r="53" fill="none"></circle></g><circle id="Ellipse_84" data-name="Ellipse 84" cx="43" cy="43" r="43" transform="translate(378.005 3691.267)" fill="#ff535a" opacity="0.05"></circle><g id="_2305637-browser-refresh-restart-sync-web-window" data-name="2305637-browser-refresh-restart-sync-web-window" transform="translate(387.005 3699.999)"><path id="Path_2155" data-name="Path 2155" d="M63.12,33.448V15.49A4.49,4.49,0,0,0,58.63,11H11.49A4.49,4.49,0,0,0,7,15.49V53.651a4.49,4.49,0,0,0,4.49,4.49H38.427" transform="translate(0 0)" fill="none" stroke="#ff535a" stroke-linecap="round" stroke-linejoin="round" stroke-width="2"></path><line id="Line_101" data-name="Line 101" x2="56" transform="translate(7 20.268)" fill="none" stroke="#ff535a" stroke-linecap="round" stroke-linejoin="round" stroke-width="2"></line><g id="Color" transform="translate(-535.997 -746.732)"><g id="colored_security-69" transform="translate(544 778.514)"><path id="Shape" d="M45.245,29.086C40.881,26.923,34.562,19.61,34,10.155L45.245,4" fill="none" stroke="#ff535a" stroke-linecap="round" stroke-linejoin="round" stroke-width="2" fill-rule="evenodd"></path><path id="Shape-2" data-name="Shape" stroke="#ff535a" d="M71.245,10.155,60,4" fill="none" transform="translate(-14.755)" stroke-linecap="round" stroke-linejoin="round" stroke-width="2" fill-rule="evenodd"></path><path id="Shape-3" data-name="Shape" stroke="#ff535a" d="M60,42.07c3.772-1.868,8.944-7.517,10.718-15.19" fill="none" transform="translate(-14.755 -12.984)" stroke-linecap="round" stroke-linejoin="round" stroke-width="2" fill-rule="evenodd"></path><path id="Shape-4" data-name="Shape" stroke="#ff535a" d="M59,5V28.789" fill="none" transform="translate(-14.187 -0.567)" stroke-linecap="round" stroke-linejoin="round" stroke-width="2" fill-rule="evenodd"></path></g></g></g></g></svg> 