<?xml version="1.0" encoding="UTF-8"?> <svg xmlns="http://www.w3.org/2000/svg" width="108" height="108" viewBox="0 0 108 108"><g id="prevention_icon" transform="translate(-366.859 -3680.121)"><g id="Ellipse_81" data-name="Ellipse 81" transform="translate(366.859 3680.121)" fill="none" stroke="rgba(76,61,142,0.25)" stroke-width="2" opacity="0.905"><circle cx="54" cy="54" r="54" stroke="none"></circle><circle cx="54" cy="54" r="53" fill="none"></circle></g><circle id="Ellipse_84" data-name="Ellipse 84" cx="43" cy="43" r="43" transform="translate(377.859 3691.121)" fill="#4c3d8e" opacity="0.091"></circle><g id="iconfinder_ArtificialIntelligence12_2890565" transform="translate(388.859 3702.121)"><path id="Path_2154" data-name="Path 2154" d="M61,31.184V22.815a2.988,2.988,0,1,0-1.978-5.639l-4.481-5.6A2.957,2.957,0,0,0,55,10a3,3,0,0,0-5.145-2.091L41.972,4.271A2.7,2.7,0,0,0,42,4a2.993,2.993,0,0,0-5.816-1H24.816A2.993,2.993,0,0,0,19,4a2.9,2.9,0,0,0,.037.363l-4.96,2.48a2.991,2.991,0,0,0-4.619,3.733l-4.481,5.6A2.962,2.962,0,0,0,4,16a2.993,2.993,0,0,0-1,5.816v6.369a2.992,2.992,0,1,0,3.59,4.3l5.459.993A3,3,0,0,0,15,36c.041,0,.078-.01.118-.012l1.908,4.77a2.991,2.991,0,1,0,4.411,3.978l8.582,2.452A2.99,2.99,0,0,0,32,49.816v7.369a3,3,0,1,0,2,0V49.816a2.975,2.975,0,0,0,.838-5.169l1.194-3.582,8.973,2.991A2.992,2.992,0,0,0,47,46.815V57.184a3,3,0,1,0,2,0V46.816A2.954,2.954,0,0,0,50.8,42.965l7.673-6.394A2.972,2.972,0,0,0,60,37a2.993,2.993,0,0,0,1-5.816Zm-43.006,1.76a2.9,2.9,0,0,0-.036-.351l8.2-4.253L28.7,36.513ZM15.762,30.11,14.376,19.482l6.853-.343a3,3,0,0,0,2.652,1.848L25.56,26.4l-8.517,4.416A3.007,3.007,0,0,0,15.762,30.11ZM6.772,17.86a2.928,2.928,0,0,0-.231-.436l4.481-5.6a3.034,3.034,0,0,0,.351.109l.739,5.661Zm6.583-6.2A2.992,2.992,0,0,0,15,9a2.9,2.9,0,0,0-.037-.363l4.96-2.48a2.982,2.982,0,0,0,3.738.338l6.21,4.657-4.5,4.2a2.958,2.958,0,0,0-4.235,1.794l-7.024.351ZM36.253,5.2l-4.9,4.57L25,5H36.184C36.208,5.066,36.225,5.133,36.253,5.2Zm2.788,14.211-8.047,4.173-4.3-4.3a2.929,2.929,0,0,0,.049-2.482L31.5,12.372l7.653,5.74A2.968,2.968,0,0,0,39,19,3.048,3.048,0,0,0,39.041,19.408ZM25,18a1,1,0,1,1-1-1A1,1,0,0,1,25,18Zm4.132,6.546-1.769.917-1.209-3.9ZM27.965,27.4l2.65-1.374L35.3,30.715a2.944,2.944,0,0,0,.862,3.638l-1.394,4.182L31.034,37.29ZM38,33a1,1,0,1,1,1-1A1,1,0,0,1,38,33Zm0-4a2.951,2.951,0,0,0-1.285.3l-4.237-4.237,7.48-3.879a2.943,2.943,0,0,0,3.565.385l4.553,3.794-8.083,4.409A2.982,2.982,0,0,0,38,29ZM50.578,12.625a2.843,2.843,0,0,0,2.4.2l4.481,5.6A2.974,2.974,0,0,0,57,20a2.925,2.925,0,0,0,.048.471l-7.083,3.864-5.16-4.3a2.914,2.914,0,0,0-.035-2.183Zm7.9,18.8-6.861-5.718,6.391-3.486a2.969,2.969,0,0,0,.993.59v8.369A3.009,3.009,0,0,0,58.478,31.429ZM43,19a1,1,0,1,1-1-1A1,1,0,0,1,43,19Zm6.728,7.742,7.166,5.972L41.368,31.3ZM61,20a1,1,0,1,1-1-1A1,1,0,0,1,61,20ZM52,9a1,1,0,1,1-1,1A1,1,0,0,1,52,9Zm-2.973.729C49.019,9.82,49,9.907,49,10a2.985,2.985,0,0,0,.23,1.148l-5.809,5.227A2.948,2.948,0,0,0,42,16a2.981,2.981,0,0,0-1.661.5l-7.358-5.519,4.645-4.335A2.952,2.952,0,0,0,39,7a2.988,2.988,0,0,0,2.145-.909ZM39,3a1,1,0,1,1-1,1A1,1,0,0,1,39,3ZM22,3a1,1,0,1,1-1,1A1,1,0,0,1,22,3ZM12,8a1,1,0,1,1-1,1A1,1,0,0,1,12,8ZM4,18a1,1,0,1,1-1,1A1,1,0,0,1,4,18ZM4,32a1,1,0,1,1,1-1A1,1,0,0,1,4,32Zm1-3.816V21.815a2.993,2.993,0,0,0,1.86-1.958l5.512-.276,1.394,10.69a3,3,0,0,0-1.356,1.24L6.952,30.52A2.994,2.994,0,0,0,5,28.184ZM14,33a1,1,0,1,1,1,1A1,1,0,0,1,14,33Zm2.974,2.241a2.951,2.951,0,0,0,.379-.4l12.075,4.025,1.783,5.743a3.013,3.013,0,0,0-.648.657l-8.582-2.452A3,3,0,0,0,19,40c-.04,0-.078.01-.117.012ZM19,44a1,1,0,1,1,1-1A1,1,0,0,1,19,44ZM33,61a1,1,0,1,1,1-1A1,1,0,0,1,33,61Zm0-13a1,1,0,1,1,1-1A1,1,0,0,1,33,48Zm.034-4.264-1.271-4.094,2.372.791Zm5.022-8.742a2.994,2.994,0,0,0,2.662-1.743L57.1,34.741c.026.1.056.2.091.294l-7.673,6.394a2.946,2.946,0,0,0-3.875.733l-8.982-2.994ZM48,61a1,1,0,1,1,1-1A1,1,0,0,1,48,61Zm0-16a1,1,0,1,1,1-1A1,1,0,0,1,48,45ZM60,35a1,1,0,1,1,1-1A1,1,0,0,1,60,35Z" fill="#4c3d8e"></path></g></g></svg> 