<svg xmlns="http://www.w3.org/2000/svg" width="1000" height="1000"><path d="M535,499L439,617L728,643Z" fill="#ff5b00" stroke="#ff5b00" stroke-width="1.51"/><path d="M439,617L527,772L728,643Z" fill="#ff6100" stroke="#ff6100" stroke-width="1.51"/><path d="M728,643L708,555L535,499Z" fill="#ff5f00" stroke="#ff5f00" stroke-width="1.51"/><path d="M439,617L449,793L527,772Z" fill="#ff5e00" stroke="#ff5e00" stroke-width="1.51"/><path d="M439,617L274,699L449,793Z" fill="#ff5600" stroke="#ff5600" stroke-width="1.51"/><path d="M127,417L274,699L439,617Z" fill="#ff4400" stroke="#ff4400" stroke-width="1.51"/><path d="M708,555L688,237L535,499Z" fill="#ff5500" stroke="#ff5500" stroke-width="1.51"/><path d="M728,643L868,486L708,555Z" fill="#ff6600" stroke="#ff6600" stroke-width="1.51"/><path d="M449,793L441,933L527,772Z" fill="#ff6500" stroke="#ff6500" stroke-width="1.51"/><path d="M527,772L857,854L728,643Z" fill="#ff6e00" stroke="#ff6e00" stroke-width="1.51"/><path d="M274,699L441,933L449,793Z" fill="#ff5e00" stroke="#ff5e00" stroke-width="1.51"/><path d="M728,643L1001,532L868,486Z" fill="#ff6d00" stroke="#ff6d00" stroke-width="1.51"/><path d="M577,997L857,854L527,772Z" fill="#ff7400" stroke="#ff7400" stroke-width="1.51"/><path d="M535,499L419,324L439,617Z" fill="#ff4b00" stroke="#ff4b00" stroke-width="1.51"/><path d="M688,237L419,324L535,499Z" fill="#ff4700" stroke="#ff4700" stroke-width="1.51"/><path d="M441,933L577,997L527,772Z" fill="#ff6d00" stroke="#ff6d00" stroke-width="1.51"/><path d="M868,486L688,237L708,555Z" fill="#ff5c00" stroke="#ff5c00" stroke-width="1.51"/><path d="M868,486L810,183L688,237Z" fill="#ff5600" stroke="#ff5600" stroke-width="1.51"/><path d="M857,854L1001,532L728,643Z" fill="#ff7400" stroke="#ff7400" stroke-width="1.51"/><path d="M577,997L830,997L857,854Z" fill="#ff7e00" stroke="#ff7e00" stroke-width="1.51"/><path d="M857,854L995,873L1001,532Z" fill="#ff7f00" stroke="#ff7f00" stroke-width="1.51"/><path d="M830,997L995,873L857,854Z" fill="#ff8500" stroke="#ff8500" stroke-width="1.51"/><path d="M419,324L127,417L439,617Z" fill="#ff3d00" stroke="#ff3d00" stroke-width="1.51"/><path d="M688,237L444,157L419,324Z" fill="#ff3a00" stroke="#ff3a00" stroke-width="1.51"/><path d="M57,316L127,417L136,177Z" fill="#f61a01" stroke="#f61a01" stroke-width="1.51"/><path d="M688,237L535,-32L444,157Z" fill="#f83b00" stroke="#f83b00" stroke-width="1.51"/><path d="M1077,425L810,183L868,486Z" fill="#ff6500" stroke="#ff6500" stroke-width="1.51"/><path d="M274,699L85,781L441,933Z" fill="#ff5500" stroke="#ff5500" stroke-width="1.51"/><path d="M441,933L544,1228L577,997Z" fill="#ff7900" stroke="#ff7900" stroke-width="1.51"/><path d="M39,558L85,781L274,699Z" fill="#f94600" stroke="#f94600" stroke-width="1.51"/><path d="M1001,532L1077,425L868,486Z" fill="#ff7100" stroke="#ff7100" stroke-width="1.51"/><path d="M1339,590L1077,425L1001,532Z" fill="#ff7f00" stroke="#ff7f00" stroke-width="1.51"/><path d="M127,417L39,558L274,699Z" fill="#fa3c00" stroke="#fa3c00" stroke-width="1.51"/><path d="M85,781L49,836L441,933Z" fill="#fe5500" stroke="#fe5500" stroke-width="1.51"/><path d="M-224,753L49,836L85,781Z" fill="#ed4c00" stroke="#ed4c00" stroke-width="1.51"/><path d="M577,997L544,1228L830,997Z" fill="#ff8100" stroke="#ff8100" stroke-width="1.51"/><path d="M830,997L1064,1001L995,873Z" fill="#ff8d00" stroke="#ff8d00" stroke-width="1.51"/><path d="M304,1206L544,1228L441,933Z" fill="#ff7800" stroke="#ff7800" stroke-width="1.51"/><path d="M995,873L1339,590L1001,532Z" fill="#ff8500" stroke="#ff8500" stroke-width="1.51"/><path d="M911,1198L1064,1001L830,997Z" fill="#ff9200" stroke="#ff9200" stroke-width="1.51"/><path d="M136,177L127,417L419,324Z" fill="#ff1c00" stroke="#ff1c00" stroke-width="1.51"/><path d="M127,417L57,316L39,558Z" fill="#f42d00" stroke="#f42d00" stroke-width="1.51"/><path d="M90,1104L304,1206L441,933Z" fill="#ff6c00" stroke="#ff6c00" stroke-width="1.51"/><path d="M444,157L136,177L419,324Z" fill="#ff2000" stroke="#ff2000" stroke-width="1.51"/><path d="M544,1228L911,1198L830,997Z" fill="#ff8c00" stroke="#ff8c00" stroke-width="1.51"/><path d="M1077,425L1082,195L810,183Z" fill="#ff6500" stroke="#ff6500" stroke-width="1.51"/><path d="M850,19L535,-32L688,237Z" fill="#f44600" stroke="#f44600" stroke-width="1.51"/><path d="M444,157L228,-117L136,177Z" fill="#f41201" stroke="#f41201" stroke-width="1.51"/><path d="M850,19L688,237L810,183Z" fill="#fa4e00" stroke="#fa4e00" stroke-width="1.51"/><path d="M1082,195L850,19L810,183Z" fill="#fa5a00" stroke="#fa5a00" stroke-width="1.51"/><path d="M49,836L90,1104L441,933Z" fill="#fe5e00" stroke="#fe5e00" stroke-width="1.51"/><path d="M49,836L-79,957L90,1104Z" fill="#f15c00" stroke="#f15c00" stroke-width="1.51"/><path d="M-224,753L-79,957L49,836Z" fill="#e95100" stroke="#e95100" stroke-width="1.51"/><path d="M-224,753L85,781L39,558Z" fill="#ec4500" stroke="#ec4500" stroke-width="1.51"/><path d="M50,1271L145,1231L90,1104Z" fill="#f86f00" stroke="#f86f00" stroke-width="1.51"/><path d="M90,1104L145,1231L304,1206Z" fill="#fe7000" stroke="#fe7000" stroke-width="1.51"/><path d="M304,1206L50,1271L544,1228Z" fill="#ff7900" stroke="#ff7900" stroke-width="1.51"/><path d="M1334,889L1339,590L995,873Z" fill="#ff9300" stroke="#ff9300" stroke-width="1.51"/><path d="M1077,425L1303,358L1082,195Z" fill="#ff7500" stroke="#ff7500" stroke-width="1.51"/><path d="M1339,590L1303,358L1077,425Z" fill="#ff8200" stroke="#ff8200" stroke-width="1.51"/><path d="M1082,195L1153,44L850,19Z" fill="#f66300" stroke="#f66300" stroke-width="1.51"/><path d="M535,-32L434,-124L444,157Z" fill="#ef3100" stroke="#ef3100" stroke-width="1.51"/><path d="M426,-197L434,-124L648,-221Z" fill="#e13201" stroke="#e13201" stroke-width="1.51"/><path d="M-213,408L-220,504L39,558Z" fill="#e53201" stroke="#e53201" stroke-width="1.51"/><path d="M136,177L-84,234L57,316Z" fill="#f10901" stroke="#f10901" stroke-width="1.51"/><path d="M-95,70L-84,234L136,177Z" fill="#e90101" stroke="#e90101" stroke-width="1.51"/><path d="M1064,1001L1307,929L995,873Z" fill="#ff9500" stroke="#ff9500" stroke-width="1.51"/><path d="M1163,1270L1307,929L1064,1001Z" fill="#ffa100" stroke="#ffa100" stroke-width="1.51"/><path d="M1307,929L1334,889L995,873Z" fill="#ff9900" stroke="#ff9900" stroke-width="1.51"/><path d="M-213,408L39,558L57,316Z" fill="#eb2b00" stroke="#eb2b00" stroke-width="1.51"/><path d="M-220,504L-224,753L39,558Z" fill="#e43c01" stroke="#e43c01" stroke-width="1.51"/><path d="M648,-221L434,-124L535,-32Z" fill="#e53601" stroke="#e53601" stroke-width="1.51"/><path d="M1310,184L1153,44L1082,195Z" fill="#fb6f00" stroke="#fb6f00" stroke-width="1.51"/><path d="M-84,234L-213,408L57,316Z" fill="#e81c01" stroke="#e81c01" stroke-width="1.51"/><path d="M145,1231L50,1271L304,1206Z" fill="#fe7300" stroke="#fe7300" stroke-width="1.51"/><path d="M544,1228L1091,1299L911,1198Z" fill="#ff9800" stroke="#ff9800" stroke-width="1.51"/><path d="M-185,1259L50,1271L90,1104Z" fill="#f06e00" stroke="#f06e00" stroke-width="1.51"/><path d="M-185,1259L90,1104L-79,957Z" fill="#ec6600" stroke="#ec6600" stroke-width="1.51"/><path d="M434,-124L228,-117L444,157Z" fill="#ec2401" stroke="#ec2401" stroke-width="1.51"/><path d="M911,1198L1091,1299L1064,1001Z" fill="#ff9e00" stroke="#ff9e00" stroke-width="1.51"/><path d="M1307,929L1163,1270L1334,889Z" fill="#ffa500" stroke="#ffa500" stroke-width="1.51"/><path d="M50,1271L1091,1299L544,1228Z" fill="#ff8900" stroke="#ff8900" stroke-width="1.51"/><path d="M434,-124L426,-197L228,-117Z" fill="#e42201" stroke="#e42201" stroke-width="1.51"/><path d="M648,-221L535,-32L850,19Z" fill="#e94300" stroke="#e94300" stroke-width="1.51"/><path d="M1303,358L1310,184L1082,195Z" fill="#ff7600" stroke="#ff7600" stroke-width="1.51"/><path d="M1339,590L1310,184L1303,358Z" fill="#ff8300" stroke="#ff8300" stroke-width="1.51"/><path d="M-224,753L-222,932L-79,957Z" fill="#e25200" stroke="#e25200" stroke-width="1.51"/><path d="M1091,1299L1163,1270L1064,1001Z" fill="#ffa500" stroke="#ffa500" stroke-width="1.51"/><path d="M914,-264L648,-221L850,19Z" fill="#e34b01" stroke="#e34b01" stroke-width="1.51"/><path d="M1153,44L1106,-49L850,19Z" fill="#f06200" stroke="#f06200" stroke-width="1.51"/><path d="M1106,-220L1106,-49L1330,-275Z" fill="#e36800" stroke="#e36800" stroke-width="1.51"/><path d="M-84,234L-266,186L-213,408Z" fill="#e11301" stroke="#e11301" stroke-width="1.51"/><path d="M228,-117L-95,70L136,177Z" fill="#e70101" stroke="#e70101" stroke-width="1.51"/><path d="M228,-117L-91,-202L-95,70Z" fill="#d90101" stroke="#d90101" stroke-width="1.51"/><path d="M426,-197L188,-223L228,-117Z" fill="#e11401" stroke="#e11401" stroke-width="1.51"/><path d="M648,-221L188,-223L426,-197Z" fill="#df2901" stroke="#df2901" stroke-width="1.51"/><path d="M648,-221L914,-264L188,-223Z" fill="#dd3901" stroke="#dd3901" stroke-width="1.51"/><path d="M1106,-49L914,-264L850,19Z" fill="#e85900" stroke="#e85900" stroke-width="1.51"/><path d="M-95,70L-266,186L-84,234Z" fill="#df0101" stroke="#df0101" stroke-width="1.51"/><path d="M-213,408L-266,186L-220,504Z" fill="#dd2201" stroke="#dd2201" stroke-width="1.51"/><path d="M-220,504L-266,186L-224,753Z" fill="#dd2f01" stroke="#dd2f01" stroke-width="1.51"/><path d="M-224,753L-266,186L-222,932Z" fill="#dd3c01" stroke="#dd3c01" stroke-width="1.51"/><path d="M-222,-118L-266,186L-95,70Z" fill="#d30202" stroke="#d30202" stroke-width="1.51"/><path d="M-222,932L-185,1259L-79,957Z" fill="#e45f00" stroke="#e45f00" stroke-width="1.51"/><path d="M1106,-49L1106,-220L914,-264Z" fill="#e35e00" stroke="#e35e00" stroke-width="1.51"/><path d="M1330,-275L1106,-49L1153,44Z" fill="#ea6b00" stroke="#ea6b00" stroke-width="1.51"/><path d="M188,-223L-91,-202L228,-117Z" fill="#d90202" stroke="#d90202" stroke-width="1.51"/><path d="M-91,-202L-222,-118L-95,70Z" fill="#ce0202" stroke="#ce0202" stroke-width="1.51"/><path d="M1106,-220L1330,-275L914,-264Z" fill="#dd6200" stroke="#dd6200" stroke-width="1.51"/><path d="M1310,184L1330,-275L1153,44Z" fill="#f07200" stroke="#f07200" stroke-width="1.51"/><path d="M1339,590L1330,-275L1310,184Z" fill="#fe7a00" stroke="#fe7a00" stroke-width="1.51"/><path d="M-222,-118L-316,-250L-266,186Z" fill="#c60202" stroke="#c60202" stroke-width="1.51"/><path d="M-266,186L-316,-250L-222,932Z" fill="#da1501" stroke="#da1501" stroke-width="1.51"/><path d="M-91,-202L-316,-250L-222,-118Z" fill="#c10202" stroke="#c10202" stroke-width="1.51"/><path d="M188,-223L-316,-250L-91,-202Z" fill="#c80202" stroke="#c80202" stroke-width="1.51"/><path d="M914,-264L-316,-250L188,-223Z" fill="#dc0f01" stroke="#dc0f01" stroke-width="1.51"/><path d="M1330,-275L-316,-250L914,-264Z" fill="#db3d01" stroke="#db3d01" stroke-width="1.51"/></svg>