<svg xmlns="http://www.w3.org/2000/svg" width="1000" height="1000"><path d="M535,499L439,617L728,643Z" fill="#1ee400" stroke="#1ee400" stroke-width="1.51"/><path d="M439,617L527,772L728,643Z" fill="#1eea00" stroke="#1eea00" stroke-width="1.51"/><path d="M728,643L708,555L535,499Z" fill="#1ee900" stroke="#1ee900" stroke-width="1.51"/><path d="M439,617L449,793L527,772Z" fill="#1ee700" stroke="#1ee700" stroke-width="1.51"/><path d="M439,617L274,699L449,793Z" fill="#1ee000" stroke="#1ee000" stroke-width="1.51"/><path d="M127,417L274,699L439,617Z" fill="#1fd100" stroke="#1fd100" stroke-width="1.51"/><path d="M708,555L688,237L535,499Z" fill="#1edf00" stroke="#1edf00" stroke-width="1.51"/><path d="M728,643L868,486L708,555Z" fill="#1def00" stroke="#1def00" stroke-width="1.51"/><path d="M449,793L441,933L527,772Z" fill="#27eb00" stroke="#27eb00" stroke-width="1.51"/><path d="M527,772L857,854L728,643Z" fill="#1cf800" stroke="#1cf800" stroke-width="1.51"/><path d="M274,699L441,933L449,793Z" fill="#23e500" stroke="#23e500" stroke-width="1.51"/><path d="M728,643L1001,532L868,486Z" fill="#2bf000" stroke="#2bf000" stroke-width="1.51"/><path d="M577,997L857,854L527,772Z" fill="#2df600" stroke="#2df600" stroke-width="1.51"/><path d="M535,499L419,324L439,617Z" fill="#1fd700" stroke="#1fd700" stroke-width="1.51"/><path d="M688,237L419,324L535,499Z" fill="#1fd400" stroke="#1fd400" stroke-width="1.51"/><path d="M441,933L577,997L527,772Z" fill="#30ed00" stroke="#30ed00" stroke-width="1.51"/><path d="M868,486L688,237L708,555Z" fill="#1ee600" stroke="#1ee600" stroke-width="1.51"/><path d="M868,486L810,183L688,237Z" fill="#20e000" stroke="#20e000" stroke-width="1.51"/><path d="M857,854L1001,532L728,643Z" fill="#2bf800" stroke="#2bf800" stroke-width="1.51"/><path d="M577,997L830,997L857,854Z" fill="#37fe00" stroke="#37fe00" stroke-width="1.51"/><path d="M857,854L995,873L1001,532Z" fill="#37fd00" stroke="#37fd00" stroke-width="1.51"/><path d="M830,997L995,873L857,854Z" fill="#40ff00" stroke="#40ff00" stroke-width="1.51"/><path d="M419,324L127,417L439,617Z" fill="#1fcc00" stroke="#1fcc00" stroke-width="1.51"/><path d="M688,237L444,157L419,324Z" fill="#1fcb00" stroke="#1fcb00" stroke-width="1.51"/><path d="M57,316L127,417L136,177Z" fill="#1bb101" stroke="#1bb101" stroke-width="1.51"/><path d="M688,237L535,-32L444,157Z" fill="#1cc301" stroke="#1cc301" stroke-width="1.51"/><path d="M1077,425L810,183L868,486Z" fill="#32e400" stroke="#32e400" stroke-width="1.51"/><path d="M274,699L85,781L441,933Z" fill="#22de00" stroke="#22de00" stroke-width="1.51"/><path d="M441,933L544,1228L577,997Z" fill="#41ee00" stroke="#41ee00" stroke-width="1.51"/><path d="M39,558L85,781L274,699Z" fill="#1ccb01" stroke="#1ccb01" stroke-width="1.51"/><path d="M1001,532L1077,425L868,486Z" fill="#3aeb00" stroke="#3aeb00" stroke-width="1.51"/><path d="M1339,590L1077,425L1001,532Z" fill="#48ed00" stroke="#48ed00" stroke-width="1.51"/><path d="M127,417L39,558L274,699Z" fill="#1cc501" stroke="#1cc501" stroke-width="1.51"/><path d="M85,781L49,836L441,933Z" fill="#28d800" stroke="#28d800" stroke-width="1.51"/><path d="M-224,753L49,836L85,781Z" fill="#17c202" stroke="#17c202" stroke-width="1.51"/><path d="M577,997L544,1228L830,997Z" fill="#44f600" stroke="#44f600" stroke-width="1.51"/><path d="M830,997L1064,1001L995,873Z" fill="#4bff00" stroke="#4bff00" stroke-width="1.51"/><path d="M304,1206L544,1228L441,933Z" fill="#46e800" stroke="#46e800" stroke-width="1.51"/><path d="M995,873L1339,590L1001,532Z" fill="#47f800" stroke="#47f800" stroke-width="1.51"/><path d="M911,1198L1064,1001L830,997Z" fill="#52ff00" stroke="#52ff00" stroke-width="1.51"/><path d="M136,177L127,417L419,324Z" fill="#1fbd00" stroke="#1fbd00" stroke-width="1.51"/><path d="M127,417L57,316L39,558Z" fill="#1ab601" stroke="#1ab601" stroke-width="1.51"/><path d="M90,1104L304,1206L441,933Z" fill="#41de00" stroke="#41de00" stroke-width="1.51"/><path d="M444,157L136,177L419,324Z" fill="#1fbe00" stroke="#1fbe00" stroke-width="1.51"/><path d="M544,1228L911,1198L830,997Z" fill="#4bfe00" stroke="#4bfe00" stroke-width="1.51"/><path d="M1077,425L1082,195L810,183Z" fill="#39de00" stroke="#39de00" stroke-width="1.51"/><path d="M850,19L535,-32L688,237Z" fill="#1ac601" stroke="#1ac601" stroke-width="1.51"/><path d="M444,157L228,-117L136,177Z" fill="#1aac01" stroke="#1aac01" stroke-width="1.51"/><path d="M850,19L688,237L810,183Z" fill="#1cd301" stroke="#1cd301" stroke-width="1.51"/><path d="M1082,195L850,19L810,183Z" fill="#2ed201" stroke="#2ed201" stroke-width="1.51"/><path d="M49,836L90,1104L441,933Z" fill="#34d800" stroke="#34d800" stroke-width="1.51"/><path d="M49,836L-79,957L90,1104Z" fill="#30c702" stroke="#30c702" stroke-width="1.51"/><path d="M-224,753L-79,957L49,836Z" fill="#1fbc02" stroke="#1fbc02" stroke-width="1.51"/><path d="M-224,753L85,781L39,558Z" fill="#16bd02" stroke="#16bd02" stroke-width="1.51"/><path d="M50,1271L145,1231L90,1104Z" fill="#46ce01" stroke="#46ce01" stroke-width="1.51"/><path d="M90,1104L145,1231L304,1206Z" fill="#47d600" stroke="#47d600" stroke-width="1.51"/><path d="M304,1206L50,1271L544,1228Z" fill="#4de000" stroke="#4de000" stroke-width="1.51"/><path d="M1334,889L1339,590L995,873Z" fill="#52ff00" stroke="#52ff00" stroke-width="1.51"/><path d="M1077,425L1303,358L1082,195Z" fill="#47e100" stroke="#47e100" stroke-width="1.51"/><path d="M1339,590L1303,358L1077,425Z" fill="#50ea00" stroke="#50ea00" stroke-width="1.51"/><path d="M1082,195L1153,44L850,19Z" fill="#38cd01" stroke="#38cd01" stroke-width="1.51"/><path d="M535,-32L434,-124L444,157Z" fill="#18b201" stroke="#18b201" stroke-width="1.51"/><path d="M426,-197L434,-124L648,-221Z" fill="#11a202" stroke="#11a202" stroke-width="1.51"/><path d="M-213,408L-220,504L39,558Z" fill="#13a602" stroke="#13a602" stroke-width="1.51"/><path d="M136,177L-84,234L57,316Z" fill="#19a701" stroke="#19a701" stroke-width="1.51"/><path d="M-95,70L-84,234L136,177Z" fill="#169b02" stroke="#169b02" stroke-width="1.51"/><path d="M1064,1001L1307,929L995,873Z" fill="#56ff00" stroke="#56ff00" stroke-width="1.51"/><path d="M1163,1270L1307,929L1064,1001Z" fill="#64ff00" stroke="#64ff00" stroke-width="1.51"/><path d="M1307,929L1334,889L995,873Z" fill="#5aff00" stroke="#5aff00" stroke-width="1.51"/><path d="M-213,408L39,558L57,316Z" fill="#17ab01" stroke="#17ab01" stroke-width="1.51"/><path d="M-220,504L-224,753L39,558Z" fill="#13ad02" stroke="#13ad02" stroke-width="1.51"/><path d="M648,-221L434,-124L535,-32Z" fill="#13aa02" stroke="#13aa02" stroke-width="1.51"/><path d="M1310,184L1153,44L1082,195Z" fill="#46d301" stroke="#46d301" stroke-width="1.51"/><path d="M-84,234L-213,408L57,316Z" fill="#15a001" stroke="#15a001" stroke-width="1.51"/><path d="M145,1231L50,1271L304,1206Z" fill="#4bd501" stroke="#4bd501" stroke-width="1.51"/><path d="M544,1228L1091,1299L911,1198Z" fill="#58ff00" stroke="#58ff00" stroke-width="1.51"/><path d="M-185,1259L50,1271L90,1104Z" fill="#43c302" stroke="#43c302" stroke-width="1.51"/><path d="M-185,1259L90,1104L-79,957Z" fill="#3abf02" stroke="#3abf02" stroke-width="1.51"/><path d="M434,-124L228,-117L444,157Z" fill="#17a901" stroke="#17a901" stroke-width="1.51"/><path d="M911,1198L1091,1299L1064,1001Z" fill="#60ff00" stroke="#60ff00" stroke-width="1.51"/><path d="M1307,929L1163,1270L1334,889Z" fill="#67ff00" stroke="#67ff00" stroke-width="1.51"/><path d="M50,1271L1091,1299L544,1228Z" fill="#53f000" stroke="#53f000" stroke-width="1.51"/><path d="M434,-124L426,-197L228,-117Z" fill="#139d02" stroke="#139d02" stroke-width="1.51"/><path d="M648,-221L535,-32L850,19Z" fill="#14b702" stroke="#14b702" stroke-width="1.51"/><path d="M1303,358L1310,184L1082,195Z" fill="#4ddc00" stroke="#4ddc00" stroke-width="1.51"/><path d="M1339,590L1310,184L1303,358Z" fill="#54e500" stroke="#54e500" stroke-width="1.51"/><path d="M-224,753L-222,932L-79,957Z" fill="#20b402" stroke="#20b402" stroke-width="1.51"/><path d="M1091,1299L1163,1270L1064,1001Z" fill="#67ff00" stroke="#67ff00" stroke-width="1.51"/><path d="M914,-264L648,-221L850,19Z" fill="#15b602" stroke="#15b602" stroke-width="1.51"/><path d="M1153,44L1106,-49L850,19Z" fill="#36c502" stroke="#36c502" stroke-width="1.51"/><path d="M1106,-220L1106,-49L1330,-275Z" fill="#3bb302" stroke="#3bb302" stroke-width="1.51"/><path d="M-84,234L-266,186L-213,408Z" fill="#129402" stroke="#129402" stroke-width="1.51"/><path d="M228,-117L-95,70L136,177Z" fill="#169a01" stroke="#169a01" stroke-width="1.51"/><path d="M228,-117L-91,-202L-95,70Z" fill="#0f8702" stroke="#0f8702" stroke-width="1.51"/><path d="M426,-197L188,-223L228,-117Z" fill="#129502" stroke="#129502" stroke-width="1.51"/><path d="M648,-221L188,-223L426,-197Z" fill="#119a02" stroke="#119a02" stroke-width="1.51"/><path d="M648,-221L914,-264L188,-223Z" fill="#0fa202" stroke="#0fa202" stroke-width="1.51"/><path d="M1106,-49L914,-264L850,19Z" fill="#2bbb02" stroke="#2bbb02" stroke-width="1.51"/><path d="M-95,70L-266,186L-84,234Z" fill="#128f02" stroke="#128f02" stroke-width="1.51"/><path d="M-213,408L-266,186L-220,504Z" fill="#119502" stroke="#119502" stroke-width="1.51"/><path d="M-220,504L-266,186L-224,753Z" fill="#0f9c02" stroke="#0f9c02" stroke-width="1.51"/><path d="M-224,753L-266,186L-222,932Z" fill="#0ea402" stroke="#0ea402" stroke-width="1.51"/><path d="M-222,-118L-266,186L-95,70Z" fill="#0c8002" stroke="#0c8002" stroke-width="1.51"/><path d="M-222,932L-185,1259L-79,957Z" fill="#32b502" stroke="#32b502" stroke-width="1.51"/><path d="M1106,-49L1106,-220L914,-264Z" fill="#31b402" stroke="#31b402" stroke-width="1.51"/><path d="M1330,-275L1106,-49L1153,44Z" fill="#3fbc02" stroke="#3fbc02" stroke-width="1.51"/><path d="M188,-223L-91,-202L228,-117Z" fill="#0f8702" stroke="#0f8702" stroke-width="1.51"/><path d="M-91,-202L-222,-118L-95,70Z" fill="#0a7a02" stroke="#0a7a02" stroke-width="1.51"/><path d="M1106,-220L1330,-275L914,-264Z" fill="#35ad02" stroke="#35ad02" stroke-width="1.51"/><path d="M1310,184L1330,-275L1153,44Z" fill="#47c302" stroke="#47c302" stroke-width="1.51"/><path d="M1339,590L1330,-275L1310,184Z" fill="#51d501" stroke="#51d501" stroke-width="1.51"/><path d="M-222,-118L-316,-250L-266,186Z" fill="#077002" stroke="#077002" stroke-width="1.51"/><path d="M-266,186L-316,-250L-222,932Z" fill="#0f8d02" stroke="#0f8d02" stroke-width="1.51"/><path d="M-91,-202L-316,-250L-222,-118Z" fill="#056a02" stroke="#056a02" stroke-width="1.51"/><path d="M188,-223L-316,-250L-91,-202Z" fill="#087302" stroke="#087302" stroke-width="1.51"/><path d="M914,-264L-316,-250L188,-223Z" fill="#108e02" stroke="#108e02" stroke-width="1.51"/><path d="M1330,-275L-316,-250L914,-264Z" fill="#0da302" stroke="#0da302" stroke-width="1.51"/></svg>