<svg xmlns="http://www.w3.org/2000/svg" width="1000" height="1000"><path d="M535,499L439,617L728,643Z" fill="#1ea8ff" stroke="#1ea8ff" stroke-width="1.51"/><path d="M439,617L527,772L728,643Z" fill="#1caeff" stroke="#1caeff" stroke-width="1.51"/><path d="M728,643L708,555L535,499Z" fill="#1cadff" stroke="#1cadff" stroke-width="1.51"/><path d="M439,617L449,793L527,772Z" fill="#1dabff" stroke="#1dabff" stroke-width="1.51"/><path d="M439,617L274,699L449,793Z" fill="#1ea4ff" stroke="#1ea4ff" stroke-width="1.51"/><path d="M127,417L274,699L439,617Z" fill="#1d93ff" stroke="#1d93ff" stroke-width="1.51"/><path d="M708,555L688,237L535,499Z" fill="#1ea3ff" stroke="#1ea3ff" stroke-width="1.51"/><path d="M728,643L868,486L708,555Z" fill="#18b4ff" stroke="#18b4ff" stroke-width="1.51"/><path d="M449,793L441,933L527,772Z" fill="#1eb2ff" stroke="#1eb2ff" stroke-width="1.51"/><path d="M527,772L857,854L728,643Z" fill="#0fbeff" stroke="#0fbeff" stroke-width="1.51"/><path d="M274,699L441,933L449,793Z" fill="#1fabff" stroke="#1fabff" stroke-width="1.51"/><path d="M728,643L1001,532L868,486Z" fill="#1cb9ff" stroke="#1cb9ff" stroke-width="1.51"/><path d="M577,997L857,854L527,772Z" fill="#17c1ff" stroke="#17c1ff" stroke-width="1.51"/><path d="M535,499L419,324L439,617Z" fill="#1e99ff" stroke="#1e99ff" stroke-width="1.51"/><path d="M688,237L419,324L535,499Z" fill="#1d96ff" stroke="#1d96ff" stroke-width="1.51"/><path d="M441,933L577,997L527,772Z" fill="#1fb8ff" stroke="#1fb8ff" stroke-width="1.51"/><path d="M868,486L688,237L708,555Z" fill="#1daaff" stroke="#1daaff" stroke-width="1.51"/><path d="M868,486L810,183L688,237Z" fill="#1fa4ff" stroke="#1fa4ff" stroke-width="1.51"/><path d="M857,854L1001,532L728,643Z" fill="#14c1ff" stroke="#14c1ff" stroke-width="1.51"/><path d="M577,997L830,997L857,854Z" fill="#0fcbff" stroke="#0fcbff" stroke-width="1.51"/><path d="M857,854L995,873L1001,532Z" fill="#10cbff" stroke="#10cbff" stroke-width="1.51"/><path d="M830,997L995,873L857,854Z" fill="#0ed1ff" stroke="#0ed1ff" stroke-width="1.51"/><path d="M419,324L127,417L439,617Z" fill="#1b8eff" stroke="#1b8eff" stroke-width="1.51"/><path d="M688,237L444,157L419,324Z" fill="#1a8dff" stroke="#1a8dff" stroke-width="1.51"/><path d="M57,316L127,417L136,177Z" fill="#1774ff" stroke="#1774ff" stroke-width="1.51"/><path d="M688,237L535,-32L444,157Z" fill="#2487ff" stroke="#2487ff" stroke-width="1.51"/><path d="M1077,425L810,183L868,486Z" fill="#25aeff" stroke="#25aeff" stroke-width="1.51"/><path d="M274,699L85,781L441,933Z" fill="#20a2ff" stroke="#20a2ff" stroke-width="1.51"/><path d="M441,933L544,1228L577,997Z" fill="#25c0ff" stroke="#25c0ff" stroke-width="1.51"/><path d="M39,558L85,781L274,699Z" fill="#2790ff" stroke="#2790ff" stroke-width="1.51"/><path d="M1001,532L1077,425L868,486Z" fill="#25baff" stroke="#25baff" stroke-width="1.51"/><path d="M1339,590L1077,425L1001,532Z" fill="#28c5fe" stroke="#28c5fe" stroke-width="1.51"/><path d="M127,417L39,558L274,699Z" fill="#2289ff" stroke="#2289ff" stroke-width="1.51"/><path d="M85,781L49,836L441,933Z" fill="#269fff" stroke="#269fff" stroke-width="1.51"/><path d="M-224,753L49,836L85,781Z" fill="#348dff" stroke="#348dff" stroke-width="1.51"/><path d="M577,997L544,1228L830,997Z" fill="#1ecbff" stroke="#1ecbff" stroke-width="1.51"/><path d="M830,997L1064,1001L995,873Z" fill="#11d7fe" stroke="#11d7fe" stroke-width="1.51"/><path d="M304,1206L544,1228L441,933Z" fill="#2bbeff" stroke="#2bbeff" stroke-width="1.51"/><path d="M995,873L1339,590L1001,532Z" fill="#1ecefe" stroke="#1ecefe" stroke-width="1.51"/><path d="M911,1198L1064,1001L830,997Z" fill="#12dbfe" stroke="#12dbfe" stroke-width="1.51"/><path d="M136,177L127,417L419,324Z" fill="#0d7dff" stroke="#0d7dff" stroke-width="1.51"/><path d="M127,417L57,316L39,558Z" fill="#227bff" stroke="#227bff" stroke-width="1.51"/><path d="M90,1104L304,1206L441,933Z" fill="#2eb1ff" stroke="#2eb1ff" stroke-width="1.51"/><path d="M444,157L136,177L419,324Z" fill="#0f7eff" stroke="#0f7eff" stroke-width="1.51"/><path d="M544,1228L911,1198L830,997Z" fill="#14d6fe" stroke="#14d6fe" stroke-width="1.51"/><path d="M1077,425L1082,195L810,183Z" fill="#2aabff" stroke="#2aabff" stroke-width="1.51"/><path d="M850,19L535,-32L688,237Z" fill="#2b8dff" stroke="#2b8dff" stroke-width="1.51"/><path d="M444,157L228,-117L136,177Z" fill="#176fff" stroke="#176fff" stroke-width="1.51"/><path d="M850,19L688,237L810,183Z" fill="#2798ff" stroke="#2798ff" stroke-width="1.51"/><path d="M1082,195L850,19L810,183Z" fill="#309eff" stroke="#309eff" stroke-width="1.51"/><path d="M49,836L90,1104L441,933Z" fill="#2ca4ff" stroke="#2ca4ff" stroke-width="1.51"/><path d="M49,836L-79,957L90,1104Z" fill="#3a99ff" stroke="#3a99ff" stroke-width="1.51"/><path d="M-224,753L-79,957L49,836Z" fill="#3a8cff" stroke="#3a8cff" stroke-width="1.51"/><path d="M-224,753L85,781L39,558Z" fill="#3286ff" stroke="#3286ff" stroke-width="1.51"/><path d="M50,1271L145,1231L90,1104Z" fill="#3eaaff" stroke="#3eaaff" stroke-width="1.51"/><path d="M90,1104L145,1231L304,1206Z" fill="#37aeff" stroke="#37aeff" stroke-width="1.51"/><path d="M304,1206L50,1271L544,1228Z" fill="#33baff" stroke="#33baff" stroke-width="1.51"/><path d="M1334,889L1339,590L995,873Z" fill="#13dcfe" stroke="#13dcfe" stroke-width="1.51"/><path d="M1077,425L1303,358L1082,195Z" fill="#2fb7ff" stroke="#2fb7ff" stroke-width="1.51"/><path d="M1339,590L1303,358L1077,425Z" fill="#2dc5ff" stroke="#2dc5ff" stroke-width="1.51"/><path d="M1082,195L1153,44L850,19Z" fill="#38a1ff" stroke="#38a1ff" stroke-width="1.51"/><path d="M535,-32L434,-124L444,157Z" fill="#2878ff" stroke="#2878ff" stroke-width="1.51"/><path d="M426,-197L434,-124L648,-221Z" fill="#306eff" stroke="#306eff" stroke-width="1.51"/><path d="M-213,408L-220,504L39,558Z" fill="#2e70ff" stroke="#2e70ff" stroke-width="1.51"/><path d="M136,177L-84,234L57,316Z" fill="#166aff" stroke="#166aff" stroke-width="1.51"/><path d="M-95,70L-84,234L136,177Z" fill="#1860ff" stroke="#1860ff" stroke-width="1.51"/><path d="M1064,1001L1307,929L995,873Z" fill="#13defe" stroke="#13defe" stroke-width="1.51"/><path d="M1163,1270L1307,929L1064,1001Z" fill="#13e8fe" stroke="#13e8fe" stroke-width="1.51"/><path d="M1307,929L1334,889L995,873Z" fill="#13e1fe" stroke="#13e1fe" stroke-width="1.51"/><path d="M-213,408L39,558L57,316Z" fill="#2772ff" stroke="#2772ff" stroke-width="1.51"/><path d="M-220,504L-224,753L39,558Z" fill="#3378ff" stroke="#3378ff" stroke-width="1.51"/><path d="M648,-221L434,-124L535,-32Z" fill="#3074ff" stroke="#3074ff" stroke-width="1.51"/><path d="M1310,184L1153,44L1082,195Z" fill="#39acff" stroke="#39acff" stroke-width="1.51"/><path d="M-84,234L-213,408L57,316Z" fill="#2267ff" stroke="#2267ff" stroke-width="1.51"/><path d="M145,1231L50,1271L304,1206Z" fill="#39b0ff" stroke="#39b0ff" stroke-width="1.51"/><path d="M544,1228L1091,1299L911,1198Z" fill="#13e0fe" stroke="#13e0fe" stroke-width="1.51"/><path d="M-185,1259L50,1271L90,1104Z" fill="#45a2ff" stroke="#45a2ff" stroke-width="1.51"/><path d="M-185,1259L90,1104L-79,957Z" fill="#449bff" stroke="#449bff" stroke-width="1.51"/><path d="M434,-124L228,-117L444,157Z" fill="#246fff" stroke="#246fff" stroke-width="1.51"/><path d="M911,1198L1091,1299L1064,1001Z" fill="#13e5fe" stroke="#13e5fe" stroke-width="1.51"/><path d="M1307,929L1163,1270L1334,889Z" fill="#12ebfe" stroke="#12ebfe" stroke-width="1.51"/><path d="M50,1271L1091,1299L544,1228Z" fill="#29cefe" stroke="#29cefe" stroke-width="1.51"/><path d="M434,-124L426,-197L228,-117Z" fill="#2766ff" stroke="#2766ff" stroke-width="1.51"/><path d="M648,-221L535,-32L850,19Z" fill="#3381ff" stroke="#3381ff" stroke-width="1.51"/><path d="M1303,358L1310,184L1082,195Z" fill="#34b6ff" stroke="#34b6ff" stroke-width="1.51"/><path d="M1339,590L1310,184L1303,358Z" fill="#33c4fe" stroke="#33c4fe" stroke-width="1.51"/><path d="M-224,753L-222,932L-79,957Z" fill="#3f87ff" stroke="#3f87ff" stroke-width="1.51"/><path d="M1091,1299L1163,1270L1064,1001Z" fill="#12eafe" stroke="#12eafe" stroke-width="1.51"/><path d="M914,-264L648,-221L850,19Z" fill="#3a84ff" stroke="#3a84ff" stroke-width="1.51"/><path d="M1153,44L1106,-49L850,19Z" fill="#3e9bff" stroke="#3e9bff" stroke-width="1.51"/><path d="M1106,-220L1106,-49L1330,-275Z" fill="#4c95ff" stroke="#4c95ff" stroke-width="1.51"/><path d="M-84,234L-266,186L-213,408Z" fill="#215cff" stroke="#215cff" stroke-width="1.51"/><path d="M228,-117L-95,70L136,177Z" fill="#1960ff" stroke="#1960ff" stroke-width="1.51"/><path d="M228,-117L-91,-202L-95,70Z" fill="#1c50ff" stroke="#1c50ff" stroke-width="1.51"/><path d="M426,-197L188,-223L228,-117Z" fill="#215dff" stroke="#215dff" stroke-width="1.51"/><path d="M648,-221L188,-223L426,-197Z" fill="#2c65ff" stroke="#2c65ff" stroke-width="1.51"/><path d="M648,-221L914,-264L188,-223Z" fill="#356fff" stroke="#356fff" stroke-width="1.51"/><path d="M1106,-49L914,-264L850,19Z" fill="#4090ff" stroke="#4090ff" stroke-width="1.51"/><path d="M-95,70L-266,186L-84,234Z" fill="#1c57ff" stroke="#1c57ff" stroke-width="1.51"/><path d="M-213,408L-266,186L-220,504Z" fill="#2960ff" stroke="#2960ff" stroke-width="1.51"/><path d="M-220,504L-266,186L-224,753Z" fill="#3068ff" stroke="#3068ff" stroke-width="1.51"/><path d="M-224,753L-266,186L-222,932Z" fill="#3772ff" stroke="#3772ff" stroke-width="1.51"/><path d="M-222,-118L-266,186L-95,70Z" fill="#1c4aff" stroke="#1c4aff" stroke-width="1.51"/><path d="M-222,932L-185,1259L-79,957Z" fill="#4790ff" stroke="#4790ff" stroke-width="1.51"/><path d="M1106,-49L1106,-220L914,-264Z" fill="#478fff" stroke="#478fff" stroke-width="1.51"/><path d="M1330,-275L1106,-49L1153,44Z" fill="#499cff" stroke="#499cff" stroke-width="1.51"/><path d="M188,-223L-91,-202L228,-117Z" fill="#1c50ff" stroke="#1c50ff" stroke-width="1.51"/><path d="M-91,-202L-222,-118L-95,70Z" fill="#1b43ff" stroke="#1b43ff" stroke-width="1.51"/><path d="M1106,-220L1330,-275L914,-264Z" fill="#4d8dff" stroke="#4d8dff" stroke-width="1.51"/><path d="M1310,184L1330,-275L1153,44Z" fill="#47a5ff" stroke="#47a5ff" stroke-width="1.51"/><path d="M1339,590L1330,-275L1310,184Z" fill="#3cb5ff" stroke="#3cb5ff" stroke-width="1.51"/><path d="M-222,-118L-316,-250L-266,186Z" fill="#1939ff" stroke="#1939ff" stroke-width="1.51"/><path d="M-266,186L-316,-250L-222,932Z" fill="#2357ff" stroke="#2357ff" stroke-width="1.51"/><path d="M-91,-202L-316,-250L-222,-118Z" fill="#1732ff" stroke="#1732ff" stroke-width="1.51"/><path d="M188,-223L-316,-250L-91,-202Z" fill="#1a3cff" stroke="#1a3cff" stroke-width="1.51"/><path d="M914,-264L-316,-250L188,-223Z" fill="#2057ff" stroke="#2057ff" stroke-width="1.51"/><path d="M1330,-275L-316,-250L914,-264Z" fill="#3972ff" stroke="#3972ff" stroke-width="1.51"/></svg>