<svg xmlns="http://www.w3.org/2000/svg" width="3840" height="3072"><path d="M1791,1525L1662,1725L2236,1861Z" fill="#ffc041" stroke="#ffc041" stroke-width="1.51"/><path d="M1662,1725L1826,2210L2236,1861Z" fill="#ffbd41" stroke="#ffbd41" stroke-width="1.51"/><path d="M1662,1725L1468,1886L1826,2210Z" fill="#ffc041" stroke="#ffc041" stroke-width="1.51"/><path d="M1128,1681L1468,1886L1662,1725Z" fill="#ffc540" stroke="#ffc540" stroke-width="1.51"/><path d="M2236,1861L2220,1325L1791,1525Z" fill="#ffc041" stroke="#ffc041" stroke-width="1.51"/><path d="M1826,2210L2115,2277L2236,1861Z" fill="#ffb942" stroke="#ffb942" stroke-width="1.51"/><path d="M1468,1886L1437,1947L1826,2210Z" fill="#ffc041" stroke="#ffc041" stroke-width="1.51"/><path d="M2236,1861L2413,1348L2220,1325Z" fill="#ffbe41" stroke="#ffbe41" stroke-width="1.51"/><path d="M2512,2232L2574,1786L2236,1861Z" fill="#ffb642" stroke="#ffb642" stroke-width="1.51"/><path d="M2574,1786L2413,1348L2236,1861Z" fill="#ffba42" stroke="#ffba42" stroke-width="1.51"/><path d="M1826,2210L2157,2646L2115,2277Z" fill="#ffb542" stroke="#ffb542" stroke-width="1.51"/><path d="M1437,1947L1580,2386L1826,2210Z" fill="#ffbd41" stroke="#ffbd41" stroke-width="1.51"/><path d="M2115,2277L2512,2232L2236,1861Z" fill="#ffb642" stroke="#ffb642" stroke-width="1.51"/><path d="M2402,2634L2512,2232L2115,2277Z" fill="#ffb243" stroke="#ffb243" stroke-width="1.51"/><path d="M1186,1158L1128,1681L1662,1725Z" fill="#ffc93f" stroke="#ffc93f" stroke-width="1.51"/><path d="M1468,1886L1128,1681L1437,1947Z" fill="#ffc540" stroke="#ffc540" stroke-width="1.51"/><path d="M1437,1947L1409,2555L1580,2386Z" fill="#ffbd41" stroke="#ffbd41" stroke-width="1.51"/><path d="M1186,1158L1662,1725L1791,1525Z" fill="#ffc840" stroke="#ffc840" stroke-width="1.51"/><path d="M2220,1325L2189,972L1791,1525Z" fill="#ffc440" stroke="#ffc440" stroke-width="1.51"/><path d="M2387,1050L2189,972L2220,1325Z" fill="#ffc440" stroke="#ffc440" stroke-width="1.51"/><path d="M2413,1348L2387,1050L2220,1325Z" fill="#ffc141" stroke="#ffc141" stroke-width="1.51"/><path d="M2860,1414L2387,1050L2413,1348Z" fill="#ffbe41" stroke="#ffbe41" stroke-width="1.51"/><path d="M2189,972L1550,1015L1791,1525Z" fill="#ffc840" stroke="#ffc840" stroke-width="1.51"/><path d="M1580,2386L2157,2646L1826,2210Z" fill="#ffb742" stroke="#ffb742" stroke-width="1.51"/><path d="M2512,2232L2874,1976L2574,1786Z" fill="#ffb343" stroke="#ffb343" stroke-width="1.51"/><path d="M2574,1786L2860,1414L2413,1348Z" fill="#ffba41" stroke="#ffba41" stroke-width="1.51"/><path d="M2991,2394L2874,1976L2512,2232Z" fill="#ffaf43" stroke="#ffaf43" stroke-width="1.51"/><path d="M928,2308L1409,2555L1437,1947Z" fill="#ffc041" stroke="#ffc041" stroke-width="1.51"/><path d="M1580,2386L1769,2839L2157,2646Z" fill="#ffb442" stroke="#ffb442" stroke-width="1.51"/><path d="M2157,2646L2402,2634L2115,2277Z" fill="#ffb143" stroke="#ffb143" stroke-width="1.51"/><path d="M2935,1781L2860,1414L2574,1786Z" fill="#ffb642" stroke="#ffb642" stroke-width="1.51"/><path d="M2874,1976L2935,1781L2574,1786Z" fill="#ffb342" stroke="#ffb342" stroke-width="1.51"/><path d="M1550,1015L1186,1158L1791,1525Z" fill="#ffcb3f" stroke="#ffcb3f" stroke-width="1.51"/><path d="M1186,1158L932,1269L1128,1681Z" fill="#ffce3f" stroke="#ffce3f" stroke-width="1.51"/><path d="M1550,1015L1189,1020L1186,1158Z" fill="#ffd03e" stroke="#ffd03e" stroke-width="1.51"/><path d="M1202,680L1189,1020L1550,1015Z" fill="#ffd23e" stroke="#ffd23e" stroke-width="1.51"/><path d="M1409,2555L1769,2839L1580,2386Z" fill="#ffb842" stroke="#ffb842" stroke-width="1.51"/><path d="M2157,2646L2121,2887L2402,2634Z" fill="#ffae43" stroke="#ffae43" stroke-width="1.51"/><path d="M1769,2839L2121,2887L2157,2646Z" fill="#ffb043" stroke="#ffb043" stroke-width="1.51"/><path d="M1189,1020L932,1269L1186,1158Z" fill="#ffd13e" stroke="#ffd13e" stroke-width="1.51"/><path d="M1128,1681L928,2308L1437,1947Z" fill="#ffc540" stroke="#ffc540" stroke-width="1.51"/><path d="M1409,2555L1504,3081L1769,2839Z" fill="#ffb442" stroke="#ffb442" stroke-width="1.51"/><path d="M788,2200L928,2308L755,2144Z" fill="#ffc540" stroke="#ffc540" stroke-width="1.51"/><path d="M2935,1781L3122,1584L2860,1414Z" fill="#ffb542" stroke="#ffb542" stroke-width="1.51"/><path d="M2860,1414L2692,845L2387,1050Z" fill="#ffc040" stroke="#ffc040" stroke-width="1.51"/><path d="M3481,1805L3122,1584L2935,1781Z" fill="#ffb143" stroke="#ffb143" stroke-width="1.51"/><path d="M2387,1050L2262,609L2189,972Z" fill="#ffc73f" stroke="#ffc73f" stroke-width="1.51"/><path d="M2189,972L1691,578L1550,1015Z" fill="#ffcc3f" stroke="#ffcc3f" stroke-width="1.51"/><path d="M3240,1202L2692,845L2860,1414Z" fill="#ffbb41" stroke="#ffbb41" stroke-width="1.51"/><path d="M2692,845L2262,609L2387,1050Z" fill="#ffc640" stroke="#ffc640" stroke-width="1.51"/><path d="M2874,1976L3250,2243L2935,1781Z" fill="#ffaf43" stroke="#ffaf43" stroke-width="1.51"/><path d="M2402,2634L2991,2394L2512,2232Z" fill="#ffae43" stroke="#ffae43" stroke-width="1.51"/><path d="M2823,2988L2991,2394L2402,2634Z" fill="#ffa944" stroke="#ffa944" stroke-width="1.51"/><path d="M2262,609L1691,578L2189,972Z" fill="#ffcc3f" stroke="#ffcc3f" stroke-width="1.51"/><path d="M755,2144L928,2308L1128,1681Z" fill="#ffc63f" stroke="#ffc63f" stroke-width="1.51"/><path d="M554,1820L755,2144L1128,1681Z" fill="#ffca3f" stroke="#ffca3f" stroke-width="1.51"/><path d="M2121,2887L2358,2999L2402,2634Z" fill="#ffac43" stroke="#ffac43" stroke-width="1.51"/><path d="M1983,3255L2358,2999L2121,2887Z" fill="#ffaa43" stroke="#ffaa43" stroke-width="1.51"/><path d="M928,2308L1187,2850L1409,2555Z" fill="#ffbc41" stroke="#ffbc41" stroke-width="1.51"/><path d="M1769,2839L1983,3255L2121,2887Z" fill="#ffad43" stroke="#ffad43" stroke-width="1.51"/><path d="M988,2929L1187,2850L928,2308Z" fill="#ffbc41" stroke="#ffbc41" stroke-width="1.51"/><path d="M1691,578L1202,680L1550,1015Z" fill="#ffd23e" stroke="#ffd23e" stroke-width="1.51"/><path d="M920,828L706,1201L932,1269Z" fill="#ffd43d" stroke="#ffd43d" stroke-width="1.51"/><path d="M920,828L932,1269L1189,1020Z" fill="#ffd33e" stroke="#ffd33e" stroke-width="1.51"/><path d="M932,1269L554,1820L1128,1681Z" fill="#ffcd3f" stroke="#ffcd3f" stroke-width="1.51"/><path d="M1504,3081L1644,3113L1769,2839Z" fill="#ffb142" stroke="#ffb142" stroke-width="1.51"/><path d="M2991,2394L3250,2243L2874,1976Z" fill="#ffac43" stroke="#ffac43" stroke-width="1.51"/><path d="M3266,2431L3250,2243L2991,2394Z" fill="#ffa844" stroke="#ffa844" stroke-width="1.51"/><path d="M1187,2850L1504,3081L1409,2555Z" fill="#ffb742" stroke="#ffb742" stroke-width="1.51"/><path d="M1202,680L920,828L1189,1020Z" fill="#ffd53d" stroke="#ffd53d" stroke-width="1.51"/><path d="M639,2807L988,2929L928,2308Z" fill="#ffbe41" stroke="#ffbe41" stroke-width="1.51"/><path d="M470,2482L928,2308L788,2200Z" fill="#ffc540" stroke="#ffc540" stroke-width="1.51"/><path d="M706,1201L554,1820L932,1269Z" fill="#ffd13e" stroke="#ffd13e" stroke-width="1.51"/><path d="M3122,1584L3240,1202L2860,1414Z" fill="#ffb742" stroke="#ffb742" stroke-width="1.51"/><path d="M3481,1805L3240,1202L3122,1584Z" fill="#ffb242" stroke="#ffb242" stroke-width="1.51"/><path d="M2692,845L2736,596L2262,609Z" fill="#ffc63f" stroke="#ffc63f" stroke-width="1.51"/><path d="M2262,609L1883,350L1691,578Z" fill="#ffcf3e" stroke="#ffcf3e" stroke-width="1.51"/><path d="M3170,587L2736,596L2692,845Z" fill="#ffc340" stroke="#ffc340" stroke-width="1.51"/><path d="M2110,294L1883,350L2262,609Z" fill="#ffcf3e" stroke="#ffcf3e" stroke-width="1.51"/><path d="M1691,578L1203,76L1202,680Z" fill="#ffd73d" stroke="#ffd73d" stroke-width="1.51"/><path d="M2736,596L2437,406L2262,609Z" fill="#ffc93f" stroke="#ffc93f" stroke-width="1.51"/><path d="M3250,2243L3481,1805L2935,1781Z" fill="#ffad43" stroke="#ffad43" stroke-width="1.51"/><path d="M2823,2988L3266,2431L2991,2394Z" fill="#ffa644" stroke="#ffa644" stroke-width="1.51"/><path d="M1664,3634L1983,3255L1644,3113Z" fill="#ffab43" stroke="#ffab43" stroke-width="1.51"/><path d="M1644,3113L1983,3255L1769,2839Z" fill="#ffae43" stroke="#ffae43" stroke-width="1.51"/><path d="M2358,2999L2823,2988L2402,2634Z" fill="#ffa943" stroke="#ffa943" stroke-width="1.51"/><path d="M2437,406L2110,294L2262,609Z" fill="#ffcd3e" stroke="#ffcd3e" stroke-width="1.51"/><path d="M2517,3198L2823,2988L2358,2999Z" fill="#ffa544" stroke="#ffa544" stroke-width="1.51"/><path d="M1187,2850L1097,3261L1504,3081Z" fill="#ffb542" stroke="#ffb542" stroke-width="1.51"/><path d="M1504,3081L1664,3634L1644,3113Z" fill="#ffae43" stroke="#ffae43" stroke-width="1.51"/><path d="M470,2482L788,2200L755,2144Z" fill="#ffc740" stroke="#ffc740" stroke-width="1.51"/><path d="M3761,2117L3481,1805L3250,2243Z" fill="#ffa843" stroke="#ffa843" stroke-width="1.51"/><path d="M1983,3255L2517,3198L2358,2999Z" fill="#ffa743" stroke="#ffa743" stroke-width="1.51"/><path d="M1078,87L917,607L1202,680Z" fill="#ffdb3c" stroke="#ffdb3c" stroke-width="1.51"/><path d="M1202,680L917,607L920,828Z" fill="#ffd83d" stroke="#ffd83d" stroke-width="1.51"/><path d="M920,828L457,1040L706,1201Z" fill="#ffd73d" stroke="#ffd73d" stroke-width="1.51"/><path d="M3240,1202L3272,845L2692,845Z" fill="#ffbc41" stroke="#ffbc41" stroke-width="1.51"/><path d="M2736,596L2619,198L2437,406Z" fill="#ffc93f" stroke="#ffc93f" stroke-width="1.51"/><path d="M3763,889L3272,845L3240,1202Z" fill="#ffb842" stroke="#ffb842" stroke-width="1.51"/><path d="M554,1820L470,2482L755,2144Z" fill="#ffc93f" stroke="#ffc93f" stroke-width="1.51"/><path d="M554,720L457,1040L920,828Z" fill="#ffda3c" stroke="#ffda3c" stroke-width="1.51"/><path d="M706,1201L186,1219L554,1820Z" fill="#ffd43d" stroke="#ffd43d" stroke-width="1.51"/><path d="M554,1820L203,1846L470,2482Z" fill="#ffcc3f" stroke="#ffcc3f" stroke-width="1.51"/><path d="M470,2482L639,2807L928,2308Z" fill="#ffc240" stroke="#ffc240" stroke-width="1.51"/><path d="M2437,406L2619,198L2110,294Z" fill="#ffcd3f" stroke="#ffcd3f" stroke-width="1.51"/><path d="M3272,845L3170,587L2692,845Z" fill="#ffbf41" stroke="#ffbf41" stroke-width="1.51"/><path d="M2965,235L2619,198L2736,596Z" fill="#ffc83f" stroke="#ffc83f" stroke-width="1.51"/><path d="M616,3116L1097,3261L988,2929Z" fill="#ffb842" stroke="#ffb842" stroke-width="1.51"/><path d="M988,2929L1097,3261L1187,2850Z" fill="#ffb842" stroke="#ffb842" stroke-width="1.51"/><path d="M917,607L554,720L920,828Z" fill="#ffda3d" stroke="#ffda3d" stroke-width="1.51"/><path d="M186,1219L706,1201L457,1040Z" fill="#ffd83d" stroke="#ffd83d" stroke-width="1.51"/><path d="M186,1219L203,1846L554,1820Z" fill="#ffd33e" stroke="#ffd33e" stroke-width="1.51"/><path d="M3753,2411L3761,2117L3250,2243Z" fill="#ffa444" stroke="#ffa444" stroke-width="1.51"/><path d="M3378,3027L3498,2741L3266,2431Z" fill="#ffa044" stroke="#ffa044" stroke-width="1.51"/><path d="M3378,3027L3266,2431L2823,2988Z" fill="#ffa244" stroke="#ffa244" stroke-width="1.51"/><path d="M3170,587L2965,235L2736,596Z" fill="#ffc440" stroke="#ffc440" stroke-width="1.51"/><path d="M3753,2411L3250,2243L3266,2431Z" fill="#ffa544" stroke="#ffa544" stroke-width="1.51"/><path d="M3481,1805L3791,1183L3240,1202Z" fill="#ffb142" stroke="#ffb142" stroke-width="1.51"/><path d="M-53,959L186,1219L11,798Z" fill="#ffdf3b" stroke="#ffdf3b" stroke-width="1.51"/><path d="M1883,350L1203,76L1691,578Z" fill="#ffd63d" stroke="#ffd63d" stroke-width="1.51"/><path d="M917,607L630,261L554,720Z" fill="#ffde3c" stroke="#ffde3c" stroke-width="1.51"/><path d="M1516,-342L1203,76L1883,350Z" fill="#ffdb3c" stroke="#ffdb3c" stroke-width="1.51"/><path d="M1867,-308L1883,350L2110,294Z" fill="#ffd53d" stroke="#ffd53d" stroke-width="1.51"/><path d="M1197,3618L1664,3634L1504,3081Z" fill="#ffad43" stroke="#ffad43" stroke-width="1.51"/><path d="M1983,3255L2189,3713L2517,3198Z" fill="#ffa543" stroke="#ffa543" stroke-width="1.51"/><path d="M2988,3404L3378,3027L2823,2988Z" fill="#ff9e44" stroke="#ff9e44" stroke-width="1.51"/><path d="M639,2807L616,3116L988,2929Z" fill="#ffbc42" stroke="#ffbc42" stroke-width="1.51"/><path d="M1097,3261L1197,3618L1504,3081Z" fill="#ffb142" stroke="#ffb142" stroke-width="1.51"/><path d="M329,2813L616,3116L639,2807Z" fill="#ffc040" stroke="#ffc040" stroke-width="1.51"/><path d="M329,2813L639,2807L470,2482Z" fill="#ffc340" stroke="#ffc340" stroke-width="1.51"/><path d="M2988,3404L2823,2988L2517,3198Z" fill="#ffa144" stroke="#ffa144" stroke-width="1.51"/><path d="M3498,2741L3753,2411L3266,2431Z" fill="#ffa244" stroke="#ffa244" stroke-width="1.51"/><path d="M1203,76L1078,87L1202,680Z" fill="#ffdb3c" stroke="#ffdb3c" stroke-width="1.51"/><path d="M3905,2994L3753,2411L3498,2741Z" fill="#ff9c45" stroke="#ff9c45" stroke-width="1.51"/><path d="M3272,845L3538,522L3170,587Z" fill="#ffbd41" stroke="#ffbd41" stroke-width="1.51"/><path d="M3170,587L3445,269L2965,235Z" fill="#ffc340" stroke="#ffc340" stroke-width="1.51"/><path d="M3954,1425L3791,1183L3481,1805Z" fill="#ffad43" stroke="#ffad43" stroke-width="1.51"/><path d="M3954,1425L3481,1805L3761,2117Z" fill="#ffa943" stroke="#ffa943" stroke-width="1.51"/><path d="M99,2476L329,2813L470,2482Z" fill="#ffc640" stroke="#ffc640" stroke-width="1.51"/><path d="M2874,3597L2988,3404L2517,3198Z" fill="#ff9d44" stroke="#ff9d44" stroke-width="1.51"/><path d="M2619,198L2472,-110L2110,294Z" fill="#ffcf3e" stroke="#ffcf3e" stroke-width="1.51"/><path d="M1203,76L809,-240L1078,87Z" fill="#ffe13b" stroke="#ffe13b" stroke-width="1.51"/><path d="M2986,-148L2472,-110L2619,198Z" fill="#ffce3f" stroke="#ffce3f" stroke-width="1.51"/><path d="M1664,3634L2189,3713L1983,3255Z" fill="#ffa644" stroke="#ffa644" stroke-width="1.51"/><path d="M203,1846L45,2198L470,2482Z" fill="#ffcc3f" stroke="#ffcc3f" stroke-width="1.51"/><path d="M-263,1895L45,2198L203,1846Z" fill="#ffd23e" stroke="#ffd23e" stroke-width="1.51"/><path d="M1664,3634L1197,3618L2189,3713Z" fill="#ffa843" stroke="#ffa843" stroke-width="1.51"/><path d="M529,3464L1141,3568L1097,3261Z" fill="#ffb442" stroke="#ffb442" stroke-width="1.51"/><path d="M2988,3404L3417,3098L3378,3027Z" fill="#ff9b45" stroke="#ff9b45" stroke-width="1.51"/><path d="M3378,3027L3417,3098L3498,2741Z" fill="#ff9c45" stroke="#ff9c45" stroke-width="1.51"/><path d="M45,2198L99,2476L470,2482Z" fill="#ffca3f" stroke="#ffca3f" stroke-width="1.51"/><path d="M1141,3568L1197,3618L1097,3261Z" fill="#ffb142" stroke="#ffb142" stroke-width="1.51"/><path d="M529,3464L1197,3618L1141,3568Z" fill="#ffb243" stroke="#ffb243" stroke-width="1.51"/><path d="M11,798L186,1219L457,1040Z" fill="#ffdd3c" stroke="#ffdd3c" stroke-width="1.51"/><path d="M1078,87L630,261L917,607Z" fill="#ffde3b" stroke="#ffde3b" stroke-width="1.51"/><path d="M3791,1183L3763,889L3240,1202Z" fill="#ffb442" stroke="#ffb442" stroke-width="1.51"/><path d="M3763,889L3538,522L3272,845Z" fill="#ffba41" stroke="#ffba41" stroke-width="1.51"/><path d="M2965,235L2986,-148L2619,198Z" fill="#ffca3f" stroke="#ffca3f" stroke-width="1.51"/><path d="M4205,1766L3954,1425L3761,2117Z" fill="#ffa643" stroke="#ffa643" stroke-width="1.51"/><path d="M3791,1183L3977,1092L3763,889Z" fill="#ffb242" stroke="#ffb242" stroke-width="1.51"/><path d="M3423,3651L3560,3192L3417,3098Z" fill="#ff9745" stroke="#ff9745" stroke-width="1.51"/><path d="M2659,3829L2874,3597L2517,3198Z" fill="#ff9d45" stroke="#ff9d45" stroke-width="1.51"/><path d="M2165,-324L1867,-308L2110,294Z" fill="#ffd73d" stroke="#ffd73d" stroke-width="1.51"/><path d="M1078,87L809,-240L630,261Z" fill="#ffe33a" stroke="#ffe33a" stroke-width="1.51"/><path d="M2472,-110L2165,-324L2110,294Z" fill="#ffd33d" stroke="#ffd33d" stroke-width="1.51"/><path d="M2590,-569L2165,-324L2472,-110Z" fill="#ffd53d" stroke="#ffd53d" stroke-width="1.51"/><path d="M3538,522L3445,269L3170,587Z" fill="#ffc041" stroke="#ffc041" stroke-width="1.51"/><path d="M3734,264L3445,269L3538,522Z" fill="#ffbf41" stroke="#ffbf41" stroke-width="1.51"/><path d="M4075,738L3734,264L3538,522Z" fill="#ffba41" stroke="#ffba41" stroke-width="1.51"/><path d="M3954,1425L3977,1092L3791,1183Z" fill="#ffaf43" stroke="#ffaf43" stroke-width="1.51"/><path d="M3423,3651L3417,3098L2988,3404Z" fill="#ff9845" stroke="#ff9845" stroke-width="1.51"/><path d="M3417,3098L3560,3192L3498,2741Z" fill="#ff9b45" stroke="#ff9b45" stroke-width="1.51"/><path d="M1856,-438L1516,-342L1867,-308Z" fill="#ffdd3b" stroke="#ffdd3b" stroke-width="1.51"/><path d="M1867,-308L1516,-342L1883,350Z" fill="#ffda3c" stroke="#ffda3c" stroke-width="1.51"/><path d="M-253,1265L-263,1895L203,1846Z" fill="#ffd73d" stroke="#ffd73d" stroke-width="1.51"/><path d="M11,798L457,1040L554,720Z" fill="#ffdd3b" stroke="#ffdd3b" stroke-width="1.51"/><path d="M56,535L11,798L554,720Z" fill="#ffe13b" stroke="#ffe13b" stroke-width="1.51"/><path d="M2874,3597L3423,3651L2988,3404Z" fill="#ff9845" stroke="#ff9845" stroke-width="1.51"/><path d="M2189,3713L2659,3829L2517,3198Z" fill="#ff9f44" stroke="#ff9f44" stroke-width="1.51"/><path d="M1197,3618L2659,3829L2189,3713Z" fill="#ffa344" stroke="#ffa344" stroke-width="1.51"/><path d="M3445,269L2986,-148L2965,235Z" fill="#ffc740" stroke="#ffc740" stroke-width="1.51"/><path d="M616,3116L529,3464L1097,3261Z" fill="#ffb842" stroke="#ffb842" stroke-width="1.51"/><path d="M129,3389L529,3464L616,3116Z" fill="#ffbb41" stroke="#ffbb41" stroke-width="1.51"/><path d="M99,2476L-39,2665L329,2813Z" fill="#ffc840" stroke="#ffc840" stroke-width="1.51"/><path d="M-389,2435L-39,2665L99,2476Z" fill="#ffcc3f" stroke="#ffcc3f" stroke-width="1.51"/><path d="M-389,2435L99,2476L45,2198Z" fill="#ffce3e" stroke="#ffce3e" stroke-width="1.51"/><path d="M2165,-324L1856,-438L1867,-308Z" fill="#ffdb3c" stroke="#ffdb3c" stroke-width="1.51"/><path d="M2106,-762L1856,-438L2165,-324Z" fill="#ffdc3c" stroke="#ffdc3c" stroke-width="1.51"/><path d="M129,3389L616,3116L329,2813Z" fill="#ffbf41" stroke="#ffbf41" stroke-width="1.51"/><path d="M-253,1265L203,1846L186,1219Z" fill="#ffd93d" stroke="#ffd93d" stroke-width="1.51"/><path d="M3954,1425L4274,1363L3977,1092Z" fill="#ffac43" stroke="#ffac43" stroke-width="1.51"/><path d="M4225,2494L4167,1964L3761,2117Z" fill="#ff9f44" stroke="#ff9f44" stroke-width="1.51"/><path d="M4302,2036L4167,1964L4225,2494Z" fill="#ff9e45" stroke="#ff9e45" stroke-width="1.51"/><path d="M4167,1964L4205,1766L3761,2117Z" fill="#ffa344" stroke="#ffa344" stroke-width="1.51"/><path d="M-53,959L-253,1265L186,1219Z" fill="#ffde3b" stroke="#ffde3b" stroke-width="1.51"/><path d="M-422,1133L-253,1265L-53,959Z" fill="#ffe03b" stroke="#ffe03b" stroke-width="1.51"/><path d="M-426,725L-422,1133L-53,959Z" fill="#ffe33a" stroke="#ffe33a" stroke-width="1.51"/><path d="M226,210L56,535L554,720Z" fill="#ffe33a" stroke="#ffe33a" stroke-width="1.51"/><path d="M226,210L554,720L630,261Z" fill="#ffe23b" stroke="#ffe23b" stroke-width="1.51"/><path d="M4302,2036L4249,1621L4205,1766Z" fill="#ffa244" stroke="#ffa244" stroke-width="1.51"/><path d="M4205,1766L4249,1621L3954,1425Z" fill="#ffa743" stroke="#ffa743" stroke-width="1.51"/><path d="M3560,3192L3905,2994L3498,2741Z" fill="#ff9945" stroke="#ff9945" stroke-width="1.51"/><path d="M4152,3242L3905,2994L3560,3192Z" fill="#ff9445" stroke="#ff9445" stroke-width="1.51"/><path d="M1516,-342L809,-240L1203,76Z" fill="#ffe13a" stroke="#ffe13a" stroke-width="1.51"/><path d="M820,-710L809,-240L1516,-342Z" fill="#ffe639" stroke="#ffe639" stroke-width="1.51"/><path d="M187,-37L226,210L630,261Z" fill="#ffe739" stroke="#ffe739" stroke-width="1.51"/><path d="M4075,738L3538,522L3763,889Z" fill="#ffb742" stroke="#ffb742" stroke-width="1.51"/><path d="M3445,269L3435,-242L2986,-148Z" fill="#ffc740" stroke="#ffc740" stroke-width="1.51"/><path d="M4075,738L3763,889L3977,1092Z" fill="#ffb342" stroke="#ffb342" stroke-width="1.51"/><path d="M-263,1895L-363,2187L45,2198Z" fill="#ffd33d" stroke="#ffd33d" stroke-width="1.51"/><path d="M-643,2148L-363,2187L-263,1895Z" fill="#ffd53d" stroke="#ffd53d" stroke-width="1.51"/><path d="M4249,1621L4274,1363L3954,1425Z" fill="#ffa943" stroke="#ffa943" stroke-width="1.51"/><path d="M4286,646L4075,738L4427,872Z" fill="#ffb143" stroke="#ffb143" stroke-width="1.51"/><path d="M4225,2494L3761,2117L3753,2411Z" fill="#ff9f44" stroke="#ff9f44" stroke-width="1.51"/><path d="M4167,1964L4302,2036L4205,1766Z" fill="#ffa144" stroke="#ffa144" stroke-width="1.51"/><path d="M4249,1621L4302,2036L4274,1363Z" fill="#ffa444" stroke="#ffa444" stroke-width="1.51"/><path d="M2106,-762L1527,-558L1856,-438Z" fill="#ffdf3b" stroke="#ffdf3b" stroke-width="1.51"/><path d="M1856,-438L1527,-558L1516,-342Z" fill="#ffe03b" stroke="#ffe03b" stroke-width="1.51"/><path d="M3905,2994L4208,2525L3753,2411Z" fill="#ff9a45" stroke="#ff9a45" stroke-width="1.51"/><path d="M4208,2525L4225,2494L3753,2411Z" fill="#ff9b44" stroke="#ff9b44" stroke-width="1.51"/><path d="M2659,3829L3423,3651L2874,3597Z" fill="#ff9745" stroke="#ff9745" stroke-width="1.51"/><path d="M2986,-148L2590,-569L2472,-110Z" fill="#ffd13e" stroke="#ffd13e" stroke-width="1.51"/><path d="M2834,-577L2590,-569L2986,-148Z" fill="#ffd23e" stroke="#ffd23e" stroke-width="1.51"/><path d="M-363,2187L-389,2435L45,2198Z" fill="#ffd13e" stroke="#ffd13e" stroke-width="1.51"/><path d="M-142,3134L129,3389L329,2813Z" fill="#ffc140" stroke="#ffc140" stroke-width="1.51"/><path d="M3734,264L3622,-3L3445,269Z" fill="#ffc141" stroke="#ffc141" stroke-width="1.51"/><path d="M3888,78L3622,-3L3734,264Z" fill="#ffc041" stroke="#ffc041" stroke-width="1.51"/><path d="M-142,3134L329,2813L-39,2665Z" fill="#ffc640" stroke="#ffc640" stroke-width="1.51"/><path d="M529,3464L-214,3759L1197,3618Z" fill="#ffb642" stroke="#ffb642" stroke-width="1.51"/><path d="M-253,1265L-765,1645L-263,1895Z" fill="#ffdc3c" stroke="#ffdc3c" stroke-width="1.51"/><path d="M-363,2187L-643,2148L-389,2435Z" fill="#ffd33d" stroke="#ffd33d" stroke-width="1.51"/><path d="M-426,725L-53,959L11,798Z" fill="#ffe33a" stroke="#ffe33a" stroke-width="1.51"/><path d="M-258,474L11,798L56,535Z" fill="#ffe53a" stroke="#ffe53a" stroke-width="1.51"/><path d="M-422,1133L-446,1208L-253,1265Z" fill="#ffe13b" stroke="#ffe13b" stroke-width="1.51"/><path d="M3622,-3L3435,-242L3445,269Z" fill="#ffc440" stroke="#ffc440" stroke-width="1.51"/><path d="M-370,2917L-142,3134L-39,2665Z" fill="#ffc83f" stroke="#ffc83f" stroke-width="1.51"/><path d="M3295,-762L2834,-577L2986,-148Z" fill="#ffd03e" stroke="#ffd03e" stroke-width="1.51"/><path d="M2590,-569L2106,-762L2165,-324Z" fill="#ffd93c" stroke="#ffd93c" stroke-width="1.51"/><path d="M226,210L-258,474L56,535Z" fill="#ffe739" stroke="#ffe739" stroke-width="1.51"/><path d="M461,-307L187,-37L630,261Z" fill="#ffe839" stroke="#ffe839" stroke-width="1.51"/><path d="M461,-307L630,261L809,-240Z" fill="#ffe63a" stroke="#ffe63a" stroke-width="1.51"/><path d="M2834,-577L2106,-762L2590,-569Z" fill="#ffd83c" stroke="#ffd83c" stroke-width="1.51"/><path d="M593,-530L809,-240L820,-710Z" fill="#ffeb38" stroke="#ffeb38" stroke-width="1.51"/><path d="M593,-530L461,-307L809,-240Z" fill="#ffea39" stroke="#ffea39" stroke-width="1.51"/><path d="M-338,208L-258,474L226,210Z" fill="#ffea39" stroke="#ffea39" stroke-width="1.51"/><path d="M-422,1133L-426,725L-446,1208Z" fill="#ffe43a" stroke="#ffe43a" stroke-width="1.51"/><path d="M4286,646L3734,264L4075,738Z" fill="#ffb742" stroke="#ffb742" stroke-width="1.51"/><path d="M4286,646L3888,78L3734,264Z" fill="#ffbb41" stroke="#ffbb41" stroke-width="1.51"/><path d="M4076,-239L3504,-541L3435,-242Z" fill="#ffc740" stroke="#ffc740" stroke-width="1.51"/><path d="M-142,3134L11,3464L129,3389Z" fill="#ffc040" stroke="#ffc040" stroke-width="1.51"/><path d="M129,3389L11,3464L529,3464Z" fill="#ffbc41" stroke="#ffbc41" stroke-width="1.51"/><path d="M1197,3618L-214,3759L2659,3829Z" fill="#ffac43" stroke="#ffac43" stroke-width="1.51"/><path d="M4427,872L4075,738L3977,1092Z" fill="#ffb042" stroke="#ffb042" stroke-width="1.51"/><path d="M4427,872L3977,1092L4274,1363Z" fill="#ffac43" stroke="#ffac43" stroke-width="1.51"/><path d="M-471,3493L-214,3759L11,3464Z" fill="#ffbf41" stroke="#ffbf41" stroke-width="1.51"/><path d="M-389,2435L-370,2917L-39,2665Z" fill="#ffcc3f" stroke="#ffcc3f" stroke-width="1.51"/><path d="M-479,3060L-370,2917L-389,2435Z" fill="#ffcc3f" stroke="#ffcc3f" stroke-width="1.51"/><path d="M-258,474L-426,725L11,798Z" fill="#ffe639" stroke="#ffe639" stroke-width="1.51"/><path d="M2659,3829L3729,3703L3423,3651Z" fill="#ff9345" stroke="#ff9345" stroke-width="1.51"/><path d="M3423,3651L3729,3703L3560,3192Z" fill="#ff9246" stroke="#ff9246" stroke-width="1.51"/><path d="M3905,2994L4458,2708L4208,2525Z" fill="#ff9645" stroke="#ff9645" stroke-width="1.51"/><path d="M4208,2525L4458,2708L4225,2494Z" fill="#ff9745" stroke="#ff9745" stroke-width="1.51"/><path d="M-765,1645L-253,1265L-446,1208Z" fill="#ffe03b" stroke="#ffe03b" stroke-width="1.51"/><path d="M-765,1645L-643,2148L-263,1895Z" fill="#ffd93d" stroke="#ffd93d" stroke-width="1.51"/><path d="M4302,2036L4427,872L4274,1363Z" fill="#ffa744" stroke="#ffa744" stroke-width="1.51"/><path d="M3729,3703L4152,3242L3560,3192Z" fill="#ff9145" stroke="#ff9145" stroke-width="1.51"/><path d="M4225,2494L4458,2708L4302,2036Z" fill="#ff9945" stroke="#ff9945" stroke-width="1.51"/><path d="M4152,3242L4458,2708L3905,2994Z" fill="#ff9345" stroke="#ff9345" stroke-width="1.51"/><path d="M4302,2036L4458,2708L4427,872Z" fill="#ffa044" stroke="#ffa044" stroke-width="1.51"/><path d="M820,-710L1516,-342L1527,-558Z" fill="#ffe53a" stroke="#ffe53a" stroke-width="1.51"/><path d="M461,-307L237,-480L187,-37Z" fill="#ffed38" stroke="#ffed38" stroke-width="1.51"/><path d="M-238,-41L-338,208L226,210Z" fill="#ffec38" stroke="#ffec38" stroke-width="1.51"/><path d="M-426,725L-765,1645L-446,1208Z" fill="#ffe33a" stroke="#ffe33a" stroke-width="1.51"/><path d="M2106,-762L820,-710L1527,-558Z" fill="#ffe53a" stroke="#ffe53a" stroke-width="1.51"/><path d="M-370,2917L-479,3060L-142,3134Z" fill="#ffc740" stroke="#ffc740" stroke-width="1.51"/><path d="M-643,2148L-479,3060L-389,2435Z" fill="#ffd03e" stroke="#ffd03e" stroke-width="1.51"/><path d="M-591,3290L-479,3060L-643,2148Z" fill="#ffcd3f" stroke="#ffcd3f" stroke-width="1.51"/><path d="M-258,474L-338,208L-426,725Z" fill="#ffea38" stroke="#ffea38" stroke-width="1.51"/><path d="M-426,725L-653,50L-765,1645Z" fill="#ffe939" stroke="#ffe939" stroke-width="1.51"/><path d="M-238,-41L226,210L187,-37Z" fill="#ffeb38" stroke="#ffeb38" stroke-width="1.51"/><path d="M237,-480L461,-307L593,-530Z" fill="#ffed38" stroke="#ffed38" stroke-width="1.51"/><path d="M4076,-239L3435,-242L3622,-3Z" fill="#ffc440" stroke="#ffc440" stroke-width="1.51"/><path d="M3435,-242L3295,-762L2986,-148Z" fill="#ffcd3f" stroke="#ffcd3f" stroke-width="1.51"/><path d="M2834,-577L3295,-762L2106,-762Z" fill="#ffd63d" stroke="#ffd63d" stroke-width="1.51"/><path d="M4076,-239L3622,-3L3888,78Z" fill="#ffc141" stroke="#ffc141" stroke-width="1.51"/><path d="M4152,3242L4457,3213L4458,2708Z" fill="#ff9046" stroke="#ff9046" stroke-width="1.51"/><path d="M3729,3703L4192,3501L4152,3242Z" fill="#ff8d45" stroke="#ff8d45" stroke-width="1.51"/><path d="M820,-710L237,-480L593,-530Z" fill="#ffee38" stroke="#ffee38" stroke-width="1.51"/><path d="M237,-480L-238,-41L187,-37Z" fill="#ffee38" stroke="#ffee38" stroke-width="1.51"/><path d="M3504,-541L3295,-762L3435,-242Z" fill="#ffcc3e" stroke="#ffcc3e" stroke-width="1.51"/><path d="M4192,3501L4457,3213L4152,3242Z" fill="#ff8d46" stroke="#ff8d46" stroke-width="1.51"/><path d="M3504,-541L3980,-637L3295,-762Z" fill="#ffcc3f" stroke="#ffcc3f" stroke-width="1.51"/><path d="M4389,62L4076,-239L3888,78Z" fill="#ffbe41" stroke="#ffbe41" stroke-width="1.51"/><path d="M4389,62L3888,78L4286,646Z" fill="#ffb941" stroke="#ffb941" stroke-width="1.51"/><path d="M-471,3493L11,3464L-142,3134Z" fill="#ffc140" stroke="#ffc140" stroke-width="1.51"/><path d="M11,3464L-214,3759L529,3464Z" fill="#ffbb41" stroke="#ffbb41" stroke-width="1.51"/><path d="M-479,3060L-591,3290L-142,3134Z" fill="#ffc740" stroke="#ffc740" stroke-width="1.51"/><path d="M-765,1645L-591,3290L-643,2148Z" fill="#ffd53d" stroke="#ffd53d" stroke-width="1.51"/><path d="M-591,3290L-471,3493L-142,3134Z" fill="#ffc540" stroke="#ffc540" stroke-width="1.51"/><path d="M4427,872L4389,62L4286,646Z" fill="#ffb343" stroke="#ffb343" stroke-width="1.51"/><path d="M4076,-239L3980,-637L3504,-541Z" fill="#ffc640" stroke="#ffc640" stroke-width="1.51"/><path d="M4389,62L4262,-250L4076,-239Z" fill="#ffbe41" stroke="#ffbe41" stroke-width="1.51"/><path d="M-660,-352L-653,50L-238,-41Z" fill="#fff436" stroke="#fff436" stroke-width="1.51"/><path d="M-238,-41L-653,50L-338,208Z" fill="#fff037" stroke="#fff037" stroke-width="1.51"/><path d="M-338,208L-653,50L-426,725Z" fill="#ffed37" stroke="#ffed37" stroke-width="1.51"/><path d="M4192,3501L4455,3657L4457,3213Z" fill="#ff8946" stroke="#ff8946" stroke-width="1.51"/><path d="M3729,3703L4455,3657L4192,3501Z" fill="#ff8a46" stroke="#ff8a46" stroke-width="1.51"/><path d="M2659,3829L4455,3657L3729,3703Z" fill="#ff8e46" stroke="#ff8e46" stroke-width="1.51"/><path d="M4262,-250L3980,-637L4076,-239Z" fill="#ffc240" stroke="#ffc240" stroke-width="1.51"/><path d="M237,-480L-198,-659L-238,-41Z" fill="#fff236" stroke="#fff236" stroke-width="1.51"/><path d="M820,-710L-198,-659L237,-480Z" fill="#fff136" stroke="#fff136" stroke-width="1.51"/><path d="M-198,-659L-560,-434L-238,-41Z" fill="#fff535" stroke="#fff535" stroke-width="1.51"/><path d="M-560,-434L-660,-352L-238,-41Z" fill="#fff635" stroke="#fff635" stroke-width="1.51"/><path d="M-653,50L-660,-352L-765,1645Z" fill="#ffee37" stroke="#ffee37" stroke-width="1.51"/><path d="M4262,-250L4557,-524L3980,-637Z" fill="#ffc241" stroke="#ffc241" stroke-width="1.51"/><path d="M4389,62L4557,-524L4262,-250Z" fill="#ffbd41" stroke="#ffbd41" stroke-width="1.51"/><path d="M4427,872L4557,-524L4389,62Z" fill="#ffb742" stroke="#ffb742" stroke-width="1.51"/><path d="M4458,2708L4557,-524L4427,872Z" fill="#ffab43" stroke="#ffab43" stroke-width="1.51"/><path d="M4457,3213L4557,-524L4458,2708Z" fill="#ffa044" stroke="#ffa044" stroke-width="1.51"/><path d="M4455,3657L4557,-524L4457,3213Z" fill="#ff9b44" stroke="#ff9b44" stroke-width="1.51"/></svg>