<svg xmlns="http://www.w3.org/2000/svg" width="3840" height="3072"><path d="M2214,1544L2217,1365L2138,1225Z" fill="#fec100" stroke="#fec100" stroke-width="1.51"/><path d="M2138,1225L1503,1690L2214,1544Z" fill="#fdc200" stroke="#fdc200" stroke-width="1.51"/><path d="M1503,1690L1696,1901L2214,1544Z" fill="#fec100" stroke="#fec100" stroke-width="1.51"/><path d="M1696,1901L1879,2040L2214,1544Z" fill="#febe00" stroke="#febe00" stroke-width="1.51"/><path d="M2138,1225L1283,1268L1503,1690Z" fill="#fdc700" stroke="#fdc700" stroke-width="1.51"/><path d="M2217,1365L2234,923L2138,1225Z" fill="#fdc300" stroke="#fdc300" stroke-width="1.51"/><path d="M3120,1492L2234,923L2217,1365Z" fill="#febf00" stroke="#febf00" stroke-width="1.51"/><path d="M1653,828L1283,1268L2138,1225Z" fill="#fdca00" stroke="#fdca00" stroke-width="1.51"/><path d="M1883,690L1653,828L2138,1225Z" fill="#fdca00" stroke="#fdca00" stroke-width="1.51"/><path d="M2234,923L1883,690L2138,1225Z" fill="#fdc700" stroke="#fdc700" stroke-width="1.51"/><path d="M1696,1901L1473,2093L1879,2040Z" fill="#febf00" stroke="#febf00" stroke-width="1.51"/><path d="M1503,1690L1473,2093L1696,1901Z" fill="#fdc200" stroke="#fdc200" stroke-width="1.51"/><path d="M840,1449L1473,2093L1503,1690Z" fill="#fdc600" stroke="#fdc600" stroke-width="1.51"/><path d="M2214,1544L2871,1789L2217,1365Z" fill="#febc00" stroke="#febc00" stroke-width="1.51"/><path d="M2687,2357L2871,1789L2214,1544Z" fill="#ffb600" stroke="#ffb600" stroke-width="1.51"/><path d="M1283,1268L840,1449L1503,1690Z" fill="#fccb00" stroke="#fccb00" stroke-width="1.51"/><path d="M1100,701L840,1449L1283,1268Z" fill="#fcd100" stroke="#fcd100" stroke-width="1.51"/><path d="M1653,828L1100,701L1283,1268Z" fill="#fcd000" stroke="#fcd000" stroke-width="1.51"/><path d="M1392,408L1100,701L1653,828Z" fill="#fcd300" stroke="#fcd300" stroke-width="1.51"/><path d="M1883,690L1392,408L1653,828Z" fill="#fcd000" stroke="#fcd000" stroke-width="1.51"/><path d="M2581,2490L2687,2357L1879,2040Z" fill="#ffb300" stroke="#ffb300" stroke-width="1.51"/><path d="M1879,2040L2687,2357L2214,1544Z" fill="#feb800" stroke="#feb800" stroke-width="1.51"/><path d="M3487,1614L3120,1492L2871,1789Z" fill="#ffb200" stroke="#ffb200" stroke-width="1.51"/><path d="M2871,1789L3120,1492L2217,1365Z" fill="#feb800" stroke="#feb800" stroke-width="1.51"/><path d="M2236,138L1868,117L1883,690Z" fill="#fbd000" stroke="#fbd000" stroke-width="1.51"/><path d="M840,1449L943,2345L1473,2093Z" fill="#fdc600" stroke="#fdc600" stroke-width="1.51"/><path d="M482,1412L686,1547L840,1449Z" fill="#fcd100" stroke="#fcd100" stroke-width="1.51"/><path d="M1473,2093L1360,2544L1879,2040Z" fill="#febd00" stroke="#febd00" stroke-width="1.51"/><path d="M943,2345L1360,2544L1473,2093Z" fill="#fec000" stroke="#fec000" stroke-width="1.51"/><path d="M2540,2569L2581,2490L1879,2040Z" fill="#ffb300" stroke="#ffb300" stroke-width="1.51"/><path d="M3001,3019L3415,2418L2687,2357Z" fill="#ffa700" stroke="#ffa700" stroke-width="1.51"/><path d="M1957,2848L2540,2569L1879,2040Z" fill="#ffb300" stroke="#ffb300" stroke-width="1.51"/><path d="M686,1547L943,2345L840,1449Z" fill="#fccc00" stroke="#fccc00" stroke-width="1.51"/><path d="M1883,690L1868,117L1392,408Z" fill="#fcd200" stroke="#fcd200" stroke-width="1.51"/><path d="M2236,138L1883,690L2234,923Z" fill="#fccb00" stroke="#fccb00" stroke-width="1.51"/><path d="M3085,467L2236,138L2234,923Z" fill="#fcc800" stroke="#fcc800" stroke-width="1.51"/><path d="M1239,3109L1957,2848L1360,2544Z" fill="#feb600" stroke="#feb600" stroke-width="1.51"/><path d="M1360,2544L1957,2848L1879,2040Z" fill="#feb800" stroke="#feb800" stroke-width="1.51"/><path d="M394,932L482,1412L840,1449Z" fill="#fbd500" stroke="#fbd500" stroke-width="1.51"/><path d="M686,1547L417,1987L943,2345Z" fill="#fccb00" stroke="#fccb00" stroke-width="1.51"/><path d="M3120,1492L3099,636L2234,923Z" fill="#febe00" stroke="#febe00" stroke-width="1.51"/><path d="M3099,636L3085,467L2234,923Z" fill="#fec200" stroke="#fec200" stroke-width="1.51"/><path d="M3099,636L3334,769L3085,467Z" fill="#fdbe00" stroke="#fdbe00" stroke-width="1.51"/><path d="M3120,1492L3410,1045L3099,636Z" fill="#feb900" stroke="#feb900" stroke-width="1.51"/><path d="M3487,1614L3410,1045L3120,1492Z" fill="#feb300" stroke="#feb300" stroke-width="1.51"/><path d="M482,1412L417,1987L686,1547Z" fill="#fcd000" stroke="#fcd000" stroke-width="1.51"/><path d="M3410,1045L3334,769L3099,636Z" fill="#febb00" stroke="#febb00" stroke-width="1.51"/><path d="M3415,2418L3487,1614L2871,1789Z" fill="#ffad00" stroke="#ffad00" stroke-width="1.51"/><path d="M3415,2418L2871,1789L2687,2357Z" fill="#ffad00" stroke="#ffad00" stroke-width="1.51"/><path d="M-163,1653L104,2284L417,1987Z" fill="#fbd100" stroke="#fbd100" stroke-width="1.51"/><path d="M1100,701L394,932L840,1449Z" fill="#fbd500" stroke="#fbd500" stroke-width="1.51"/><path d="M800,263L394,932L1100,701Z" fill="#fada00" stroke="#fada00" stroke-width="1.51"/><path d="M800,263L1100,701L1392,408Z" fill="#fbd900" stroke="#fbd900" stroke-width="1.51"/><path d="M1868,117L1590,-397L1392,408Z" fill="#fbd800" stroke="#fbd800" stroke-width="1.51"/><path d="M2236,138L1864,-170L1868,117Z" fill="#fbd400" stroke="#fbd400" stroke-width="1.51"/><path d="M2643,-406L1864,-170L2236,138Z" fill="#fbd300" stroke="#fbd300" stroke-width="1.51"/><path d="M731,-100L800,263L1392,408Z" fill="#fadd00" stroke="#fadd00" stroke-width="1.51"/><path d="M943,2345L772,2635L1360,2544Z" fill="#fec000" stroke="#fec000" stroke-width="1.51"/><path d="M467,2308L772,2635L943,2345Z" fill="#fdc400" stroke="#fdc400" stroke-width="1.51"/><path d="M417,1987L467,2308L943,2345Z" fill="#fdc800" stroke="#fdc800" stroke-width="1.51"/><path d="M772,2635L1239,3109L1360,2544Z" fill="#febb00" stroke="#febb00" stroke-width="1.51"/><path d="M3001,3019L2687,2357L2581,2490Z" fill="#ffaa00" stroke="#ffaa00" stroke-width="1.51"/><path d="M3001,3019L2581,2490L2540,2569Z" fill="#ffaa00" stroke="#ffaa00" stroke-width="1.51"/><path d="M2098,3279L2540,2569L1957,2848Z" fill="#ffad00" stroke="#ffad00" stroke-width="1.51"/><path d="M1239,3109L2098,3279L1957,2848Z" fill="#feb000" stroke="#feb000" stroke-width="1.51"/><path d="M3487,1614L3749,1275L3410,1045Z" fill="#ffb100" stroke="#ffb100" stroke-width="1.51"/><path d="M3410,1045L3929,796L3334,769Z" fill="#feb700" stroke="#feb700" stroke-width="1.51"/><path d="M4018,1871L3749,1275L3487,1614Z" fill="#feab00" stroke="#feab00" stroke-width="1.51"/><path d="M1864,-170L1590,-397L1868,117Z" fill="#fbd800" stroke="#fbd800" stroke-width="1.51"/><path d="M2074,-847L1590,-397L1864,-170Z" fill="#fadb00" stroke="#fadb00" stroke-width="1.51"/><path d="M3085,467L2728,-250L2236,138Z" fill="#fccb00" stroke="#fccb00" stroke-width="1.51"/><path d="M3308,92L2728,-250L3085,467Z" fill="#fdc700" stroke="#fdc700" stroke-width="1.51"/><path d="M3308,92L3085,467L3334,769Z" fill="#fdc100" stroke="#fdc100" stroke-width="1.51"/><path d="M2832,3279L3001,3019L2540,2569Z" fill="#ffa600" stroke="#ffa600" stroke-width="1.51"/><path d="M800,263L488,119L394,932Z" fill="#fadf00" stroke="#fadf00" stroke-width="1.51"/><path d="M731,-100L488,119L800,263Z" fill="#f9e200" stroke="#f9e200" stroke-width="1.51"/><path d="M1590,-397L731,-100L1392,408Z" fill="#fadd00" stroke="#fadd00" stroke-width="1.51"/><path d="M3976,484L3308,92L3334,769Z" fill="#febd00" stroke="#febd00" stroke-width="1.51"/><path d="M417,1987L104,2284L467,2308Z" fill="#fccc00" stroke="#fccc00" stroke-width="1.51"/><path d="M467,2308L246,2731L772,2635Z" fill="#fdc500" stroke="#fdc500" stroke-width="1.51"/><path d="M772,2635L992,3373L1239,3109Z" fill="#feba00" stroke="#feba00" stroke-width="1.51"/><path d="M-163,1653L417,1987L482,1412Z" fill="#fcd300" stroke="#fcd300" stroke-width="1.51"/><path d="M-163,1653L482,1412L-266,1307Z" fill="#fbd800" stroke="#fbd800" stroke-width="1.51"/><path d="M2728,-250L2643,-406L2236,138Z" fill="#fcd000" stroke="#fcd000" stroke-width="1.51"/><path d="M2657,-687L2643,-406L3225,-853Z" fill="#fbd200" stroke="#fbd200" stroke-width="1.51"/><path d="M2098,3279L2504,3360L2540,2569Z" fill="#ffa900" stroke="#ffa900" stroke-width="1.51"/><path d="M2155,3678L2504,3360L2098,3279Z" fill="#ffa500" stroke="#ffa500" stroke-width="1.51"/><path d="M2504,3360L2832,3279L2540,2569Z" fill="#ffa600" stroke="#ffa600" stroke-width="1.51"/><path d="M4039,2294L4018,1871L3415,2418Z" fill="#ffa300" stroke="#ffa300" stroke-width="1.51"/><path d="M-137,984L482,1412L394,932Z" fill="#fada00" stroke="#fada00" stroke-width="1.51"/><path d="M-84,180L-137,984L394,932Z" fill="#f9e200" stroke="#f9e200" stroke-width="1.51"/><path d="M187,3073L246,2731L-156,2681Z" fill="#fdc600" stroke="#fdc600" stroke-width="1.51"/><path d="M104,2284L246,2731L467,2308Z" fill="#fdc900" stroke="#fdc900" stroke-width="1.51"/><path d="M4295,1467L3929,796L3749,1275Z" fill="#feae00" stroke="#feae00" stroke-width="1.51"/><path d="M3749,1275L3929,796L3410,1045Z" fill="#feb400" stroke="#feb400" stroke-width="1.51"/><path d="M187,3073L992,3373L772,2635Z" fill="#fdbd00" stroke="#fdbd00" stroke-width="1.51"/><path d="M1225,3720L2155,3678L2098,3279Z" fill="#ffa900" stroke="#ffa900" stroke-width="1.51"/><path d="M1590,-397L1266,-606L731,-100Z" fill="#f9e200" stroke="#f9e200" stroke-width="1.51"/><path d="M731,-100L191,-163L488,119Z" fill="#f8e600" stroke="#f8e600" stroke-width="1.51"/><path d="M2074,-847L1266,-606L1590,-397Z" fill="#f9e000" stroke="#f9e000" stroke-width="1.51"/><path d="M3415,2418L4018,1871L3487,1614Z" fill="#ffa800" stroke="#ffa800" stroke-width="1.51"/><path d="M3612,2827L3415,2418L3001,3019Z" fill="#ffa100" stroke="#ffa100" stroke-width="1.51"/><path d="M-137,984L-266,1307L482,1412Z" fill="#fadb00" stroke="#fadb00" stroke-width="1.51"/><path d="M3517,3299L3612,2827L3001,3019Z" fill="#ff9e00" stroke="#ff9e00" stroke-width="1.51"/><path d="M-84,180L-381,981L-137,984Z" fill="#f9e400" stroke="#f9e400" stroke-width="1.51"/><path d="M1266,-606L936,-556L731,-100Z" fill="#f8e500" stroke="#f8e500" stroke-width="1.51"/><path d="M3517,3299L3886,2891L3612,2827Z" fill="#ff9a00" stroke="#ff9a00" stroke-width="1.51"/><path d="M2504,3360L3046,3910L2832,3279Z" fill="#ff9e00" stroke="#ff9e00" stroke-width="1.51"/><path d="M1225,3720L2098,3279L1239,3109Z" fill="#feaf00" stroke="#feaf00" stroke-width="1.51"/><path d="M2643,-406L2074,-847L1864,-170Z" fill="#fbd700" stroke="#fbd700" stroke-width="1.51"/><path d="M3225,-853L2643,-406L2728,-250Z" fill="#fcd100" stroke="#fcd100" stroke-width="1.51"/><path d="M3471,-265L2728,-250L3308,92Z" fill="#fdc900" stroke="#fdc900" stroke-width="1.51"/><path d="M-163,1653L-821,2177L104,2284Z" fill="#fbd400" stroke="#fbd400" stroke-width="1.51"/><path d="M-266,1307L-375,1511L-163,1653Z" fill="#fadb00" stroke="#fadb00" stroke-width="1.51"/><path d="M-381,981L-375,1511L-266,1307Z" fill="#fade00" stroke="#fade00" stroke-width="1.51"/><path d="M3929,796L3976,484L3334,769Z" fill="#feb800" stroke="#feb800" stroke-width="1.51"/><path d="M4436,943L3976,484L3929,796Z" fill="#feb300" stroke="#feb300" stroke-width="1.51"/><path d="M3612,2827L4039,2294L3415,2418Z" fill="#ffa100" stroke="#ffa100" stroke-width="1.51"/><path d="M4018,1871L4295,1467L3749,1275Z" fill="#ffaa00" stroke="#ffaa00" stroke-width="1.51"/><path d="M1266,-606L-97,-677L936,-556Z" fill="#f7ea01" stroke="#f7ea01" stroke-width="1.51"/><path d="M2657,-687L2074,-847L2643,-406Z" fill="#fbd600" stroke="#fbd600" stroke-width="1.51"/><path d="M-375,1511L-406,1609L-163,1653Z" fill="#fada00" stroke="#fada00" stroke-width="1.51"/><path d="M2155,3678L2215,3744L2504,3360Z" fill="#ffa300" stroke="#ffa300" stroke-width="1.51"/><path d="M1225,3720L2215,3744L2155,3678Z" fill="#ffa600" stroke="#ffa600" stroke-width="1.51"/><path d="M3921,4L3471,-265L3308,92Z" fill="#fdc300" stroke="#fdc300" stroke-width="1.51"/><path d="M936,-556L622,-490L731,-100Z" fill="#f8e700" stroke="#f8e700" stroke-width="1.51"/><path d="M60,-412L622,-490L-97,-677Z" fill="#f7ef00" stroke="#f7ef00" stroke-width="1.51"/><path d="M-137,984L-381,981L-266,1307Z" fill="#f9e000" stroke="#f9e000" stroke-width="1.51"/><path d="M-375,1511L-381,981L-406,1609Z" fill="#fade00" stroke="#fade00" stroke-width="1.51"/><path d="M-84,180L394,932L488,119Z" fill="#f9e300" stroke="#f9e300" stroke-width="1.51"/><path d="M622,-490L191,-163L731,-100Z" fill="#f8e800" stroke="#f8e800" stroke-width="1.51"/><path d="M191,-163L-84,180L488,119Z" fill="#f8e800" stroke="#f8e800" stroke-width="1.51"/><path d="M-156,2681L246,2731L104,2284Z" fill="#fcca00" stroke="#fcca00" stroke-width="1.51"/><path d="M246,2731L187,3073L772,2635Z" fill="#fdc300" stroke="#fdc300" stroke-width="1.51"/><path d="M893,3970L1225,3720L992,3373Z" fill="#ffb100" stroke="#ffb100" stroke-width="1.51"/><path d="M992,3373L1225,3720L1239,3109Z" fill="#feb300" stroke="#feb300" stroke-width="1.51"/><path d="M4039,2294L4237,1940L4018,1871Z" fill="#ffa200" stroke="#ffa200" stroke-width="1.51"/><path d="M4237,1940L4295,1467L4018,1871Z" fill="#ffa500" stroke="#ffa500" stroke-width="1.51"/><path d="M-821,2177L-156,2681L104,2284Z" fill="#fcd000" stroke="#fcd000" stroke-width="1.51"/><path d="M4039,2294L4444,2199L4237,1940Z" fill="#ff9e00" stroke="#ff9e00" stroke-width="1.51"/><path d="M3612,2827L3886,2891L4039,2294Z" fill="#ff9d00" stroke="#ff9d00" stroke-width="1.51"/><path d="M3517,3299L3001,3019L2832,3279Z" fill="#ff9e00" stroke="#ff9e00" stroke-width="1.51"/><path d="M3046,3910L3517,3299L2832,3279Z" fill="#ff9a00" stroke="#ff9a00" stroke-width="1.51"/><path d="M3976,484L3921,4L3308,92Z" fill="#febe00" stroke="#febe00" stroke-width="1.51"/><path d="M4517,364L3921,4L3976,484Z" fill="#feb800" stroke="#feb800" stroke-width="1.51"/><path d="M4295,1467L4436,943L3929,796Z" fill="#ffad00" stroke="#ffad00" stroke-width="1.51"/><path d="M4987,1356L4436,943L4295,1467Z" fill="#ffa600" stroke="#ffa600" stroke-width="1.51"/><path d="M191,-163L60,-412L-84,180Z" fill="#f7ec00" stroke="#f7ec00" stroke-width="1.51"/><path d="M-84,180L-675,104L-381,981Z" fill="#f8e900" stroke="#f8e900" stroke-width="1.51"/><path d="M622,-490L60,-412L191,-163Z" fill="#f7eb00" stroke="#f7eb00" stroke-width="1.51"/><path d="M-97,-677L622,-490L936,-556Z" fill="#f7ec01" stroke="#f7ec01" stroke-width="1.51"/><path d="M-169,3500L415,3620L187,3073Z" fill="#fdbf00" stroke="#fdbf00" stroke-width="1.51"/><path d="M187,3073L415,3620L992,3373Z" fill="#febb00" stroke="#febb00" stroke-width="1.51"/><path d="M4629,3020L4444,2199L4039,2294Z" fill="#ff9800" stroke="#ff9800" stroke-width="1.51"/><path d="M4237,1940L4907,1609L4295,1467Z" fill="#ffa200" stroke="#ffa200" stroke-width="1.51"/><path d="M2657,-687L3127,-948L2074,-847Z" fill="#fbd800" stroke="#fbd800" stroke-width="1.51"/><path d="M3471,-265L3225,-853L2728,-250Z" fill="#fccd00" stroke="#fccd00" stroke-width="1.51"/><path d="M4079,-538L3225,-853L3471,-265Z" fill="#fdc900" stroke="#fdc900" stroke-width="1.51"/><path d="M3225,-853L3127,-948L2657,-687Z" fill="#fbd300" stroke="#fbd300" stroke-width="1.51"/><path d="M2215,3744L3046,3910L2504,3360Z" fill="#ff9e00" stroke="#ff9e00" stroke-width="1.51"/><path d="M3517,3299L4077,3291L3886,2891Z" fill="#ff9700" stroke="#ff9700" stroke-width="1.51"/><path d="M893,3970L3046,3910L2215,3744Z" fill="#ffa200" stroke="#ffa200" stroke-width="1.51"/><path d="M415,3620L893,3970L992,3373Z" fill="#feb400" stroke="#feb400" stroke-width="1.51"/><path d="M1225,3720L893,3970L2215,3744Z" fill="#ffaa00" stroke="#ffaa00" stroke-width="1.51"/><path d="M-406,1609L-821,2177L-163,1653Z" fill="#fad900" stroke="#fad900" stroke-width="1.51"/><path d="M-156,2681L-332,3204L187,3073Z" fill="#fdc600" stroke="#fdc600" stroke-width="1.51"/><path d="M-381,981L-821,2177L-406,1609Z" fill="#fadd00" stroke="#fadd00" stroke-width="1.51"/><path d="M-675,104L-821,2177L-381,981Z" fill="#f8e400" stroke="#f8e400" stroke-width="1.51"/><path d="M3921,4L4079,-538L3471,-265Z" fill="#fdc300" stroke="#fdc300" stroke-width="1.51"/><path d="M3225,-853L4274,-593L3127,-948Z" fill="#fccd00" stroke="#fccd00" stroke-width="1.51"/><path d="M4436,943L4517,364L3976,484Z" fill="#feb200" stroke="#feb200" stroke-width="1.51"/><path d="M4889,879L4517,364L4436,943Z" fill="#ffad00" stroke="#ffad00" stroke-width="1.51"/><path d="M3046,3910L3558,3758L3517,3299Z" fill="#ff9500" stroke="#ff9500" stroke-width="1.51"/><path d="M3886,2891L4629,3020L4039,2294Z" fill="#ff9800" stroke="#ff9800" stroke-width="1.51"/><path d="M415,3620L-299,3881L893,3970Z" fill="#feb700" stroke="#feb700" stroke-width="1.51"/><path d="M-663,2831L-332,3204L-156,2681Z" fill="#fcca00" stroke="#fcca00" stroke-width="1.51"/><path d="M3840,3561L4077,3291L3517,3299Z" fill="#ff9300" stroke="#ff9300" stroke-width="1.51"/><path d="M3558,3758L3840,3561L3517,3299Z" fill="#ff9300" stroke="#ff9300" stroke-width="1.51"/><path d="M-554,-526L-675,104L-84,180Z" fill="#f6f001" stroke="#f6f001" stroke-width="1.51"/><path d="M-821,2177L-663,2831L-156,2681Z" fill="#fcd100" stroke="#fcd100" stroke-width="1.51"/><path d="M-332,3204L-169,3500L187,3073Z" fill="#fdc300" stroke="#fdc300" stroke-width="1.51"/><path d="M-299,3881L-169,3500L-332,3204Z" fill="#fdc200" stroke="#fdc200" stroke-width="1.51"/><path d="M4517,364L4308,-206L3921,4Z" fill="#feba00" stroke="#feba00" stroke-width="1.51"/><path d="M60,-412L-554,-526L-84,180Z" fill="#f6f001" stroke="#f6f001" stroke-width="1.51"/><path d="M2074,-847L-97,-677L1266,-606Z" fill="#f8e701" stroke="#f8e701" stroke-width="1.51"/><path d="M3127,-948L-97,-677L2074,-847Z" fill="#f9e200" stroke="#f9e200" stroke-width="1.51"/><path d="M4308,-206L4079,-538L3921,4Z" fill="#fdbf00" stroke="#fdbf00" stroke-width="1.51"/><path d="M5060,2152L4907,1609L4444,2199Z" fill="#ff9b00" stroke="#ff9b00" stroke-width="1.51"/><path d="M4444,2199L4907,1609L4237,1940Z" fill="#ff9e00" stroke="#ff9e00" stroke-width="1.51"/><path d="M4987,1356L4889,879L4436,943Z" fill="#ffa800" stroke="#ffa800" stroke-width="1.51"/><path d="M4517,364L4672,138L4308,-206Z" fill="#feb600" stroke="#feb600" stroke-width="1.51"/><path d="M4077,3291L4357,3282L3886,2891Z" fill="#ff9300" stroke="#ff9300" stroke-width="1.51"/><path d="M4554,3839L4357,3282L4077,3291Z" fill="#ff8c00" stroke="#ff8c00" stroke-width="1.51"/><path d="M4554,3839L4077,3291L3840,3561Z" fill="#ff8c00" stroke="#ff8c00" stroke-width="1.51"/><path d="M4308,-206L4274,-593L4079,-538Z" fill="#fdc100" stroke="#fdc100" stroke-width="1.51"/><path d="M4889,879L4672,138L4517,364Z" fill="#ffaf00" stroke="#ffaf00" stroke-width="1.51"/><path d="M4907,1609L4987,1356L4295,1467Z" fill="#ffa200" stroke="#ffa200" stroke-width="1.51"/><path d="M4728,-185L4274,-593L4308,-206Z" fill="#febd00" stroke="#febd00" stroke-width="1.51"/><path d="M4079,-538L4274,-593L3225,-853Z" fill="#fdc700" stroke="#fdc700" stroke-width="1.51"/><path d="M4357,3282L4629,3020L3886,2891Z" fill="#ff9200" stroke="#ff9200" stroke-width="1.51"/><path d="M4907,1609L5060,2152L4987,1356Z" fill="#ff9f00" stroke="#ff9f00" stroke-width="1.51"/><path d="M-97,-677L-554,-526L60,-412Z" fill="#f6f301" stroke="#f6f301" stroke-width="1.51"/><path d="M-554,-526L-686,-420L-675,104Z" fill="#f5f501" stroke="#f5f501" stroke-width="1.51"/><path d="M-675,104L-686,-420L-821,2177Z" fill="#f7eb01" stroke="#f7eb01" stroke-width="1.51"/><path d="M4842,2924L5060,2152L4444,2199Z" fill="#ff9600" stroke="#ff9600" stroke-width="1.51"/><path d="M4672,138L4728,-185L4308,-206Z" fill="#feb800" stroke="#feb800" stroke-width="1.51"/><path d="M5026,-654L4728,-185L4672,138Z" fill="#feb800" stroke="#feb800" stroke-width="1.51"/><path d="M5026,-654L4672,138L4889,879Z" fill="#feb400" stroke="#feb400" stroke-width="1.51"/><path d="M-169,3500L-299,3881L415,3620Z" fill="#febd00" stroke="#febd00" stroke-width="1.51"/><path d="M-449,4017L-299,3881L-332,3204Z" fill="#fdc100" stroke="#fdc100" stroke-width="1.51"/><path d="M4629,3020L4842,2924L4444,2199Z" fill="#ff9200" stroke="#ff9200" stroke-width="1.51"/><path d="M5056,3466L4842,2924L4629,3020Z" fill="#ff8c00" stroke="#ff8c00" stroke-width="1.51"/><path d="M-299,3881L-449,4017L893,3970Z" fill="#feb900" stroke="#feb900" stroke-width="1.51"/><path d="M893,3970L-449,4017L3046,3910Z" fill="#ffac00" stroke="#ffac00" stroke-width="1.51"/><path d="M-663,2831L-449,4017L-332,3204Z" fill="#fdc600" stroke="#fdc600" stroke-width="1.51"/><path d="M-821,2177L-449,4017L-663,2831Z" fill="#fccd00" stroke="#fccd00" stroke-width="1.51"/><path d="M4357,3282L5056,3466L4629,3020Z" fill="#ff8a00" stroke="#ff8a00" stroke-width="1.51"/><path d="M3558,3758L4554,3839L3840,3561Z" fill="#ff8d00" stroke="#ff8d00" stroke-width="1.51"/><path d="M3046,3910L4554,3839L3558,3758Z" fill="#ff8e00" stroke="#ff8e00" stroke-width="1.51"/><path d="M4907,3716L5056,3466L4357,3282Z" fill="#ff8700" stroke="#ff8700" stroke-width="1.51"/><path d="M4842,2924L5056,3466L5060,2152Z" fill="#ff9000" stroke="#ff9000" stroke-width="1.51"/><path d="M4554,3839L4907,3716L4357,3282Z" fill="#ff8600" stroke="#ff8600" stroke-width="1.51"/><path d="M4728,-185L5026,-654L4274,-593Z" fill="#febb00" stroke="#febb00" stroke-width="1.51"/><path d="M4274,-593L5026,-654L3127,-948Z" fill="#fdc500" stroke="#fdc500" stroke-width="1.51"/><path d="M4987,1356L5026,-654L4889,879Z" fill="#ffaf00" stroke="#ffaf00" stroke-width="1.51"/><path d="M5060,2152L5026,-654L4987,1356Z" fill="#ffa900" stroke="#ffa900" stroke-width="1.51"/></svg>