<svg xmlns="http://www.w3.org/2000/svg" width="3840" height="1920"><path d="M2480,765L2694,896L2521,357Z" fill="#89b1fc" stroke="#89b1fc" stroke-width="1.51"/><path d="M2694,896L3249,659L2521,357Z" fill="#87aefa" stroke="#87aefa" stroke-width="1.51"/><path d="M3249,659L3051,165L2521,357Z" fill="#92b4fb" stroke="#92b4fb" stroke-width="1.51"/><path d="M3051,165L2919,19L2521,357Z" fill="#a7c2fc" stroke="#a7c2fc" stroke-width="1.51"/><path d="M3626,-487L2919,-663L2919,19Z" fill="#b8c7fe" stroke="#b8c7fe" stroke-width="1.51"/><path d="M3249,659L3495,361L3051,165Z" fill="#8caefc" stroke="#8caefc" stroke-width="1.51"/><path d="M2694,896L3244,1617L3249,659Z" fill="#73a4fd" stroke="#73a4fd" stroke-width="1.51"/><path d="M3249,659L3879,1155L3495,361Z" fill="#769ffd" stroke="#769ffd" stroke-width="1.51"/><path d="M2480,765L2679,1596L2694,896Z" fill="#7babfd" stroke="#7babfd" stroke-width="1.51"/><path d="M2679,1596L3244,1617L2694,896Z" fill="#6d9ff9" stroke="#6d9ff9" stroke-width="1.51"/><path d="M2480,765L2439,1801L2679,1596Z" fill="#73a4fa" stroke="#73a4fa" stroke-width="1.51"/><path d="M2679,1596L2602,2113L3244,1617Z" fill="#5b91fb" stroke="#5b91fb" stroke-width="1.51"/><path d="M2919,19L1969,-563L2521,357Z" fill="#c1d3fe" stroke="#c1d3fe" stroke-width="1.51"/><path d="M3626,-487L2919,19L3051,165Z" fill="#b7c6fe" stroke="#b7c6fe" stroke-width="1.51"/><path d="M3244,1617L3879,1155L3249,659Z" fill="#679bfd" stroke="#679bfd" stroke-width="1.51"/><path d="M2521,357L1475,248L2480,765Z" fill="#99bcfd" stroke="#99bcfd" stroke-width="1.51"/><path d="M2480,765L1619,1410L2439,1801Z" fill="#7aabfd" stroke="#7aabfd" stroke-width="1.51"/><path d="M1969,-563L1475,248L2521,357Z" fill="#c6d7ff" stroke="#c6d7ff" stroke-width="1.51"/><path d="M2919,-663L1969,-563L2919,19Z" fill="#c0d1fe" stroke="#c0d1fe" stroke-width="1.51"/><path d="M1475,248L1619,1410L2480,765Z" fill="#8fb6ff" stroke="#8fb6ff" stroke-width="1.51"/><path d="M3495,361L3626,-487L3051,165Z" fill="#b3c1ff" stroke="#b3c1ff" stroke-width="1.51"/><path d="M4059,112L3626,-487L3495,361Z" fill="#b0bcff" stroke="#b0bcff" stroke-width="1.51"/><path d="M3879,1155L4059,112L3495,361Z" fill="#789dfc" stroke="#789dfc" stroke-width="1.51"/><path d="M2439,1801L2602,2113L2679,1596Z" fill="#5d93fd" stroke="#5d93fd" stroke-width="1.51"/><path d="M1619,1410L2379,1977L2439,1801Z" fill="#6a9dfe" stroke="#6a9dfe" stroke-width="1.51"/><path d="M1969,-563L1507,-270L1475,248Z" fill="#cbdaff" stroke="#cbdaff" stroke-width="1.51"/><path d="M2385,2545L2602,2113L2379,1977Z" fill="#5c92fe" stroke="#5c92fe" stroke-width="1.51"/><path d="M1475,248L1364,1256L1619,1410Z" fill="#8fb7fe" stroke="#8fb7fe" stroke-width="1.51"/><path d="M1022,732L1364,1256L1475,248Z" fill="#9abbfc" stroke="#9abbfc" stroke-width="1.51"/><path d="M3244,1617L3807,1718L3879,1155Z" fill="#548dfc" stroke="#548dfc" stroke-width="1.51"/><path d="M2379,1977L2602,2113L2439,1801Z" fill="#5b91fe" stroke="#5b91fe" stroke-width="1.51"/><path d="M3879,1155L4583,687L4059,112Z" fill="#739bfd" stroke="#739bfd" stroke-width="1.51"/><path d="M3493,1973L3807,1718L3244,1617Z" fill="#4785fd" stroke="#4785fd" stroke-width="1.51"/><path d="M2602,2113L3493,1973L3244,1617Z" fill="#4c87fd" stroke="#4c87fd" stroke-width="1.51"/><path d="M1507,-270L1178,285L1475,248Z" fill="#c5d7fe" stroke="#c5d7fe" stroke-width="1.51"/><path d="M4059,112L3926,-517L3626,-487Z" fill="#afb9ff" stroke="#afb9ff" stroke-width="1.51"/><path d="M3626,-487L3565,-977L2919,-663Z" fill="#b5c3ff" stroke="#b5c3ff" stroke-width="1.51"/><path d="M1969,-563L1897,-836L1507,-270Z" fill="#cad9ff" stroke="#cad9ff" stroke-width="1.51"/><path d="M2120,-1120L1897,-836L1969,-563Z" fill="#c7d8ff" stroke="#c7d8ff" stroke-width="1.51"/><path d="M2120,-1120L1969,-563L2919,-663Z" fill="#c3d5ff" stroke="#c3d5ff" stroke-width="1.51"/><path d="M1178,285L1022,732L1475,248Z" fill="#a9c4fb" stroke="#a9c4fb" stroke-width="1.51"/><path d="M3926,-517L3565,-977L3626,-487Z" fill="#b0bcff" stroke="#b0bcff" stroke-width="1.51"/><path d="M3565,-977L2120,-1120L2919,-663Z" fill="#bcccfd" stroke="#bcccfd" stroke-width="1.51"/><path d="M4568,1523L4583,687L3879,1155Z" fill="#6095ff" stroke="#6095ff" stroke-width="1.51"/><path d="M4059,112L4221,-736L3926,-517Z" fill="#afb9ff" stroke="#afb9ff" stroke-width="1.51"/><path d="M1178,285L620,250L1022,732Z" fill="#afc9fc" stroke="#afc9fc" stroke-width="1.51"/><path d="M1507,-270L1044,-433L1178,285Z" fill="#d1defd" stroke="#d1defd" stroke-width="1.51"/><path d="M1897,-836L1044,-433L1507,-270Z" fill="#cedcfe" stroke="#cedcfe" stroke-width="1.51"/><path d="M929,-1187L1044,-433L1897,-836Z" fill="#d0ddfd" stroke="#d0ddfd" stroke-width="1.51"/><path d="M4893,-548L4221,-736L4059,112Z" fill="#afb9ff" stroke="#afb9ff" stroke-width="1.51"/><path d="M3926,-517L4221,-736L3565,-977Z" fill="#afb9ff" stroke="#afb9ff" stroke-width="1.51"/><path d="M2602,2113L2892,2568L3493,1973Z" fill="#4f89fd" stroke="#4f89fd" stroke-width="1.51"/><path d="M3493,1973L3943,2216L3807,1718Z" fill="#317bff" stroke="#317bff" stroke-width="1.51"/><path d="M2385,2545L2892,2568L2602,2113Z" fill="#598ffd" stroke="#598ffd" stroke-width="1.51"/><path d="M2385,2545L2379,1977L1901,2668Z" fill="#6095ff" stroke="#6095ff" stroke-width="1.51"/><path d="M1447,2182L2379,1977L1619,1410Z" fill="#6b99ff" stroke="#6b99ff" stroke-width="1.51"/><path d="M3807,1718L4568,1523L3879,1155Z" fill="#518afd" stroke="#518afd" stroke-width="1.51"/><path d="M3543,2859L3943,2216L3493,1973Z" fill="#357dff" stroke="#357dff" stroke-width="1.51"/><path d="M697,1650L1447,2182L1364,1256Z" fill="#7ea4fb" stroke="#7ea4fb" stroke-width="1.51"/><path d="M1364,1256L1447,2182L1619,1410Z" fill="#7ba5fc" stroke="#7ba5fc" stroke-width="1.51"/><path d="M3943,2216L4568,1523L3807,1718Z" fill="#367dff" stroke="#367dff" stroke-width="1.51"/><path d="M1044,-433L620,250L1178,285Z" fill="#d3e0fd" stroke="#d3e0fd" stroke-width="1.51"/><path d="M1022,732L697,1650L1364,1256Z" fill="#91b7fb" stroke="#91b7fb" stroke-width="1.51"/><path d="M4583,687L4956,409L4059,112Z" fill="#82a2fe" stroke="#82a2fe" stroke-width="1.51"/><path d="M4568,1523L4956,409L4583,687Z" fill="#6997ff" stroke="#6997ff" stroke-width="1.51"/><path d="M1447,2182L1901,2668L2379,1977Z" fill="#6696ff" stroke="#6696ff" stroke-width="1.51"/><path d="M2385,2545L3543,2859L2892,2568Z" fill="#508afd" stroke="#508afd" stroke-width="1.51"/><path d="M211,847L697,1650L1022,732Z" fill="#a1c3ff" stroke="#a1c3ff" stroke-width="1.51"/><path d="M1447,2182L844,2679L1901,2668Z" fill="#709afe" stroke="#709afe" stroke-width="1.51"/><path d="M2892,2568L3543,2859L3493,1973Z" fill="#4483fd" stroke="#4483fd" stroke-width="1.51"/><path d="M3943,2216L4669,2189L4568,1523Z" fill="#2c7aff" stroke="#2c7aff" stroke-width="1.51"/><path d="M1901,2668L3543,2859L2385,2545Z" fill="#5990fd" stroke="#5990fd" stroke-width="1.51"/><path d="M4221,-736L4980,-1034L3565,-977Z" fill="#afb9ff" stroke="#afb9ff" stroke-width="1.51"/><path d="M4956,409L4893,-548L4059,112Z" fill="#afb9ff" stroke="#afb9ff" stroke-width="1.51"/><path d="M697,1650L741,2018L1447,2182Z" fill="#7c9ffe" stroke="#7c9ffe" stroke-width="1.51"/><path d="M4568,1523L4669,2189L4956,409Z" fill="#568efc" stroke="#568efc" stroke-width="1.51"/><path d="M4175,3014L4669,2189L3943,2216Z" fill="#2c7aff" stroke="#2c7aff" stroke-width="1.51"/><path d="M2120,-1120L929,-1187L1897,-836Z" fill="#cbdaff" stroke="#cbdaff" stroke-width="1.51"/><path d="M1044,-433L250,-61L620,250Z" fill="#dfeaff" stroke="#dfeaff" stroke-width="1.51"/><path d="M697,1650L336,1768L741,2018Z" fill="#8dabff" stroke="#8dabff" stroke-width="1.51"/><path d="M620,250L211,847L1022,732Z" fill="#afcafc" stroke="#afcafc" stroke-width="1.51"/><path d="M-65,460L211,847L620,250Z" fill="#c6d8fd" stroke="#c6d8fd" stroke-width="1.51"/><path d="M341,-638L250,-61L1044,-433Z" fill="#e2ecff" stroke="#e2ecff" stroke-width="1.51"/><path d="M211,847L336,1768L697,1650Z" fill="#a4bffc" stroke="#a4bffc" stroke-width="1.51"/><path d="M929,-1187L341,-638L1044,-433Z" fill="#dce7fe" stroke="#dce7fe" stroke-width="1.51"/><path d="M4893,-548L4980,-1034L4221,-736Z" fill="#afb9ff" stroke="#afb9ff" stroke-width="1.51"/><path d="M3565,-977L4980,-1034L2120,-1120Z" fill="#b3bfff" stroke="#b3bfff" stroke-width="1.51"/><path d="M2120,-1120L4980,-1034L929,-1187Z" fill="#bfd0fd" stroke="#bfd0fd" stroke-width="1.51"/><path d="M4956,409L4980,-1034L4893,-548Z" fill="#afb9ff" stroke="#afb9ff" stroke-width="1.51"/><path d="M336,1768L553,2294L741,2018Z" fill="#8ba8ff" stroke="#8ba8ff" stroke-width="1.51"/><path d="M741,2018L844,2679L1447,2182Z" fill="#7a9efd" stroke="#7a9efd" stroke-width="1.51"/><path d="M-663,-40L-65,460L250,-61Z" fill="#f3f6ff" stroke="#f3f6ff" stroke-width="1.51"/><path d="M250,-61L-65,460L620,250Z" fill="#d9e6ff" stroke="#d9e6ff" stroke-width="1.51"/><path d="M211,847L-271,1329L336,1768Z" fill="#bacefd" stroke="#bacefd" stroke-width="1.51"/><path d="M551,3009L4175,3014L3543,2859Z" fill="#558efc" stroke="#558efc" stroke-width="1.51"/><path d="M3543,2859L4175,3014L3943,2216Z" fill="#2c7aff" stroke="#2c7aff" stroke-width="1.51"/><path d="M1901,2668L551,3009L3543,2859Z" fill="#6496ff" stroke="#6496ff" stroke-width="1.51"/><path d="M553,2294L844,2679L741,2018Z" fill="#85a4ff" stroke="#85a4ff" stroke-width="1.51"/><path d="M4175,3014L4872,2752L4669,2189Z" fill="#2c7aff" stroke="#2c7aff" stroke-width="1.51"/><path d="M4669,2189L4872,2752L4956,409Z" fill="#397ffe" stroke="#397ffe" stroke-width="1.51"/><path d="M553,2294L551,3009L844,2679Z" fill="#87a6ff" stroke="#87a6ff" stroke-width="1.51"/><path d="M336,1768L-29,2578L553,2294Z" fill="#9cb0ff" stroke="#9cb0ff" stroke-width="1.51"/><path d="M-407,756L-271,1329L211,847Z" fill="#c8d9ff" stroke="#c8d9ff" stroke-width="1.51"/><path d="M-663,-40L-407,756L-65,460Z" fill="#dce6fe" stroke="#dce6fe" stroke-width="1.51"/><path d="M-65,460L-407,756L211,847Z" fill="#cfdcfe" stroke="#cfdcfe" stroke-width="1.51"/><path d="M844,2679L551,3009L1901,2668Z" fill="#779cfc" stroke="#779cfc" stroke-width="1.51"/><path d="M-29,2578L551,3009L553,2294Z" fill="#97aeff" stroke="#97aeff" stroke-width="1.51"/><path d="M-340,2424L-29,2578L336,1768Z" fill="#afb9ff" stroke="#afb9ff" stroke-width="1.51"/><path d="M-407,756L-545,926L-271,1329Z" fill="#c7d8ff" stroke="#c7d8ff" stroke-width="1.51"/><path d="M-910,479L-545,926L-407,756Z" fill="#cedcfe" stroke="#cedcfe" stroke-width="1.51"/><path d="M341,-638L-441,-472L250,-61Z" fill="#fdfdff" stroke="#fdfdff" stroke-width="1.51"/><path d="M-456,-1188L-441,-472L341,-638Z" fill="#ffffff" stroke="#ffffff" stroke-width="1.51"/><path d="M-340,2424L336,1768L-271,1329Z" fill="#b1bdff" stroke="#b1bdff" stroke-width="1.51"/><path d="M-441,-472L-663,-40L250,-61Z" fill="#ffffff" stroke="#ffffff" stroke-width="1.51"/><path d="M-986,2122L-340,2424L-271,1329Z" fill="#afb9ff" stroke="#afb9ff" stroke-width="1.51"/><path d="M-29,2578L-591,2993L551,3009Z" fill="#afb9ff" stroke="#afb9ff" stroke-width="1.51"/><path d="M-545,926L-838,1267L-271,1329Z" fill="#c3d5ff" stroke="#c3d5ff" stroke-width="1.51"/><path d="M-910,479L-838,1267L-545,926Z" fill="#cadaff" stroke="#cadaff" stroke-width="1.51"/><path d="M-663,-40L-910,479L-407,756Z" fill="#dbe6fe" stroke="#dbe6fe" stroke-width="1.51"/><path d="M-663,-40L-930,-1073L-910,479Z" fill="#ffffff" stroke="#ffffff" stroke-width="1.51"/><path d="M-441,-472L-930,-1073L-663,-40Z" fill="#ffffff" stroke="#ffffff" stroke-width="1.51"/><path d="M929,-1187L-456,-1188L341,-638Z" fill="#f1f5ff" stroke="#f1f5ff" stroke-width="1.51"/><path d="M-456,-1188L-930,-1073L-441,-472Z" fill="#ffffff" stroke="#ffffff" stroke-width="1.51"/><path d="M-838,1267L-986,2122L-271,1329Z" fill="#b8c7fe" stroke="#b8c7fe" stroke-width="1.51"/><path d="M-340,2424L-591,2993L-29,2578Z" fill="#afb9ff" stroke="#afb9ff" stroke-width="1.51"/><path d="M-910,479L-986,2122L-838,1267Z" fill="#c0d1fe" stroke="#c0d1fe" stroke-width="1.51"/><path d="M-930,-1073L-986,2122L-910,479Z" fill="#d5e1fd" stroke="#d5e1fd" stroke-width="1.51"/><path d="M-986,2122L-591,2993L-340,2424Z" fill="#afb9ff" stroke="#afb9ff" stroke-width="1.51"/></svg>