<?xml version="1.0" encoding="UTF-8" standalone="no"?>
<!DOCTYPE svg PUBLIC "-//W3C//DTD SVG 1.1//EN" "http://www.w3.org/Graphics/SVG/1.1/DTD/svg11.dtd">
<svg version="1.1" xmlns="http://www.w3.org/2000/svg" xmlns:xlink="http://www.w3.org/1999/xlink" preserveAspectRatio="xMidYMid meet" viewBox="0 0 640 640" width="640" height="640"><defs><path d="M218.95 555.88L180.5 587.63L180.5 517.63L257.4 517.63L257.4 587.63L218.95 555.88ZM188.1 570.81L218.95 549.4L249.8 570.81L249.8 523.6L188.1 523.6L188.1 570.81Z" id="a27WYDZuww"></path><path d="M110.9 518.7L103.03 510.52L95.47 502.04L88.23 493.28L81.33 484.23L74.77 474.92L68.57 465.35L62.73 455.53L57.27 445.48L52.18 435.19L47.49 424.68L43.2 413.97L39.32 403.05L35.86 391.94L32.83 380.64L30.25 369.18L28.11 357.55L26.43 345.77L25.21 333.85L24.48 321.79L24.23 309.6L24.48 297.42L25.21 285.36L26.43 273.44L28.11 261.66L30.25 250.03L32.83 238.56L35.86 227.27L39.32 216.16L43.2 205.24L47.49 194.52L52.18 184.02L57.27 173.73L62.73 163.67L68.57 153.85L74.77 144.29L81.33 134.97L88.23 125.93L95.47 117.17L103.03 108.69L110.9 100.51L119.08 92.63L119.37 92.37L119.37 526.83L119.08 526.58L119.08 526.58L110.9 518.7ZM536.97 108.69L544.53 117.17L551.77 125.93L558.67 134.97L565.23 144.29L571.43 153.85L577.27 163.67L582.73 173.73L587.82 184.02L592.51 194.52L596.8 205.24L600.68 216.16L604.14 227.27L607.17 238.56L609.75 250.03L611.89 261.66L613.57 273.44L614.79 285.36L615.52 297.42L615.77 309.6L615.52 321.79L614.79 333.85L613.57 345.77L611.89 357.55L609.75 369.18L607.17 380.64L604.14 391.94L600.68 403.05L596.8 413.97L592.51 424.68L587.82 435.19L582.73 445.48L577.27 455.53L571.43 465.35L565.23 474.92L558.67 484.23L551.77 493.28L544.53 502.04L536.97 510.52L529.1 518.7L520.92 526.58L520.63 526.83L520.63 92.37L520.92 92.63L529.1 100.51L529.1 100.51L536.97 108.69Z" id="fKBXQCu23"></path><path d="M266.27 492.98C266.27 519.1 245.06 540.3 218.95 540.3C192.83 540.3 171.62 519.1 171.62 492.98C171.62 466.86 192.83 445.66 218.95 445.66C245.06 445.66 266.27 466.86 266.27 492.98Z" id="a2aK022PIo"></path><path d="M506.56 0.05L507.18 0.11L507.79 0.2L508.4 0.31L508.99 0.45L509.58 0.6L510.15 0.78L510.72 0.98L511.27 1.2L511.82 1.45L512.35 1.71L512.87 1.99L513.38 2.3L513.87 2.62L514.36 2.96L514.82 3.31L515.28 3.69L515.72 4.08L516.14 4.49L516.55 4.91L516.94 5.35L517.32 5.8L517.67 6.27L518.01 6.75L518.33 7.25L518.64 7.76L518.92 8.28L519.18 8.81L519.43 9.36L519.65 9.91L519.85 10.48L520.03 11.05L520.18 11.64L520.32 12.23L520.43 12.84L520.52 13.45L520.58 14.06L520.62 14.69L520.63 15.32L520.63 627.61L520.62 628.24L520.58 628.86L520.52 629.48L520.43 630.09L520.32 630.69L520.18 631.29L520.03 631.87L519.85 632.45L519.65 633.01L519.43 633.57L519.18 634.11L518.92 634.65L518.64 635.17L518.33 635.68L518.01 636.17L517.67 636.65L517.32 637.12L516.94 637.58L516.55 638.01L516.14 638.44L515.72 638.85L515.28 639.24L514.82 639.61L514.36 639.97L513.87 640.31L513.38 640.63L512.87 640.93L512.35 641.22L511.82 641.48L511.27 641.72L510.72 641.94L510.15 642.14L509.58 642.32L508.99 642.48L508.4 642.61L507.79 642.73L507.18 642.81L506.56 642.88L505.94 642.91L505.31 642.93L134.69 642.93L134.06 642.91L133.44 642.88L132.82 642.81L132.21 642.73L131.6 642.61L131.01 642.48L130.42 642.32L129.85 642.14L129.28 641.94L128.73 641.72L128.18 641.48L127.65 641.22L127.13 640.93L126.62 640.63L126.13 640.31L125.64 639.97L125.18 639.61L124.72 639.24L124.28 638.85L123.86 638.44L123.45 638.01L123.06 637.58L122.68 637.12L122.33 636.65L121.99 636.17L121.67 635.68L121.36 635.17L121.08 634.65L120.82 634.11L120.57 633.57L120.35 633.01L120.15 632.45L119.97 631.87L119.82 631.29L119.68 630.69L119.57 630.09L119.48 629.48L119.42 628.86L119.38 628.24L119.37 627.61L119.37 15.32L119.38 14.69L119.42 14.06L119.48 13.45L119.57 12.84L119.68 12.23L119.82 11.64L119.97 11.05L120.15 10.48L120.35 9.91L120.57 9.36L120.82 8.81L121.08 8.28L121.36 7.76L121.67 7.25L121.99 6.75L122.33 6.27L122.68 5.8L123.06 5.35L123.45 4.91L123.86 4.49L124.28 4.08L124.72 3.69L125.18 3.31L125.64 2.96L126.13 2.62L126.62 2.3L127.13 1.99L127.65 1.71L128.18 1.45L128.73 1.2L129.28 0.98L129.85 0.78L130.42 0.6L131.01 0.45L131.6 0.31L132.21 0.2L132.82 0.11L133.44 0.05L134.06 0.01L134.69 0L505.31 0L505.94 0.01L506.56 0.05ZM130.22 631.14L510.77 631.14L510.77 11L130.22 11L130.22 631.14Z" id="b37Q8pZ4bH"></path><path d="M480.37 72.99C485.73 72.99 490.07 77.33 490.07 82.68C490.07 84.62 490.07 80.74 490.07 82.68C490.07 88.03 485.73 92.37 480.37 92.37C415.47 92.37 230.45 92.37 165.54 92.37C160.19 92.37 155.85 88.03 155.85 82.68C155.85 80.74 155.85 84.62 155.85 82.68C155.85 77.33 160.19 72.99 165.54 72.99C230.45 72.99 415.47 72.99 480.37 72.99Z" id="b6YJImi7EP"></path><path d="M480.37 146.54C485.73 146.54 490.07 150.88 490.07 156.23C490.07 158.17 490.07 154.29 490.07 156.23C490.07 161.58 485.73 165.92 480.37 165.92C415.47 165.92 230.45 165.92 165.54 165.92C160.19 165.92 155.85 161.58 155.85 156.23C155.85 154.29 155.85 158.17 155.85 156.23C155.85 150.88 160.19 146.54 165.54 146.54C230.45 146.54 415.47 146.54 480.37 146.54Z" id="f3jLu2y2du"></path><path d="M480.37 224.03C485.73 224.03 490.07 228.37 490.07 233.72C490.07 235.66 490.07 231.78 490.07 233.72C490.07 239.07 485.73 243.41 480.37 243.41C415.47 243.41 230.45 243.41 165.54 243.41C160.19 243.41 155.85 239.07 155.85 233.72C155.85 231.78 155.85 235.66 155.85 233.72C155.85 228.37 160.19 224.03 165.54 224.03C230.45 224.03 415.47 224.03 480.37 224.03Z" id="ck3LJ4PUi"></path><path d="M480.37 302.51C485.73 302.51 490.07 306.84 490.07 312.2C490.07 314.14 490.07 310.26 490.07 312.2C490.07 317.55 485.73 321.89 480.37 321.89C415.47 321.89 230.45 321.89 165.54 321.89C160.19 321.89 155.85 317.55 155.85 312.2C155.85 310.26 155.85 314.14 155.85 312.2C155.85 306.84 160.19 302.51 165.54 302.51C230.45 302.51 415.47 302.51 480.37 302.51Z" id="a3fWCtJz"></path><path d="M480.37 391.83C485.73 391.83 490.07 396.17 490.07 401.52C490.07 403.46 490.07 399.58 490.07 401.52C490.07 406.87 485.73 411.21 480.37 411.21C415.47 411.21 230.45 411.21 165.54 411.21C160.19 411.21 155.85 406.87 155.85 401.52C155.85 399.58 155.85 403.46 155.85 401.52C155.85 396.17 160.19 391.83 165.54 391.83C230.45 391.83 415.47 391.83 480.37 391.83Z" id="aQsvFn51i"></path><path d="M257.4 492.98C257.4 514.2 240.17 531.43 218.95 531.43C197.72 531.43 180.5 514.2 180.5 492.98C180.5 471.76 197.72 454.53 218.95 454.53C240.17 454.53 257.4 471.76 257.4 492.98Z" id="i4fJ3rlZWX"></path><path d="M338.24 462.42L340.21 488.05L348.1 504.81L355 520.58L377.67 515.66L392.46 507.77L404.29 501.85L415.14 493.97L425 479.18L431.9 467.35L437.81 451.57L437.81 433.83L422.04 408.19L416.12 396.36L407.25 386.5L385.56 377.63L362.89 369.74L339.22 364.81L318.52 363.83L300.78 363.83L288.94 367.77L275.14 380.59L267.25 394.39L258.38 412.14L252.47 427.91L250.49 442.7L256.41 463.4L267.25 475.23L284.01 487.06L318.52 503.82L344.15 513.68L400.35 523.54L425.98 523.54L446.69 522.56L461.48 513.68L466.41 494.95L464.43 481.15L458.52 469.32L452.6 454.53L447.67 442.7" id="a23gQAjEPA"></path><path d="M361.74 518.9L360.91 499.15L366.67 482.7L373.26 467.06L379.84 454.72L383.13 472L383.13 493.39L384.77 509.85L393.82 485.16L397.94 468.71L401.23 457.19L401.23 468.71L401.23 481.87L400.4 493.39L405.34 471.18L406.99 459.66L408.63 482.7L410.28 495.04L417.68 477.76L420.15 461.31L420.97 446.5L421.8 463.77L418.5 491.75L414.39 522.19L411.92 540.29L411.92 550.98L427.55 552.63L451.41 545.22L480.21 542.75" id="b1ld2ddZmQ"></path></defs><g><g><g><use xlink:href="#a27WYDZuww" opacity="1" fill="#555555" fill-opacity="1"></use></g><g><g><filter id="shadow11889759" x="15.23" y="83.37" width="612.54" height="452.46" filterUnits="userSpaceOnUse" primitiveUnits="userSpaceOnUse"><feFlood></feFlood><feComposite in2="SourceAlpha" operator="in"></feComposite><feGaussianBlur stdDeviation="0"></feGaussianBlur><feOffset dx="3" dy="0" result="afterOffset"></feOffset><feFlood flood-color="#ff6767" flood-opacity="0.5"></feFlood><feComposite in2="afterOffset" operator="in"></feComposite><feMorphology operator="dilate" radius="1"></feMorphology><feComposite in2="SourceAlpha" operator="out"></feComposite></filter><path d="M110.9 518.7L103.03 510.52L95.47 502.04L88.23 493.28L81.33 484.23L74.77 474.92L68.57 465.35L62.73 455.53L57.27 445.48L52.18 435.19L47.49 424.68L43.2 413.97L39.32 403.05L35.86 391.94L32.83 380.64L30.25 369.18L28.11 357.55L26.43 345.77L25.21 333.85L24.48 321.79L24.23 309.6L24.48 297.42L25.21 285.36L26.43 273.44L28.11 261.66L30.25 250.03L32.83 238.56L35.86 227.27L39.32 216.16L43.2 205.24L47.49 194.52L52.18 184.02L57.27 173.73L62.73 163.67L68.57 153.85L74.77 144.29L81.33 134.97L88.23 125.93L95.47 117.17L103.03 108.69L110.9 100.51L119.08 92.63L119.37 92.37L119.37 526.83L119.08 526.58L119.08 526.58L110.9 518.7ZM536.97 108.69L544.53 117.17L551.77 125.93L558.67 134.97L565.23 144.29L571.43 153.85L577.27 163.67L582.73 173.73L587.82 184.02L592.51 194.52L596.8 205.24L600.68 216.16L604.14 227.27L607.17 238.56L609.75 250.03L611.89 261.66L613.57 273.44L614.79 285.36L615.52 297.42L615.77 309.6L615.52 321.79L614.79 333.85L613.57 345.77L611.89 357.55L609.75 369.18L607.17 380.64L604.14 391.94L600.68 403.05L596.8 413.97L592.51 424.68L587.82 435.19L582.73 445.48L577.27 455.53L571.43 465.35L565.23 474.92L558.67 484.23L551.77 493.28L544.53 502.04L536.97 510.52L529.1 518.7L520.92 526.58L520.63 526.83L520.63 92.37L520.92 92.63L529.1 100.51L529.1 100.51L536.97 108.69Z" id="cb8xqMetX" fill="white" fill-opacity="1" filter="url(#shadow11889759)"></path></g><use xlink:href="#fKBXQCu23" opacity="1" fill="#cf0000" fill-opacity="1"></use></g><g><use xlink:href="#a2aK022PIo" opacity="1" fill="#555555" fill-opacity="1"></use></g><g><g><filter id="shadow16240568" x="110.37" y="-9" width="423.26" height="664.93" filterUnits="userSpaceOnUse" primitiveUnits="userSpaceOnUse"><feFlood></feFlood><feComposite in2="SourceAlpha" operator="in"></feComposite><feGaussianBlur stdDeviation="0"></feGaussianBlur><feOffset dx="4" dy="4" result="afterOffset"></feOffset><feFlood flood-color="#e7dd89" flood-opacity="0.5"></feFlood><feComposite in2="afterOffset" operator="in"></feComposite><feMorphology operator="dilate" radius="0"></feMorphology><feComposite in2="SourceAlpha" operator="out"></feComposite></filter><path d="M506.56 0.05L507.18 0.11L507.79 0.2L508.4 0.31L508.99 0.45L509.58 0.6L510.15 0.78L510.72 0.98L511.27 1.2L511.82 1.45L512.35 1.71L512.87 1.99L513.38 2.3L513.87 2.62L514.36 2.96L514.82 3.31L515.28 3.69L515.72 4.08L516.14 4.49L516.55 4.91L516.94 5.35L517.32 5.8L517.67 6.27L518.01 6.75L518.33 7.25L518.64 7.76L518.92 8.28L519.18 8.81L519.43 9.36L519.65 9.91L519.85 10.48L520.03 11.05L520.18 11.64L520.32 12.23L520.43 12.84L520.52 13.45L520.58 14.06L520.62 14.69L520.63 15.32L520.63 627.61L520.62 628.24L520.58 628.86L520.52 629.48L520.43 630.09L520.32 630.69L520.18 631.29L520.03 631.87L519.85 632.45L519.65 633.01L519.43 633.57L519.18 634.11L518.92 634.65L518.64 635.17L518.33 635.68L518.01 636.17L517.67 636.65L517.32 637.12L516.94 637.58L516.55 638.01L516.14 638.44L515.72 638.85L515.28 639.24L514.82 639.61L514.36 639.97L513.87 640.31L513.38 640.63L512.87 640.93L512.35 641.22L511.82 641.48L511.27 641.72L510.72 641.94L510.15 642.14L509.58 642.32L508.99 642.48L508.4 642.61L507.79 642.73L507.18 642.81L506.56 642.88L505.94 642.91L505.31 642.93L134.69 642.93L134.06 642.91L133.44 642.88L132.82 642.81L132.21 642.73L131.6 642.61L131.01 642.48L130.42 642.32L129.85 642.14L129.28 641.94L128.73 641.72L128.18 641.48L127.65 641.22L127.13 640.93L126.62 640.63L126.13 640.31L125.64 639.97L125.18 639.61L124.72 639.24L124.28 638.85L123.86 638.44L123.45 638.01L123.06 637.58L122.68 637.12L122.33 636.65L121.99 636.17L121.67 635.68L121.36 635.17L121.08 634.65L120.82 634.11L120.57 633.57L120.35 633.01L120.15 632.45L119.97 631.87L119.82 631.29L119.68 630.69L119.57 630.09L119.48 629.48L119.42 628.86L119.38 628.24L119.37 627.61L119.37 15.32L119.38 14.69L119.42 14.06L119.48 13.45L119.57 12.84L119.68 12.23L119.82 11.64L119.97 11.05L120.15 10.48L120.35 9.91L120.57 9.36L120.82 8.81L121.08 8.28L121.36 7.76L121.67 7.25L121.99 6.75L122.33 6.27L122.68 5.8L123.06 5.35L123.45 4.91L123.86 4.49L124.28 4.08L124.72 3.69L125.18 3.31L125.64 2.96L126.13 2.62L126.62 2.3L127.13 1.99L127.65 1.71L128.18 1.45L128.73 1.2L129.28 0.98L129.85 0.78L130.42 0.6L131.01 0.45L131.6 0.31L132.21 0.2L132.82 0.11L133.44 0.05L134.06 0.01L134.69 0L505.31 0L505.94 0.01L506.56 0.05ZM130.22 631.14L510.77 631.14L510.77 11L130.22 11L130.22 631.14Z" id="e8TuZzg58" fill="white" fill-opacity="1" filter="url(#shadow16240568)"></path></g><use xlink:href="#b37Q8pZ4bH" opacity="1" fill="#555552" fill-opacity="1"></use></g><g><g><filter id="shadow2399501" x="146.85" y="63.99" width="356.22" height="41.38" filterUnits="userSpaceOnUse" primitiveUnits="userSpaceOnUse"><feFlood></feFlood><feComposite in2="SourceAlpha" operator="in"></feComposite><feGaussianBlur stdDeviation="0"></feGaussianBlur><feOffset dx="4" dy="4" result="afterOffset"></feOffset><feFlood flood-color="#e7dd89" flood-opacity="0.5"></feFlood><feComposite in2="afterOffset" operator="in"></feComposite><feMorphology operator="dilate" radius="0"></feMorphology><feComposite in2="SourceAlpha" operator="out"></feComposite></filter><path d="M480.37 72.99C485.73 72.99 490.07 77.33 490.07 82.68C490.07 84.62 490.07 80.74 490.07 82.68C490.07 88.03 485.73 92.37 480.37 92.37C415.47 92.37 230.45 92.37 165.54 92.37C160.19 92.37 155.85 88.03 155.85 82.68C155.85 80.74 155.85 84.62 155.85 82.68C155.85 77.33 160.19 72.99 165.54 72.99C230.45 72.99 415.47 72.99 480.37 72.99Z" id="aCysVOegi" fill="white" fill-opacity="1" filter="url(#shadow2399501)"></path></g><use xlink:href="#b6YJImi7EP" opacity="1" fill="#555555" fill-opacity="1"></use></g><g><g><filter id="shadow15231752" x="146.85" y="137.54" width="356.22" height="41.38" filterUnits="userSpaceOnUse" primitiveUnits="userSpaceOnUse"><feFlood></feFlood><feComposite in2="SourceAlpha" operator="in"></feComposite><feGaussianBlur stdDeviation="0"></feGaussianBlur><feOffset dx="4" dy="4" result="afterOffset"></feOffset><feFlood flood-color="#e7dd89" flood-opacity="0.5"></feFlood><feComposite in2="afterOffset" operator="in"></feComposite><feMorphology operator="dilate" radius="0"></feMorphology><feComposite in2="SourceAlpha" operator="out"></feComposite></filter><path d="M480.37 146.54C485.73 146.54 490.07 150.88 490.07 156.23C490.07 158.17 490.07 154.29 490.07 156.23C490.07 161.58 485.73 165.92 480.37 165.92C415.47 165.92 230.45 165.92 165.54 165.92C160.19 165.92 155.85 161.58 155.85 156.23C155.85 154.29 155.85 158.17 155.85 156.23C155.85 150.88 160.19 146.54 165.54 146.54C230.45 146.54 415.47 146.54 480.37 146.54Z" id="a395kCUa4h" fill="white" fill-opacity="1" filter="url(#shadow15231752)"></path></g><use xlink:href="#f3jLu2y2du" opacity="1" fill="#555555" fill-opacity="1"></use></g><g><g><filter id="shadow1814918" x="146.85" y="215.03" width="356.22" height="41.38" filterUnits="userSpaceOnUse" primitiveUnits="userSpaceOnUse"><feFlood></feFlood><feComposite in2="SourceAlpha" operator="in"></feComposite><feGaussianBlur stdDeviation="0"></feGaussianBlur><feOffset dx="4" dy="4" result="afterOffset"></feOffset><feFlood flood-color="#e7dd89" flood-opacity="0.5"></feFlood><feComposite in2="afterOffset" operator="in"></feComposite><feMorphology operator="dilate" radius="0"></feMorphology><feComposite in2="SourceAlpha" operator="out"></feComposite></filter><path d="M480.37 224.03C485.73 224.03 490.07 228.37 490.07 233.72C490.07 235.66 490.07 231.78 490.07 233.72C490.07 239.07 485.73 243.41 480.37 243.41C415.47 243.41 230.45 243.41 165.54 243.41C160.19 243.41 155.85 239.07 155.85 233.72C155.85 231.78 155.85 235.66 155.85 233.72C155.85 228.37 160.19 224.03 165.54 224.03C230.45 224.03 415.47 224.03 480.37 224.03Z" id="b2ACHM3glQ" fill="white" fill-opacity="1" filter="url(#shadow1814918)"></path></g><use xlink:href="#ck3LJ4PUi" opacity="1" fill="#555555" fill-opacity="1"></use></g><g><g><filter id="shadow92533" x="146.85" y="293.51" width="356.22" height="41.38" filterUnits="userSpaceOnUse" primitiveUnits="userSpaceOnUse"><feFlood></feFlood><feComposite in2="SourceAlpha" operator="in"></feComposite><feGaussianBlur stdDeviation="0"></feGaussianBlur><feOffset dx="4" dy="4" result="afterOffset"></feOffset><feFlood flood-color="#e7dd89" flood-opacity="0.5"></feFlood><feComposite in2="afterOffset" operator="in"></feComposite><feMorphology operator="dilate" radius="0"></feMorphology><feComposite in2="SourceAlpha" operator="out"></feComposite></filter><path d="M480.37 302.51C485.73 302.51 490.07 306.84 490.07 312.2C490.07 314.14 490.07 310.26 490.07 312.2C490.07 317.55 485.73 321.89 480.37 321.89C415.47 321.89 230.45 321.89 165.54 321.89C160.19 321.89 155.85 317.55 155.85 312.2C155.85 310.26 155.85 314.14 155.85 312.2C155.85 306.84 160.19 302.51 165.54 302.51C230.45 302.51 415.47 302.51 480.37 302.51Z" id="a3F4N5MqNv" fill="white" fill-opacity="1" filter="url(#shadow92533)"></path></g><use xlink:href="#a3fWCtJz" opacity="1" fill="#555555" fill-opacity="1"></use></g><g><g><filter id="shadow8216874" x="146.85" y="382.83" width="356.22" height="41.38" filterUnits="userSpaceOnUse" primitiveUnits="userSpaceOnUse"><feFlood></feFlood><feComposite in2="SourceAlpha" operator="in"></feComposite><feGaussianBlur stdDeviation="0"></feGaussianBlur><feOffset dx="4" dy="4" result="afterOffset"></feOffset><feFlood flood-color="#e7dd89" flood-opacity="0.5"></feFlood><feComposite in2="afterOffset" operator="in"></feComposite><feMorphology operator="dilate" radius="0"></feMorphology><feComposite in2="SourceAlpha" operator="out"></feComposite></filter><path d="M480.37 391.83C485.73 391.83 490.07 396.17 490.07 401.52C490.07 403.46 490.07 399.58 490.07 401.52C490.07 406.87 485.73 411.21 480.37 411.21C415.47 411.21 230.45 411.21 165.54 411.21C160.19 411.21 155.85 406.87 155.85 401.52C155.85 399.58 155.85 403.46 155.85 401.52C155.85 396.17 160.19 391.83 165.54 391.83C230.45 391.83 415.47 391.83 480.37 391.83Z" id="hqLlUPfLl" fill="white" fill-opacity="1" filter="url(#shadow8216874)"></path></g><use xlink:href="#aQsvFn51i" opacity="1" fill="#555555" fill-opacity="1"></use></g><g><use xlink:href="#i4fJ3rlZWX" opacity="1" fill="#ffff3d" fill-opacity="1"></use></g><g><g><use xlink:href="#a23gQAjEPA" opacity="1" fill-opacity="0" stroke="#7d759b" stroke-width="0" stroke-opacity="1"></use></g></g><g><g><use xlink:href="#b1ld2ddZmQ" opacity="1" fill-opacity="0" stroke="#555555" stroke-width="8" stroke-opacity="1"></use></g></g></g></g></svg>