<?xml version="1.0" encoding="UTF-8" standalone="no"?>
<!DOCTYPE svg PUBLIC "-//W3C//DTD SVG 1.1//EN" "http://www.w3.org/Graphics/SVG/1.1/DTD/svg11.dtd">
<svg version="1.1" xmlns="http://www.w3.org/2000/svg" xmlns:xlink="http://www.w3.org/1999/xlink" preserveAspectRatio="xMidYMid meet" viewBox="0 0 640 640" width="640" height="640"><defs><path d="M572.82 352.22L640 320L572.82 287.78L572.82 308.21L501.57 308.21L501.57 331.85L572.82 331.85L572.82 352.22Z" id="a40zF4dQf2"></path><path d="M67.18 352.22L0 320L67.18 287.78L67.18 308.21L138.43 308.21L138.43 331.85L67.18 331.85L67.18 352.22Z" id="b2u3ImJVIh"></path><path d="M287.78 67.18L320 0L352.22 67.18L331.79 67.18L331.79 138.43L308.15 138.43L308.15 67.18L287.78 67.18Z" id="b1x2JYCAv"></path><path d="M287.78 572.82L320 640L352.22 572.82L331.79 572.82L331.79 501.57L308.15 501.57L308.15 572.82L287.78 572.82Z" id="c1EzeYY5ao"></path><path d="M484.41 529.96L554.7 554.68L529.98 484.39L515.54 498.84L465.16 448.46L448.44 465.18L498.82 515.56L484.41 529.96Z" id="a33vH84KRv"></path><path d="M155.59 529.96L85.3 554.68L110.02 484.39L124.46 498.84L174.84 448.46L191.56 465.18L141.18 515.56L155.59 529.96Z" id="a1xXHhOSqh"></path><path d="M155.59 110.04L85.3 85.32L110.02 155.61L124.46 141.16L174.84 191.54L191.56 174.82L141.18 124.44L155.59 110.04Z" id="bgdj6KiQO"></path><path d="M484.41 110.04L554.7 85.32L529.98 155.61L515.54 141.16L465.16 191.54L448.44 174.82L498.82 124.44L484.41 110.04Z" id="b4lQMYfNgK"></path><path d="M329.3 187.01L332.32 187.44L335.31 187.99L338.26 188.66L341.16 189.43L344.02 190.32L346.82 191.32L349.58 192.42L352.28 193.63L354.92 194.93L357.51 196.34L360.03 197.84L362.49 199.43L364.88 201.12L367.21 202.89L369.46 204.75L371.64 206.7L373.74 208.72L375.77 210.82L377.71 213L379.57 215.26L381.34 217.58L383.03 219.97L384.62 222.43L386.12 224.96L387.53 227.54L388.83 230.18L390.04 232.88L391.14 235.64L392.14 238.45L393.03 241.3L393.81 244.2L394.47 247.15L395.02 250.14L395.45 253.17L395.77 256.23L395.95 259.33L396.02 262.46L395.95 265.59L395.77 268.69L395.45 271.76L395.02 274.79L394.47 277.77L393.81 280.72L393.03 283.62L392.14 286.48L391.14 289.29L390.04 292.04L388.83 294.74L387.53 297.38L386.12 299.97L384.62 302.49L383.03 304.95L381.34 307.34L379.57 309.67L377.71 311.92L375.77 314.1L373.74 316.2L371.64 318.23L369.46 320.17L367.21 322.03L364.88 323.8L362.98 325.15L362.98 367.77L362.97 368.05L362.95 368.33L362.92 368.6L362.89 368.88L362.84 369.14L362.78 369.41L362.71 369.67L362.63 369.93L362.54 370.18L362.44 370.43L362.33 370.67L362.21 370.91L362.09 371.14L361.95 371.37L361.81 371.59L361.66 371.8L361.5 372.01L361.33 372.22L361.15 372.41L360.97 372.6L360.78 372.78L360.59 372.96L360.39 373.13L360.18 373.28L359.96 373.44L359.74 373.58L359.51 373.71L359.28 373.84L359.04 373.96L358.8 374.07L358.55 374.17L358.3 374.26L358.04 374.34L357.78 374.41L357.52 374.47L357.25 374.51L356.97 374.55L356.7 374.58L356.42 374.6L356.14 374.6L283.86 374.6L283.58 374.6L283.3 374.58L283.03 374.55L282.75 374.51L282.48 374.47L282.22 374.41L281.96 374.34L281.7 374.26L281.45 374.17L281.2 374.07L280.96 373.96L280.72 373.84L280.49 373.71L280.26 373.58L280.04 373.44L279.82 373.28L279.61 373.13L279.41 372.96L279.22 372.78L279.03 372.6L278.85 372.41L278.67 372.22L278.5 372.01L278.34 371.8L278.19 371.59L278.05 371.37L277.91 371.14L277.79 370.91L277.67 370.67L277.56 370.43L277.46 370.18L277.37 369.93L277.29 369.67L277.22 369.41L277.16 369.14L277.11 368.88L277.08 368.6L277.05 368.33L277.03 368.05L277.02 367.77L277.02 325.15L275.12 323.8L272.79 322.03L270.54 320.17L268.36 318.23L266.26 316.2L264.23 314.1L262.29 311.92L260.43 309.67L258.66 307.34L256.97 304.95L255.38 302.49L253.88 299.97L252.47 297.38L251.17 294.74L249.96 292.04L248.86 289.29L247.86 286.48L246.97 283.62L246.19 280.72L245.53 277.77L244.98 274.79L244.55 271.76L244.23 268.69L244.05 265.59L243.98 262.46L244.05 259.33L244.23 256.23L244.55 253.17L244.98 250.14L245.53 247.15L246.19 244.2L246.97 241.3L247.86 238.45L248.86 235.64L249.96 232.88L251.17 230.18L252.47 227.54L253.88 224.96L255.38 222.43L256.97 219.97L258.66 217.58L260.43 215.26L262.29 213L264.23 210.82L266.26 208.72L268.36 206.7L270.54 204.75L272.79 202.89L275.12 201.12L277.51 199.43L279.97 197.84L282.49 196.34L285.08 194.93L287.72 193.63L290.42 192.42L293.18 191.32L295.98 190.32L298.84 189.43L301.74 188.66L304.69 187.99L307.68 187.44L310.7 187.01L313.77 186.7L316.87 186.51L320 186.44L323.13 186.51L326.23 186.7L326.23 186.7L329.3 187.01ZM312.29 195.36L309.65 195.74L307.04 196.23L304.46 196.81L301.93 197.5L299.43 198.28L296.98 199.16L294.57 200.13L292.21 201.19L289.9 202.34L287.64 203.58L285.44 204.9L283.29 206.31L281.2 207.79L279.17 209.35L277.2 210.99L275.3 212.7L273.46 214.49L271.69 216.34L269.99 218.26L268.37 220.24L266.82 222.29L265.35 224.4L263.96 226.57L262.64 228.79L261.42 231.07L260.28 233.39L259.22 235.77L258.26 238.2L257.39 240.67L256.61 243.19L255.93 245.74L255.35 248.34L254.87 250.97L254.49 253.64L254.22 256.34L254.05 259.07L254 261.83L254.05 264.59L254.22 267.32L254.49 270.02L254.87 272.68L255.35 275.32L255.93 277.91L256.61 280.47L257.39 282.99L258.26 285.46L259.22 287.88L260.28 290.26L261.42 292.59L262.64 294.87L263.96 297.09L265.35 299.26L266.82 301.37L268.37 303.41L269.99 305.4L271.69 307.32L273.46 309.17L275.3 310.95L277.2 312.67L279.17 314.3L281.2 315.87L282.87 317.05L282.87 354.64L282.87 354.89L282.89 355.13L282.91 355.37L282.95 355.61L282.99 355.85L283.04 356.08L283.1 356.31L283.17 356.53L283.25 356.75L283.34 356.97L283.43 357.18L283.53 357.39L283.64 357.59L283.76 357.79L283.89 357.98L284.02 358.17L284.16 358.35L284.31 358.53L284.46 358.7L284.62 358.87L284.78 359.03L284.95 359.18L285.13 359.32L285.31 359.46L285.5 359.6L285.69 359.72L285.89 359.84L286.1 359.95L286.3 360.05L286.52 360.15L286.73 360.23L286.95 360.31L287.18 360.38L287.41 360.44L287.64 360.49L287.87 360.54L288.11 360.57L288.35 360.6L288.59 360.61L288.84 360.62L351.99 360.62L352.23 360.61L352.48 360.6L352.72 360.57L352.96 360.54L353.19 360.49L353.42 360.44L353.65 360.38L353.87 360.31L354.1 360.23L354.31 360.15L354.52 360.05L354.73 359.95L354.93 359.84L355.13 359.72L355.33 359.6L355.51 359.46L355.7 359.32L355.87 359.18L356.05 359.03L356.21 358.87L356.37 358.7L356.52 358.53L356.67 358.35L356.81 358.17L356.94 357.98L357.07 357.79L357.18 357.59L357.29 357.39L357.4 357.18L357.49 356.97L357.58 356.75L357.66 356.53L357.73 356.31L357.79 356.08L357.84 355.85L357.88 355.61L357.92 355.37L357.94 355.13L357.96 354.89L357.96 354.64L357.96 317.05L359.63 315.87L361.66 314.3L363.63 312.67L365.53 310.95L367.37 309.17L369.14 307.32L370.83 305.4L372.46 303.41L374.01 301.37L375.48 299.26L376.87 297.09L378.18 294.87L379.41 292.59L380.55 290.26L381.61 287.88L382.57 285.46L383.44 282.99L384.22 280.47L384.9 277.91L385.48 275.32L385.96 272.68L386.34 270.02L386.61 267.32L386.77 264.59L386.83 261.83L386.77 259.07L386.61 256.34L386.34 253.64L385.96 250.97L385.48 248.34L384.9 245.74L384.22 243.19L383.44 240.67L382.57 238.2L381.61 235.77L380.55 233.39L379.41 231.07L378.18 228.79L376.87 226.57L375.48 224.4L374.01 222.29L372.46 220.24L370.83 218.26L369.14 216.34L367.37 214.49L365.53 212.7L363.63 210.99L361.66 209.35L359.63 207.79L357.54 206.31L355.39 204.9L353.18 203.58L350.92 202.34L348.61 201.19L346.25 200.13L343.85 199.16L341.4 198.28L338.9 197.5L336.37 196.81L333.79 196.23L331.18 195.74L328.54 195.36L325.86 195.09L323.15 194.92L320.41 194.86L317.68 194.92L314.97 195.09L314.97 195.09L312.29 195.36Z" id="bk9s9HGMO"></path><path d="M277.25 364.26L363.97 364.26C363.97 380.33 363.97 390.37 363.97 394.38C363.97 415.1 347.18 431.89 326.47 431.89C316.63 431.89 323.7 431.89 313.63 431.89C293.54 431.89 277.25 415.6 277.25 395.51C277.25 391.34 277.25 380.93 277.25 364.26Z" id="a1AYYeNHTS"></path><path d="M354.91 380.17L286.31 380.17" id="a28Ixxz9My"></path><path d="M287.78 403.24L352.22 403.24" id="awhY6W6zZ"></path><path d="M299.46 221.45L299.6 222.9L299.68 224.36L299.71 225.83L299.68 227.31L299.6 228.77L299.59 228.85L299.51 228.85L298.22 228.98L296.96 229.19L295.72 229.47L294.52 229.83L293.34 230.26L292.2 230.76L291.09 231.33L290.03 231.97L289 232.66L288.02 233.42L287.08 234.24L286.19 235.11L285.35 236.03L284.57 237L283.84 238.02L283.17 239.09L282.56 240.2L282.01 241.35L281.52 242.53L281.11 243.75L280.76 245.01L280.49 246.29L280.29 247.6L280.17 248.94L280.13 250.29L280.17 251.65L280.29 252.99L280.49 254.3L280.76 255.58L281.11 256.83L281.32 257.46L281 257.63L279.8 258.25L278.57 258.82L277.47 259.27L277.14 258.26L276.81 257.04L276.52 255.79L276.28 254.52L276.09 253.24L275.96 251.94L275.87 250.63L275.85 249.3L275.87 247.97L275.96 246.66L276.09 245.36L276.28 244.08L276.52 242.81L276.81 241.57L277.14 240.34L277.53 239.13L277.96 237.95L278.44 236.79L278.96 235.65L279.53 234.53L280.14 233.45L280.79 232.39L281.48 231.35L282.21 230.35L282.98 229.38L283.78 228.44L284.62 227.53L285.5 226.65L286.4 225.81L287.35 225.01L288.32 224.24L289.32 223.51L290.35 222.82L291.42 222.17L292.5 221.56L293.62 220.99L294.76 220.47L295.92 219.99L297.1 219.56L298.31 219.17L299.07 218.97L299.26 220.03L299.46 221.45Z" id="c18PG9ha3z"></path></defs><g><g><g><use xlink:href="#a40zF4dQf2" opacity="1" fill="#555555" fill-opacity="1"></use></g><g><use xlink:href="#b2u3ImJVIh" opacity="1" fill="#555555" fill-opacity="1"></use></g><g><use xlink:href="#b1x2JYCAv" opacity="1" fill="#555555" fill-opacity="1"></use></g><g><use xlink:href="#c1EzeYY5ao" opacity="1" fill="#555555" fill-opacity="1"></use></g><g><use xlink:href="#a33vH84KRv" opacity="1" fill="#555555" fill-opacity="1"></use></g><g><use xlink:href="#a1xXHhOSqh" opacity="1" fill="#555555" fill-opacity="1"></use></g><g><use xlink:href="#bgdj6KiQO" opacity="1" fill="#555555" fill-opacity="1"></use></g><g><use xlink:href="#b4lQMYfNgK" opacity="1" fill="#555555" fill-opacity="1"></use></g><g><use xlink:href="#bk9s9HGMO" opacity="1" fill="#fce100" fill-opacity="1"></use></g><g><use xlink:href="#a1AYYeNHTS" opacity="1" fill="#858585" fill-opacity="1"></use></g><g><g><use xlink:href="#a28Ixxz9My" opacity="1" fill-opacity="0" stroke="#252525" stroke-width="8" stroke-opacity="1"></use></g></g><g><g><use xlink:href="#awhY6W6zZ" opacity="1" fill-opacity="0" stroke="#252525" stroke-width="8" stroke-opacity="1"></use></g></g><g><use xlink:href="#c18PG9ha3z" opacity="1" fill="#ffd100" fill-opacity="1"></use></g></g></g></svg>