<?xml version="1.0" encoding="UTF-8" standalone="no"?>
<!DOCTYPE svg PUBLIC "-//W3C//DTD SVG 1.1//EN" "http://www.w3.org/Graphics/SVG/1.1/DTD/svg11.dtd">
<svg version="1.1" xmlns="http://www.w3.org/2000/svg" xmlns:xlink="http://www.w3.org/1999/xlink" preserveAspectRatio="xMidYMid meet" viewBox="0 0 640 640" width="640" height="640"><defs><path d="M312.31 6.94L324.03 6.94L336.21 6.95L348.85 6.95L361.96 6.96L588.59 7.28L597.53 10.89L598.43 11.26L599.33 11.67L600.23 12.1L601.14 12.55L602.04 13.03L602.95 13.54L603.86 14.06L604.76 14.61L605.67 15.17L606.57 15.76L607.46 16.37L608.36 17L609.24 17.64L610.12 18.3L611 18.98L611.87 19.67L612.72 20.38L613.57 21.11L614.41 21.84L615.23 22.59L616.05 23.35L616.85 24.13L617.64 24.91L618.41 25.7L619.17 26.51L619.91 27.32L620.63 28.13L621.34 28.96L622.03 29.79L622.7 30.63L623.34 31.47L623.97 32.31L624.57 33.16L625.16 34.01L625.71 34.86L626.25 35.71L626.75 36.57L627.24 37.42L627.69 38.27L628.12 39.12L628.4 39.72L628.68 40.3L628.94 40.87L629.19 41.42L629.43 41.96L629.66 42.49L629.87 43.01L630.08 43.52L630.28 44.02L630.46 44.53L630.64 45.03L630.81 45.54L630.97 46.04L631.12 46.56L631.26 47.08L631.39 47.6L631.52 48.14L631.64 48.69L631.75 49.26L631.86 49.84L631.96 50.44L632.05 51.06L632.14 51.71L632.22 52.37L632.3 53.07L632.38 53.79L632.45 54.54L632.51 55.33L632.58 56.15L632.64 57L632.69 57.9L632.75 58.83L632.8 59.81L632.85 60.83L632.9 61.89L632.95 63L632.99 64.17L633.04 65.38L633.09 66.65L633.13 67.97L633.6 88.05L537.61 88.05L537.61 332.4L537.61 352.09L537.62 370.74L537.62 388.38L537.62 405.04L537.62 420.75L537.62 435.54L537.61 449.43L537.59 462.47L537.57 474.68L537.55 486.08L537.51 496.72L537.46 506.61L537.41 515.79L537.34 524.29L537.26 532.14L537.16 539.37L537.05 546L536.92 552.07L536.78 557.61L536.61 562.65L536.43 567.21L536.22 571.34L536 575.05L535.75 578.37L535.48 581.35L535.18 584L534.85 586.35L534.5 588.45L534.12 590.3L533.71 591.96L533.27 593.44L532.79 594.78L532.29 596L531.75 597.14L531.17 598.23L530.56 599.29L529.91 600.35L529.23 601.45L528.5 602.62L527.73 603.88L527.25 604.67L526.75 605.45L526.25 606.22L525.74 606.98L525.22 607.73L524.69 608.46L524.16 609.19L523.61 609.9L523.06 610.6L522.49 611.29L521.92 611.97L521.33 612.65L520.74 613.31L520.13 613.96L519.52 614.6L518.89 615.23L518.25 615.86L517.6 616.47L516.94 617.08L516.26 617.68L515.58 618.27L514.88 618.85L514.17 619.42L513.45 619.99L512.71 620.55L511.96 621.1L511.2 621.65L510.43 622.18L509.64 622.72L508.83 623.24L508.01 623.76L507.18 624.27L506.33 624.78L505.47 625.28L504.6 625.78L503.7 626.27L502.79 626.75L501.87 627.24L500.93 627.71L499.97 628.19L489.78 633.05L53.63 633.05L41.71 627.09L38.27 625.27L35 623.3L31.92 621.18L29.01 618.92L26.27 616.54L23.71 614.03L21.33 611.41L19.13 608.68L17.1 605.86L15.24 602.95L13.57 599.95L12.07 596.89L10.74 593.76L9.59 590.57L8.62 587.34L7.83 584.06L7.21 580.75L6.76 577.42L6.5 574.07L6.4 570.71L6.49 567.36L6.75 564.01L7.19 560.67L7.8 557.37L8.59 554.09L9.56 550.85L10.7 547.67L12.02 544.54L13.51 541.47L15.18 538.48L17.03 535.57L19.05 532.74L21.25 530.02L23.62 527.4L26.17 524.89L28.89 522.5L31.8 520.24L34.87 518.12L38.13 516.15L41.56 514.33L42.22 514.01L42.86 513.7L43.48 513.4L44.09 513.12L44.68 512.85L45.26 512.59L45.82 512.34L46.37 512.1L46.92 511.88L47.46 511.66L47.99 511.46L48.51 511.26L49.03 511.08L49.55 510.9L50.06 510.74L50.58 510.58L51.1 510.43L51.62 510.29L52.14 510.16L52.67 510.04L53.2 509.92L53.75 509.81L54.3 509.71L54.87 509.61L55.44 509.52L56.03 509.44L56.64 509.36L57.26 509.28L57.9 509.21L58.56 509.15L59.24 509.09L59.94 509.03L60.66 508.98L61.41 508.93L62.18 508.88L62.98 508.84L63.81 508.8L64.67 508.76L65.57 508.72L66.49 508.68L81.24 508.06L81.55 281.12L82.02 54.18L87.97 42.27L88.62 40.98L89.28 39.72L89.96 38.49L90.66 37.27L91.38 36.08L92.11 34.92L92.87 33.77L93.64 32.65L94.43 31.55L95.24 30.47L96.07 29.42L96.92 28.39L97.78 27.38L98.67 26.39L99.57 25.43L100.49 24.49L101.43 23.57L102.39 22.68L103.37 21.81L104.36 20.96L105.38 20.13L106.41 19.33L107.46 18.55L108.54 17.79L109.63 17.05L110.74 16.34L111.87 15.65L113.01 14.98L114.18 14.33L115.37 13.71L116.57 13.11L117.8 12.53L119.04 11.97L120.3 11.44L121.58 10.93L122.88 10.44L124.2 9.97L125.54 9.53L126.9 9.1L128.28 8.7L128.78 8.59L129.45 8.48L130.31 8.37L131.35 8.27L132.6 8.17L134.05 8.08L135.71 7.99L137.6 7.91L139.72 7.83L142.08 7.75L144.68 7.68L147.53 7.61L150.65 7.55L154.03 7.48L157.69 7.43L161.64 7.37L165.88 7.32L170.42 7.28L175.26 7.23L180.43 7.19L185.91 7.16L191.73 7.12L197.88 7.09L204.39 7.06L211.25 7.04L218.47 7.02L226.06 7L234.02 6.98L242.38 6.97L251.13 6.96L260.27 6.95L269.83 6.94L279.81 6.94L290.21 6.93L301.04 6.93L312.31 6.94ZM228.82 533.47L216.73 533.47L205.23 533.47L194.3 533.47L183.93 533.48L174.1 533.48L164.8 533.49L156.01 533.5L147.72 533.52L139.9 533.53L132.56 533.55L125.66 533.58L119.2 533.6L113.16 533.63L107.52 533.67L102.27 533.7L97.4 533.74L92.89 533.79L88.72 533.84L84.88 533.9L81.35 533.96L78.12 534.03L75.17 534.1L72.49 534.18L70.07 534.26L67.88 534.36L65.91 534.45L64.15 534.56L62.59 534.67L61.19 534.79L59.96 534.92L58.88 535.05L57.92 535.2L57.09 535.35L56.35 535.51L55.69 535.68L55.11 535.86L54.58 536.04L54.09 536.24L53.63 536.45L52.63 536.92L51.66 537.43L50.7 537.96L49.75 538.52L48.83 539.12L47.92 539.74L47.03 540.38L46.16 541.05L45.31 541.75L44.47 542.47L43.66 543.21L42.87 543.98L42.1 544.77L41.35 545.58L40.62 546.41L39.92 547.27L39.23 548.14L38.58 549.03L37.94 549.93L37.33 550.86L36.75 551.8L36.19 552.75L35.66 553.72L35.15 554.71L34.67 555.71L34.22 556.71L33.79 557.74L33.4 558.77L33.03 559.81L32.69 560.86L32.39 561.92L32.11 562.99L31.86 564.07L31.65 565.15L31.46 566.24L31.31 567.33L31.19 568.43L31.11 569.53L31.06 570.63L31.04 571.74L31.06 572.8L31.13 573.88L31.25 574.96L31.41 576.05L31.62 577.14L31.87 578.24L32.16 579.34L32.49 580.44L32.86 581.53L33.26 582.63L33.71 583.72L34.19 584.81L34.7 585.89L35.25 586.96L35.83 588.02L36.44 589.07L37.08 590.11L37.75 591.13L38.45 592.14L39.18 593.13L39.93 594.09L40.7 595.04L41.5 595.97L42.32 596.87L43.16 597.75L44.03 598.6L44.91 599.42L45.81 600.22L46.72 600.98L47.65 601.71L48.59 602.4L49.55 603.06L50.52 603.68L51.5 604.27L52.49 604.81L53.49 605.31L54.5 605.77L55.51 606.18L56.53 606.55L57.55 606.87L57.96 606.97L58.55 607.07L59.31 607.17L60.25 607.26L61.38 607.35L62.69 607.44L64.19 607.52L65.88 607.6L67.78 607.68L69.87 607.76L72.16 607.83L74.67 607.89L77.38 607.96L80.31 608.02L83.45 608.08L86.82 608.14L90.41 608.19L94.24 608.24L98.29 608.29L102.58 608.34L107.11 608.38L111.88 608.42L116.89 608.46L122.16 608.49L127.68 608.52L133.46 608.55L139.49 608.58L145.79 608.61L152.36 608.63L159.2 608.65L166.31 608.67L173.7 608.69L181.37 608.7L189.33 608.72L197.57 608.73L206.11 608.73L214.94 608.74L224.07 608.75L233.5 608.75L243.24 608.75L422.98 608.75L418.27 598.55L417.84 597.61L417.44 596.64L417.05 595.65L416.69 594.63L416.35 593.59L416.03 592.53L415.74 591.45L415.47 590.34L415.22 589.2L414.99 588.05L414.78 586.87L414.6 585.66L414.43 584.43L414.29 583.18L414.17 581.91L414.08 580.61L414.01 579.29L413.95 577.95L413.92 576.58L413.92 575.19L413.93 573.77L413.97 572.33L414.03 570.87L414.11 569.38L414.21 567.87L414.34 566.34L414.49 564.78L414.66 563.2L414.85 561.6L415.06 559.97L415.3 558.32L415.56 556.65L415.84 554.95L416.14 553.23L416.47 551.48L416.81 549.72L417.18 547.92L417.58 546.11L417.99 544.27L418.43 542.41L422.81 533.47L241.51 533.47L228.82 533.47ZM323.91 31.75L316.04 31.76L308.25 31.76L300.55 31.77L292.94 31.78L285.42 31.79L278.01 31.8L270.71 31.82L263.53 31.84L256.47 31.86L249.55 31.88L242.76 31.9L236.11 31.93L229.61 31.95L223.28 31.98L217.1 32.01L211.09 32.04L205.26 32.07L199.61 32.11L194.15 32.14L188.89 32.18L183.82 32.22L178.97 32.25L174.33 32.29L169.91 32.33L165.72 32.37L161.76 32.41L158.04 32.46L154.57 32.5L151.35 32.54L148.4 32.59L145.71 32.63L143.29 32.68L141.15 32.72L139.3 32.77L137.74 32.82L136.48 32.86L135.52 32.91L134.88 32.96L134.55 33L133.65 33.3L132.75 33.62L131.86 33.96L130.97 34.33L130.08 34.71L129.21 35.12L128.34 35.55L127.48 36.01L126.63 36.48L125.78 36.97L124.95 37.48L124.13 38.01L123.32 38.56L122.52 39.12L121.74 39.7L120.96 40.3L120.21 40.92L119.46 41.55L118.74 42.19L118.03 42.85L117.33 43.52L116.66 44.2L116 44.9L115.36 45.61L114.74 46.33L114.13 47.06L113.56 47.8L113 48.55L112.46 49.31L111.95 50.08L111.46 50.85L110.99 51.64L110.55 52.43L110.13 53.22L109.74 54.02L109.38 54.83L109.04 55.64L108.73 56.46L108.45 57.28L108.2 58.1L108.1 58.53L108 59.18L107.9 60.04L107.81 61.13L107.72 62.44L107.63 63.98L107.55 65.75L107.47 67.77L107.39 70.03L107.31 72.54L107.24 75.3L107.17 78.32L107.11 81.6L107.05 85.15L106.99 88.97L106.93 93.07L106.88 97.45L106.83 102.12L106.78 107.07L106.73 112.32L106.69 117.87L106.65 123.73L106.61 129.89L106.58 136.36L106.55 143.15L106.52 150.27L106.49 157.71L106.46 165.48L106.44 173.59L106.42 182.04L106.4 190.84L106.38 199.99L106.37 209.48L106.36 219.34L106.35 229.57L106.34 240.16L106.33 251.12L106.33 262.46L106.32 274.18L106.32 286.29L106.32 508.37L293.43 508.37L480.38 508.22L483.99 512.29L484.33 512.72L484.66 513.14L484.96 513.56L485.25 513.98L485.52 514.41L485.76 514.83L485.99 515.25L486.21 515.67L486.4 516.09L486.57 516.5L486.73 516.92L486.86 517.34L486.98 517.76L487.08 518.17L487.15 518.59L487.21 519.01L487.25 519.42L487.27 519.84L487.28 520.25L487.26 520.67L487.22 521.08L487.17 521.5L487.09 521.91L487 522.32L486.89 522.74L486.76 523.15L486.61 523.56L486.43 523.98L486.25 524.39L486.04 524.8L485.81 525.21L485.56 525.63L485.29 526.04L485.01 526.45L484.7 526.86L484.38 527.27L484.03 527.69L483.67 528.1L483.29 528.51L482.89 528.92L482.62 529.19L482.35 529.44L482.09 529.69L481.84 529.93L481.58 530.15L481.33 530.37L481.09 530.58L480.84 530.78L480.59 530.97L480.35 531.16L480.11 531.33L479.87 531.5L479.63 531.65L479.38 531.8L479.14 531.95L478.9 532.08L478.65 532.21L478.41 532.33L478.16 532.44L477.91 532.55L477.65 532.65L477.39 532.74L477.13 532.83L476.87 532.91L476.6 532.98L476.32 533.05L476.04 533.11L475.76 533.17L475.47 533.22L475.17 533.27L474.86 533.31L474.55 533.35L474.23 533.38L473.9 533.4L473.57 533.42L473.22 533.44L472.87 533.46L472.51 533.46L472.13 533.47L471.75 533.47L470.34 533.5L468.95 533.6L467.57 533.76L466.2 533.98L464.85 534.25L463.52 534.59L462.2 534.98L460.9 535.43L459.63 535.93L458.37 536.48L457.14 537.09L455.93 537.75L454.75 538.45L453.59 539.2L452.47 540L451.37 540.84L450.3 541.73L449.26 542.65L448.26 543.62L447.29 544.63L446.35 545.67L445.45 546.75L444.59 547.87L443.77 549.02L442.99 550.21L442.25 551.42L441.55 552.67L440.9 553.94L440.29 555.24L439.73 556.57L439.21 557.92L438.75 559.29L438.33 560.69L437.97 562.1L437.66 563.54L437.4 564.99L437.2 566.46L437.05 567.95L436.96 569.45L436.93 570.96L436.95 572.04L436.98 573.11L437.04 574.17L437.11 575.21L437.21 576.24L437.34 577.25L437.48 578.24L437.65 579.23L437.84 580.19L438.06 581.14L438.3 582.08L438.56 583L438.84 583.91L439.14 584.81L439.47 585.69L439.82 586.55L440.2 587.4L440.6 588.24L441.02 589.07L441.46 589.88L441.93 590.67L442.42 591.45L442.93 592.22L443.47 592.98L444.03 593.72L444.62 594.45L445.22 595.16L445.86 595.86L446.51 596.55L447.19 597.22L447.89 597.89L448.62 598.53L449.37 599.17L450.14 599.79L450.94 600.4L451.76 601L452.6 601.59L453.47 602.16L454.37 602.72L455.28 603.26L456.69 604.05L458.12 604.78L459.56 605.43L461.02 606.02L462.49 606.55L463.98 607.01L465.47 607.4L466.97 607.73L468.47 608L469.98 608.21L471.5 608.35L473.01 608.43L474.52 608.45L476.03 608.41L477.53 608.31L479.02 608.14L480.51 607.92L481.99 607.64L483.45 607.31L484.91 606.91L486.34 606.46L487.76 605.95L489.16 605.39L490.54 604.77L491.89 604.09L493.23 603.36L494.53 602.58L495.81 601.74L497.05 600.85L498.27 599.91L499.45 598.92L500.6 597.88L501.71 596.78L502.78 595.63L503.81 594.44L504.8 593.2L505.74 591.9L506.64 590.56L507.49 589.17L508.29 587.74L511.74 581.31L512.52 317.82L512.58 299.87L512.64 282.75L512.69 266.43L512.74 250.9L512.79 236.13L512.84 222.12L512.89 208.83L512.94 196.25L512.99 184.36L513.04 173.13L513.09 162.55L513.14 152.6L513.19 143.26L513.24 134.51L513.3 126.32L513.35 118.68L513.41 111.57L513.47 104.96L513.54 98.84L513.6 93.2L513.67 87.99L513.74 83.22L513.82 78.85L513.9 74.87L513.99 71.26L514.08 68L514.17 65.06L514.27 62.43L514.38 60.09L514.49 58.02L514.6 56.19L514.73 54.59L514.86 53.2L514.99 52L515.14 50.96L515.29 50.07L515.45 49.31L515.62 48.66L515.79 48.09L515.97 47.6L516.05 47.41L516.14 47.21L516.23 47.01L516.32 46.8L516.41 46.59L516.51 46.38L516.61 46.16L516.71 45.93L516.82 45.7L516.93 45.47L517.05 45.23L517.17 44.99L517.29 44.74L517.42 44.48L517.55 44.22L517.68 43.96L517.82 43.69L517.96 43.42L518.1 43.14L518.25 42.85L518.4 42.56L518.55 42.27L518.71 41.97L518.87 41.67L519.04 41.36L519.21 41.05L519.38 40.73L519.55 40.41L519.73 40.08L519.91 39.75L520.1 39.41L520.29 39.06L520.48 38.72L520.68 38.36L520.88 38.01L521.08 37.65L521.29 37.28L521.5 36.91L521.72 36.53L521.93 36.15L525.23 31.59L331.85 31.75L323.91 31.75ZM571.95 31.75L570.94 31.84L569.94 31.97L568.93 32.14L567.94 32.33L566.95 32.56L565.96 32.82L564.98 33.12L564 33.45L563.03 33.81L562.06 34.2L561.1 34.63L560.14 35.09L559.19 35.58L558.24 36.1L557.29 36.66L556.35 37.25L555.41 37.87L554.48 38.53L553.55 39.22L552.63 39.94L551.71 40.69L550.8 41.48L550.16 42.04L549.55 42.58L548.96 43.11L548.4 43.63L547.87 44.14L547.35 44.63L546.86 45.11L546.39 45.59L545.94 46.06L545.51 46.52L545.1 46.98L544.71 47.43L544.33 47.88L543.98 48.32L543.64 48.77L543.31 49.21L543 49.66L542.7 50.1L542.42 50.55L542.14 51.01L541.88 51.47L541.63 51.94L541.39 52.41L541.16 52.89L540.94 53.38L540.73 53.89L540.52 54.4L540.32 54.93L540.12 55.47L539.93 56.02L539.74 56.6L539.56 57.19L539.37 57.79L539.19 58.42L537.78 62.97L608.67 62.97L607.72 57.32L607.55 56.38L607.34 55.45L607.08 54.52L606.79 53.59L606.46 52.67L606.1 51.76L605.69 50.85L605.25 49.96L604.78 49.07L604.28 48.2L603.74 47.34L603.17 46.49L602.57 45.66L601.94 44.84L601.28 44.04L600.59 43.25L599.88 42.48L599.14 41.74L598.38 41.01L597.59 40.3L596.78 39.62L595.94 38.95L595.09 38.32L594.21 37.71L593.31 37.12L592.4 36.56L591.47 36.03L590.52 35.52L589.55 35.05L588.57 34.61L587.57 34.2L586.57 33.82L585.54 33.48L584.51 33.17L583.44 32.87L582.36 32.6L581.3 32.37L580.24 32.16L579.18 32L578.14 31.86L577.09 31.76L576.05 31.69L575.02 31.65L573.99 31.65L572.97 31.68L571.95 31.75Z" id="a2PkX84RBz"></path><path d="M172.67 174.01C172.91 174.24 174.11 175.39 176.28 177.46C252.78 177.46 295.28 177.46 303.78 177.46C383.92 177.46 432.23 176.83 434.11 175.89C441.64 171.81 440.86 158.64 432.54 154.41C427.21 151.74 180.98 151.58 176.12 154.25C168.12 158.48 166.55 168.2 172.67 174.01Z" id="h14uivEFWa"></path><path d="M173.13 276.42C173.4 276.67 174.76 277.93 177.21 280.19C252.11 280.47 293.73 280.62 302.05 280.65C418.73 280.97 427.36 280.81 432.54 278.3C435.83 276.58 438.34 273.91 438.81 271.55C440.06 266.53 437.71 259.32 434.11 257.44C432.22 256.5 383.76 255.87 303.46 255.87C294.95 255.87 252.4 255.87 175.8 255.87L172.51 259.48C169.47 267.53 169.68 273.18 173.13 276.42Z" id="b2dyZxBHXo"></path><path d="M169.06 370.36C169.06 373.34 170.47 376.63 172.98 378.99C173.23 379.25 174.48 380.56 176.74 382.91L304.4 382.91L432.06 382.91C434.23 380.56 435.43 379.25 435.67 378.99C440.85 373.5 440.54 366.28 435.05 361.42C434.76 361.18 433.35 359.98 430.81 357.81L303.78 357.81L176.74 357.81L172.98 361.73C170.36 365.5 169.06 368.37 169.06 370.36Z" id="c2l6WSpnXI"></path><path d="M451.53 388.48L451.64 388.49L451.75 388.52L451.85 388.54L451.96 388.57L452.05 388.61L452.15 388.65L452.24 388.7L452.33 388.75L452.42 388.81L452.51 388.87L452.59 388.94L452.67 389.01L452.75 389.09L452.82 389.17L452.9 389.25L452.97 389.34L453.04 389.43L453.1 389.53L453.17 389.63L453.23 389.74L453.3 389.84L453.36 389.95L453.42 390.07L453.48 390.19L453.53 390.31L453.59 390.43L453.64 390.56L453.7 390.69L453.75 390.82L453.8 390.95L453.85 391.09L453.9 391.23L453.95 391.37L454 391.51L454.05 391.65L454.1 391.8L454.15 391.95L454.2 392.1L456.71 401.52L457.5 401.76L459.24 402.38L460.95 403.07L462.63 403.81L464.27 404.63L464.41 404.7L472.87 399.8L473.01 399.73L473.15 399.66L473.29 399.59L473.43 399.52L473.56 399.45L473.7 399.39L473.83 399.33L473.96 399.27L474.1 399.21L474.23 399.15L474.36 399.1L474.48 399.05L474.61 399L474.74 398.96L474.86 398.92L474.98 398.88L475.1 398.84L475.22 398.81L475.34 398.78L475.46 398.76L475.58 398.74L475.69 398.72L475.8 398.71L475.92 398.7L476.03 398.7L476.14 398.7L476.24 398.7L476.35 398.71L476.45 398.73L476.56 398.75L476.66 398.78L476.76 398.81L476.85 398.85L476.95 398.89L477.05 398.94L477.14 399L477.23 399.06L477.32 399.13L477.41 399.2L477.49 399.28L489.81 411.61L489.9 411.69L489.97 411.78L490.04 411.87L490.1 411.96L490.16 412.06L490.21 412.15L490.26 412.25L490.3 412.35L490.33 412.46L490.36 412.56L490.39 412.67L490.41 412.77L490.42 412.88L490.43 412.99L490.44 413.1L490.44 413.22L490.43 413.33L490.42 413.45L490.41 413.57L490.39 413.69L490.37 413.81L490.34 413.93L490.31 414.05L490.28 414.17L490.24 414.3L490.2 414.42L490.15 414.55L490.1 414.67L490.05 414.8L490 414.93L489.94 415.05L489.88 415.18L489.82 415.31L489.75 415.44L489.68 415.57L489.61 415.7L489.54 415.83L489.46 415.96L489.38 416.09L489.3 416.23L484.41 424.68L484.51 424.86L485.32 426.5L486.07 428.18L486.75 429.89L487.37 431.63L487.61 432.42L497.03 434.93L497.18 434.97L497.33 435.01L497.48 435.04L497.62 435.08L497.77 435.13L497.91 435.17L498.04 435.21L498.18 435.26L498.32 435.31L498.45 435.36L498.58 435.41L498.7 435.46L498.83 435.52L498.95 435.57L499.06 435.63L499.18 435.69L499.29 435.76L499.4 435.82L499.5 435.89L499.6 435.96L499.7 436.03L499.79 436.1L499.88 436.18L499.96 436.26L500.04 436.34L500.12 436.42L500.19 436.5L500.26 436.59L500.32 436.68L500.38 436.77L500.43 436.87L500.48 436.96L500.52 437.06L500.56 437.17L500.59 437.27L500.62 437.38L500.64 437.49L500.65 437.6L500.66 437.72L500.66 437.84L500.66 455.26L500.66 455.38L500.65 455.49L500.64 455.61L500.62 455.71L500.59 455.82L500.56 455.92L500.52 456.02L500.48 456.12L500.43 456.21L500.38 456.3L500.32 456.39L500.26 456.47L500.19 456.56L500.12 456.64L500.04 456.71L499.96 456.79L499.88 456.86L499.79 456.93L499.7 457L499.6 457.07L499.5 457.14L499.4 457.2L499.29 457.26L499.18 457.32L499.06 457.38L498.95 457.44L498.83 457.5L498.7 457.55L498.58 457.61L498.45 457.66L498.32 457.72L498.18 457.77L498.04 457.82L497.91 457.87L497.77 457.92L497.62 457.97L497.48 458.02L497.33 458.07L497.18 458.12L497.03 458.17L487.61 460.68L487.37 461.47L486.75 463.21L486.07 464.92L485.32 466.59L484.51 468.24L484.42 468.4L489.3 476.84L489.38 476.97L489.46 477.1L489.54 477.23L489.61 477.36L489.68 477.49L489.75 477.62L489.82 477.75L489.88 477.88L489.94 478.01L490 478.14L490.05 478.26L490.1 478.39L490.15 478.52L490.2 478.64L490.24 478.77L490.28 478.89L490.31 479.02L490.34 479.14L490.37 479.26L490.39 479.38L490.41 479.5L490.42 479.61L490.43 479.73L490.44 479.85L490.44 479.96L490.43 480.07L490.42 480.18L490.41 480.29L490.39 480.4L490.36 480.5L490.33 480.61L490.3 480.71L490.26 480.81L490.21 480.91L490.16 481.01L490.1 481.1L490.04 481.19L489.97 481.28L489.9 481.37L489.81 481.46L477.49 493.78L477.41 493.86L477.32 493.94L477.23 494L477.14 494.07L477.05 494.12L476.95 494.17L476.85 494.22L476.76 494.25L476.66 494.29L476.56 494.31L476.45 494.33L476.35 494.35L476.24 494.36L476.14 494.37L476.03 494.37L475.92 494.36L475.8 494.36L475.69 494.34L475.58 494.33L475.46 494.31L475.34 494.28L475.22 494.25L475.1 494.22L474.98 494.19L474.86 494.15L474.74 494.11L474.61 494.06L474.48 494.01L474.36 493.96L474.23 493.91L474.1 493.85L473.96 493.8L473.83 493.74L473.7 493.67L473.56 493.61L473.43 493.54L473.29 493.48L473.15 493.41L473.01 493.34L472.87 493.27L464.44 488.38L464.27 488.47L462.63 489.28L460.95 490.03L459.24 490.72L457.5 491.33L456.71 491.58L454.2 501L454.15 501.15L454.1 501.3L454.05 501.44L454 501.59L453.95 501.73L453.9 501.87L453.85 502.01L453.8 502.15L453.75 502.28L453.7 502.41L453.64 502.54L453.59 502.67L453.53 502.79L453.48 502.91L453.42 503.03L453.36 503.14L453.3 503.26L453.23 503.36L453.17 503.47L453.1 503.57L453.04 503.66L452.97 503.76L452.9 503.85L452.82 503.93L452.75 504.01L452.67 504.09L452.59 504.16L452.51 504.23L452.42 504.29L452.33 504.35L452.24 504.4L452.15 504.45L452.05 504.49L451.96 504.53L451.85 504.56L451.75 504.58L451.64 504.6L451.53 504.62L451.41 504.63L451.29 504.63L433.87 504.63L433.75 504.63L433.64 504.62L433.52 504.6L433.41 504.58L433.3 504.56L433.2 504.53L433.1 504.49L433 504.45L432.9 504.4L432.81 504.35L432.71 504.29L432.62 504.23L432.54 504.16L432.45 504.09L432.37 504.01L432.29 503.93L432.21 503.85L432.14 503.76L432.06 503.66L431.99 503.57L431.92 503.47L431.86 503.36L431.79 503.26L431.73 503.14L431.67 503.03L431.61 502.91L431.55 502.79L431.5 502.67L431.44 502.54L431.39 502.41L431.34 502.28L431.29 502.15L431.25 502.01L431.2 501.87L431.16 501.73L431.12 501.59L431.08 501.44L431.04 501.3L431 501.15L430.97 501L428.45 491.58L427.67 491.33L425.92 490.72L424.21 490.03L422.54 489.28L420.9 488.47L420.7 488.37L412.29 493.23L412.16 493.31L412.03 493.39L411.9 493.47L411.77 493.54L411.64 493.61L411.51 493.68L411.38 493.75L411.25 493.81L411.12 493.87L410.99 493.93L410.87 493.99L410.74 494.04L410.61 494.08L410.49 494.13L410.36 494.17L410.24 494.21L410.12 494.24L409.99 494.27L409.87 494.3L409.75 494.32L409.64 494.34L409.52 494.35L409.4 494.36L409.29 494.37L409.17 494.37L409.06 494.36L408.95 494.35L408.84 494.34L408.73 494.32L408.63 494.3L408.52 494.27L408.42 494.23L408.32 494.19L408.22 494.14L408.13 494.09L408.03 494.04L407.94 493.97L407.85 493.9L407.76 493.83L407.67 493.75L395.35 481.42L395.27 481.34L395.2 481.25L395.13 481.16L395.07 481.07L395.01 480.98L394.96 480.88L394.92 480.79L394.88 480.69L394.85 480.59L394.82 480.49L394.8 480.39L394.78 480.28L394.77 480.18L394.77 480.07L394.76 479.96L394.77 479.85L394.78 479.74L394.79 479.62L394.8 479.51L394.83 479.39L394.85 479.28L394.88 479.16L394.91 479.04L394.95 478.91L394.98 478.79L395.03 478.67L395.07 478.54L395.12 478.42L395.17 478.29L395.22 478.16L395.28 478.03L395.34 477.9L395.4 477.76L395.46 477.63L395.52 477.49L395.59 477.36L395.66 477.22L395.72 477.08L395.79 476.94L395.87 476.8L400.74 468.39L400.66 468.24L399.85 466.59L399.1 464.92L398.42 463.21L397.8 461.47L397.55 460.68L388.13 458.17L387.98 458.12L387.83 458.07L387.69 458.02L387.54 457.97L387.4 457.92L387.26 457.87L387.12 457.82L386.98 457.77L386.85 457.72L386.72 457.66L386.59 457.61L386.46 457.55L386.34 457.5L386.22 457.44L386.1 457.38L385.99 457.32L385.88 457.26L385.77 457.2L385.67 457.14L385.56 457.07L385.47 457L385.38 456.93L385.29 456.86L385.2 456.79L385.12 456.71L385.05 456.64L384.97 456.56L384.91 456.47L384.84 456.39L384.79 456.3L384.73 456.21L384.69 456.12L384.64 456.02L384.61 455.92L384.57 455.82L384.55 455.71L384.53 455.61L384.51 455.49L384.5 455.38L384.5 455.26L384.5 437.84L384.5 437.72L384.51 437.6L384.53 437.49L384.55 437.38L384.57 437.27L384.61 437.17L384.64 437.06L384.69 436.96L384.73 436.87L384.79 436.77L384.84 436.68L384.91 436.59L384.97 436.5L385.05 436.42L385.12 436.34L385.2 436.26L385.29 436.18L385.38 436.1L385.47 436.03L385.56 435.96L385.67 435.89L385.77 435.82L385.88 435.76L385.99 435.69L386.1 435.63L386.22 435.57L386.34 435.52L386.46 435.46L386.59 435.41L386.72 435.36L386.85 435.31L386.98 435.26L387.12 435.21L387.26 435.17L387.4 435.13L387.54 435.08L387.69 435.04L387.83 435.01L387.98 434.97L388.13 434.93L397.55 432.42L397.8 431.63L398.42 429.89L399.1 428.18L399.85 426.5L400.66 424.86L400.75 424.7L395.87 416.26L395.79 416.12L395.72 415.98L395.66 415.84L395.59 415.71L395.52 415.57L395.46 415.43L395.4 415.3L395.34 415.17L395.28 415.04L395.22 414.91L395.17 414.78L395.12 414.65L395.07 414.52L395.03 414.4L394.98 414.27L394.95 414.15L394.91 414.03L394.88 413.91L394.85 413.79L394.83 413.67L394.8 413.56L394.79 413.44L394.78 413.33L394.77 413.22L394.76 413.1L394.77 413L394.77 412.89L394.78 412.78L394.8 412.68L394.82 412.58L394.85 412.47L394.88 412.38L394.92 412.28L394.96 412.18L395.01 412.09L395.07 411.99L395.13 411.9L395.2 411.81L395.27 411.73L395.35 411.64L407.67 399.32L407.76 399.24L407.85 399.16L407.94 399.09L408.03 399.03L408.13 398.97L408.22 398.92L408.32 398.87L408.42 398.83L408.52 398.8L408.63 398.77L408.73 398.74L408.84 398.72L408.95 398.71L409.06 398.7L409.17 398.7L409.29 398.7L409.4 398.7L409.52 398.71L409.64 398.72L409.75 398.74L409.87 398.76L409.99 398.79L410.12 398.82L410.24 398.85L410.36 398.89L410.49 398.93L410.61 398.98L410.74 399.03L410.87 399.08L410.99 399.13L411.12 399.19L411.25 399.25L411.38 399.32L411.51 399.38L411.64 399.45L411.77 399.52L411.9 399.6L412.03 399.67L412.16 399.75L412.29 399.83L420.73 404.72L420.9 404.63L422.54 403.81L424.21 403.07L425.92 402.38L427.67 401.76L428.45 401.52L430.97 392.1L431 391.95L431.04 391.8L431.08 391.65L431.12 391.51L431.16 391.37L431.2 391.23L431.25 391.09L431.29 390.95L431.34 390.82L431.39 390.69L431.44 390.56L431.5 390.43L431.55 390.31L431.61 390.19L431.67 390.07L431.73 389.95L431.79 389.84L431.86 389.74L431.92 389.63L431.99 389.53L432.06 389.43L432.14 389.34L432.21 389.25L432.29 389.17L432.37 389.09L432.45 389.01L432.54 388.94L432.62 388.87L432.71 388.81L432.81 388.75L432.9 388.7L433 388.65L433.1 388.61L433.2 388.57L433.3 388.54L433.41 388.52L433.52 388.49L433.64 388.48L433.75 388.47L433.87 388.47L451.29 388.47L451.41 388.47L451.53 388.48ZM440.5 421.22L439.47 421.33L438.46 421.47L437.46 421.65L436.48 421.88L435.51 422.14L434.55 422.43L433.61 422.77L432.69 423.14L431.79 423.54L430.91 423.97L430.04 424.44L429.2 424.95L428.38 425.48L427.58 426.04L426.8 426.63L426.05 427.26L425.32 427.9L424.61 428.58L423.94 429.28L423.29 430.01L422.67 430.77L422.07 431.54L421.51 432.34L420.98 433.16L420.48 434.01L420.01 434.87L419.57 435.76L419.17 436.66L418.8 437.58L418.47 438.52L418.17 439.47L417.91 440.44L417.69 441.43L417.5 442.43L417.36 443.44L417.26 444.47L417.19 445.5L417.17 446.55L417.19 447.6L417.26 448.63L417.36 449.66L417.5 450.67L417.69 451.67L417.91 452.66L418.17 453.63L418.47 454.58L418.8 455.52L419.17 456.44L419.57 457.34L420.01 458.23L420.48 459.09L420.98 459.93L421.51 460.76L422.07 461.56L422.67 462.33L423.29 463.09L423.94 463.81L424.61 464.52L425.32 465.19L426.05 465.84L426.8 466.46L427.58 467.06L428.38 467.62L429.2 468.15L430.04 468.65L430.91 469.12L431.79 469.56L432.69 469.96L433.61 470.33L434.55 470.66L435.51 470.96L436.48 471.22L437.46 471.44L438.46 471.63L439.47 471.77L440.5 471.88L441.54 471.94L442.58 471.96L443.63 471.94L444.67 471.88L445.69 471.77L446.7 471.63L447.7 471.44L448.69 471.22L449.66 470.96L450.61 470.66L451.55 470.33L452.47 469.96L453.38 469.56L454.26 469.12L455.12 468.65L455.97 468.15L456.79 467.62L457.59 467.06L458.37 466.46L459.12 465.84L459.85 465.19L460.55 464.52L461.23 463.81L461.88 463.09L462.5 462.33L463.09 461.56L463.65 460.76L464.19 459.93L464.69 459.09L465.16 458.23L465.59 457.34L466 456.44L466.36 455.52L466.7 454.58L466.99 453.63L467.25 452.66L467.48 451.67L467.66 450.67L467.81 449.66L467.91 448.63L467.97 447.6L467.99 446.55L467.97 445.5L467.91 444.47L467.81 443.44L467.66 442.43L467.48 441.43L467.25 440.44L466.99 439.47L466.7 438.52L466.36 437.58L466 436.66L465.59 435.76L465.16 434.87L464.69 434.01L464.19 433.16L463.65 432.34L463.09 431.54L462.5 430.77L461.88 430.01L461.23 429.28L460.55 428.58L459.85 427.9L459.12 427.26L458.37 426.63L457.59 426.04L456.79 425.48L455.97 424.95L455.12 424.44L454.26 423.97L453.38 423.54L452.47 423.14L451.55 422.77L450.61 422.43L449.66 422.14L448.69 421.88L447.7 421.65L446.7 421.47L445.69 421.33L444.67 421.22L443.63 421.16L442.58 421.14L441.54 421.16L440.5 421.22Z" id="b1lg2mHYaj"></path><path d="M363.37 419.72L363.44 419.75L363.51 419.78L363.57 419.81L363.63 419.85L363.69 419.89L363.75 419.93L363.8 419.98L363.85 420.03L363.9 420.08L363.95 420.14L363.99 420.2L364.03 420.26L364.07 420.32L364.11 420.38L364.14 420.45L364.17 420.52L364.2 420.59L364.23 420.67L364.26 420.75L364.28 420.82L364.31 420.91L364.33 420.99L364.35 421.07L364.37 421.16L364.39 421.25L364.4 421.34L364.42 421.43L364.43 421.52L364.44 421.62L364.46 421.72L364.47 421.81L364.48 421.91L364.49 422.01L364.5 422.12L364.51 422.22L364.51 422.32L364.52 422.43L364.53 422.54L364.63 429.14L365.11 429.43L366.15 430.12L367.16 430.85L368.14 431.62L369.09 432.42L369.17 432.49L375.54 430.66L375.64 430.64L375.74 430.62L375.84 430.59L375.95 430.57L376.05 430.55L376.14 430.53L376.24 430.51L376.34 430.49L376.44 430.48L376.53 430.46L376.62 430.45L376.72 430.44L376.81 430.43L376.9 430.42L376.99 430.41L377.07 430.4L377.16 430.4L377.24 430.4L377.33 430.4L377.41 430.4L377.49 430.41L377.57 430.42L377.64 430.43L377.72 430.44L377.79 430.46L377.86 430.48L377.93 430.5L378 430.52L378.06 430.55L378.13 430.58L378.19 430.62L378.25 430.65L378.31 430.69L378.36 430.74L378.42 430.79L378.47 430.84L378.52 430.89L378.57 430.95L378.61 431.02L378.66 431.08L384.73 441.21L384.77 441.28L384.8 441.35L384.83 441.42L384.86 441.49L384.88 441.56L384.9 441.63L384.91 441.7L384.93 441.78L384.93 441.85L384.93 441.92L384.93 442L384.93 442.07L384.92 442.15L384.91 442.22L384.89 442.29L384.87 442.37L384.85 442.44L384.83 442.52L384.8 442.59L384.77 442.67L384.73 442.74L384.69 442.82L384.65 442.89L384.61 442.97L384.57 443.04L384.52 443.12L384.47 443.19L384.42 443.27L384.36 443.34L384.3 443.42L384.25 443.49L384.18 443.57L384.12 443.64L384.06 443.72L383.99 443.79L383.92 443.86L383.85 443.94L383.78 444.01L383.71 444.08L383.63 444.16L379.03 448.91L379.06 449.05L379.33 450.26L379.54 451.48L379.71 452.72L379.83 453.97L379.86 454.52L385.64 457.72L385.73 457.77L385.82 457.82L385.91 457.87L386 457.92L386.09 457.97L386.18 458.02L386.26 458.07L386.34 458.13L386.42 458.18L386.5 458.23L386.58 458.29L386.65 458.34L386.72 458.4L386.79 458.46L386.86 458.52L386.92 458.57L386.99 458.63L387.05 458.69L387.1 458.76L387.16 458.82L387.21 458.88L387.26 458.94L387.31 459.01L387.35 459.07L387.39 459.14L387.43 459.21L387.46 459.27L387.49 459.34L387.51 459.41L387.54 459.48L387.56 459.55L387.57 459.62L387.58 459.7L387.59 459.77L387.59 459.84L387.59 459.92L387.59 459.99L387.58 460.07L387.57 460.15L387.55 460.23L384.69 471.68L384.67 471.76L384.64 471.83L384.61 471.9L384.58 471.97L384.55 472.03L384.51 472.09L384.47 472.15L384.42 472.21L384.38 472.26L384.33 472.31L384.28 472.36L384.22 472.41L384.16 472.45L384.1 472.49L384.04 472.53L383.98 472.57L383.91 472.6L383.84 472.63L383.77 472.66L383.69 472.69L383.61 472.72L383.54 472.74L383.45 472.77L383.37 472.79L383.29 472.81L383.2 472.83L383.11 472.85L383.02 472.86L382.93 472.88L382.84 472.89L382.74 472.9L382.64 472.92L382.55 472.93L382.45 472.94L382.35 472.95L382.24 472.96L382.14 472.97L382.04 472.97L381.93 472.98L381.82 472.99L375.22 473.09L374.93 473.57L374.24 474.61L373.51 475.63L372.74 476.6L371.94 477.55L371.85 477.64L373.67 483.99L373.71 484.09L373.74 484.19L373.76 484.29L373.79 484.38L373.82 484.48L373.84 484.58L373.86 484.67L373.88 484.77L373.9 484.86L373.92 484.96L373.93 485.05L373.95 485.14L373.96 485.23L373.97 485.32L373.97 485.41L373.98 485.5L373.98 485.59L373.98 485.67L373.98 485.76L373.97 485.84L373.97 485.92L373.95 486L373.94 486.08L373.93 486.15L373.91 486.23L373.89 486.3L373.86 486.37L373.83 486.44L373.8 486.51L373.77 486.57L373.73 486.64L373.69 486.7L373.65 486.76L373.61 486.82L373.56 486.87L373.5 486.92L373.44 486.97L373.38 487.02L373.32 487.07L373.25 487.11L363.13 493.18L363.06 493.22L362.99 493.26L362.92 493.29L362.85 493.31L362.78 493.34L362.71 493.35L362.64 493.36L362.57 493.37L362.5 493.38L362.43 493.38L362.36 493.38L362.29 493.37L362.21 493.36L362.14 493.35L362.07 493.33L362 493.31L361.93 493.28L361.86 493.26L361.78 493.23L361.71 493.2L361.64 493.16L361.56 493.12L361.49 493.08L361.42 493.04L361.34 492.99L361.27 492.94L361.19 492.89L361.12 492.84L361.04 492.79L360.96 492.73L360.89 492.67L360.81 492.61L360.73 492.55L360.65 492.49L360.58 492.43L360.5 492.36L360.42 492.29L360.34 492.23L360.26 492.16L360.18 492.09L355.44 487.49L355.31 487.52L354.1 487.79L352.88 488L351.64 488.17L350.39 488.29L349.84 488.32L346.64 494.1L346.58 494.19L346.52 494.28L346.47 494.37L346.41 494.46L346.36 494.54L346.3 494.63L346.24 494.71L346.19 494.79L346.13 494.87L346.08 494.95L346.02 495.02L345.96 495.1L345.9 495.17L345.85 495.24L345.79 495.31L345.73 495.37L345.67 495.44L345.62 495.5L345.56 495.55L345.5 495.61L345.44 495.66L345.38 495.71L345.31 495.76L345.25 495.8L345.19 495.84L345.12 495.88L345.06 495.91L345 495.94L344.93 495.97L344.86 495.99L344.79 496.01L344.72 496.03L344.65 496.04L344.58 496.05L344.51 496.05L344.44 496.05L344.36 496.05L344.29 496.04L344.21 496.03L344.13 496.01L332.68 493.15L332.6 493.13L332.53 493.1L332.46 493.07L332.39 493.04L332.32 493.01L332.26 492.97L332.2 492.93L332.14 492.88L332.08 492.84L332.03 492.79L331.98 492.73L331.93 492.68L331.88 492.62L331.84 492.56L331.8 492.49L331.76 492.43L331.72 492.36L331.69 492.29L331.65 492.22L331.62 492.14L331.59 492.06L331.57 491.98L331.54 491.9L331.52 491.82L331.5 491.73L331.48 491.65L331.46 491.56L331.44 491.47L331.43 491.38L331.42 491.28L331.41 491.19L331.4 491.09L331.39 491L331.38 490.9L331.38 490.8L331.37 490.7L331.37 490.59L331.37 490.49L331.37 490.39L331.37 490.29L331.27 483.68L330.79 483.39L329.75 482.7L328.73 481.97L327.76 481.2L326.81 480.4L326.7 480.29L320.38 482.11L320.28 482.14L320.18 482.17L320.08 482.2L319.98 482.23L319.88 482.25L319.79 482.28L319.69 482.3L319.6 482.32L319.5 482.34L319.41 482.36L319.31 482.37L319.22 482.39L319.13 482.4L319.04 482.41L318.95 482.41L318.87 482.42L318.78 482.42L318.69 482.42L318.61 482.42L318.53 482.41L318.45 482.4L318.37 482.39L318.29 482.38L318.21 482.36L318.14 482.35L318.07 482.32L317.99 482.3L317.92 482.27L317.86 482.24L317.79 482.21L317.73 482.17L317.67 482.13L317.61 482.09L317.55 482.04L317.49 481.99L317.44 481.94L317.39 481.88L317.34 481.82L317.3 481.76L317.25 481.69L311.18 471.57L311.14 471.5L311.11 471.43L311.08 471.36L311.05 471.29L311.03 471.22L311.01 471.15L311 471.08L310.99 471.01L310.99 470.94L310.99 470.87L310.99 470.8L311 470.72L311.01 470.65L311.02 470.58L311.04 470.51L311.06 470.44L311.08 470.37L311.11 470.29L311.14 470.22L311.17 470.15L311.2 470.07L311.24 470L311.28 469.93L311.33 469.85L311.37 469.78L311.42 469.7L311.47 469.63L311.52 469.55L311.58 469.48L311.63 469.4L311.69 469.32L311.75 469.25L311.81 469.17L311.88 469.09L311.94 469.01L312.01 468.94L312.07 468.86L312.14 468.78L312.21 468.7L312.28 468.62L316.87 463.89L316.84 463.77L316.57 462.56L316.36 461.34L316.19 460.1L316.07 458.85L316.04 458.3L310.26 455.1L310.17 455.04L310.08 454.98L309.99 454.93L309.9 454.87L309.82 454.82L309.73 454.76L309.65 454.7L309.57 454.65L309.49 454.59L309.41 454.54L309.34 454.48L309.26 454.42L309.19 454.37L309.12 454.31L309.05 454.25L308.99 454.19L308.92 454.13L308.86 454.08L308.81 454.02L308.75 453.96L308.7 453.9L308.65 453.84L308.6 453.77L308.56 453.71L308.52 453.65L308.48 453.59L308.45 453.52L308.42 453.46L308.39 453.39L308.37 453.32L308.35 453.25L308.33 453.19L308.32 453.12L308.31 453.04L308.31 452.97L308.31 452.9L308.31 452.82L308.32 452.75L308.33 452.67L308.35 452.59L311.21 441.14L311.23 441.07L311.26 440.99L311.29 440.92L311.32 440.85L311.35 440.78L311.39 440.72L311.43 440.66L311.48 440.6L311.52 440.54L311.57 440.49L311.63 440.44L311.68 440.39L311.74 440.34L311.8 440.3L311.87 440.26L311.93 440.22L312 440.18L312.07 440.15L312.14 440.11L312.22 440.08L312.3 440.05L312.38 440.03L312.46 440L312.54 439.98L312.63 439.96L312.71 439.94L312.8 439.92L312.89 439.9L312.98 439.89L313.08 439.88L313.17 439.87L313.27 439.86L313.36 439.85L313.46 439.84L313.56 439.84L313.66 439.83L313.76 439.83L313.87 439.83L313.97 439.83L314.07 439.83L320.68 439.73L320.97 439.25L321.66 438.21L322.39 437.19L323.16 436.22L323.96 435.27L324.05 435.18L322.23 428.83L322.2 428.73L322.18 428.62L322.16 428.52L322.13 428.42L322.11 428.32L322.09 428.22L322.07 428.12L322.06 428.03L322.04 427.93L322.03 427.83L322.01 427.74L322 427.65L321.99 427.56L321.98 427.47L321.97 427.38L321.97 427.29L321.96 427.21L321.96 427.12L321.96 427.04L321.97 426.96L321.97 426.88L321.98 426.8L321.99 426.72L322 426.65L322.02 426.58L322.04 426.5L322.06 426.43L322.08 426.37L322.11 426.3L322.14 426.24L322.18 426.18L322.21 426.12L322.26 426.06L322.3 426L322.35 425.95L322.4 425.9L322.46 425.85L322.52 425.8L322.58 425.75L322.65 425.71L332.77 419.64L332.84 419.6L332.91 419.56L332.98 419.53L333.05 419.5L333.12 419.48L333.19 419.46L333.27 419.45L333.34 419.44L333.41 419.43L333.49 419.43L333.56 419.43L333.63 419.44L333.71 419.45L333.78 419.46L333.86 419.47L333.93 419.49L334.01 419.52L334.08 419.54L334.15 419.57L334.23 419.6L334.31 419.63L334.38 419.67L334.46 419.71L334.53 419.75L334.61 419.8L334.68 419.85L334.76 419.9L334.83 419.95L334.91 420L334.98 420.06L335.06 420.12L335.13 420.18L335.2 420.24L335.28 420.31L335.35 420.38L335.43 420.44L335.5 420.51L335.57 420.59L335.65 420.66L335.72 420.73L340.46 425.33L340.59 425.3L341.8 425.03L343.02 424.82L344.26 424.65L345.51 424.53L346.06 424.5L349.26 418.72L349.31 418.63L349.36 418.53L349.41 418.44L349.46 418.36L349.51 418.27L349.56 418.18L349.61 418.1L349.66 418.02L349.72 417.94L349.77 417.86L349.83 417.78L349.88 417.71L349.94 417.64L350 417.57L350.06 417.5L350.11 417.43L350.17 417.37L350.23 417.31L350.3 417.25L350.36 417.2L350.42 417.15L350.48 417.1L350.55 417.05L350.61 417.01L350.68 416.97L350.75 416.93L350.81 416.9L350.88 416.87L350.95 416.85L351.02 416.82L351.09 416.8L351.16 416.79L351.23 416.78L351.31 416.77L351.38 416.77L351.46 416.77L351.53 416.77L351.61 416.78L351.69 416.79L351.77 416.81L363.22 419.67L363.29 419.69L363.37 419.72ZM350.74 439.42L350.05 439.32L349.36 439.25L348.67 439.21L347.99 439.19L347.31 439.2L346.63 439.24L345.96 439.31L345.3 439.4L344.64 439.51L343.98 439.66L343.34 439.82L342.7 440.01L342.07 440.23L341.46 440.47L340.85 440.73L340.25 441.01L339.67 441.32L339.09 441.65L338.53 442L337.99 442.37L337.46 442.77L336.94 443.18L336.44 443.61L335.95 444.06L335.48 444.54L335.03 445.03L334.6 445.54L334.19 446.06L333.79 446.61L333.42 447.17L333.07 447.75L332.74 448.34L332.43 448.95L332.15 449.58L331.89 450.22L331.65 450.88L331.44 451.55L331.25 452.24L331.09 452.93L330.96 453.62L330.86 454.31L330.79 455L330.75 455.69L330.73 456.37L330.74 457.05L330.78 457.73L330.85 458.4L330.94 459.06L331.05 459.72L331.2 460.38L331.36 461.02L331.55 461.66L331.77 462.28L332.01 462.9L332.27 463.51L332.55 464.11L332.86 464.69L333.19 465.27L333.54 465.83L333.91 466.37L334.31 466.9L334.72 467.42L335.15 467.92L335.6 468.41L336.08 468.88L336.57 469.33L337.08 469.76L337.6 470.17L338.15 470.57L338.71 470.94L339.29 471.29L339.88 471.62L340.49 471.93L341.12 472.21L341.76 472.47L342.42 472.71L343.09 472.92L343.77 473.11L344.47 473.27L345.16 473.4L345.85 473.5L346.54 473.57L347.23 473.61L347.91 473.63L348.59 473.62L349.27 473.58L349.94 473.51L350.6 473.42L351.26 473.31L351.91 473.16L352.56 473L353.2 472.81L353.82 472.59L354.44 472.35L355.05 472.09L355.65 471.81L356.23 471.5L356.81 471.17L357.37 470.82L357.91 470.45L358.44 470.05L358.96 469.64L359.46 469.21L359.95 468.76L360.42 468.28L360.87 467.79L361.3 467.28L361.71 466.76L362.1 466.21L362.48 465.65L362.83 465.07L363.16 464.48L363.47 463.87L363.75 463.24L364.01 462.6L364.25 461.94L364.46 461.27L364.65 460.58L364.81 459.89L364.94 459.2L365.04 458.51L365.11 457.82L365.15 457.13L365.17 456.45L365.15 455.77L365.12 455.09L365.05 454.42L364.96 453.76L364.84 453.1L364.7 452.44L364.54 451.8L364.35 451.16L364.13 450.54L363.89 449.92L363.63 449.31L363.35 448.71L363.04 448.13L362.71 447.55L362.36 446.99L361.99 446.45L361.59 445.92L361.18 445.4L360.75 444.9L360.3 444.41L359.82 443.94L359.33 443.49L358.82 443.06L358.3 442.65L357.75 442.26L357.19 441.88L356.61 441.53L356.02 441.2L355.4 440.89L354.78 440.61L354.14 440.35L353.48 440.11L352.81 439.9L352.12 439.71L351.43 439.55L350.74 439.42Z" id="h19159ABij"></path><path d="M491.07 346.07L491.12 346.1L491.17 346.13L491.21 346.16L491.25 346.19L491.29 346.23L491.32 346.27L491.35 346.3L491.38 346.34L491.41 346.39L491.44 346.43L491.46 346.48L491.48 346.52L491.51 346.57L491.52 346.62L491.54 346.67L491.56 346.73L491.57 346.78L491.58 346.84L491.59 346.89L491.6 346.95L491.61 347.01L491.62 347.07L491.62 347.14L491.62 347.2L491.63 347.26L491.63 347.33L491.63 347.4L491.63 347.46L491.63 347.53L491.63 347.6L491.62 347.67L491.62 347.75L491.62 347.82L491.61 347.89L491.61 347.96L491.6 348.04L491.6 348.11L491.59 348.19L490.94 352.88L491.25 353.13L491.91 353.74L492.55 354.36L493.16 355.01L493.74 355.69L493.79 355.74L498.5 355.14L498.57 355.14L498.65 355.13L498.72 355.13L498.8 355.12L498.87 355.12L498.94 355.11L499.01 355.11L499.08 355.11L499.15 355.11L499.22 355.11L499.29 355.11L499.36 355.11L499.42 355.11L499.49 355.12L499.55 355.12L499.61 355.13L499.67 355.13L499.73 355.14L499.79 355.15L499.85 355.16L499.9 355.18L499.96 355.19L500.01 355.2L500.06 355.22L500.11 355.24L500.16 355.26L500.21 355.29L500.25 355.31L500.3 355.34L500.34 355.37L500.38 355.4L500.42 355.43L500.45 355.46L500.49 355.5L500.52 355.54L500.55 355.58L500.58 355.63L500.61 355.68L500.63 355.73L500.66 355.78L503.85 363.6L503.87 363.66L503.89 363.71L503.91 363.77L503.92 363.82L503.93 363.87L503.93 363.92L503.93 363.98L503.93 364.03L503.93 364.08L503.92 364.13L503.91 364.19L503.9 364.24L503.89 364.29L503.87 364.34L503.85 364.39L503.83 364.44L503.81 364.49L503.78 364.54L503.75 364.59L503.72 364.64L503.69 364.69L503.65 364.74L503.62 364.79L503.58 364.84L503.54 364.89L503.5 364.94L503.45 364.98L503.41 365.03L503.36 365.08L503.31 365.12L503.26 365.17L503.21 365.22L503.16 365.26L503.11 365.31L503.05 365.35L502.99 365.4L502.94 365.44L502.88 365.49L502.82 365.53L502.76 365.57L498.98 368.44L498.99 368.54L499.05 369.42L499.07 370.31L499.05 371.21L499 372.1L498.96 372.5L502.7 375.39L502.76 375.44L502.82 375.48L502.88 375.53L502.94 375.57L502.99 375.62L503.05 375.66L503.1 375.71L503.15 375.76L503.21 375.8L503.26 375.85L503.3 375.9L503.35 375.94L503.39 375.99L503.44 376.04L503.48 376.09L503.52 376.14L503.56 376.19L503.59 376.24L503.63 376.28L503.66 376.33L503.69 376.38L503.72 376.43L503.74 376.49L503.76 376.54L503.79 376.59L503.8 376.64L503.82 376.69L503.83 376.74L503.85 376.79L503.85 376.84L503.86 376.9L503.86 376.95L503.86 377L503.86 377.05L503.85 377.11L503.85 377.16L503.83 377.21L503.82 377.27L503.8 377.32L503.78 377.37L500.51 385.17L500.49 385.22L500.46 385.27L500.43 385.32L500.4 385.36L500.37 385.4L500.34 385.44L500.3 385.48L500.27 385.52L500.23 385.55L500.19 385.58L500.14 385.61L500.1 385.63L500.05 385.66L500.01 385.68L499.96 385.7L499.91 385.72L499.86 385.74L499.8 385.75L499.75 385.77L499.69 385.78L499.64 385.79L499.58 385.8L499.52 385.8L499.46 385.81L499.39 385.82L499.33 385.82L499.27 385.82L499.2 385.82L499.13 385.83L499.07 385.83L499 385.82L498.93 385.82L498.86 385.82L498.79 385.82L498.71 385.81L498.64 385.81L498.57 385.8L498.49 385.8L498.42 385.79L498.34 385.78L493.65 385.14L493.4 385.45L492.79 386.11L492.17 386.74L491.52 387.35L490.85 387.94L490.77 387.99L491.37 392.68L491.39 392.76L491.4 392.83L491.41 392.9L491.41 392.98L491.42 393.05L491.43 393.12L491.43 393.19L491.44 393.26L491.44 393.33L491.44 393.4L491.44 393.46L491.44 393.53L491.44 393.6L491.44 393.66L491.43 393.72L491.42 393.79L491.42 393.85L491.41 393.91L491.4 393.97L491.38 394.02L491.37 394.08L491.35 394.14L491.34 394.19L491.32 394.24L491.3 394.29L491.27 394.34L491.25 394.39L491.22 394.44L491.19 394.48L491.16 394.52L491.13 394.56L491.09 394.6L491.06 394.64L491.02 394.68L490.98 394.71L490.93 394.74L490.89 394.77L490.84 394.8L490.79 394.82L490.74 394.85L482.91 398.04L482.86 398.06L482.8 398.08L482.75 398.09L482.7 398.1L482.65 398.11L482.6 398.12L482.54 398.12L482.49 398.12L482.44 398.11L482.39 398.11L482.34 398.1L482.29 398.08L482.24 398.07L482.19 398.05L482.15 398.03L482.1 398.01L482.05 397.98L482 397.96L481.95 397.93L481.9 397.9L481.86 397.86L481.81 397.83L481.76 397.79L481.71 397.75L481.66 397.71L481.62 397.67L481.57 397.63L481.52 397.58L481.47 397.54L481.43 397.49L481.38 397.44L481.33 397.39L481.28 397.34L481.23 397.28L481.19 397.23L481.14 397.17L481.09 397.12L481.04 397.06L480.99 397L480.94 396.95L478.08 393.18L477.99 393.19L477.11 393.24L476.22 393.26L475.32 393.25L474.43 393.19L474.03 393.16L471.14 396.9L471.09 396.96L471.04 397.01L470.99 397.07L470.94 397.12L470.89 397.18L470.84 397.23L470.79 397.29L470.74 397.34L470.69 397.39L470.65 397.44L470.6 397.48L470.55 397.53L470.5 397.57L470.45 397.62L470.41 397.66L470.36 397.7L470.31 397.74L470.26 397.77L470.21 397.81L470.17 397.84L470.12 397.87L470.07 397.9L470.02 397.93L469.97 397.95L469.92 397.97L469.87 397.99L469.82 398.01L469.77 398.02L469.72 398.03L469.67 398.04L469.62 398.05L469.57 398.05L469.52 398.06L469.47 398.05L469.42 398.05L469.37 398.04L469.32 398.03L469.26 398.01L469.21 398L469.16 397.98L461.36 394.7L461.31 394.68L461.26 394.65L461.21 394.63L461.17 394.6L461.12 394.56L461.08 394.53L461.04 394.49L461.01 394.46L460.97 394.42L460.94 394.38L460.91 394.33L460.88 394.29L460.86 394.24L460.83 394.19L460.81 394.14L460.79 394.09L460.77 394.04L460.75 393.99L460.74 393.93L460.72 393.88L460.71 393.82L460.7 393.76L460.69 393.7L460.68 393.64L460.68 393.57L460.67 393.51L460.67 393.45L460.67 393.38L460.67 393.31L460.67 393.25L460.67 393.18L460.68 393.11L460.68 393.04L460.69 392.97L460.69 392.9L460.7 392.83L460.71 392.75L460.72 392.68L460.73 392.61L460.75 392.53L461.39 387.85L461.09 387.59L460.42 386.99L459.79 386.36L459.18 385.71L458.59 385.04L458.53 384.96L453.85 385.55L453.78 385.56L453.71 385.58L453.63 385.58L453.56 385.59L453.49 385.6L453.42 385.61L453.35 385.61L453.28 385.62L453.21 385.62L453.14 385.62L453.07 385.62L453.01 385.62L452.94 385.62L452.88 385.62L452.81 385.61L452.75 385.6L452.69 385.6L452.63 385.59L452.57 385.58L452.51 385.56L452.46 385.55L452.4 385.53L452.35 385.52L452.3 385.5L452.24 385.48L452.2 385.45L452.15 385.43L452.1 385.4L452.06 385.37L452.01 385.34L451.97 385.31L451.93 385.27L451.9 385.24L451.86 385.2L451.83 385.16L451.8 385.11L451.77 385.07L451.74 385.02L451.71 384.97L451.69 384.92L448.49 377.09L448.47 377.04L448.46 376.98L448.44 376.93L448.43 376.88L448.42 376.83L448.42 376.77L448.42 376.72L448.42 376.67L448.42 376.62L448.43 376.57L448.44 376.52L448.45 376.47L448.47 376.42L448.49 376.37L448.51 376.32L448.53 376.28L448.55 376.23L448.58 376.18L448.61 376.13L448.64 376.08L448.67 376.03L448.71 375.99L448.74 375.94L448.78 375.89L448.82 375.84L448.87 375.8L448.91 375.75L448.95 375.7L449 375.65L449.05 375.61L449.1 375.56L449.15 375.51L449.2 375.46L449.25 375.41L449.31 375.36L449.36 375.32L449.42 375.27L449.48 375.22L449.53 375.17L449.59 375.12L453.35 372.27L453.34 372.19L453.29 371.3L453.27 370.41L453.29 369.52L453.34 368.62L453.37 368.22L449.63 365.33L449.57 365.28L449.52 365.23L449.46 365.18L449.41 365.13L449.35 365.08L449.3 365.04L449.25 364.99L449.19 364.94L449.14 364.89L449.1 364.84L449.05 364.79L449 364.75L448.96 364.7L448.91 364.65L448.87 364.6L448.83 364.55L448.79 364.5L448.76 364.46L448.72 364.41L448.69 364.36L448.66 364.31L448.63 364.26L448.6 364.21L448.58 364.17L448.56 364.12L448.54 364.07L448.52 364.02L448.51 363.97L448.5 363.92L448.49 363.87L448.48 363.82L448.48 363.77L448.48 363.72L448.48 363.67L448.48 363.61L448.49 363.56L448.5 363.51L448.52 363.46L448.53 363.4L448.55 363.35L451.83 355.56L451.85 355.51L451.88 355.46L451.9 355.41L451.93 355.36L451.97 355.32L452 355.28L452.04 355.24L452.07 355.2L452.11 355.17L452.15 355.14L452.2 355.11L452.24 355.08L452.29 355.05L452.34 355.03L452.39 355L452.44 354.98L452.49 354.96L452.54 354.95L452.6 354.93L452.66 354.92L452.71 354.91L452.77 354.9L452.83 354.89L452.89 354.88L452.96 354.87L453.02 354.87L453.08 354.87L453.15 354.86L453.22 354.86L453.28 354.87L453.35 354.87L453.42 354.87L453.49 354.88L453.56 354.88L453.63 354.89L453.7 354.9L453.78 354.91L453.85 354.92L453.92 354.93L454 354.94L458.68 355.59L458.94 355.28L459.54 354.62L460.17 353.98L460.82 353.37L461.49 352.79L461.56 352.73L460.96 348.04L460.96 347.97L460.95 347.89L460.95 347.82L460.94 347.74L460.94 347.67L460.93 347.6L460.93 347.52L460.93 347.45L460.93 347.38L460.93 347.32L460.93 347.25L460.93 347.18L460.93 347.12L460.94 347.05L460.94 346.99L460.95 346.93L460.95 346.86L460.96 346.8L460.97 346.75L460.98 346.69L461 346.63L461.01 346.58L461.03 346.53L461.04 346.47L461.06 346.42L461.08 346.38L461.11 346.33L461.13 346.28L461.16 346.24L461.19 346.2L461.22 346.16L461.25 346.12L461.29 346.08L461.32 346.05L461.36 346.01L461.41 345.98L461.45 345.95L461.5 345.93L461.55 345.9L461.6 345.88L469.42 342.68L469.48 342.66L469.53 342.64L469.59 342.63L469.64 342.62L469.69 342.61L469.75 342.61L469.8 342.6L469.85 342.61L469.9 342.61L469.96 342.62L470.01 342.62L470.06 342.64L470.11 342.65L470.16 342.67L470.21 342.69L470.26 342.71L470.31 342.73L470.36 342.76L470.41 342.79L470.46 342.82L470.51 342.85L470.56 342.88L470.61 342.92L470.66 342.96L470.71 343L470.76 343.04L470.8 343.08L470.85 343.13L470.9 343.18L470.94 343.22L470.99 343.27L471.04 343.32L471.08 343.38L471.13 343.43L471.17 343.49L471.22 343.54L471.26 343.6L471.31 343.66L471.35 343.72L471.39 343.78L474.25 347.55L474.34 347.54L475.23 347.48L476.12 347.47L477.01 347.48L477.91 347.53L478.31 347.57L481.2 343.83L481.24 343.77L481.29 343.71L481.33 343.65L481.38 343.59L481.42 343.54L481.47 343.48L481.51 343.43L481.56 343.38L481.61 343.33L481.65 343.28L481.7 343.23L481.75 343.18L481.8 343.14L481.84 343.09L481.89 343.05L481.94 343.01L481.99 342.97L482.04 342.94L482.09 342.9L482.14 342.87L482.19 342.84L482.24 342.81L482.29 342.79L482.34 342.77L482.39 342.74L482.44 342.73L482.49 342.71L482.55 342.7L482.6 342.69L482.65 342.68L482.7 342.67L482.75 342.67L482.81 342.67L482.86 342.67L482.91 342.68L482.97 342.68L483.02 342.7L483.07 342.71L483.13 342.73L483.18 342.75L490.97 346.02L491.02 346.05L491.07 346.07ZM479.99 358.64L479.51 358.5L479.03 358.37L478.55 358.27L478.07 358.18L477.59 358.12L477.1 358.07L476.62 358.04L476.14 358.03L475.66 358.04L475.18 358.07L474.71 358.12L474.24 358.19L473.77 358.27L473.31 358.37L472.85 358.49L472.4 358.63L471.95 358.78L471.51 358.95L471.07 359.14L470.64 359.34L470.22 359.56L469.81 359.8L469.41 360.05L469.02 360.32L468.64 360.6L468.26 360.9L467.9 361.21L467.55 361.54L467.22 361.88L466.89 362.24L466.58 362.61L466.28 363L466 363.4L465.73 363.81L465.47 364.24L465.23 364.67L465.01 365.13L464.8 365.59L464.62 366.06L464.45 366.54L464.3 367.02L464.18 367.5L464.07 367.98L463.99 368.46L463.92 368.94L463.87 369.43L463.85 369.91L463.84 370.39L463.85 370.87L463.88 371.35L463.93 371.82L463.99 372.29L464.08 372.76L464.18 373.22L464.3 373.68L464.43 374.14L464.59 374.58L464.76 375.02L464.94 375.46L465.15 375.89L465.37 376.31L465.6 376.72L465.86 377.12L466.12 377.51L466.41 377.89L466.71 378.27L467.02 378.63L467.35 378.98L467.69 379.31L468.05 379.64L468.42 379.95L468.8 380.25L469.2 380.54L469.61 380.81L470.04 381.06L470.48 381.3L470.93 381.52L471.4 381.73L471.87 381.92L472.34 382.08L472.82 382.23L473.3 382.35L473.78 382.46L474.27 382.54L474.75 382.61L475.23 382.66L475.71 382.68L476.19 382.69L476.67 382.68L477.15 382.65L477.63 382.6L478.1 382.54L478.56 382.46L479.03 382.35L479.49 382.23L479.94 382.1L480.39 381.94L480.83 381.77L481.26 381.59L481.69 381.38L482.11 381.16L482.52 380.93L482.92 380.67L483.32 380.41L483.7 380.12L484.07 379.83L484.43 379.51L484.78 379.18L485.12 378.84L485.44 378.48L485.76 378.11L486.06 377.73L486.34 377.33L486.61 376.92L486.86 376.49L487.1 376.05L487.33 375.6L487.53 375.14L487.72 374.66L487.89 374.19L488.03 373.71L488.16 373.23L488.26 372.75L488.35 372.27L488.42 371.78L488.46 371.3L488.49 370.82L488.5 370.34L488.49 369.86L488.46 369.38L488.41 368.91L488.34 368.43L488.26 367.97L488.16 367.5L488.04 367.04L487.9 366.59L487.75 366.14L487.58 365.7L487.39 365.27L487.19 364.84L486.97 364.42L486.73 364.01L486.48 363.61L486.21 363.21L485.93 362.83L485.63 362.46L485.32 362.1L484.99 361.75L484.65 361.41L484.29 361.09L483.92 360.77L483.53 360.47L483.13 360.19L482.72 359.92L482.3 359.67L481.86 359.43L481.4 359.2L480.94 359L480.47 358.81L479.99 358.64Z" id="agl3AodNu"></path></defs><g><g><g><use xlink:href="#a2PkX84RBz" opacity="1" fill="#555555" fill-opacity="1"></use><g><use xlink:href="#a2PkX84RBz" opacity="1" fill-opacity="0" stroke="#000000" stroke-width="1" stroke-opacity="0"></use></g></g><g><use xlink:href="#h14uivEFWa" opacity="1" fill="#555555" fill-opacity="1"></use><g><use xlink:href="#h14uivEFWa" opacity="1" fill-opacity="0" stroke="#000000" stroke-width="1" stroke-opacity="0"></use></g></g><g><use xlink:href="#b2dyZxBHXo" opacity="1" fill="#555555" fill-opacity="1"></use><g><use xlink:href="#b2dyZxBHXo" opacity="1" fill-opacity="0" stroke="#000000" stroke-width="1" stroke-opacity="0"></use></g></g><g><use xlink:href="#c2l6WSpnXI" opacity="1" fill="#555555" fill-opacity="1"></use><g><use xlink:href="#c2l6WSpnXI" opacity="1" fill-opacity="0" stroke="#000000" stroke-width="1" stroke-opacity="0"></use></g></g><g><use xlink:href="#b1lg2mHYaj" opacity="1" fill="#2b6c00" fill-opacity="1"></use></g><g><use xlink:href="#h19159ABij" opacity="1" fill="#009d94" fill-opacity="1"></use></g><g><use xlink:href="#agl3AodNu" opacity="1" fill="#d97500" fill-opacity="1"></use></g></g></g></svg>