<?xml version="1.0" encoding="UTF-8" standalone="no"?>
<!DOCTYPE svg PUBLIC "-//W3C//DTD SVG 1.1//EN" "http://www.w3.org/Graphics/SVG/1.1/DTD/svg11.dtd">
<svg version="1.1" xmlns="http://www.w3.org/2000/svg" xmlns:xlink="http://www.w3.org/1999/xlink" preserveAspectRatio="xMidYMid meet" viewBox="0 0 640 640" width="640" height="640"><defs><path d="M345.42 8.51L357.92 9.77L370.28 11.54L382.47 13.78L394.5 16.49L406.33 19.68L417.98 23.3L429.44 27.37L440.68 31.87L451.69 36.78L462.48 42.11L473.03 47.85L483.31 53.97L493.35 60.48L503.12 67.35L512.6 74.58L521.8 82.17L530.69 90.09L539.26 98.36L547.52 106.93L555.45 115.82L563.04 125.02L570.27 134.5L577.14 144.26L583.65 154.3L589.77 164.59L595.5 175.14L600.84 185.93L605.75 196.94L610.25 208.18L614.32 219.63L617.94 231.29L621.13 243.12L623.84 255.15L626.08 267.34L627.85 279.7L629.11 292.19L629.89 304.85L630.14 317.62L629.89 330.39L629.11 343.04L627.85 355.54L626.08 367.9L623.84 380.09L621.13 392.11L617.94 403.95L614.32 415.6L610.25 427.06L605.75 438.3L600.84 449.31L595.5 460.1L589.77 470.65L583.65 480.93L577.14 490.97L570.27 500.74L563.04 510.22L555.45 519.41L547.52 528.31L539.26 536.88L530.69 545.14L521.8 553.07L512.6 560.66L503.12 567.89L493.35 574.76L483.31 581.27L473.03 587.39L462.48 593.12L451.69 598.46L440.68 603.37L429.44 607.87L417.98 611.94L406.33 615.56L394.5 618.75L382.47 621.46L370.28 623.7L357.92 625.46L345.42 626.73L332.77 627.51L320 627.76L307.23 627.51L294.58 626.73L282.08 625.46L269.72 623.7L257.53 621.46L245.5 618.75L233.67 615.56L222.02 611.94L210.56 607.87L199.32 603.37L188.31 598.46L177.52 593.12L166.97 587.39L156.69 581.27L146.65 574.76L136.88 567.89L127.4 560.66L118.2 553.07L109.31 545.14L100.74 536.88L92.48 528.31L84.55 519.41L76.96 510.22L69.73 500.74L62.86 490.97L56.35 480.93L50.23 470.65L44.5 460.1L39.16 449.31L34.25 438.3L29.75 427.06L25.68 415.6L22.06 403.95L18.87 392.11L16.16 380.09L13.92 367.9L12.15 355.54L10.89 343.04L10.11 330.39L9.86 317.62L10.11 304.85L10.89 292.19L12.15 279.7L13.92 267.34L16.16 255.15L18.87 243.12L22.06 231.29L25.68 219.63L29.75 208.18L34.25 196.94L39.16 185.93L44.5 175.14L50.23 164.59L56.35 154.3L62.86 144.26L69.73 134.5L76.96 125.02L84.55 115.82L92.48 106.93L100.74 98.36L109.31 90.09L118.2 82.17L127.4 74.58L136.88 67.35L146.65 60.48L156.69 53.97L166.97 47.85L177.52 42.11L188.31 36.78L199.32 31.87L210.56 27.37L222.02 23.3L233.67 19.68L245.5 16.49L257.53 13.78L269.72 11.54L282.08 9.77L294.58 8.51L307.23 7.73L320 7.47L332.77 7.73L345.42 8.51ZM294.11 37.66L282.91 38.8L271.84 40.39L260.92 42.4L250.15 44.83L239.54 47.67L229.11 50.92L218.85 54.56L208.78 58.59L198.91 63L189.25 67.77L179.8 72.91L170.58 78.39L161.59 84.22L152.84 90.38L144.35 96.86L136.11 103.66L128.15 110.76L120.46 118.16L113.07 125.84L105.96 133.81L99.17 142.04L92.68 150.54L86.53 159.29L80.7 168.27L75.21 177.5L70.08 186.95L65.3 196.61L60.9 206.48L56.87 216.55L53.23 226.81L49.98 237.24L47.13 247.85L44.7 258.62L42.69 269.54L41.12 280.61L39.98 291.81L39.28 303.14L39.05 314.58L39.28 326.03L39.98 337.36L41.12 348.55L42.69 359.63L44.7 370.55L47.13 381.32L49.98 391.93L53.23 402.36L56.87 412.62L60.9 422.69L65.3 432.56L70.08 442.22L75.21 451.67L80.7 460.89L86.53 469.88L92.68 478.62L99.17 487.12L105.96 495.36L113.07 503.32L120.46 511L128.15 518.4L136.11 525.51L144.35 532.3L152.84 538.79L161.59 544.94L170.58 550.77L179.8 556.25L189.25 561.39L198.91 566.17L208.78 570.57L218.85 574.61L229.11 578.24L239.54 581.49L250.15 584.34L260.92 586.77L271.84 588.78L282.91 590.36L294.11 591.49L305.44 592.19L316.89 592.42L328.33 592.19L339.66 591.49L350.86 590.36L361.93 588.78L372.85 586.77L383.62 584.34L394.23 581.49L404.66 578.24L414.92 574.61L424.99 570.57L434.86 566.17L444.52 561.39L453.97 556.25L463.19 550.77L472.18 544.94L480.93 538.79L489.43 532.3L497.66 525.51L505.62 518.4L513.31 511L520.7 503.32L527.81 495.36L534.61 487.12L541.09 478.62L547.25 469.88L553.07 460.89L558.56 451.67L563.69 442.22L568.47 432.56L572.88 422.69L576.91 412.62L580.55 402.36L583.79 391.93L586.64 381.32L589.08 370.55L591.08 359.63L592.67 348.55L593.81 337.36L594.49 326.03L594.73 314.58L594.49 303.14L593.81 291.81L592.67 280.61L591.08 269.54L589.08 258.62L586.64 247.85L583.79 237.24L580.55 226.81L576.91 216.55L572.88 206.48L568.47 196.61L563.69 186.95L558.56 177.5L553.07 168.27L547.25 159.29L541.09 150.54L534.61 142.04L527.81 133.81L520.7 125.84L513.31 118.16L505.62 110.76L497.66 103.66L489.43 96.86L480.93 90.38L472.18 84.22L463.19 78.39L453.97 72.91L444.52 67.77L434.86 63L424.99 58.59L414.92 54.56L404.66 50.92L394.23 47.67L383.62 44.83L372.85 42.4L361.93 40.39L350.86 38.8L339.66 37.66L328.33 36.98L316.89 36.75L305.44 36.98L294.11 37.66Z" id="hEqA0ri1i"></path><path d="M186.14 133.46C185.42 129.42 187.19 125.34 190.63 123.1C199 117.66 189.5 123.85 190.63 123.1C216.53 106.24 249.47 104.48 277.04 118.46C277.9 118.91 268.13 113.95 277.04 118.46C279.61 119.78 281.04 122.62 280.53 125.47C276.55 148.2 274.32 167.74 273.84 184.08C273.33 201.77 274.82 216.02 278.29 226.82C268.92 226.31 193.94 222.19 184.56 221.68C189.52 208.78 191.41 192.66 190.26 173.29C189.27 156.73 187.89 143.46 186.14 133.46Z" id="asVEO1i3i"></path><path d="M231.55 236.82C188.82 236.82 150.12 231.65 150.12 221.59C150.12 213.84 162.64 212.21 191.61 209.56C191.61 209.56 191.61 209.56 191.61 209.56C226.5 203.84 262.24 206.24 296.05 216.61C303.01 218.75 306.49 220.41 306.49 221.59C306.49 231.65 274.3 236.82 231.55 236.82Z" id="a7EJ78BNa"></path><path d="M232.41 233.95C207.8 233.95 199.58 226.79 199.58 221.33C199.58 220.13 201.22 219.04 204.47 218.04C212.1 215.47 221.41 214.18 232.41 214.18C257.01 214.18 265.93 219.98 265.93 225.43C265.93 230.88 257.01 233.95 232.41 233.95Z" id="c1Tm5VIDFQ"></path><path d="M230.56 229.17C213.47 229.17 199.58 225.81 199.58 221.68C199.58 217.54 213.47 214.18 230.56 214.18C247.65 214.18 261.54 217.54 261.54 221.68C261.54 225.81 247.65 229.17 230.56 229.17Z" id="a2Ty7RmsD"></path><path d="M230.95 495.39L252.21 472.67L235.74 332.95L233.6 328.17L227.19 326.31L225.07 331.51L211 472.67L230.95 495.39Z" id="aRwH7A7f4"></path><path d="M190.7 193.58C203.21 194.87 216.38 195.53 230.23 195.56C244.07 195.59 258.59 195 273.77 193.78C273.76 196.33 273.82 198.79 273.94 201.14C274.07 203.5 274.27 205.76 274.54 207.92C271.94 207.75 258.95 206.92 235.57 205.41L190.26 207.47L190.59 199.7C190.66 196.03 190.7 193.99 190.7 193.58Z" id="aZKr3T8FO"></path><path d="M221.6 330.75C217.76 328.52 216.11 323.83 217.73 319.69C218.33 318.16 218.59 317.48 219.51 315.13C220.24 313.26 222.04 312.02 224.06 312C227.23 311.98 233.49 311.92 236.68 311.9C238.64 311.88 240.41 313.06 241.15 314.87C242.11 317.21 242.57 318.31 243.22 319.93C244.8 323.78 243.34 328.21 239.77 330.36C238.54 331.1 235.45 332.94 230.52 335.9C225.77 333.16 222.79 331.44 221.6 330.75Z" id="bUOjW7FCG"></path><path d="M221.6 330.75C217.76 328.52 216.11 323.83 217.73 319.69C218.33 318.16 218.59 317.48 219.51 315.13C220.24 313.26 222.04 312.02 224.06 312C227.23 311.98 233.49 311.92 236.68 311.9C238.64 311.88 240.41 313.06 241.15 314.87C242.11 317.21 242.57 318.31 243.22 319.93C244.8 323.78 243.34 328.21 239.77 330.36C238.54 331.1 235.45 332.94 230.52 335.9C225.77 333.16 222.79 331.44 221.6 330.75Z" id="balxgXc6E"></path><path d="M433.26 191.95L433.85 193.02L434.59 193.99L435.45 194.86L436.42 195.59L437.5 196.18L438.65 196.63L439.89 196.9L441.18 197L442.47 196.9L443.69 196.63L444.85 196.18L445.92 195.59L446.91 194.86L447.76 193.99L448.5 193.02L449.1 191.95L449.54 190.79L449.63 190.36L449.56 191.33L449.66 192.62L449.93 193.86L450.37 195.02L450.96 196.09L451.7 197.06L452.57 197.92L453.54 198.66L454.61 199.25L455.77 199.69L457 199.97L458.29 200.06L459.58 199.97L460.81 199.69L461.97 199.25L463.04 198.66L464.01 197.92L464.87 197.06L465.61 196.09L466.2 195.02L466.43 194.43L466.28 195.11L466.18 196.4L466.28 197.69L466.55 198.92L467 200.07L467.59 201.15L468.32 202.13L469.19 202.98L470.16 203.72L471.23 204.32L472.39 204.76L473.62 205.04L474.92 205.12L476.2 205.04L477.43 204.76L478.59 204.32L479.66 203.72L480.63 202.98L481.5 202.13L482.23 201.15L482.82 200.07L482.85 200.01L483 200.06L474.09 222.45L453.86 219.61L452.89 219.48L451.91 219.35L450.93 219.23L449.95 219.11L448.97 219.01L448 218.91L447.01 218.82L446.03 218.73L445.05 218.65L444.07 218.57L443.09 218.51L442.1 218.46L441.12 218.4L440.14 218.36L439.16 218.32L438.17 218.28L437.19 218.26L436.21 218.24L435.22 218.23L434.23 218.22L433.25 218.22L432.27 218.23L431.29 218.25L430.3 218.27L429.31 218.3L428.33 218.34L427.35 218.38L426.36 218.43L425.38 218.48L424.4 218.54L423.42 218.62L422.44 218.69L421.45 218.78L420.48 218.87L419.5 218.97L418.52 219.07L417.53 219.18L416.56 219.3L415.58 219.43L414.61 219.56L393.54 222.45L382.47 201.91L382.53 201.88L383.03 202.8L383.77 203.77L384.63 204.63L385.6 205.37L386.68 205.96L387.83 206.4L389.06 206.68L390.35 206.77L391.65 206.68L392.87 206.4L394.03 205.96L395.1 205.37L396.08 204.63L396.94 203.77L397.68 202.8L398.27 201.73L398.71 200.57L398.99 199.34L399.08 198.04L398.99 196.75L398.71 195.53L398.44 194.82L398.47 194.81L398.49 194.92L398.94 196.08L399.54 197.15L400.27 198.12L401.13 198.98L402.11 199.72L403.18 200.31L404.34 200.75L405.57 201.03L406.85 201.13L408.14 201.03L409.38 200.75L410.54 200.31L411.61 199.72L412.58 198.98L413.45 198.12L414.17 197.15L414.77 196.08L415.21 194.92L415.49 193.68L415.59 192.39L415.49 191.13L415.8 191.95L416.39 193.02L417.13 193.99L417.99 194.86L418.97 195.59L420.04 196.18L421.2 196.63L422.43 196.9L423.72 197L425.01 196.9L426.24 196.63L427.4 196.18L428.47 195.59L429.44 194.86L430.3 193.99L431.04 193.02L431.64 191.95L432.08 190.79L432.36 189.55L432.45 188.29L432.45 188.29L432.54 189.55L432.82 190.79L433.26 191.95Z" id="cHDgcTGeH"></path><path d="M375.06 187.24C376.25 186.65 378.37 188.48 379.81 191.33C381.25 194.19 381.46 196.99 382.47 201.93C379.09 198.18 376.97 196.34 375.54 193.49C374.09 190.63 373.88 187.84 375.06 187.24Z" id="d1erJzcMnd"></path><path d="M490.4 185.22C489.22 184.62 487.1 186.46 485.65 189.31C484.22 192.17 484.01 194.97 483 199.91C486.37 196.15 488.49 194.32 489.94 191.47C491.37 188.61 491.58 185.81 490.4 185.22Z" id="aT0UhvXtn"></path><path d="M392.62 177.39C393.88 176.97 395.88 179.57 397.11 183.22C398.34 186.85 398.32 190.14 398.93 196.12C395.81 190.99 393.8 188.38 392.57 184.75C391.34 181.1 391.36 177.81 392.62 177.39Z" id="b4ucegfPaw"></path><path d="M472.01 175.62C470.75 175.24 468.81 177.9 467.69 181.58C466.57 185.25 466.69 188.54 466.25 194.53C469.23 189.32 471.16 186.65 472.27 182.97C473.39 179.3 473.27 176.01 472.01 175.62Z" id="apCNmWfc"></path><path d="M431.25 159.03C433.35 158.94 435.25 163.65 435.48 169.52C435.71 175.41 434.2 180.24 432.47 189.3C430 180.41 428.11 175.71 427.88 169.83C427.64 163.94 429.15 159.11 431.25 159.03Z" id="a2TQdYRPjb"></path><path d="M446.82 211.95C446.12 211.88 445.64 210.96 445.75 209.89C445.87 208.83 446.52 208.02 447.4 206.48C447.93 208.17 448.41 209.09 448.29 210.16C448.18 211.22 447.53 212.03 446.82 211.95Z" id="c6jnpNKoXf"></path><path d="M432.73 211.99C431.2 211.99 429.96 210.11 429.96 207.79C429.96 205.47 431.2 203.6 432.73 200.06C434.26 203.6 435.5 205.47 435.5 207.79C435.5 210.11 434.26 211.99 432.73 211.99Z" id="c6RlzpKGH"></path><path d="M453.7 167.7C452.4 167.47 450.66 170.99 449.81 175.56C448.98 180.14 449.34 184.05 449.36 191.27C451.95 184.53 453.69 181.01 454.53 176.43C455.37 171.85 454.99 167.95 453.7 167.7Z" id="dVSVe7tTa"></path><path d="M410.83 168.37C412.13 168.11 413.95 171.58 414.89 176.14C415.84 180.7 415.56 184.61 415.71 191.83C412.96 185.15 411.15 181.67 410.2 177.12C409.26 172.56 409.55 168.65 410.83 168.37Z" id="e8I29RgCu1"></path><path d="M461.45 214.56C462.13 214.72 462.9 214.01 463.15 212.97C463.39 211.93 463.04 210.95 462.73 209.2C461.67 210.63 460.91 211.33 460.66 212.37C460.4 213.42 460.76 214.39 461.45 214.56Z" id="g2hmeGvFE"></path><path d="M405.59 214.53C406.25 214.26 406.46 213.25 406.07 212.25C405.69 211.25 404.83 210.66 403.58 209.39C403.51 211.17 403.3 212.19 403.69 213.18C404.08 214.18 404.93 214.78 405.59 214.53Z" id="b3JJPz77Sw"></path><path d="M420.46 212.35C421.12 212.09 421.33 211.08 420.95 210.08C420.56 209.08 419.7 208.48 418.46 207.22C418.39 208.99 418.17 210.02 418.56 211.01C418.96 212.01 419.8 212.61 420.46 212.35Z" id="bbpWR4Rwv"></path><path d="M438.39 321.07L439.01 321.18L439.59 321.33L440.15 321.52L440.67 321.76L441.15 322.06L441.6 322.4L442.01 322.81L442.4 323.26L442.73 323.78L443.1 324.49L443.48 325.27L443.85 326.13L444.21 327.04L444.54 328.02L444.87 329.04L445.18 330.13L445.47 331.25L445.74 332.41L445.98 333.6L446.21 334.83L446.4 336.08L446.56 337.34L446.7 338.61L446.8 339.9L446.86 341.19L446.89 342.47L446.88 343.75L446.83 345.02L446.78 345.66L446.73 346.25L446.66 346.79L446.59 347.29L446.52 347.75L446.45 348.16L446.37 348.55L446.28 348.89L446.2 349.19L446.12 349.46L446.04 349.69L445.96 349.9L445.89 350.07L445.84 350.22L445.78 350.32L445.74 350.41L445.71 350.47L445.68 350.51L445.68 350.52L445.64 350.54L445.55 350.59L445.39 350.68L445.17 350.78L444.87 350.91L444.53 351.05L444.11 351.21L443.63 351.37L443.08 351.54L442.46 351.7L441.78 351.85L441.03 351.99L440.22 352.11L439.33 352.21L438.39 352.29L437.37 352.33L436.29 352.34L435.14 352.31L433.91 352.23L432.61 352.09L431.42 351.92L430.35 351.74L429.38 351.52L428.52 351.28L427.74 351.03L427.06 350.77L426.46 350.5L425.94 350.22L425.5 349.96L425.13 349.7L424.81 349.46L424.57 349.23L424.36 349.03L424.21 348.85L424.11 348.7L424.04 348.59L424 348.53L423.99 348.5L423.99 348.48L424.02 348.4L424.06 348.28L424.12 348.1L424.19 347.88L424.27 347.59L424.37 347.25L424.48 346.85L424.59 346.38L424.71 345.85L424.84 345.25L424.98 344.6L425.12 343.87L425.25 343.07L425.4 342.2L425.54 341.25L425.69 340.22L425.83 339.12L425.97 337.94L426.09 336.73L426.19 335.53L426.26 334.36L426.32 333.23L426.35 332.13L426.35 331.07L426.35 330.06L426.34 329.09L426.32 328.19L426.28 327.35L426.24 326.58L426.19 325.88L426.15 325.25L426.1 324.71L426.06 324.25L426.02 323.89L425.99 323.62L425.97 323.46L425.97 323.41L426.13 323.35L426.29 323.28L426.44 323.21L426.62 323.13L426.79 323.05L426.97 322.96L427.17 322.87L427.38 322.77L427.59 322.67L427.83 322.57L428.08 322.47L428.36 322.36L428.65 322.27L428.97 322.16L429.3 322.06L429.67 321.95L430.06 321.85L430.48 321.75L430.93 321.67L431.77 321.51L432.58 321.36L433.38 321.24L434.16 321.14L434.92 321.05L435.66 320.99L436.39 320.96L437.07 320.96L437.75 321L438.39 321.07Z" id="aaeBy1JpJ"></path><path d="M438.39 321.07L439.01 321.18L439.59 321.33L440.15 321.52L440.67 321.76L441.15 322.06L441.6 322.4L442.01 322.81L442.4 323.26L442.73 323.78L443.1 324.49L443.48 325.27L443.85 326.13L444.21 327.04L444.54 328.02L444.87 329.04L445.18 330.13L445.47 331.25L445.74 332.41L445.98 333.6L446.21 334.83L446.4 336.08L446.56 337.34L446.7 338.61L446.8 339.9L446.86 341.19L446.89 342.47L446.88 343.75L446.83 345.02L446.78 345.66L446.73 346.25L446.66 346.79L446.59 347.29L446.52 347.75L446.45 348.16L446.37 348.55L446.28 348.89L446.2 349.19L446.12 349.46L446.04 349.69L445.96 349.9L445.89 350.07L445.84 350.22L445.78 350.32L445.74 350.41L445.71 350.47L445.68 350.51L445.68 350.52L445.64 350.54L445.55 350.59L445.39 350.68L445.17 350.78L444.87 350.91L444.53 351.05L444.11 351.21L443.63 351.37L443.08 351.54L442.46 351.7L441.78 351.85L441.03 351.99L440.22 352.11L439.33 352.21L438.39 352.29L437.37 352.33L436.29 352.34L435.14 352.31L433.91 352.23L432.61 352.09L431.42 351.92L430.35 351.74L429.38 351.52L428.52 351.28L427.74 351.03L427.06 350.77L426.46 350.5L425.94 350.22L425.5 349.96L425.13 349.7L424.81 349.46L424.57 349.23L424.36 349.03L424.21 348.85L424.11 348.7L424.04 348.59L424 348.53L423.99 348.5L423.99 348.48L424.02 348.4L424.06 348.28L424.12 348.1L424.19 347.88L424.27 347.59L424.37 347.25L424.48 346.85L424.59 346.38L424.71 345.85L424.84 345.25L424.98 344.6L425.12 343.87L425.25 343.07L425.4 342.2L425.54 341.25L425.69 340.22L425.83 339.12L425.97 337.94L426.09 336.73L426.19 335.53L426.26 334.36L426.32 333.23L426.35 332.13L426.35 331.07L426.35 330.06L426.34 329.09L426.32 328.19L426.28 327.35L426.24 326.58L426.19 325.88L426.15 325.25L426.1 324.71L426.06 324.25L426.02 323.89L425.99 323.62L425.97 323.46L425.97 323.41L426.13 323.35L426.29 323.28L426.44 323.21L426.62 323.13L426.79 323.05L426.97 322.96L427.17 322.87L427.38 322.77L427.59 322.67L427.83 322.57L428.08 322.47L428.36 322.36L428.65 322.27L428.97 322.16L429.3 322.06L429.67 321.95L430.06 321.85L430.48 321.75L430.93 321.67L431.77 321.51L432.58 321.36L433.38 321.24L434.16 321.14L434.92 321.05L435.66 320.99L436.39 320.96L437.07 320.96L437.75 321L438.39 321.07Z" id="c7aomn2Qn"></path><path d="M482.54 307.42L483.32 307.53L484.1 307.68L484.87 307.86L485.61 308.09L486.35 308.35L487.07 308.65L487.77 308.98L488.45 309.36L489.12 309.76L489.76 310.19L490.38 310.66L490.97 311.16L491.54 311.7L492.08 312.26L492.6 312.84L493.08 313.46L493.53 314.1L493.95 314.77L494.34 315.46L494.69 316.17L495.01 316.91L495.28 317.67L495.52 318.45L495.71 319.25L495.86 320.08L495.97 320.91L496.04 321.75L497.01 342.04L497.02 342.9L496.99 343.74L496.91 344.57L496.79 345.37L496.63 346.17L496.41 346.94L496.16 347.7L495.87 348.44L495.55 349.14L495.18 349.84L494.78 350.51L494.35 351.15L493.88 351.77L493.37 352.37L492.85 352.93L492.29 353.46L491.71 353.97L491.11 354.44L490.47 354.88L489.82 355.28L489.14 355.66L488.44 355.99L487.73 356.3L487 356.55L486.25 356.78L485.49 356.96L484.72 357.1L483.93 357.2L483.14 357.26L482.33 357.27L481.53 357.24L480.71 357.15L479.89 357.02L479.06 356.85L478.25 356.62L466.74 353.1L452.37 350.71L452.18 350.62L451.81 350.42L451.47 350.21L451.32 350.09L451.16 349.96L451.02 349.82L450.88 349.68L450.75 349.55L450.51 349.23L450.39 349.07L450.3 348.9L450.2 348.72L450.11 348.54L449.95 348.14L449.88 347.94L449.82 347.73L449.77 347.51L449.72 347.29L449.68 347.06L449.65 346.83L449.62 346.58L449.6 346.32L449.59 346.07L449.58 345.8L449.59 345.54L449.59 345.26L449.63 344.69L449.66 344.4L449.7 344.09L449.74 343.78L449.8 343.34L449.86 342.9L449.91 342.44L449.96 342L450 341.55L450.03 341.11L450.09 340.2L450.1 339.76L450.12 339.31L450.12 337.92L465.07 338.12L450.04 335.15L468.56 327.7L449.42 331.61L449.36 331.3L449.26 330.86L449.17 330.43L449.06 329.99L448.95 329.56L448.83 329.12L448.58 328.26L448.48 327.92L448.39 327.59L448.3 327.27L448.23 326.95L448.16 326.65L448.11 326.34L448.07 326.04L448.03 325.75L447.97 325.18L447.96 324.91L447.95 324.64L447.97 324.13L447.99 323.89L448.02 323.64L448.06 323.41L448.11 323.18L448.16 322.95L448.22 322.74L448.38 322.32L448.47 322.13L448.57 321.93L448.68 321.75L448.91 321.39L449.05 321.22L449.19 321.07L449.34 320.91L449.5 320.76L449.67 320.63L449.84 320.49L450.02 320.36L450.22 320.23L451.79 319.33L452.58 318.89L453.37 318.44L454.96 317.58L455.76 317.16L457.37 316.31L458.17 315.91L458.98 315.5L459.8 315.09L460.6 314.7L462.23 313.92L463.88 313.15L464.7 312.78L465.52 312.4L466.36 312.04L467.18 311.69L468.02 311.32L468.85 310.98L469.69 310.62L470.52 310.29L473.06 309.29L473.9 308.97L474.75 308.65L475.6 308.35L476.45 308.03L476.73 307.93L476.88 307.89L477.7 307.69L478.51 307.53L479.33 307.42L480.14 307.35L480.95 307.33L481.75 307.35L482.54 307.42Z" id="d17uoKTOK2"></path><path d="M395.63 310.21L396.48 310.51L397.33 310.79L398.18 311.09L399.87 311.7L400.71 312.01L401.55 312.32L402.39 312.64L403.23 312.97L404.06 313.3L404.9 313.63L405.72 313.97L406.56 314.32L407.38 314.66L408.21 315.02L409.04 315.38L409.85 315.74L410.68 316.11L412.31 316.85L413.11 317.24L413.93 317.63L414.73 318.01L415.54 318.41L416.34 318.81L417.15 319.22L417.95 319.62L418.74 320.04L420.33 320.88L421.01 321.24L421.22 321.37L421.41 321.5L421.6 321.63L421.78 321.77L421.94 321.92L422.09 322.07L422.24 322.24L422.38 322.4L422.5 322.57L422.62 322.75L422.73 322.93L422.93 323.33L423 323.53L423.07 323.75L423.13 323.97L423.18 324.19L423.22 324.42L423.25 324.66L423.27 324.9L423.29 325.15L423.29 325.41L423.28 325.67L423.26 325.94L423.23 326.22L423.2 326.5L423.15 326.79L423.09 327.09L423.03 327.39L422.96 327.7L422.87 328.01L422.78 328.34L422.67 328.67L422.53 329.08L422.41 329.51L422.29 329.92L422.17 330.34L422.06 330.76L421.96 331.2L421.87 331.62L421.85 331.71L402.71 328.03L421.26 334.96L406.23 337.63L421.18 337.49L421.18 338.52L421.19 338.97L421.21 339.4L421.24 339.83L421.27 340.27L421.3 340.71L421.39 341.57L421.51 342.43L421.58 342.87L421.63 343.17L421.67 343.47L421.7 343.76L421.74 344.31L421.75 344.59L421.74 344.84L421.74 345.1L421.7 345.59L421.66 345.82L421.62 346.05L421.58 346.27L421.52 346.48L421.38 346.89L421.31 347.08L421.22 347.27L421.13 347.44L421.02 347.62L420.91 347.79L420.79 347.95L420.67 348.1L420.54 348.24L420.24 348.52L420.09 348.64L419.92 348.76L419.74 348.87L419.57 348.97L419.38 349.07L419.18 349.16L418.98 349.24L404.61 351.39L391.7 354.99L390.88 355.19L390.06 355.33L389.25 355.44L388.44 355.49L387.65 355.49L386.86 355.45L386.08 355.36L385.31 355.23L384.55 355.05L383.82 354.83L383.09 354.58L382.38 354.28L381.69 353.95L381.03 353.57L380.39 353.16L379.76 352.72L379.17 352.25L378.6 351.74L378.06 351.2L377.55 350.64L377.07 350.04L376.63 349.42L376.21 348.76L375.84 348.09L375.5 347.4L375.2 346.68L374.94 345.93L374.72 345.18L374.54 344.39L374.42 343.59L374.34 342.78L374.3 341.95L374.32 341.11L375.21 322.47L375.27 321.64L375.39 320.81L375.54 320.01L375.74 319.23L375.98 318.46L376.26 317.72L376.58 317L376.94 316.3L377.33 315.63L377.77 314.99L378.22 314.37L378.72 313.78L379.24 313.22L379.79 312.68L380.37 312.18L380.97 311.7L381.6 311.27L382.25 310.87L382.92 310.5L383.61 310.16L384.32 309.87L385.04 309.61L385.78 309.39L386.54 309.21L387.3 309.07L388.08 308.98L388.87 308.92L389.66 308.91L390.46 308.95L391.26 309.04L392.07 309.17L392.88 309.35L393.58 309.55L393.69 309.58L393.63 309.56L393.93 309.65L394.78 309.94L395.63 310.21Z" id="dYcI1xEM"></path></defs><g><g><g><g><filter id="shadow11586700" x="-0.14" y="-2.53" width="644.29" height="644.29" filterUnits="userSpaceOnUse" primitiveUnits="userSpaceOnUse"><feFlood></feFlood><feComposite in2="SourceAlpha" operator="in"></feComposite><feGaussianBlur stdDeviation="0"></feGaussianBlur><feOffset dx="4" dy="4" result="afterOffset"></feOffset><feFlood flood-color="#ffdb00" flood-opacity="1"></feFlood><feComposite in2="afterOffset" operator="in"></feComposite><feMorphology operator="dilate" radius="1"></feMorphology><feComposite in2="SourceAlpha" operator="out"></feComposite></filter><path d="M345.42 8.51L357.92 9.77L370.28 11.54L382.47 13.78L394.5 16.49L406.33 19.68L417.98 23.3L429.44 27.37L440.68 31.87L451.69 36.78L462.48 42.11L473.03 47.85L483.31 53.97L493.35 60.48L503.12 67.35L512.6 74.58L521.8 82.17L530.69 90.09L539.26 98.36L547.52 106.93L555.45 115.82L563.04 125.02L570.27 134.5L577.14 144.26L583.65 154.3L589.77 164.59L595.5 175.14L600.84 185.93L605.75 196.94L610.25 208.18L614.32 219.63L617.94 231.29L621.13 243.12L623.84 255.15L626.08 267.34L627.85 279.7L629.11 292.19L629.89 304.85L630.14 317.62L629.89 330.39L629.11 343.04L627.85 355.54L626.08 367.9L623.84 380.09L621.13 392.11L617.94 403.95L614.32 415.6L610.25 427.06L605.75 438.3L600.84 449.31L595.5 460.1L589.77 470.65L583.65 480.93L577.14 490.97L570.27 500.74L563.04 510.22L555.45 519.41L547.52 528.31L539.26 536.88L530.69 545.14L521.8 553.07L512.6 560.66L503.12 567.89L493.35 574.76L483.31 581.27L473.03 587.39L462.48 593.12L451.69 598.46L440.68 603.37L429.44 607.87L417.98 611.94L406.33 615.56L394.5 618.75L382.47 621.46L370.28 623.7L357.92 625.46L345.42 626.73L332.77 627.51L320 627.76L307.23 627.51L294.58 626.73L282.08 625.46L269.72 623.7L257.53 621.46L245.5 618.75L233.67 615.56L222.02 611.94L210.56 607.87L199.32 603.37L188.31 598.46L177.52 593.12L166.97 587.39L156.69 581.27L146.65 574.76L136.88 567.89L127.4 560.66L118.2 553.07L109.31 545.14L100.74 536.88L92.48 528.31L84.55 519.41L76.96 510.22L69.73 500.74L62.86 490.97L56.35 480.93L50.23 470.65L44.5 460.1L39.16 449.31L34.25 438.3L29.75 427.06L25.68 415.6L22.06 403.95L18.87 392.11L16.16 380.09L13.92 367.9L12.15 355.54L10.89 343.04L10.11 330.39L9.86 317.62L10.11 304.85L10.89 292.19L12.15 279.7L13.92 267.34L16.16 255.15L18.87 243.12L22.06 231.29L25.68 219.63L29.75 208.18L34.25 196.94L39.16 185.93L44.5 175.14L50.23 164.59L56.35 154.3L62.86 144.26L69.73 134.5L76.96 125.02L84.55 115.82L92.48 106.93L100.74 98.36L109.31 90.09L118.2 82.17L127.4 74.58L136.88 67.35L146.65 60.48L156.69 53.97L166.97 47.85L177.52 42.11L188.31 36.78L199.32 31.87L210.56 27.37L222.02 23.3L233.67 19.68L245.5 16.49L257.53 13.78L269.72 11.54L282.08 9.77L294.58 8.51L307.23 7.73L320 7.47L332.77 7.73L345.42 8.51ZM294.11 37.66L282.91 38.8L271.84 40.39L260.92 42.4L250.15 44.83L239.54 47.67L229.11 50.92L218.85 54.56L208.78 58.59L198.91 63L189.25 67.77L179.8 72.91L170.58 78.39L161.59 84.22L152.84 90.38L144.35 96.86L136.11 103.66L128.15 110.76L120.46 118.16L113.07 125.84L105.96 133.81L99.17 142.04L92.68 150.54L86.53 159.29L80.7 168.27L75.21 177.5L70.08 186.95L65.3 196.61L60.9 206.48L56.87 216.55L53.23 226.81L49.98 237.24L47.13 247.85L44.7 258.62L42.69 269.54L41.12 280.61L39.98 291.81L39.28 303.14L39.05 314.58L39.28 326.03L39.98 337.36L41.12 348.55L42.69 359.63L44.7 370.55L47.13 381.32L49.98 391.93L53.23 402.36L56.87 412.62L60.9 422.69L65.3 432.56L70.08 442.22L75.21 451.67L80.7 460.89L86.53 469.88L92.68 478.62L99.17 487.12L105.96 495.36L113.07 503.32L120.46 511L128.15 518.4L136.11 525.51L144.35 532.3L152.84 538.79L161.59 544.94L170.58 550.77L179.8 556.25L189.25 561.39L198.91 566.17L208.78 570.57L218.85 574.61L229.11 578.24L239.54 581.49L250.15 584.34L260.92 586.77L271.84 588.78L282.91 590.36L294.11 591.49L305.44 592.19L316.89 592.42L328.33 592.19L339.66 591.49L350.86 590.36L361.93 588.78L372.85 586.77L383.62 584.34L394.23 581.49L404.66 578.24L414.92 574.61L424.99 570.57L434.86 566.17L444.52 561.39L453.97 556.25L463.19 550.77L472.18 544.94L480.93 538.79L489.43 532.3L497.66 525.51L505.62 518.4L513.31 511L520.7 503.32L527.81 495.36L534.61 487.12L541.09 478.62L547.25 469.88L553.07 460.89L558.56 451.67L563.69 442.22L568.47 432.56L572.88 422.69L576.91 412.62L580.55 402.36L583.79 391.93L586.64 381.32L589.08 370.55L591.08 359.63L592.67 348.55L593.81 337.36L594.49 326.03L594.73 314.58L594.49 303.14L593.81 291.81L592.67 280.61L591.08 269.54L589.08 258.62L586.64 247.85L583.79 237.24L580.55 226.81L576.91 216.55L572.88 206.48L568.47 196.61L563.69 186.95L558.56 177.5L553.07 168.27L547.25 159.29L541.09 150.54L534.61 142.04L527.81 133.81L520.7 125.84L513.31 118.16L505.62 110.76L497.66 103.66L489.43 96.86L480.93 90.38L472.18 84.22L463.19 78.39L453.97 72.91L444.52 67.77L434.86 63L424.99 58.59L414.92 54.56L404.66 50.92L394.23 47.67L383.62 44.83L372.85 42.4L361.93 40.39L350.86 38.8L339.66 37.66L328.33 36.98L316.89 36.75L305.44 36.98L294.11 37.66Z" id="d1aEtlhthd" fill="white" fill-opacity="1" filter="url(#shadow11586700)"></path></g><use xlink:href="#hEqA0ri1i" opacity="1" fill="#fff600" fill-opacity="1"></use><g><use xlink:href="#hEqA0ri1i" opacity="1" fill-opacity="0" stroke="#000000" stroke-width="1" stroke-opacity="0"></use></g></g><g><use xlink:href="#asVEO1i3i" opacity="1" fill="#000000" fill-opacity="1"></use><g><use xlink:href="#asVEO1i3i" opacity="1" fill-opacity="0" stroke="#000000" stroke-width="1" stroke-opacity="0"></use></g></g><g><use xlink:href="#a7EJ78BNa" opacity="1" fill="#99adb8" fill-opacity="1"></use><g><use xlink:href="#a7EJ78BNa" opacity="1" fill-opacity="0" stroke="#000000" stroke-width="1" stroke-opacity="0"></use></g></g><g><use xlink:href="#c1Tm5VIDFQ" opacity="1" fill="#0009ff" fill-opacity="0.35"></use><g><use xlink:href="#c1Tm5VIDFQ" opacity="1" fill-opacity="0" stroke="#000000" stroke-width="1" stroke-opacity="0"></use></g></g><g><use xlink:href="#a2Ty7RmsD" opacity="1" fill="#000000" fill-opacity="1"></use><g><use xlink:href="#a2Ty7RmsD" opacity="1" fill-opacity="0" stroke="#000000" stroke-width="1" stroke-opacity="0"></use></g></g><g><use xlink:href="#aRwH7A7f4" opacity="1" fill="#000000" fill-opacity="1"></use><g><use xlink:href="#aRwH7A7f4" opacity="1" fill-opacity="0" stroke="#000000" stroke-width="1" stroke-opacity="0"></use></g></g><g><use xlink:href="#aZKr3T8FO" opacity="1" fill="#003fff" fill-opacity="0.46"></use><g><use xlink:href="#aZKr3T8FO" opacity="1" fill-opacity="0" stroke="#000000" stroke-width="1" stroke-opacity="0"></use></g></g><g><use xlink:href="#bUOjW7FCG" opacity="1" fill="#000000" fill-opacity="1"></use><g><use xlink:href="#bUOjW7FCG" opacity="1" fill-opacity="0" stroke="#000000" stroke-width="1" stroke-opacity="0"></use></g></g><g><use xlink:href="#balxgXc6E" opacity="1" fill="#000000" fill-opacity="0"></use><g><use xlink:href="#balxgXc6E" opacity="1" fill-opacity="0" stroke="#848484" stroke-width="1" stroke-opacity="1"></use></g></g><g><use xlink:href="#cHDgcTGeH" opacity="1" fill="#ffa800" fill-opacity="1"></use><g><use xlink:href="#cHDgcTGeH" opacity="1" fill-opacity="0" stroke="#000000" stroke-width="1" stroke-opacity="0"></use></g></g><g><use xlink:href="#d1erJzcMnd" opacity="1" fill="#846e33" fill-opacity="1"></use><g><use xlink:href="#d1erJzcMnd" opacity="1" fill-opacity="0" stroke="#000000" stroke-width="1" stroke-opacity="0"></use></g></g><g><use xlink:href="#aT0UhvXtn" opacity="1" fill="#846e33" fill-opacity="1"></use><g><use xlink:href="#aT0UhvXtn" opacity="1" fill-opacity="0" stroke="#000000" stroke-width="1" stroke-opacity="0"></use></g></g><g><use xlink:href="#b4ucegfPaw" opacity="1" fill="#846e33" fill-opacity="1"></use><g><use xlink:href="#b4ucegfPaw" opacity="1" fill-opacity="0" stroke="#000000" stroke-width="1" stroke-opacity="0"></use></g></g><g><use xlink:href="#apCNmWfc" opacity="1" fill="#846e33" fill-opacity="1"></use><g><use xlink:href="#apCNmWfc" opacity="1" fill-opacity="0" stroke="#000000" stroke-width="1" stroke-opacity="0"></use></g></g><g><use xlink:href="#a2TQdYRPjb" opacity="1" fill="#846e33" fill-opacity="1"></use><g><use xlink:href="#a2TQdYRPjb" opacity="1" fill-opacity="0" stroke="#000000" stroke-width="1" stroke-opacity="0"></use></g></g><g><use xlink:href="#c6jnpNKoXf" opacity="1" fill="#ff0000" fill-opacity="1"></use><g><use xlink:href="#c6jnpNKoXf" opacity="1" fill-opacity="0" stroke="#000000" stroke-width="1" stroke-opacity="0"></use></g></g><g><use xlink:href="#c6RlzpKGH" opacity="1" fill="#ff0000" fill-opacity="1"></use><g><use xlink:href="#c6RlzpKGH" opacity="1" fill-opacity="0" stroke="#000000" stroke-width="1" stroke-opacity="0"></use></g></g><g><use xlink:href="#dVSVe7tTa" opacity="1" fill="#846e33" fill-opacity="1"></use><g><use xlink:href="#dVSVe7tTa" opacity="1" fill-opacity="0" stroke="#000000" stroke-width="1" stroke-opacity="0"></use></g></g><g><use xlink:href="#e8I29RgCu1" opacity="1" fill="#846e33" fill-opacity="1"></use><g><use xlink:href="#e8I29RgCu1" opacity="1" fill-opacity="0" stroke="#000000" stroke-width="1" stroke-opacity="0"></use></g></g><g><use xlink:href="#g2hmeGvFE" opacity="1" fill="#ff0000" fill-opacity="1"></use><g><use xlink:href="#g2hmeGvFE" opacity="1" fill-opacity="0" stroke="#000000" stroke-width="1" stroke-opacity="0"></use></g></g><g><use xlink:href="#b3JJPz77Sw" opacity="1" fill="#ff0000" fill-opacity="1"></use><g><use xlink:href="#b3JJPz77Sw" opacity="1" fill-opacity="0" stroke="#000000" stroke-width="1" stroke-opacity="0"></use></g></g><g><use xlink:href="#bbpWR4Rwv" opacity="1" fill="#ff0000" fill-opacity="1"></use><g><use xlink:href="#bbpWR4Rwv" opacity="1" fill-opacity="0" stroke="#000000" stroke-width="1" stroke-opacity="0"></use></g></g><g><use xlink:href="#aaeBy1JpJ" opacity="1" fill="#ff0000" fill-opacity="1"></use><g><use xlink:href="#aaeBy1JpJ" opacity="1" fill-opacity="0" stroke="#000000" stroke-width="1" stroke-opacity="0"></use></g></g><g><use xlink:href="#c7aomn2Qn" opacity="1" fill="#000000" fill-opacity="0"></use><g><use xlink:href="#c7aomn2Qn" opacity="1" fill-opacity="0" stroke="#000000" stroke-width="1" stroke-opacity="0"></use></g></g><g><use xlink:href="#d17uoKTOK2" opacity="1" fill="#ff0000" fill-opacity="1"></use><g><use xlink:href="#d17uoKTOK2" opacity="1" fill-opacity="0" stroke="#000000" stroke-width="1" stroke-opacity="0"></use></g></g><g><use xlink:href="#dYcI1xEM" opacity="1" fill="#ff0000" fill-opacity="1"></use><g><use xlink:href="#dYcI1xEM" opacity="1" fill-opacity="0" stroke="#000000" stroke-width="1" stroke-opacity="0"></use></g></g></g></g></svg>