<?xml version="1.0" encoding="UTF-8" standalone="no"?>
<!DOCTYPE svg PUBLIC "-//W3C//DTD SVG 1.1//EN" "http://www.w3.org/Graphics/SVG/1.1/DTD/svg11.dtd">
<svg version="1.1" xmlns="http://www.w3.org/2000/svg" xmlns:xlink="http://www.w3.org/1999/xlink" preserveAspectRatio="xMidYMid meet" viewBox="0 0 640 640" width="640" height="640"><defs><path d="M618.11 33.84L618.94 33.92L619.75 34.04L620.55 34.19L621.34 34.37L622.12 34.58L622.89 34.81L623.65 35.08L624.39 35.38L625.11 35.7L625.82 36.05L626.52 36.43L627.2 36.83L627.86 37.26L628.5 37.71L629.12 38.19L629.73 38.69L630.31 39.21L630.88 39.76L631.42 40.32L631.94 40.91L632.44 41.51L632.92 42.14L633.37 42.78L633.8 43.44L634.2 44.12L634.58 44.81L634.93 45.52L635.26 46.25L635.55 46.99L635.82 47.74L636.06 48.51L636.27 49.29L636.45 50.08L636.59 50.89L636.71 51.7L636.79 52.52L636.84 53.36L636.86 54.2L636.86 602.07L636.84 602.91L636.79 603.75L636.71 604.57L636.59 605.39L636.45 606.19L636.27 606.98L636.06 607.76L635.82 608.53L635.55 609.28L635.26 610.02L634.93 610.75L634.58 611.46L634.2 612.15L633.8 612.83L633.37 613.49L632.92 614.14L632.44 614.76L631.94 615.36L631.42 615.95L630.88 616.52L630.31 617.06L629.73 617.58L629.12 618.08L628.5 618.56L627.86 619.01L627.2 619.44L626.52 619.84L625.82 620.22L625.11 620.57L624.39 620.89L623.65 621.19L622.89 621.46L622.12 621.69L621.34 621.9L620.55 622.08L619.75 622.23L618.94 622.35L618.11 622.43L617.28 622.48L616.44 622.5L23.56 622.5L22.72 622.48L21.89 622.43L21.06 622.35L20.25 622.23L19.45 622.08L18.66 621.9L17.88 621.69L17.11 621.46L16.35 621.19L15.61 620.89L14.89 620.57L14.18 620.22L13.48 619.84L12.8 619.44L12.14 619.01L11.5 618.56L10.88 618.08L10.27 617.58L9.69 617.06L9.12 616.52L8.58 615.95L8.06 615.36L7.56 614.76L7.08 614.14L6.63 613.49L6.2 612.83L5.8 612.15L5.42 611.46L5.07 610.75L4.74 610.02L4.45 609.28L4.18 608.53L3.94 607.76L3.73 606.98L3.55 606.19L3.41 605.39L3.29 604.57L3.21 603.75L3.16 602.91L3.14 602.07L3.14 54.2L3.16 53.36L3.21 52.52L3.29 51.7L3.41 50.89L3.55 50.08L3.73 49.29L3.94 48.51L4.18 47.74L4.45 46.99L4.74 46.25L5.07 45.52L5.42 44.81L5.8 44.12L6.2 43.44L6.63 42.78L7.08 42.14L7.56 41.51L8.06 40.91L8.58 40.32L9.12 39.76L9.69 39.21L10.27 38.69L10.88 38.19L11.5 37.71L12.14 37.26L12.8 36.83L13.48 36.43L14.18 36.05L14.89 35.7L15.61 35.38L16.35 35.08L17.11 34.81L17.88 34.58L18.66 34.37L19.45 34.19L20.25 34.04L21.06 33.92L21.89 33.84L22.72 33.79L23.56 33.77L616.44 33.77L617.28 33.79L618.11 33.84ZM20.64 601.25L619.36 601.25L619.36 127.52L20.64 127.52L20.64 601.25ZM276.14 51.51L274.85 51.81L273.61 52.21L272.41 52.72L271.27 53.32L270.19 54.02L269.18 54.8L268.23 55.67L267.37 56.61L266.59 57.62L265.89 58.7L265.28 59.84L264.78 61.04L264.38 62.29L264.08 63.58L263.9 64.91L263.84 66.27L263.9 67.64L264.08 68.97L264.38 70.26L264.78 71.5L265.28 72.7L265.89 73.84L266.59 74.92L267.37 75.93L268.23 76.88L269.18 77.74L270.19 78.53L271.27 79.22L272.41 79.83L273.61 80.33L274.85 80.74L276.14 81.03L277.47 81.21L278.84 81.27L280.2 81.21L281.53 81.03L282.82 80.74L284.07 80.33L285.27 79.83L286.41 79.22L287.49 78.53L288.5 77.74L289.44 76.88L290.31 75.93L291.09 74.92L291.79 73.84L292.39 72.7L292.9 71.5L293.3 70.26L293.6 68.97L293.78 67.64L293.84 66.27L293.78 64.91L293.6 63.58L293.3 62.29L292.9 61.04L292.39 59.84L291.79 58.7L291.09 57.62L290.31 56.61L289.44 55.67L288.5 54.8L287.49 54.02L286.41 53.32L285.27 52.72L284.07 52.21L282.82 51.81L281.53 51.51L280.2 51.33L278.84 51.27L277.47 51.33L276.14 51.51ZM580.05 51.51L578.76 51.81L577.52 52.21L576.32 52.72L575.18 53.32L574.1 54.02L573.09 54.8L572.15 55.67L571.28 56.61L570.5 57.62L569.8 58.7L569.19 59.84L568.69 61.04L568.29 62.29L567.99 63.58L567.81 64.91L567.75 66.27L567.81 67.64L567.99 68.97L568.29 70.26L568.69 71.5L569.19 72.7L569.8 73.84L570.5 74.92L571.28 75.93L572.15 76.88L573.09 77.74L574.1 78.53L575.18 79.22L576.32 79.83L577.52 80.33L578.76 80.74L580.05 81.03L581.38 81.21L582.75 81.27L584.11 81.21L585.44 81.03L586.73 80.74L587.98 80.33L589.18 79.83L590.32 79.22L591.4 78.53L592.41 77.74L593.35 76.88L594.22 75.93L595 74.92L595.7 73.84L596.3 72.7L596.81 71.5L597.21 70.26L597.51 68.97L597.69 67.64L597.75 66.27L597.69 64.91L597.51 63.58L597.21 62.29L596.81 61.04L596.3 59.84L595.7 58.7L595 57.62L594.22 56.61L593.35 55.67L592.41 54.8L591.4 54.02L590.32 53.32L589.18 52.72L587.98 52.21L586.73 51.81L585.44 51.51L584.11 51.33L582.75 51.27L581.38 51.33L580.05 51.51ZM47.94 51.51L46.65 51.81L45.41 52.21L44.21 52.72L43.07 53.32L41.99 54.02L40.98 54.8L40.03 55.67L39.17 56.61L38.38 57.62L37.69 58.7L37.08 59.84L36.58 61.04L36.17 62.29L35.88 63.58L35.7 64.91L35.64 66.27L35.7 67.64L35.88 68.97L36.17 70.26L36.58 71.5L37.08 72.7L37.69 73.84L38.38 74.92L39.17 75.93L40.03 76.88L40.98 77.74L41.99 78.53L43.07 79.22L44.21 79.83L45.41 80.33L46.65 80.74L47.94 81.03L49.27 81.21L50.64 81.27L52 81.21L53.33 81.03L54.62 80.74L55.87 80.33L57.06 79.83L58.2 79.22L59.28 78.53L60.3 77.74L61.24 76.88L62.11 75.93L62.89 74.92L63.59 73.84L64.19 72.7L64.7 71.5L65.1 70.26L65.39 68.97L65.57 67.64L65.64 66.27L65.57 64.91L65.39 63.58L65.1 62.29L64.7 61.04L64.19 59.84L63.59 58.7L62.89 57.62L62.11 56.61L61.24 55.67L60.3 54.8L59.28 54.02L58.2 53.32L57.06 52.72L55.87 52.21L54.62 51.81L53.33 51.51L52 51.33L50.64 51.27L49.27 51.33L47.94 51.51ZM351.85 51.51L350.56 51.81L349.32 52.21L348.12 52.72L346.98 53.32L345.9 54.02L344.89 54.8L343.94 55.67L343.08 56.61L342.29 57.62L341.6 58.7L340.99 59.84L340.49 61.04L340.08 62.29L339.79 63.58L339.61 64.91L339.55 66.27L339.61 67.64L339.79 68.97L340.08 70.26L340.49 71.5L340.99 72.7L341.6 73.84L342.29 74.92L343.08 75.93L343.94 76.88L344.89 77.74L345.9 78.53L346.98 79.22L348.12 79.83L349.32 80.33L350.56 80.74L351.85 81.03L353.18 81.21L354.55 81.27L355.91 81.21L357.24 81.03L358.53 80.74L359.78 80.33L360.97 79.83L362.12 79.22L363.2 78.53L364.21 77.74L365.15 76.88L366.02 75.93L366.8 74.92L367.5 73.84L368.1 72.7L368.61 71.5L369.01 70.26L369.3 68.97L369.49 67.64L369.55 66.27L369.49 64.91L369.3 63.58L369.01 62.29L368.61 61.04L368.1 59.84L367.5 58.7L366.8 57.62L366.02 56.61L365.15 55.67L364.21 54.8L363.2 54.02L362.12 53.32L360.97 52.72L359.78 52.21L358.53 51.81L357.24 51.51L355.91 51.33L354.55 51.27L353.18 51.33L351.85 51.51ZM123.65 51.51L122.36 51.81L121.11 52.21L119.92 52.72L118.78 53.32L117.7 54.02L116.68 54.8L115.74 55.67L114.88 56.61L114.09 57.62L113.4 58.7L112.79 59.84L112.29 61.04L111.88 62.29L111.59 63.58L111.41 64.91L111.35 66.27L111.41 67.64L111.59 68.97L111.88 70.26L112.29 71.5L112.79 72.7L113.4 73.84L114.09 74.92L114.88 75.93L115.74 76.88L116.68 77.74L117.7 78.53L118.78 79.22L119.92 79.83L121.11 80.33L122.36 80.74L123.65 81.03L124.98 81.21L126.35 81.27L127.71 81.21L129.04 81.03L130.33 80.74L131.58 80.33L132.77 79.83L133.91 79.22L134.99 78.53L136.01 77.74L136.95 76.88L137.82 75.93L138.6 74.92L139.3 73.84L139.9 72.7L140.41 71.5L140.81 70.26L141.1 68.97L141.28 67.64L141.34 66.27L141.28 64.91L141.1 63.58L140.81 62.29L140.41 61.04L139.9 59.84L139.3 58.7L138.6 57.62L137.82 56.61L136.95 55.67L136.01 54.8L134.99 54.02L133.91 53.32L132.77 52.72L131.58 52.21L130.33 51.81L129.04 51.51L127.71 51.33L126.35 51.27L124.98 51.33L123.65 51.51ZM198.11 51.51L196.82 51.81L195.57 52.21L194.38 52.72L193.24 53.32L192.16 54.02L191.14 54.8L190.2 55.67L189.33 56.61L188.55 57.62L187.85 58.7L187.25 59.84L186.74 61.04L186.34 62.29L186.05 63.58L185.87 64.91L185.8 66.27L185.87 67.64L186.05 68.97L186.34 70.26L186.74 71.5L187.25 72.7L187.85 73.84L188.55 74.92L189.33 75.93L190.2 76.88L191.14 77.74L192.16 78.53L193.24 79.22L194.38 79.83L195.57 80.33L196.82 80.74L198.11 81.03L199.44 81.21L200.8 81.27L202.17 81.21L203.5 81.03L204.79 80.74L206.04 80.33L207.23 79.83L208.37 79.22L209.45 78.53L210.47 77.74L211.41 76.88L212.27 75.93L213.06 74.92L213.75 73.84L214.36 72.7L214.86 71.5L215.27 70.26L215.56 68.97L215.74 67.64L215.8 66.27L215.74 64.91L215.56 63.58L215.27 62.29L214.86 61.04L214.36 59.84L213.75 58.7L213.06 57.62L212.27 56.61L211.41 55.67L210.47 54.8L209.45 54.02L208.37 53.32L207.23 52.72L206.04 52.21L204.79 51.81L203.5 51.51L202.17 51.33L200.8 51.27L199.44 51.33L198.11 51.51ZM504.35 51.51L503.06 51.81L501.81 52.21L500.61 52.72L499.47 53.32L498.39 54.02L497.38 54.8L496.44 55.67L495.57 56.61L494.79 57.62L494.09 58.7L493.49 59.84L492.98 61.04L492.58 62.29L492.28 63.58L492.1 64.91L492.04 66.27L492.1 67.64L492.28 68.97L492.58 70.26L492.98 71.5L493.49 72.7L494.09 73.84L494.79 74.92L495.57 75.93L496.44 76.88L497.38 77.74L498.39 78.53L499.47 79.22L500.61 79.83L501.81 80.33L503.06 80.74L504.35 81.03L505.68 81.21L507.04 81.27L508.41 81.21L509.74 81.03L511.03 80.74L512.27 80.33L513.47 79.83L514.61 79.22L515.69 78.53L516.7 77.74L517.64 76.88L518.51 75.93L519.29 74.92L519.99 73.84L520.59 72.7L521.1 71.5L521.5 70.26L521.8 68.97L521.98 67.64L522.04 66.27L521.98 64.91L521.8 63.58L521.5 62.29L521.1 61.04L520.59 59.84L519.99 58.7L519.29 57.62L518.51 56.61L517.64 55.67L516.7 54.8L515.69 54.02L514.61 53.32L513.47 52.72L512.27 52.21L511.03 51.81L509.74 51.51L508.41 51.33L507.04 51.27L505.68 51.33L504.35 51.51ZM426.31 51.51L425.02 51.81L423.77 52.21L422.58 52.72L421.44 53.32L420.36 54.02L419.34 54.8L418.4 55.67L417.54 56.61L416.75 57.62L416.06 58.7L415.45 59.84L414.95 61.04L414.54 62.29L414.25 63.58L414.07 64.91L414.01 66.27L414.07 67.64L414.25 68.97L414.54 70.26L414.95 71.5L415.45 72.7L416.06 73.84L416.75 74.92L417.54 75.93L418.4 76.88L419.34 77.74L420.36 78.53L421.44 79.22L422.58 79.83L423.77 80.33L425.02 80.74L426.31 81.03L427.64 81.21L429.01 81.27L430.37 81.21L431.7 81.03L432.99 80.74L434.24 80.33L435.43 79.83L436.57 79.22L437.65 78.53L438.67 77.74L439.61 76.88L440.48 75.93L441.26 74.92L441.96 73.84L442.56 72.7L443.07 71.5L443.47 70.26L443.76 68.97L443.94 67.64L444.01 66.27L443.94 64.91L443.76 63.58L443.47 62.29L443.07 61.04L442.56 59.84L441.96 58.7L441.26 57.62L440.48 56.61L439.61 55.67L438.67 54.8L437.65 54.02L436.57 53.32L435.43 52.72L434.24 52.21L432.99 51.81L431.7 51.51L430.37 51.33L429.01 51.27L427.64 51.33L426.31 51.51Z" id="buoJ3NQp0"></path><path d="M453.48 155.19C527.22 155.19 586.97 212.9 586.97 284.08C586.98 481.21 320.01 579.03 320.01 584.46C320.01 584.46 320.01 584.46 320.01 584.46C320.01 579.03 53.03 481.21 53.03 284.07C53.03 212.88 112.8 155.18 186.52 155.18C260.24 155.18 320.01 205.73 319.99 276.93C319.99 205.75 379.76 155.19 453.48 155.19Z" id="a17dURfcl1"></path></defs><g><g><g><g><filter id="shadow13291552" x="-6.86" y="23.77" width="657.72" height="612.72" filterUnits="userSpaceOnUse" primitiveUnits="userSpaceOnUse"><feFlood></feFlood><feComposite in2="SourceAlpha" operator="in"></feComposite><feGaussianBlur stdDeviation="0"></feGaussianBlur><feOffset dx="4" dy="4" result="afterOffset"></feOffset><feFlood flood-color="#d8cb9b" flood-opacity="0.5"></feFlood><feComposite in2="afterOffset" operator="in"></feComposite><feMorphology operator="dilate" radius="1"></feMorphology><feComposite in2="SourceAlpha" operator="out"></feComposite></filter><path d="M618.11 33.84L618.94 33.92L619.75 34.04L620.55 34.19L621.34 34.37L622.12 34.58L622.89 34.81L623.65 35.08L624.39 35.38L625.11 35.7L625.82 36.05L626.52 36.43L627.2 36.83L627.86 37.26L628.5 37.71L629.12 38.19L629.73 38.69L630.31 39.21L630.88 39.76L631.42 40.32L631.94 40.91L632.44 41.51L632.92 42.14L633.37 42.78L633.8 43.44L634.2 44.12L634.58 44.81L634.93 45.52L635.26 46.25L635.55 46.99L635.82 47.74L636.06 48.51L636.27 49.29L636.45 50.08L636.59 50.89L636.71 51.7L636.79 52.52L636.84 53.36L636.86 54.2L636.86 602.07L636.84 602.91L636.79 603.75L636.71 604.57L636.59 605.39L636.45 606.19L636.27 606.98L636.06 607.76L635.82 608.53L635.55 609.28L635.26 610.02L634.93 610.75L634.58 611.46L634.2 612.15L633.8 612.83L633.37 613.49L632.92 614.14L632.44 614.76L631.94 615.36L631.42 615.95L630.88 616.52L630.31 617.06L629.73 617.58L629.12 618.08L628.5 618.56L627.86 619.01L627.2 619.44L626.52 619.84L625.82 620.22L625.11 620.57L624.39 620.89L623.65 621.19L622.89 621.46L622.12 621.69L621.34 621.9L620.55 622.08L619.75 622.23L618.94 622.35L618.11 622.43L617.28 622.48L616.44 622.5L23.56 622.5L22.72 622.48L21.89 622.43L21.06 622.35L20.25 622.23L19.45 622.08L18.66 621.9L17.88 621.69L17.11 621.46L16.35 621.19L15.61 620.89L14.89 620.57L14.18 620.22L13.48 619.84L12.8 619.44L12.14 619.01L11.5 618.56L10.88 618.08L10.27 617.58L9.69 617.06L9.12 616.52L8.58 615.95L8.06 615.36L7.56 614.76L7.08 614.14L6.63 613.49L6.2 612.83L5.8 612.15L5.42 611.46L5.07 610.75L4.74 610.02L4.45 609.28L4.18 608.53L3.94 607.76L3.73 606.98L3.55 606.19L3.41 605.39L3.29 604.57L3.21 603.75L3.16 602.91L3.14 602.07L3.14 54.2L3.16 53.36L3.21 52.52L3.29 51.7L3.41 50.89L3.55 50.08L3.73 49.29L3.94 48.51L4.18 47.74L4.45 46.99L4.74 46.25L5.07 45.52L5.42 44.81L5.8 44.12L6.2 43.44L6.63 42.78L7.08 42.14L7.56 41.51L8.06 40.91L8.58 40.32L9.12 39.76L9.69 39.21L10.27 38.69L10.88 38.19L11.5 37.71L12.14 37.26L12.8 36.83L13.48 36.43L14.18 36.05L14.89 35.7L15.61 35.38L16.35 35.08L17.11 34.81L17.88 34.58L18.66 34.37L19.45 34.19L20.25 34.04L21.06 33.92L21.89 33.84L22.72 33.79L23.56 33.77L616.44 33.77L617.28 33.79L618.11 33.84ZM20.64 601.25L619.36 601.25L619.36 127.52L20.64 127.52L20.64 601.25ZM276.14 51.51L274.85 51.81L273.61 52.21L272.41 52.72L271.27 53.32L270.19 54.02L269.18 54.8L268.23 55.67L267.37 56.61L266.59 57.62L265.89 58.7L265.28 59.84L264.78 61.04L264.38 62.29L264.08 63.58L263.9 64.91L263.84 66.27L263.9 67.64L264.08 68.97L264.38 70.26L264.78 71.5L265.28 72.7L265.89 73.84L266.59 74.92L267.37 75.93L268.23 76.88L269.18 77.74L270.19 78.53L271.27 79.22L272.41 79.83L273.61 80.33L274.85 80.74L276.14 81.03L277.47 81.21L278.84 81.27L280.2 81.21L281.53 81.03L282.82 80.74L284.07 80.33L285.27 79.83L286.41 79.22L287.49 78.53L288.5 77.74L289.44 76.88L290.31 75.93L291.09 74.92L291.79 73.84L292.39 72.7L292.9 71.5L293.3 70.26L293.6 68.97L293.78 67.64L293.84 66.27L293.78 64.91L293.6 63.58L293.3 62.29L292.9 61.04L292.39 59.84L291.79 58.7L291.09 57.62L290.31 56.61L289.44 55.67L288.5 54.8L287.49 54.02L286.41 53.32L285.27 52.72L284.07 52.21L282.82 51.81L281.53 51.51L280.2 51.33L278.84 51.27L277.47 51.33L276.14 51.51ZM580.05 51.51L578.76 51.81L577.52 52.21L576.32 52.72L575.18 53.32L574.1 54.02L573.09 54.8L572.15 55.67L571.28 56.61L570.5 57.62L569.8 58.7L569.19 59.84L568.69 61.04L568.29 62.29L567.99 63.58L567.81 64.91L567.75 66.27L567.81 67.64L567.99 68.97L568.29 70.26L568.69 71.5L569.19 72.7L569.8 73.84L570.5 74.92L571.28 75.93L572.15 76.88L573.09 77.74L574.1 78.53L575.18 79.22L576.32 79.83L577.52 80.33L578.76 80.74L580.05 81.03L581.38 81.21L582.75 81.27L584.11 81.21L585.44 81.03L586.73 80.74L587.98 80.33L589.18 79.83L590.32 79.22L591.4 78.53L592.41 77.74L593.35 76.88L594.22 75.93L595 74.92L595.7 73.84L596.3 72.7L596.81 71.5L597.21 70.26L597.51 68.97L597.69 67.64L597.75 66.27L597.69 64.91L597.51 63.58L597.21 62.29L596.81 61.04L596.3 59.84L595.7 58.7L595 57.62L594.22 56.61L593.35 55.67L592.41 54.8L591.4 54.02L590.32 53.32L589.18 52.72L587.98 52.21L586.73 51.81L585.44 51.51L584.11 51.33L582.75 51.27L581.38 51.33L580.05 51.51ZM47.94 51.51L46.65 51.81L45.41 52.21L44.21 52.72L43.07 53.32L41.99 54.02L40.98 54.8L40.03 55.67L39.17 56.61L38.38 57.62L37.69 58.7L37.08 59.84L36.58 61.04L36.17 62.29L35.88 63.58L35.7 64.91L35.64 66.27L35.7 67.64L35.88 68.97L36.17 70.26L36.58 71.5L37.08 72.7L37.69 73.84L38.38 74.92L39.17 75.93L40.03 76.88L40.98 77.74L41.99 78.53L43.07 79.22L44.21 79.83L45.41 80.33L46.65 80.74L47.94 81.03L49.27 81.21L50.64 81.27L52 81.21L53.33 81.03L54.62 80.74L55.87 80.33L57.06 79.83L58.2 79.22L59.28 78.53L60.3 77.74L61.24 76.88L62.11 75.93L62.89 74.92L63.59 73.84L64.19 72.7L64.7 71.5L65.1 70.26L65.39 68.97L65.57 67.64L65.64 66.27L65.57 64.91L65.39 63.58L65.1 62.29L64.7 61.04L64.19 59.84L63.59 58.7L62.89 57.62L62.11 56.61L61.24 55.67L60.3 54.8L59.28 54.02L58.2 53.32L57.06 52.72L55.87 52.21L54.62 51.81L53.33 51.51L52 51.33L50.64 51.27L49.27 51.33L47.94 51.51ZM351.85 51.51L350.56 51.81L349.32 52.21L348.12 52.72L346.98 53.32L345.9 54.02L344.89 54.8L343.94 55.67L343.08 56.61L342.29 57.62L341.6 58.7L340.99 59.84L340.49 61.04L340.08 62.29L339.79 63.58L339.61 64.91L339.55 66.27L339.61 67.64L339.79 68.97L340.08 70.26L340.49 71.5L340.99 72.7L341.6 73.84L342.29 74.92L343.08 75.93L343.94 76.88L344.89 77.74L345.9 78.53L346.98 79.22L348.12 79.83L349.32 80.33L350.56 80.74L351.85 81.03L353.18 81.21L354.55 81.27L355.91 81.21L357.24 81.03L358.53 80.74L359.78 80.33L360.97 79.83L362.12 79.22L363.2 78.53L364.21 77.74L365.15 76.88L366.02 75.93L366.8 74.92L367.5 73.84L368.1 72.7L368.61 71.5L369.01 70.26L369.3 68.97L369.49 67.64L369.55 66.27L369.49 64.91L369.3 63.58L369.01 62.29L368.61 61.04L368.1 59.84L367.5 58.7L366.8 57.62L366.02 56.61L365.15 55.67L364.21 54.8L363.2 54.02L362.12 53.32L360.97 52.72L359.78 52.21L358.53 51.81L357.24 51.51L355.91 51.33L354.55 51.27L353.18 51.33L351.85 51.51ZM123.65 51.51L122.36 51.81L121.11 52.21L119.92 52.72L118.78 53.32L117.7 54.02L116.68 54.8L115.74 55.67L114.88 56.61L114.09 57.62L113.4 58.7L112.79 59.84L112.29 61.04L111.88 62.29L111.59 63.58L111.41 64.91L111.35 66.27L111.41 67.64L111.59 68.97L111.88 70.26L112.29 71.5L112.79 72.7L113.4 73.84L114.09 74.92L114.88 75.93L115.74 76.88L116.68 77.74L117.7 78.53L118.78 79.22L119.92 79.83L121.11 80.33L122.36 80.74L123.65 81.03L124.98 81.21L126.35 81.27L127.71 81.21L129.04 81.03L130.33 80.74L131.58 80.33L132.77 79.83L133.91 79.22L134.99 78.53L136.01 77.74L136.95 76.88L137.82 75.93L138.6 74.92L139.3 73.84L139.9 72.7L140.41 71.5L140.81 70.26L141.1 68.97L141.28 67.64L141.34 66.27L141.28 64.91L141.1 63.58L140.81 62.29L140.41 61.04L139.9 59.84L139.3 58.7L138.6 57.62L137.82 56.61L136.95 55.67L136.01 54.8L134.99 54.02L133.91 53.32L132.77 52.72L131.58 52.21L130.33 51.81L129.04 51.51L127.71 51.33L126.35 51.27L124.98 51.33L123.65 51.51ZM198.11 51.51L196.82 51.81L195.57 52.21L194.38 52.72L193.24 53.32L192.16 54.02L191.14 54.8L190.2 55.67L189.33 56.61L188.55 57.62L187.85 58.7L187.25 59.84L186.74 61.04L186.34 62.29L186.05 63.58L185.87 64.91L185.8 66.27L185.87 67.64L186.05 68.97L186.34 70.26L186.74 71.5L187.25 72.7L187.85 73.84L188.55 74.92L189.33 75.93L190.2 76.88L191.14 77.74L192.16 78.53L193.24 79.22L194.38 79.83L195.57 80.33L196.82 80.74L198.11 81.03L199.44 81.21L200.8 81.27L202.17 81.21L203.5 81.03L204.79 80.74L206.04 80.33L207.23 79.83L208.37 79.22L209.45 78.53L210.47 77.74L211.41 76.88L212.27 75.93L213.06 74.92L213.75 73.84L214.36 72.7L214.86 71.5L215.27 70.26L215.56 68.97L215.74 67.64L215.8 66.27L215.74 64.91L215.56 63.58L215.27 62.29L214.86 61.04L214.36 59.84L213.75 58.7L213.06 57.62L212.27 56.61L211.41 55.67L210.47 54.8L209.45 54.02L208.37 53.32L207.23 52.72L206.04 52.21L204.79 51.81L203.5 51.51L202.17 51.33L200.8 51.27L199.44 51.33L198.11 51.51ZM504.35 51.51L503.06 51.81L501.81 52.21L500.61 52.72L499.47 53.32L498.39 54.02L497.38 54.8L496.44 55.67L495.57 56.61L494.79 57.62L494.09 58.7L493.49 59.84L492.98 61.04L492.58 62.29L492.28 63.58L492.1 64.91L492.04 66.27L492.1 67.64L492.28 68.97L492.58 70.26L492.98 71.5L493.49 72.7L494.09 73.84L494.79 74.92L495.57 75.93L496.44 76.88L497.38 77.74L498.39 78.53L499.47 79.22L500.61 79.83L501.81 80.33L503.06 80.74L504.35 81.03L505.68 81.21L507.04 81.27L508.41 81.21L509.74 81.03L511.03 80.74L512.27 80.33L513.47 79.83L514.61 79.22L515.69 78.53L516.7 77.74L517.64 76.88L518.51 75.93L519.29 74.92L519.99 73.84L520.59 72.7L521.1 71.5L521.5 70.26L521.8 68.97L521.98 67.64L522.04 66.27L521.98 64.91L521.8 63.58L521.5 62.29L521.1 61.04L520.59 59.84L519.99 58.7L519.29 57.62L518.51 56.61L517.64 55.67L516.7 54.8L515.69 54.02L514.61 53.32L513.47 52.72L512.27 52.21L511.03 51.81L509.74 51.51L508.41 51.33L507.04 51.27L505.68 51.33L504.35 51.51ZM426.31 51.51L425.02 51.81L423.77 52.21L422.58 52.72L421.44 53.32L420.36 54.02L419.34 54.8L418.4 55.67L417.54 56.61L416.75 57.62L416.06 58.7L415.45 59.84L414.95 61.04L414.54 62.29L414.25 63.58L414.07 64.91L414.01 66.27L414.07 67.64L414.25 68.97L414.54 70.26L414.95 71.5L415.45 72.7L416.06 73.84L416.75 74.92L417.54 75.93L418.4 76.88L419.34 77.74L420.36 78.53L421.44 79.22L422.58 79.83L423.77 80.33L425.02 80.74L426.31 81.03L427.64 81.21L429.01 81.27L430.37 81.21L431.7 81.03L432.99 80.74L434.24 80.33L435.43 79.83L436.57 79.22L437.65 78.53L438.67 77.74L439.61 76.88L440.48 75.93L441.26 74.92L441.96 73.84L442.56 72.7L443.07 71.5L443.47 70.26L443.76 68.97L443.94 67.64L444.01 66.27L443.94 64.91L443.76 63.58L443.47 62.29L443.07 61.04L442.56 59.84L441.96 58.7L441.26 57.62L440.48 56.61L439.61 55.67L438.67 54.8L437.65 54.02L436.57 53.32L435.43 52.72L434.24 52.21L432.99 51.81L431.7 51.51L430.37 51.33L429.01 51.27L427.64 51.33L426.31 51.51Z" id="mNS7qNkmg" fill="white" fill-opacity="1" filter="url(#shadow13291552)"></path></g><use xlink:href="#buoJ3NQp0" opacity="1" fill="#555555" fill-opacity="1"></use></g><g><g><filter id="shadow5236805" x="44.03" y="146.18" width="554.94" height="450.28" filterUnits="userSpaceOnUse" primitiveUnits="userSpaceOnUse"><feFlood></feFlood><feComposite in2="SourceAlpha" operator="in"></feComposite><feGaussianBlur stdDeviation="0"></feGaussianBlur><feOffset dx="3" dy="3" result="afterOffset"></feOffset><feFlood flood-color="#ff4242" flood-opacity="0.5"></feFlood><feComposite in2="afterOffset" operator="in"></feComposite><feMorphology operator="dilate" radius="1"></feMorphology><feComposite in2="SourceAlpha" operator="out"></feComposite></filter><path d="M453.48 155.19C527.22 155.19 586.97 212.9 586.97 284.08C586.98 481.21 320.01 579.03 320.01 584.46C320.01 584.46 320.01 584.46 320.01 584.46C320.01 579.03 53.03 481.21 53.03 284.07C53.03 212.88 112.8 155.18 186.52 155.18C260.24 155.18 320.01 205.73 319.99 276.93C319.99 205.75 379.76 155.19 453.48 155.19Z" id="b3QoYEu8n" fill="white" fill-opacity="1" filter="url(#shadow5236805)"></path></g><use xlink:href="#a17dURfcl1" opacity="1" fill="#cc0000" fill-opacity="1"></use></g></g></g></svg>