<svg xmlns="http://www.w3.org/2000/svg" width="3840" height="3840"><path d="M1906,1923L2246,1877L2255,1513Z" fill="#ffa400" stroke="#ffa400" stroke-width="1.51"/><path d="M2255,1513L1899,1436L1906,1923Z" fill="#ffa800" stroke="#ffa800" stroke-width="1.51"/><path d="M1899,1436L1523,1826L1906,1923Z" fill="#ffab00" stroke="#ffab00" stroke-width="1.51"/><path d="M1899,1436L1497,1524L1523,1826Z" fill="#ffaf00" stroke="#ffaf00" stroke-width="1.51"/><path d="M1899,1436L1582,1053L1497,1524Z" fill="#ffb400" stroke="#ffb400" stroke-width="1.51"/><path d="M2255,1513L1905,1130L1899,1436Z" fill="#ffad00" stroke="#ffad00" stroke-width="1.51"/><path d="M2255,1513L2281,1027L1905,1130Z" fill="#ffad00" stroke="#ffad00" stroke-width="1.51"/><path d="M2732,1412L2281,1027L2255,1513Z" fill="#ffa600" stroke="#ffa600" stroke-width="1.51"/><path d="M1906,1923L1924,2384L2246,1877Z" fill="#ffa100" stroke="#ffa100" stroke-width="1.51"/><path d="M1399,2404L1924,2384L1906,1923Z" fill="#ffa200" stroke="#ffa200" stroke-width="1.51"/><path d="M2246,1877L2732,1412L2255,1513Z" fill="#ffa200" stroke="#ffa200" stroke-width="1.51"/><path d="M1924,2384L2402,2308L2246,1877Z" fill="#ff9b00" stroke="#ff9b00" stroke-width="1.51"/><path d="M2787,2020L2732,1412L2246,1877Z" fill="#ff9c00" stroke="#ff9c00" stroke-width="1.51"/><path d="M1905,1130L1582,1053L1899,1436Z" fill="#ffb300" stroke="#ffb300" stroke-width="1.51"/><path d="M1875,747L1582,1053L1905,1130Z" fill="#ffb700" stroke="#ffb700" stroke-width="1.51"/><path d="M2402,2308L2787,2020L2246,1877Z" fill="#ff9800" stroke="#ff9800" stroke-width="1.51"/><path d="M3134,1008L2709,1070L2732,1412Z" fill="#ffa100" stroke="#ffa100" stroke-width="1.51"/><path d="M2732,1412L2709,1070L2281,1027Z" fill="#ffa600" stroke="#ffa600" stroke-width="1.51"/><path d="M2435,714L1875,747L2281,1027Z" fill="#ffb200" stroke="#ffb200" stroke-width="1.51"/><path d="M2281,1027L1875,747L1905,1130Z" fill="#ffb300" stroke="#ffb300" stroke-width="1.51"/><path d="M1523,1826L1399,2404L1906,1923Z" fill="#ffa800" stroke="#ffa800" stroke-width="1.51"/><path d="M1033,1911L1399,2404L1523,1826Z" fill="#ffad00" stroke="#ffad00" stroke-width="1.51"/><path d="M2787,2020L3166,1884L2732,1412Z" fill="#ff9600" stroke="#ff9600" stroke-width="1.51"/><path d="M2402,2308L2842,2266L2787,2020Z" fill="#ff9200" stroke="#ff9200" stroke-width="1.51"/><path d="M2663,2686L2842,2266L2402,2308Z" fill="#ff8f00" stroke="#ff8f00" stroke-width="1.51"/><path d="M1497,1524L1033,1911L1523,1826Z" fill="#ffb100" stroke="#ffb100" stroke-width="1.51"/><path d="M1064,1130L1040,1454L1497,1524Z" fill="#ffba00" stroke="#ffba00" stroke-width="1.51"/><path d="M1064,1130L1497,1524L1582,1053Z" fill="#ffba00" stroke="#ffba00" stroke-width="1.51"/><path d="M1040,1454L1033,1911L1497,1524Z" fill="#ffb700" stroke="#ffb700" stroke-width="1.51"/><path d="M2709,1070L2435,714L2281,1027Z" fill="#ffac00" stroke="#ffac00" stroke-width="1.51"/><path d="M1403,633L1064,1130L1582,1053Z" fill="#ffbf00" stroke="#ffbf00" stroke-width="1.51"/><path d="M2842,2266L3166,1884L2787,2020Z" fill="#ff9000" stroke="#ff9000" stroke-width="1.51"/><path d="M1924,2384L2013,2828L2402,2308Z" fill="#ff9700" stroke="#ff9700" stroke-width="1.51"/><path d="M1499,2853L2013,2828L1924,2384Z" fill="#ff9900" stroke="#ff9900" stroke-width="1.51"/><path d="M2336,2854L2663,2686L2402,2308Z" fill="#ff8f00" stroke="#ff8f00" stroke-width="1.51"/><path d="M2842,2266L3270,2254L3166,1884Z" fill="#ff8c00" stroke="#ff8c00" stroke-width="1.51"/><path d="M2013,2828L2336,2854L2402,2308Z" fill="#ff9200" stroke="#ff9200" stroke-width="1.51"/><path d="M1399,2404L1499,2853L1924,2384Z" fill="#ff9f00" stroke="#ff9f00" stroke-width="1.51"/><path d="M1033,1911L1064,2378L1399,2404Z" fill="#ffac00" stroke="#ffac00" stroke-width="1.51"/><path d="M2709,1070L2815,734L2435,714Z" fill="#ffaa00" stroke="#ffaa00" stroke-width="1.51"/><path d="M3134,1008L2815,734L2709,1070Z" fill="#ffa500" stroke="#ffa500" stroke-width="1.51"/><path d="M3166,1884L3272,1580L2732,1412Z" fill="#ff9600" stroke="#ff9600" stroke-width="1.51"/><path d="M1875,747L1403,633L1582,1053Z" fill="#ffbd00" stroke="#ffbd00" stroke-width="1.51"/><path d="M1918,292L1403,633L1875,747Z" fill="#ffbf00" stroke="#ffbf00" stroke-width="1.51"/><path d="M1918,292L1875,747L2435,714Z" fill="#ffb900" stroke="#ffb900" stroke-width="1.51"/><path d="M3272,1580L3134,1008L2732,1412Z" fill="#ff9b00" stroke="#ff9b00" stroke-width="1.51"/><path d="M1165,2718L1499,2853L1399,2404Z" fill="#ffa200" stroke="#ffa200" stroke-width="1.51"/><path d="M2013,2828L2403,3085L2336,2854Z" fill="#ff8d00" stroke="#ff8d00" stroke-width="1.51"/><path d="M3113,2790L3270,2254L2842,2266Z" fill="#ff8600" stroke="#ff8600" stroke-width="1.51"/><path d="M3664,1821L3511,1466L3272,1580Z" fill="#ff8e00" stroke="#ff8e00" stroke-width="1.51"/><path d="M1064,2378L1165,2718L1399,2404Z" fill="#ffa700" stroke="#ffa700" stroke-width="1.51"/><path d="M1040,1454L657,1500L1033,1911Z" fill="#ffbb00" stroke="#ffbb00" stroke-width="1.51"/><path d="M1033,1911L704,2319L1064,2378Z" fill="#ffb100" stroke="#ffb100" stroke-width="1.51"/><path d="M1064,2378L733,2712L1165,2718Z" fill="#ffa900" stroke="#ffa900" stroke-width="1.51"/><path d="M733,1051L657,1500L1040,1454Z" fill="#ffc200" stroke="#ffc200" stroke-width="1.51"/><path d="M733,1051L1040,1454L1064,1130Z" fill="#ffc200" stroke="#ffc200" stroke-width="1.51"/><path d="M1403,633L1114,642L1064,1130Z" fill="#ffc400" stroke="#ffc400" stroke-width="1.51"/><path d="M1403,633L1124,315L1114,642Z" fill="#ffc800" stroke="#ffc800" stroke-width="1.51"/><path d="M2356,203L1918,292L2435,714Z" fill="#ffb900" stroke="#ffb900" stroke-width="1.51"/><path d="M1861,3266L2403,3085L2013,2828Z" fill="#ff8e00" stroke="#ff8e00" stroke-width="1.51"/><path d="M2336,2854L2403,3085L2663,2686Z" fill="#ff8a00" stroke="#ff8a00" stroke-width="1.51"/><path d="M2663,2686L3113,2790L2842,2266Z" fill="#ff8800" stroke="#ff8800" stroke-width="1.51"/><path d="M657,1500L606,1883L1033,1911Z" fill="#ffbb00" stroke="#ffbb00" stroke-width="1.51"/><path d="M1114,642L733,1051L1064,1130Z" fill="#ffc600" stroke="#ffc600" stroke-width="1.51"/><path d="M3272,1580L3511,1466L3134,1008Z" fill="#ff9600" stroke="#ff9600" stroke-width="1.51"/><path d="M3664,1821L3272,1580L3166,1884Z" fill="#ff8d00" stroke="#ff8d00" stroke-width="1.51"/><path d="M606,1883L704,2319L1033,1911Z" fill="#ffb600" stroke="#ffb600" stroke-width="1.51"/><path d="M2696,193L2356,203L2435,714Z" fill="#ffb500" stroke="#ffb500" stroke-width="1.51"/><path d="M2696,193L2435,714L2815,734Z" fill="#ffb000" stroke="#ffb000" stroke-width="1.51"/><path d="M2749,3117L3113,2790L2663,2686Z" fill="#ff8300" stroke="#ff8300" stroke-width="1.51"/><path d="M3270,2254L3664,1821L3166,1884Z" fill="#ff8900" stroke="#ff8900" stroke-width="1.51"/><path d="M3134,1008L3200,604L2815,734Z" fill="#ffa500" stroke="#ffa500" stroke-width="1.51"/><path d="M3644,594L3200,604L3134,1008Z" fill="#ffa100" stroke="#ffa100" stroke-width="1.51"/><path d="M1499,2853L1861,3266L2013,2828Z" fill="#ff9400" stroke="#ff9400" stroke-width="1.51"/><path d="M1417,3216L1861,3266L1499,2853Z" fill="#ff9600" stroke="#ff9600" stroke-width="1.51"/><path d="M2722,3534L2749,3117L2403,3085Z" fill="#ff7f00" stroke="#ff7f00" stroke-width="1.51"/><path d="M2403,3085L2749,3117L2663,2686Z" fill="#ff8600" stroke="#ff8600" stroke-width="1.51"/><path d="M1918,292L1543,182L1403,633Z" fill="#ffc400" stroke="#ffc400" stroke-width="1.51"/><path d="M1991,-172L1543,182L1918,292Z" fill="#ffc500" stroke="#ffc500" stroke-width="1.51"/><path d="M3511,1466L3626,1131L3134,1008Z" fill="#ff9700" stroke="#ff9700" stroke-width="1.51"/><path d="M3591,2407L3664,1821L3270,2254Z" fill="#ff8300" stroke="#ff8300" stroke-width="1.51"/><path d="M3200,604L2696,193L2815,734Z" fill="#ffac00" stroke="#ffac00" stroke-width="1.51"/><path d="M2356,203L1991,-172L1918,292Z" fill="#ffc100" stroke="#ffc100" stroke-width="1.51"/><path d="M1135,3207L1499,2853L1165,2718Z" fill="#ff9e00" stroke="#ff9e00" stroke-width="1.51"/><path d="M1135,3207L1417,3216L1499,2853Z" fill="#ff9a00" stroke="#ff9a00" stroke-width="1.51"/><path d="M1114,642L683,719L733,1051Z" fill="#ffca00" stroke="#ffca00" stroke-width="1.51"/><path d="M1543,182L1124,315L1403,633Z" fill="#ffc800" stroke="#ffc800" stroke-width="1.51"/><path d="M704,2319L733,2712L1064,2378Z" fill="#ffae00" stroke="#ffae00" stroke-width="1.51"/><path d="M233,2247L733,2712L704,2319Z" fill="#ffb300" stroke="#ffb300" stroke-width="1.51"/><path d="M4068,1592L3626,1131L3511,1466Z" fill="#ff8e00" stroke="#ff8e00" stroke-width="1.51"/><path d="M1124,315L683,719L1114,642Z" fill="#ffcc00" stroke="#ffcc00" stroke-width="1.51"/><path d="M179,1527L606,1883L657,1500Z" fill="#ffc200" stroke="#ffc200" stroke-width="1.51"/><path d="M179,1527L209,1973L606,1883Z" fill="#ffc200" stroke="#ffc200" stroke-width="1.51"/><path d="M3113,2790L3591,2407L3270,2254Z" fill="#ff8100" stroke="#ff8100" stroke-width="1.51"/><path d="M3665,2851L3591,2407L3113,2790Z" fill="#ff7b00" stroke="#ff7b00" stroke-width="1.51"/><path d="M1515,3669L2014,3595L1861,3266Z" fill="#ff8a00" stroke="#ff8a00" stroke-width="1.51"/><path d="M733,2712L1135,3207L1165,2718Z" fill="#ffa400" stroke="#ffa400" stroke-width="1.51"/><path d="M2850,-280L2302,-141L2696,193Z" fill="#ffbb00" stroke="#ffbb00" stroke-width="1.51"/><path d="M2696,193L2302,-141L2356,203Z" fill="#ffbb00" stroke="#ffbb00" stroke-width="1.51"/><path d="M1543,182L1136,-205L1124,315Z" fill="#ffce00" stroke="#ffce00" stroke-width="1.51"/><path d="M606,1883L233,2247L704,2319Z" fill="#ffb900" stroke="#ffb900" stroke-width="1.51"/><path d="M246,1172L657,1500L733,1051Z" fill="#ffc800" stroke="#ffc800" stroke-width="1.51"/><path d="M2302,-141L1991,-172L2356,203Z" fill="#ffc100" stroke="#ffc100" stroke-width="1.51"/><path d="M2749,3117L3140,3212L3113,2790Z" fill="#ff7d00" stroke="#ff7d00" stroke-width="1.51"/><path d="M2722,3534L3140,3212L2749,3117Z" fill="#ff7a00" stroke="#ff7a00" stroke-width="1.51"/><path d="M683,719L246,1172L733,1051Z" fill="#ffcc00" stroke="#ffcc00" stroke-width="1.51"/><path d="M246,1172L179,1527L657,1500Z" fill="#ffc800" stroke="#ffc800" stroke-width="1.51"/><path d="M209,1973L233,2247L606,1883Z" fill="#ffbd00" stroke="#ffbd00" stroke-width="1.51"/><path d="M737,3577L1098,3624L1135,3207Z" fill="#ff9a00" stroke="#ff9a00" stroke-width="1.51"/><path d="M1861,3266L2014,3595L2403,3085Z" fill="#ff8800" stroke="#ff8800" stroke-width="1.51"/><path d="M1515,3669L1861,3266L1417,3216Z" fill="#ff9100" stroke="#ff9100" stroke-width="1.51"/><path d="M2014,3595L2427,3562L2403,3085Z" fill="#ff8300" stroke="#ff8300" stroke-width="1.51"/><path d="M3200,604L3201,155L2696,193Z" fill="#ffad00" stroke="#ffad00" stroke-width="1.51"/><path d="M3627,199L3201,155L3200,604Z" fill="#ffa700" stroke="#ffa700" stroke-width="1.51"/><path d="M3626,1131L3644,594L3134,1008Z" fill="#ff9b00" stroke="#ff9b00" stroke-width="1.51"/><path d="M3967,587L3644,594L3626,1131Z" fill="#ff9900" stroke="#ff9900" stroke-width="1.51"/><path d="M3664,1821L4068,1592L3511,1466Z" fill="#ff8900" stroke="#ff8900" stroke-width="1.51"/><path d="M3591,2407L3966,1985L3664,1821Z" fill="#ff8100" stroke="#ff8100" stroke-width="1.51"/><path d="M3950,2324L3966,1985L3591,2407Z" fill="#ff7b00" stroke="#ff7b00" stroke-width="1.51"/><path d="M2427,3562L2722,3534L2403,3085Z" fill="#ff7f00" stroke="#ff7f00" stroke-width="1.51"/><path d="M1991,-172L1452,-182L1543,182Z" fill="#ffca00" stroke="#ffca00" stroke-width="1.51"/><path d="M1124,315L583,294L683,719Z" fill="#ffd100" stroke="#ffd100" stroke-width="1.51"/><path d="M683,719L307,629L246,1172Z" fill="#ffd000" stroke="#ffd000" stroke-width="1.51"/><path d="M4010,2766L3665,2851L3936,3198Z" fill="#ff6d00" stroke="#ff6d00" stroke-width="1.51"/><path d="M3140,3212L3665,2851L3113,2790Z" fill="#ff7800" stroke="#ff7800" stroke-width="1.51"/><path d="M4010,2766L3950,2324L3591,2407Z" fill="#ff7600" stroke="#ff7600" stroke-width="1.51"/><path d="M3966,1985L4068,1592L3664,1821Z" fill="#ff8300" stroke="#ff8300" stroke-width="1.51"/><path d="M4379,1940L4068,1592L3966,1985Z" fill="#ff7e00" stroke="#ff7e00" stroke-width="1.51"/><path d="M578,-164L583,294L1124,315Z" fill="#ffd600" stroke="#ffd600" stroke-width="1.51"/><path d="M583,294L307,629L683,719Z" fill="#ffd300" stroke="#ffd300" stroke-width="1.51"/><path d="M-158,1564L-94,1990L179,1527Z" fill="#ffc900" stroke="#ffc900" stroke-width="1.51"/><path d="M1098,3624L1515,3669L1417,3216Z" fill="#ff9300" stroke="#ff9300" stroke-width="1.51"/><path d="M2345,4046L2722,3534L2427,3562Z" fill="#ff7900" stroke="#ff7900" stroke-width="1.51"/><path d="M3134,3961L3166,3701L2722,3534Z" fill="#ff6e00" stroke="#ff6e00" stroke-width="1.51"/><path d="M1098,3624L1417,3216L1135,3207Z" fill="#ff9800" stroke="#ff9800" stroke-width="1.51"/><path d="M1452,-182L1136,-205L1543,182Z" fill="#ffcf00" stroke="#ffcf00" stroke-width="1.51"/><path d="M1087,-619L1136,-205L1452,-182Z" fill="#ffd600" stroke="#ffd600" stroke-width="1.51"/><path d="M4068,1592L4068,1095L3626,1131Z" fill="#ff8d00" stroke="#ff8d00" stroke-width="1.51"/><path d="M3135,-207L2850,-280L2696,193Z" fill="#ffb600" stroke="#ffb600" stroke-width="1.51"/><path d="M2431,-533L1857,-515L1991,-172Z" fill="#ffc900" stroke="#ffc900" stroke-width="1.51"/><path d="M1991,-172L1857,-515L1452,-182Z" fill="#ffcc00" stroke="#ffcc00" stroke-width="1.51"/><path d="M3135,-207L2696,193L3201,155Z" fill="#ffb200" stroke="#ffb200" stroke-width="1.51"/><path d="M595,3287L1135,3207L733,2712Z" fill="#ffa400" stroke="#ffa400" stroke-width="1.51"/><path d="M165,2812L595,3287L733,2712Z" fill="#ffac00" stroke="#ffac00" stroke-width="1.51"/><path d="M233,2247L165,2812L733,2712Z" fill="#ffb300" stroke="#ffb300" stroke-width="1.51"/><path d="M209,1973L-94,1990L233,2247Z" fill="#ffc100" stroke="#ffc100" stroke-width="1.51"/><path d="M179,1527L-94,1990L209,1973Z" fill="#ffc500" stroke="#ffc500" stroke-width="1.51"/><path d="M-158,1564L179,1527L-102,1044Z" fill="#ffce00" stroke="#ffce00" stroke-width="1.51"/><path d="M3967,587L3627,199L3644,594Z" fill="#ff9f00" stroke="#ff9f00" stroke-width="1.51"/><path d="M3644,594L3627,199L3200,604Z" fill="#ffa200" stroke="#ffa200" stroke-width="1.51"/><path d="M3631,-106L3135,-207L3201,155Z" fill="#ffae00" stroke="#ffae00" stroke-width="1.51"/><path d="M-101,2721L165,2812L233,2247Z" fill="#ffb800" stroke="#ffb800" stroke-width="1.51"/><path d="M-102,1044L179,1527L246,1172Z" fill="#ffcf00" stroke="#ffcf00" stroke-width="1.51"/><path d="M2431,-533L1991,-172L2302,-141Z" fill="#ffc400" stroke="#ffc400" stroke-width="1.51"/><path d="M4068,1095L3967,587L3626,1131Z" fill="#ff9300" stroke="#ff9300" stroke-width="1.51"/><path d="M4405,2290L4379,1940L3966,1985Z" fill="#ff7700" stroke="#ff7700" stroke-width="1.51"/><path d="M3665,2851L4010,2766L3591,2407Z" fill="#ff7500" stroke="#ff7500" stroke-width="1.51"/><path d="M3705,3216L3665,2851L3140,3212Z" fill="#ff7100" stroke="#ff7100" stroke-width="1.51"/><path d="M-277,745L-102,1044L307,629Z" fill="#ffd800" stroke="#ffd800" stroke-width="1.51"/><path d="M307,629L-102,1044L246,1172Z" fill="#ffd300" stroke="#ffd300" stroke-width="1.51"/><path d="M3619,3604L3705,3216L3140,3212Z" fill="#ff6c00" stroke="#ff6c00" stroke-width="1.51"/><path d="M2850,-280L2431,-533L2302,-141Z" fill="#ffc000" stroke="#ffc000" stroke-width="1.51"/><path d="M2793,-554L2431,-533L2850,-280Z" fill="#ffc000" stroke="#ffc000" stroke-width="1.51"/><path d="M191,3655L737,3577L595,3287Z" fill="#ffa100" stroke="#ffa100" stroke-width="1.51"/><path d="M595,3287L737,3577L1135,3207Z" fill="#ff9f00" stroke="#ff9f00" stroke-width="1.51"/><path d="M2722,3534L3166,3701L3140,3212Z" fill="#ff7300" stroke="#ff7300" stroke-width="1.51"/><path d="M2345,4046L2427,3562L2014,3595Z" fill="#ff7d00" stroke="#ff7d00" stroke-width="1.51"/><path d="M583,294L165,322L307,629Z" fill="#ffd800" stroke="#ffd800" stroke-width="1.51"/><path d="M578,-164L165,322L583,294Z" fill="#ffdb00" stroke="#ffdb00" stroke-width="1.51"/><path d="M4068,1592L4405,1075L4068,1095Z" fill="#ff8800" stroke="#ff8800" stroke-width="1.51"/><path d="M4068,1095L4371,653L3967,587Z" fill="#ff9200" stroke="#ff9200" stroke-width="1.51"/><path d="M4405,2290L3966,1985L3950,2324Z" fill="#ff7700" stroke="#ff7700" stroke-width="1.51"/><path d="M3283,-547L2793,-554L2850,-280Z" fill="#ffbb00" stroke="#ffbb00" stroke-width="1.51"/><path d="M2431,-533L1541,-628L1857,-515Z" fill="#ffce00" stroke="#ffce00" stroke-width="1.51"/><path d="M3283,-547L2850,-280L3135,-207Z" fill="#ffb700" stroke="#ffb700" stroke-width="1.51"/><path d="M636,-636L578,-164L1136,-205Z" fill="#ffdd00" stroke="#ffdd00" stroke-width="1.51"/><path d="M1136,-205L578,-164L1124,315Z" fill="#ffd600" stroke="#ffd600" stroke-width="1.51"/><path d="M1857,-515L1541,-628L1452,-182Z" fill="#ffd100" stroke="#ffd100" stroke-width="1.51"/><path d="M2793,-554L1541,-628L2431,-533Z" fill="#ffc900" stroke="#ffc900" stroke-width="1.51"/><path d="M1870,4071L2345,4046L2014,3595Z" fill="#ff7e00" stroke="#ff7e00" stroke-width="1.51"/><path d="M1870,4071L2014,3595L1515,3669Z" fill="#ff8500" stroke="#ff8500" stroke-width="1.51"/><path d="M1870,4071L1515,3669L1569,4065Z" fill="#ff8500" stroke="#ff8500" stroke-width="1.51"/><path d="M-268,2314L233,2247L-94,1990Z" fill="#ffc100" stroke="#ffc100" stroke-width="1.51"/><path d="M-268,2314L-101,2721L233,2247Z" fill="#ffbd00" stroke="#ffbd00" stroke-width="1.51"/><path d="M165,2812L261,3274L595,3287Z" fill="#ffab00" stroke="#ffab00" stroke-width="1.51"/><path d="M1569,4065L1515,3669L1084,4107Z" fill="#ff8a00" stroke="#ff8a00" stroke-width="1.51"/><path d="M-248,3187L261,3274L165,2812Z" fill="#ffb100" stroke="#ffb100" stroke-width="1.51"/><path d="M4060,315L3631,-106L3627,199Z" fill="#ffa300" stroke="#ffa300" stroke-width="1.51"/><path d="M3627,199L3631,-106L3201,155Z" fill="#ffa900" stroke="#ffa900" stroke-width="1.51"/><path d="M-652,1847L-268,2314L-94,1990Z" fill="#ffc800" stroke="#ffc800" stroke-width="1.51"/><path d="M-652,1847L-94,1990L-158,1564Z" fill="#ffcc00" stroke="#ffcc00" stroke-width="1.51"/><path d="M4010,2766L4405,2290L3950,2324Z" fill="#ff7200" stroke="#ff7200" stroke-width="1.51"/><path d="M3705,3216L3936,3198L3665,2851Z" fill="#ff6c00" stroke="#ff6c00" stroke-width="1.51"/><path d="M3619,3604L3936,3198L3705,3216Z" fill="#ff6600" stroke="#ff6600" stroke-width="1.51"/><path d="M1084,4107L1515,3669L1098,3624Z" fill="#ff8f00" stroke="#ff8f00" stroke-width="1.51"/><path d="M4356,2847L4405,2290L4010,2766Z" fill="#ff6b00" stroke="#ff6b00" stroke-width="1.51"/><path d="M3967,587L4060,315L3627,199Z" fill="#ff9e00" stroke="#ff9e00" stroke-width="1.51"/><path d="M4538,1504L4405,1075L4068,1592Z" fill="#ff8300" stroke="#ff8300" stroke-width="1.51"/><path d="M4538,1504L4068,1592L4379,1940Z" fill="#ff7d00" stroke="#ff7d00" stroke-width="1.51"/><path d="M4371,653L4060,315L3967,587Z" fill="#ff9700" stroke="#ff9700" stroke-width="1.51"/><path d="M3166,3701L3619,3604L3140,3212Z" fill="#ff6d00" stroke="#ff6d00" stroke-width="1.51"/><path d="M3681,3952L3619,3604L3166,3701Z" fill="#ff6300" stroke="#ff6300" stroke-width="1.51"/><path d="M4405,2290L4538,1504L4379,1940Z" fill="#ff7700" stroke="#ff7700" stroke-width="1.51"/><path d="M1541,-628L1087,-619L1452,-182Z" fill="#ffd600" stroke="#ffd600" stroke-width="1.51"/><path d="M-697,1577L-652,1847L-158,1564Z" fill="#ffd200" stroke="#ffd200" stroke-width="1.51"/><path d="M165,322L-277,745L307,629Z" fill="#ffda00" stroke="#ffda00" stroke-width="1.51"/><path d="M-160,288L-277,745L165,322Z" fill="#ffdf00" stroke="#ffdf00" stroke-width="1.51"/><path d="M2824,4114L3134,3961L2722,3534Z" fill="#ff6e00" stroke="#ff6e00" stroke-width="1.51"/><path d="M4405,1075L4371,653L4068,1095Z" fill="#ff8c00" stroke="#ff8c00" stroke-width="1.51"/><path d="M4449,172L4371,653L4405,1075Z" fill="#ff9000" stroke="#ff9000" stroke-width="1.51"/><path d="M2016,4396L2345,4046L1870,4071Z" fill="#ff7800" stroke="#ff7800" stroke-width="1.51"/><path d="M2794,4408L2824,4114L2345,4046Z" fill="#ff6c00" stroke="#ff6c00" stroke-width="1.51"/><path d="M2345,4046L2824,4114L2722,3534Z" fill="#ff7200" stroke="#ff7200" stroke-width="1.51"/><path d="M3545,-530L3283,-547L3135,-207Z" fill="#ffb400" stroke="#ffb400" stroke-width="1.51"/><path d="M2793,-554L4393,-600L1541,-628Z" fill="#ffbf00" stroke="#ffbf00" stroke-width="1.51"/><path d="M3545,-530L3135,-207L3631,-106Z" fill="#ffb000" stroke="#ffb000" stroke-width="1.51"/><path d="M3545,-530L3631,-106L3937,-523Z" fill="#ffae00" stroke="#ffae00" stroke-width="1.51"/><path d="M4405,2290L4528,3152L4538,1504Z" fill="#ff6d00" stroke="#ff6d00" stroke-width="1.51"/><path d="M3936,3198L4356,2847L4010,2766Z" fill="#ff6800" stroke="#ff6800" stroke-width="1.51"/><path d="M4528,3152L4356,2847L3936,3198Z" fill="#ff6200" stroke="#ff6200" stroke-width="1.51"/><path d="M1449,4374L2016,4396L1870,4071Z" fill="#ff7c00" stroke="#ff7c00" stroke-width="1.51"/><path d="M737,3577L1084,4107L1098,3624Z" fill="#ff9500" stroke="#ff9500" stroke-width="1.51"/><path d="M581,4048L1084,4107L737,3577Z" fill="#ff9500" stroke="#ff9500" stroke-width="1.51"/><path d="M-140,-111L-160,288L165,322Z" fill="#ffe300" stroke="#ffe300" stroke-width="1.51"/><path d="M281,-267L165,322L578,-164Z" fill="#ffe000" stroke="#ffe000" stroke-width="1.51"/><path d="M636,-636L281,-267L578,-164Z" fill="#ffe200" stroke="#ffe200" stroke-width="1.51"/><path d="M4044,-281L3631,-106L4060,315Z" fill="#ffa400" stroke="#ffa400" stroke-width="1.51"/><path d="M261,3274L191,3655L595,3287Z" fill="#ffa600" stroke="#ffa600" stroke-width="1.51"/><path d="M-267,3560L191,3655L261,3274Z" fill="#ffaa00" stroke="#ffaa00" stroke-width="1.51"/><path d="M-248,3187L165,2812L-101,2721Z" fill="#ffb500" stroke="#ffb500" stroke-width="1.51"/><path d="M-688,2727L-248,3187L-101,2721Z" fill="#ffbb00" stroke="#ffbb00" stroke-width="1.51"/><path d="M-604,1055L-158,1564L-102,1044Z" fill="#ffd500" stroke="#ffd500" stroke-width="1.51"/><path d="M-604,1055L-102,1044L-277,745Z" fill="#ffdb00" stroke="#ffdb00" stroke-width="1.51"/><path d="M1449,4374L1870,4071L1569,4065Z" fill="#ff8100" stroke="#ff8100" stroke-width="1.51"/><path d="M1087,-619L636,-636L1136,-205Z" fill="#ffdd00" stroke="#ffdd00" stroke-width="1.51"/><path d="M1541,-628L636,-636L1087,-619Z" fill="#ffdd00" stroke="#ffdd00" stroke-width="1.51"/><path d="M-628,652L-604,1055L-277,745Z" fill="#ffe000" stroke="#ffe000" stroke-width="1.51"/><path d="M-617,2390L-101,2721L-268,2314Z" fill="#ffc100" stroke="#ffc100" stroke-width="1.51"/><path d="M-604,1055L-697,1577L-158,1564Z" fill="#ffd600" stroke="#ffd600" stroke-width="1.51"/><path d="M1084,4107L1449,4374L1569,4065Z" fill="#ff8600" stroke="#ff8600" stroke-width="1.51"/><path d="M1163,4523L1449,4374L1084,4107Z" fill="#ff8600" stroke="#ff8600" stroke-width="1.51"/><path d="M-652,1847L-617,2390L-268,2314Z" fill="#ffc900" stroke="#ffc900" stroke-width="1.51"/><path d="M-688,2727L-617,2390L-652,1847Z" fill="#ffc900" stroke="#ffc900" stroke-width="1.51"/><path d="M280,3981L581,4048L737,3577Z" fill="#ff9b00" stroke="#ff9b00" stroke-width="1.51"/><path d="M3619,3604L4132,3677L3936,3198Z" fill="#ff6000" stroke="#ff6000" stroke-width="1.51"/><path d="M3134,3961L3681,3952L3166,3701Z" fill="#ff6500" stroke="#ff6500" stroke-width="1.51"/><path d="M3640,4381L3681,3952L3134,3961Z" fill="#ff5b00" stroke="#ff5b00" stroke-width="1.51"/><path d="M3110,4425L3134,3961L2824,4114Z" fill="#ff6400" stroke="#ff6400" stroke-width="1.51"/><path d="M4449,172L4044,-281L4060,315Z" fill="#ff9d00" stroke="#ff9d00" stroke-width="1.51"/><path d="M2016,4396L2345,4484L2345,4046Z" fill="#ff7300" stroke="#ff7300" stroke-width="1.51"/><path d="M1163,4523L2345,4484L2016,4396Z" fill="#ff7700" stroke="#ff7700" stroke-width="1.51"/><path d="M2345,4484L2794,4408L2345,4046Z" fill="#ff6d00" stroke="#ff6d00" stroke-width="1.51"/><path d="M-160,288L-628,652L-277,745Z" fill="#ffe100" stroke="#ffe100" stroke-width="1.51"/><path d="M281,-267L-140,-111L165,322Z" fill="#ffe300" stroke="#ffe300" stroke-width="1.51"/><path d="M233,-591L-140,-111L281,-267Z" fill="#ffe800" stroke="#ffe800" stroke-width="1.51"/><path d="M4371,653L4449,172L4060,315Z" fill="#ff9600" stroke="#ff9600" stroke-width="1.51"/><path d="M4538,1504L4449,172L4405,1075Z" fill="#ff8a00" stroke="#ff8a00" stroke-width="1.51"/><path d="M-678,197L-628,652L-160,288Z" fill="#ffe600" stroke="#ffe600" stroke-width="1.51"/><path d="M-604,1055L-628,652L-697,1577Z" fill="#ffdd00" stroke="#ffdd00" stroke-width="1.51"/><path d="M4356,2847L4528,3152L4405,2290Z" fill="#ff6400" stroke="#ff6400" stroke-width="1.51"/><path d="M4514,3532L4528,3152L3936,3198Z" fill="#ff5a00" stroke="#ff5a00" stroke-width="1.51"/><path d="M3681,3952L4132,3677L3619,3604Z" fill="#ff5d00" stroke="#ff5d00" stroke-width="1.51"/><path d="M191,3655L280,3981L737,3577Z" fill="#ff9f00" stroke="#ff9f00" stroke-width="1.51"/><path d="M702,4415L1163,4523L1084,4107Z" fill="#ff8a00" stroke="#ff8a00" stroke-width="1.51"/><path d="M-151,3981L280,3981L191,3655Z" fill="#ffa200" stroke="#ffa200" stroke-width="1.51"/><path d="M4044,-281L3937,-523L3631,-106Z" fill="#ffa900" stroke="#ffa900" stroke-width="1.51"/><path d="M3545,-530L4393,-600L3283,-547Z" fill="#ffaf00" stroke="#ffaf00" stroke-width="1.51"/><path d="M3283,-547L4393,-600L2793,-554Z" fill="#ffb400" stroke="#ffb400" stroke-width="1.51"/><path d="M4393,-600L3937,-523L4044,-281Z" fill="#ffa800" stroke="#ffa800" stroke-width="1.51"/><path d="M636,-636L233,-591L281,-267Z" fill="#ffe700" stroke="#ffe700" stroke-width="1.51"/><path d="M-617,2390L-688,2727L-101,2721Z" fill="#ffc100" stroke="#ffc100" stroke-width="1.51"/><path d="M-248,3187L-267,3560L261,3274Z" fill="#ffae00" stroke="#ffae00" stroke-width="1.51"/><path d="M-697,1577L-688,2727L-652,1847Z" fill="#ffce00" stroke="#ffce00" stroke-width="1.51"/><path d="M4396,4097L4514,3532L4132,3677Z" fill="#ff4e00" stroke="#ff4e00" stroke-width="1.51"/><path d="M2794,4408L3110,4425L2824,4114Z" fill="#ff6400" stroke="#ff6400" stroke-width="1.51"/><path d="M2345,4484L3110,4425L2794,4408Z" fill="#ff6500" stroke="#ff6500" stroke-width="1.51"/><path d="M1449,4374L1163,4523L2016,4396Z" fill="#ff7e00" stroke="#ff7e00" stroke-width="1.51"/><path d="M702,4415L1084,4107L581,4048Z" fill="#ff9100" stroke="#ff9100" stroke-width="1.51"/><path d="M-655,3220L-267,3560L-248,3187Z" fill="#ffb400" stroke="#ffb400" stroke-width="1.51"/><path d="M4449,172L4404,-208L4044,-281Z" fill="#ff9e00" stroke="#ff9e00" stroke-width="1.51"/><path d="M277,4359L581,4048L280,3981Z" fill="#ff9900" stroke="#ff9900" stroke-width="1.51"/><path d="M277,4359L702,4415L581,4048Z" fill="#ff9400" stroke="#ff9400" stroke-width="1.51"/><path d="M4131,4053L4132,3677L3681,3952Z" fill="#ff5400" stroke="#ff5400" stroke-width="1.51"/><path d="M4132,3677L4514,3532L3936,3198Z" fill="#ff5900" stroke="#ff5900" stroke-width="1.51"/><path d="M-267,3560L-151,3981L191,3655Z" fill="#ffa800" stroke="#ffa800" stroke-width="1.51"/><path d="M-688,2727L-655,3220L-248,3187Z" fill="#ffbb00" stroke="#ffbb00" stroke-width="1.51"/><path d="M-614,-124L-160,288L-140,-111Z" fill="#ffe900" stroke="#ffe900" stroke-width="1.51"/><path d="M-614,-124L-678,197L-160,288Z" fill="#ffeb00" stroke="#ffeb00" stroke-width="1.51"/><path d="M-628,652L-678,197L-697,1577Z" fill="#ffe200" stroke="#ffe200" stroke-width="1.51"/><path d="M3110,4425L3640,4381L3134,3961Z" fill="#ff5c00" stroke="#ff5c00" stroke-width="1.51"/><path d="M3640,4381L4131,4053L3681,3952Z" fill="#ff5200" stroke="#ff5200" stroke-width="1.51"/><path d="M-548,4028L-151,3981L-267,3560Z" fill="#ffaa00" stroke="#ffaa00" stroke-width="1.51"/><path d="M-151,3981L277,4359L280,3981Z" fill="#ff9d00" stroke="#ff9d00" stroke-width="1.51"/><path d="M702,4415L-176,4551L1163,4523Z" fill="#ff8f00" stroke="#ff8f00" stroke-width="1.51"/><path d="M-248,-681L-614,-124L-140,-111Z" fill="#ffef00" stroke="#ffef00" stroke-width="1.51"/><path d="M3937,-523L4393,-600L3545,-530Z" fill="#ffac00" stroke="#ffac00" stroke-width="1.51"/><path d="M4404,-208L4393,-600L4044,-281Z" fill="#ffa300" stroke="#ffa300" stroke-width="1.51"/><path d="M4449,172L4393,-600L4404,-208Z" fill="#ff9e00" stroke="#ff9e00" stroke-width="1.51"/><path d="M-151,3981L-176,4551L277,4359Z" fill="#ff9d00" stroke="#ff9d00" stroke-width="1.51"/><path d="M-655,3220L-695,3514L-267,3560Z" fill="#ffb500" stroke="#ffb500" stroke-width="1.51"/><path d="M-688,2727L-695,3514L-655,3220Z" fill="#ffbb00" stroke="#ffbb00" stroke-width="1.51"/><path d="M-697,1577L-695,3514L-688,2727Z" fill="#ffc500" stroke="#ffc500" stroke-width="1.51"/><path d="M233,-591L-248,-681L-140,-111Z" fill="#ffed00" stroke="#ffed00" stroke-width="1.51"/><path d="M636,-636L-248,-681L233,-591Z" fill="#ffec00" stroke="#ffec00" stroke-width="1.51"/><path d="M1541,-628L-248,-681L636,-636Z" fill="#ffe500" stroke="#ffe500" stroke-width="1.51"/><path d="M4393,-600L-248,-681L1541,-628Z" fill="#ffd000" stroke="#ffd000" stroke-width="1.51"/><path d="M4458,4373L4396,4097L4131,4053Z" fill="#ff4300" stroke="#ff4300" stroke-width="1.51"/><path d="M4131,4053L4396,4097L4132,3677Z" fill="#ff4d00" stroke="#ff4d00" stroke-width="1.51"/><path d="M3640,4381L4021,4538L4131,4053Z" fill="#ff4b00" stroke="#ff4b00" stroke-width="1.51"/><path d="M3110,4425L4021,4538L3640,4381Z" fill="#ff5000" stroke="#ff5000" stroke-width="1.51"/><path d="M2345,4484L4021,4538L3110,4425Z" fill="#ff5a00" stroke="#ff5a00" stroke-width="1.51"/><path d="M1163,4523L4021,4538L2345,4484Z" fill="#ff6900" stroke="#ff6900" stroke-width="1.51"/><path d="M-695,3514L-548,4028L-267,3560Z" fill="#ffb000" stroke="#ffb000" stroke-width="1.51"/><path d="M-248,-681L-635,-639L-614,-124Z" fill="#fff500" stroke="#fff500" stroke-width="1.51"/><path d="M-614,-124L-635,-639L-678,197Z" fill="#fff200" stroke="#fff200" stroke-width="1.51"/><path d="M4021,4538L4458,4373L4131,4053Z" fill="#ff4300" stroke="#ff4300" stroke-width="1.51"/><path d="M4396,4097L4458,4373L4514,3532Z" fill="#ff4400" stroke="#ff4400" stroke-width="1.51"/><path d="M-548,4028L-176,4551L-151,3981Z" fill="#ffa400" stroke="#ffa400" stroke-width="1.51"/><path d="M277,4359L-176,4551L702,4415Z" fill="#ff9600" stroke="#ff9600" stroke-width="1.51"/><path d="M1163,4523L-176,4551L4021,4538Z" fill="#ff7900" stroke="#ff7900" stroke-width="1.51"/><path d="M-548,4028L-563,4503L-176,4551Z" fill="#ffa300" stroke="#ffa300" stroke-width="1.51"/><path d="M-695,3514L-563,4503L-548,4028Z" fill="#ffac00" stroke="#ffac00" stroke-width="1.51"/></svg>