<svg xmlns="http://www.w3.org/2000/svg" width="3840" height="1920"><path d="M1877,1201L2556,1073L2355,638Z" fill="#343434" stroke="#343434" stroke-width="1.51"/><path d="M2355,638L1183,420L1877,1201Z" fill="#262626" stroke="#262626" stroke-width="1.51"/><path d="M3099,760L2410,97L2355,638Z" fill="#2f2f2f" stroke="#2f2f2f" stroke-width="1.51"/><path d="M2556,1073L3099,760L2355,638Z" fill="#383838" stroke="#383838" stroke-width="1.51"/><path d="M2556,1073L3200,985L3099,760Z" fill="#404040" stroke="#404040" stroke-width="1.51"/><path d="M2915,2425L3200,985L2556,1073Z" fill="#4d4d4d" stroke="#4d4d4d" stroke-width="1.51"/><path d="M2410,97L1909,-16L2355,638Z" fill="#222222" stroke="#222222" stroke-width="1.51"/><path d="M1909,-16L1183,420L2355,638Z" fill="#1e1e1e" stroke="#1e1e1e" stroke-width="1.51"/><path d="M1183,420L872,877L1877,1201Z" fill="#202020" stroke="#202020" stroke-width="1.51"/><path d="M2410,97L1640,-875L1909,-16Z" fill="#1b1b1b" stroke="#1b1b1b" stroke-width="1.51"/><path d="M3099,760L2973,-185L2410,97Z" fill="#2c2c2c" stroke="#2c2c2c" stroke-width="1.51"/><path d="M4226,144L2973,-185L3099,760Z" fill="#2a2a2a" stroke="#2a2a2a" stroke-width="1.51"/><path d="M1877,1201L2915,2425L2556,1073Z" fill="#464646" stroke="#464646" stroke-width="1.51"/><path d="M872,877L789,1625L1877,1201Z" fill="#272727" stroke="#272727" stroke-width="1.51"/><path d="M789,1625L1267,2227L1877,1201Z" fill="#343434" stroke="#343434" stroke-width="1.51"/><path d="M2070,2610L2915,2425L1877,1201Z" fill="#424242" stroke="#424242" stroke-width="1.51"/><path d="M1267,2227L2070,2610L1877,1201Z" fill="#393939" stroke="#393939" stroke-width="1.51"/><path d="M3200,985L4226,144L3099,760Z" fill="#313131" stroke="#313131" stroke-width="1.51"/><path d="M3723,2346L3966,1296L3200,985Z" fill="#454545" stroke="#454545" stroke-width="1.51"/><path d="M1909,-16L1640,-875L1183,420Z" fill="#151515" stroke="#151515" stroke-width="1.51"/><path d="M1183,420L-200,-107L872,877Z" fill="#0b0b0b" stroke="#0b0b0b" stroke-width="1.51"/><path d="M2516,-1364L1640,-875L2410,97Z" fill="#1f1f1f" stroke="#1f1f1f" stroke-width="1.51"/><path d="M2973,-185L2516,-1364L2410,97Z" fill="#262626" stroke="#262626" stroke-width="1.51"/><path d="M4238,-519L3252,-745L2973,-185Z" fill="#262626" stroke="#262626" stroke-width="1.51"/><path d="M2915,2425L3723,2346L3200,985Z" fill="#505050" stroke="#505050" stroke-width="1.51"/><path d="M2070,2610L2665,2976L2915,2425Z" fill="#393939" stroke="#393939" stroke-width="1.51"/><path d="M1188,2868L2665,2976L2070,2610Z" fill="#2a2a2a" stroke="#2a2a2a" stroke-width="1.51"/><path d="M3315,3435L3723,2346L2915,2425Z" fill="#3b3b3b" stroke="#3b3b3b" stroke-width="1.51"/><path d="M1267,2227L1188,2868L2070,2610Z" fill="#282828" stroke="#282828" stroke-width="1.51"/><path d="M1029,2942L1188,2868L1267,2227Z" fill="#202020" stroke="#202020" stroke-width="1.51"/><path d="M3966,1296L4226,144L3200,985Z" fill="#303030" stroke="#303030" stroke-width="1.51"/><path d="M1188,2868L1029,2942L2665,2976Z" fill="#222222" stroke="#222222" stroke-width="1.51"/><path d="M300,2611L1029,2942L1267,2227Z" fill="#1c1c1c" stroke="#1c1c1c" stroke-width="1.51"/><path d="M1640,-875L868,-946L1183,420Z" fill="#0d0d0d" stroke="#0d0d0d" stroke-width="1.51"/><path d="M-359,1521L300,2611L789,1625Z" fill="#2b2b2b" stroke="#2b2b2b" stroke-width="1.51"/><path d="M2516,-1364L868,-946L1640,-875Z" fill="#161616" stroke="#161616" stroke-width="1.51"/><path d="M868,-946L422,-582L1183,420Z" fill="#010101" stroke="#010101" stroke-width="1.51"/><path d="M3252,-745L2516,-1364L2973,-185Z" fill="#2b2b2b" stroke="#2b2b2b" stroke-width="1.51"/><path d="M789,1625L300,2611L1267,2227Z" fill="#252525" stroke="#252525" stroke-width="1.51"/><path d="M-359,1521L789,1625L872,877Z" fill="#232323" stroke="#232323" stroke-width="1.51"/><path d="M3966,1296L4682,1229L4226,144Z" fill="#292929" stroke="#292929" stroke-width="1.51"/><path d="M5090,2133L4682,1229L3966,1296Z" fill="#343434" stroke="#343434" stroke-width="1.51"/><path d="M3252,-745L3868,-960L2516,-1364Z" fill="#2a2a2a" stroke="#2a2a2a" stroke-width="1.51"/><path d="M4226,144L4238,-519L2973,-185Z" fill="#202020" stroke="#202020" stroke-width="1.51"/><path d="M5215,-408L4238,-519L4226,144Z" fill="#141414" stroke="#141414" stroke-width="1.51"/><path d="M4238,-519L3868,-960L3252,-745Z" fill="#212121" stroke="#212121" stroke-width="1.51"/><path d="M-497,383L-359,1521L872,877Z" fill="#191919" stroke="#191919" stroke-width="1.51"/><path d="M422,-582L-200,-107L1183,420Z" fill="#000000" stroke="#000000" stroke-width="1.51"/><path d="M-1033,-22L-200,-107L-1122,-1252Z" fill="#000000" stroke="#000000" stroke-width="1.51"/><path d="M3723,2346L5090,2133L3966,1296Z" fill="#3d3d3d" stroke="#3d3d3d" stroke-width="1.51"/><path d="M2665,2976L3315,3435L2915,2425Z" fill="#3a3a3a" stroke="#3a3a3a" stroke-width="1.51"/><path d="M1029,2942L3315,3435L2665,2976Z" fill="#2a2a2a" stroke="#2a2a2a" stroke-width="1.51"/><path d="M4682,1229L4895,551L4226,144Z" fill="#1f1f1f" stroke="#1f1f1f" stroke-width="1.51"/><path d="M-200,-107L-497,383L872,877Z" fill="#0b0b0b" stroke="#0b0b0b" stroke-width="1.51"/><path d="M3315,3435L3744,3339L3723,2346Z" fill="#2f2f2f" stroke="#2f2f2f" stroke-width="1.51"/><path d="M-359,1521L-528,1832L300,2611Z" fill="#292929" stroke="#292929" stroke-width="1.51"/><path d="M-1091,1379L-528,1832L-359,1521Z" fill="#282828" stroke="#282828" stroke-width="1.51"/><path d="M-992,2145L87,3056L300,2611Z" fill="#1b1b1b" stroke="#1b1b1b" stroke-width="1.51"/><path d="M300,2611L87,3056L1029,2942Z" fill="#151515" stroke="#151515" stroke-width="1.51"/><path d="M1029,2942L87,3056L3315,3435Z" fill="#1a1a1a" stroke="#1a1a1a" stroke-width="1.51"/><path d="M4682,1229L5090,2133L4895,551Z" fill="#292929" stroke="#292929" stroke-width="1.51"/><path d="M5213,2853L5090,2133L3723,2346Z" fill="#292929" stroke="#292929" stroke-width="1.51"/><path d="M-528,1832L-992,2145L300,2611Z" fill="#242424" stroke="#242424" stroke-width="1.51"/><path d="M-497,383L-1091,1379L-359,1521Z" fill="#1d1d1d" stroke="#1d1d1d" stroke-width="1.51"/><path d="M4238,-519L5006,-874L3868,-960Z" fill="#171717" stroke="#171717" stroke-width="1.51"/><path d="M4895,551L5215,-408L4226,144Z" fill="#0f0f0f" stroke="#0f0f0f" stroke-width="1.51"/><path d="M5090,2133L5215,-408L4895,551Z" fill="#1a1a1a" stroke="#1a1a1a" stroke-width="1.51"/><path d="M-497,383L-1302,400L-1091,1379Z" fill="#151515" stroke="#151515" stroke-width="1.51"/><path d="M-200,-107L-1033,-22L-497,383Z" fill="#000000" stroke="#000000" stroke-width="1.51"/><path d="M-348,-1455L-200,-107L422,-582Z" fill="#000000" stroke="#000000" stroke-width="1.51"/><path d="M5215,-408L5006,-874L4238,-519Z" fill="#0e0e0e" stroke="#0e0e0e" stroke-width="1.51"/><path d="M3868,-960L5006,-874L2516,-1364Z" fill="#202020" stroke="#202020" stroke-width="1.51"/><path d="M-1091,1379L-992,2145L-528,1832Z" fill="#2d2d2d" stroke="#2d2d2d" stroke-width="1.51"/><path d="M2516,-1364L-348,-1455L868,-946Z" fill="#070707" stroke="#070707" stroke-width="1.51"/><path d="M868,-946L-348,-1455L422,-582Z" fill="#000000" stroke="#000000" stroke-width="1.51"/><path d="M-1122,-1252L-1302,400L-1033,-22Z" fill="#000000" stroke="#000000" stroke-width="1.51"/><path d="M-1033,-22L-1302,400L-497,383Z" fill="#060606" stroke="#060606" stroke-width="1.51"/><path d="M-1091,1379L-1379,3405L-992,2145Z" fill="#222222" stroke="#222222" stroke-width="1.51"/><path d="M3744,3339L5213,2853L3723,2346Z" fill="#282828" stroke="#282828" stroke-width="1.51"/><path d="M5090,2133L5213,2853L5215,-408Z" fill="#292929" stroke="#292929" stroke-width="1.51"/><path d="M-348,-1455L-1122,-1252L-200,-107Z" fill="#000000" stroke="#000000" stroke-width="1.51"/><path d="M-1302,400L-1379,3405L-1091,1379Z" fill="#2c2c2c" stroke="#2c2c2c" stroke-width="1.51"/><path d="M-992,2145L-1379,3405L87,3056Z" fill="#151515" stroke="#151515" stroke-width="1.51"/><path d="M87,3056L-1379,3405L3315,3435Z" fill="#080808" stroke="#080808" stroke-width="1.51"/></svg>