<svg xmlns="http://www.w3.org/2000/svg" width="1000" height="1000"><path d="M535,499L439,617L728,643Z" fill="#fff200" stroke="#fff200" stroke-width="1.51"/><path d="M439,617L527,772L728,643Z" fill="#ffea00" stroke="#ffea00" stroke-width="1.51"/><path d="M728,643L708,555L535,499Z" fill="#ffec00" stroke="#ffec00" stroke-width="1.51"/><path d="M439,617L449,793L527,772Z" fill="#ffe900" stroke="#ffe900" stroke-width="1.51"/><path d="M439,617L274,699L449,793Z" fill="#ffe400" stroke="#ffe400" stroke-width="1.51"/><path d="M127,417L274,699L439,617Z" fill="#ffe600" stroke="#ffe600" stroke-width="1.51"/><path d="M708,555L688,237L535,499Z" fill="#ffed00" stroke="#ffed00" stroke-width="1.51"/><path d="M728,643L868,486L708,555Z" fill="#ffe300" stroke="#ffe300" stroke-width="1.51"/><path d="M449,793L441,933L527,772Z" fill="#ffe000" stroke="#ffe000" stroke-width="1.51"/><path d="M527,772L857,854L728,643Z" fill="#ffd800" stroke="#ffd800" stroke-width="1.51"/><path d="M274,699L441,933L449,793Z" fill="#ffdb00" stroke="#ffdb00" stroke-width="1.51"/><path d="M728,643L1001,532L868,486Z" fill="#ffdb00" stroke="#ffdb00" stroke-width="1.51"/><path d="M577,997L857,854L527,772Z" fill="#ffd200" stroke="#ffd200" stroke-width="1.51"/><path d="M535,499L419,324L439,617Z" fill="#fffb00" stroke="#fffb00" stroke-width="1.51"/><path d="M688,237L419,324L535,499Z" fill="#ffef00" stroke="#ffef00" stroke-width="1.51"/><path d="M441,933L577,997L527,772Z" fill="#ffdb00" stroke="#ffdb00" stroke-width="1.51"/><path d="M868,486L688,237L708,555Z" fill="#ffe300" stroke="#ffe300" stroke-width="1.51"/><path d="M868,486L810,183L688,237Z" fill="#ffd500" stroke="#ffd500" stroke-width="1.51"/><path d="M857,854L1001,532L728,643Z" fill="#ffd100" stroke="#ffd100" stroke-width="1.51"/><path d="M577,997L830,997L857,854Z" fill="#ffc200" stroke="#ffc200" stroke-width="1.51"/><path d="M857,854L995,873L1001,532Z" fill="#ffc200" stroke="#ffc200" stroke-width="1.51"/><path d="M830,997L995,873L857,854Z" fill="#ffb900" stroke="#ffb900" stroke-width="1.51"/><path d="M419,324L127,417L439,617Z" fill="#ffec00" stroke="#ffec00" stroke-width="1.51"/><path d="M688,237L444,157L419,324Z" fill="#ffe700" stroke="#ffe700" stroke-width="1.51"/><path d="M57,316L127,417L136,177Z" fill="#ffcc00" stroke="#ffcc00" stroke-width="1.51"/><path d="M688,237L535,-32L444,157Z" fill="#ffd900" stroke="#ffd900" stroke-width="1.51"/><path d="M1077,425L810,183L868,486Z" fill="#ffcf00" stroke="#ffcf00" stroke-width="1.51"/><path d="M274,699L85,781L441,933Z" fill="#ffd100" stroke="#ffd100" stroke-width="1.51"/><path d="M441,933L544,1228L577,997Z" fill="#ffcd00" stroke="#ffcd00" stroke-width="1.51"/><path d="M39,558L85,781L274,699Z" fill="#ffd000" stroke="#ffd000" stroke-width="1.51"/><path d="M1001,532L1077,425L868,486Z" fill="#ffd300" stroke="#ffd300" stroke-width="1.51"/><path d="M1339,590L1077,425L1001,532Z" fill="#ffc600" stroke="#ffc600" stroke-width="1.51"/><path d="M127,417L39,558L274,699Z" fill="#ffdc00" stroke="#ffdc00" stroke-width="1.51"/><path d="M85,781L49,836L441,933Z" fill="#ffc600" stroke="#ffc600" stroke-width="1.51"/><path d="M-224,753L49,836L85,781Z" fill="#ffb700" stroke="#ffb700" stroke-width="1.51"/><path d="M577,997L544,1228L830,997Z" fill="#ffc000" stroke="#ffc000" stroke-width="1.51"/><path d="M830,997L1064,1001L995,873Z" fill="#ffaf00" stroke="#ffaf00" stroke-width="1.51"/><path d="M304,1206L544,1228L441,933Z" fill="#ffc300" stroke="#ffc300" stroke-width="1.51"/><path d="M995,873L1339,590L1001,532Z" fill="#ffbb00" stroke="#ffbb00" stroke-width="1.51"/><path d="M911,1198L1064,1001L830,997Z" fill="#ffa700" stroke="#ffa700" stroke-width="1.51"/><path d="M136,177L127,417L419,324Z" fill="#ffd700" stroke="#ffd700" stroke-width="1.51"/><path d="M127,417L57,316L39,558Z" fill="#ffd400" stroke="#ffd400" stroke-width="1.51"/><path d="M90,1104L304,1206L441,933Z" fill="#ffb900" stroke="#ffb900" stroke-width="1.51"/><path d="M444,157L136,177L419,324Z" fill="#ffd800" stroke="#ffd800" stroke-width="1.51"/><path d="M544,1228L911,1198L830,997Z" fill="#ffb000" stroke="#ffb000" stroke-width="1.51"/><path d="M1077,425L1082,195L810,183Z" fill="#ffc000" stroke="#ffc000" stroke-width="1.51"/><path d="M850,19L535,-32L688,237Z" fill="#ffca00" stroke="#ffca00" stroke-width="1.51"/><path d="M444,157L228,-117L136,177Z" fill="#ffc600" stroke="#ffc600" stroke-width="1.51"/><path d="M850,19L688,237L810,183Z" fill="#ffc800" stroke="#ffc800" stroke-width="1.51"/><path d="M1082,195L850,19L810,183Z" fill="#ffbb00" stroke="#ffbb00" stroke-width="1.51"/><path d="M49,836L90,1104L441,933Z" fill="#ffbd00" stroke="#ffbd00" stroke-width="1.51"/><path d="M49,836L-79,957L90,1104Z" fill="#ffac00" stroke="#ffac00" stroke-width="1.51"/><path d="M-224,753L-79,957L49,836Z" fill="#ffad00" stroke="#ffad00" stroke-width="1.51"/><path d="M-224,753L85,781L39,558Z" fill="#ffbf00" stroke="#ffbf00" stroke-width="1.51"/><path d="M50,1271L145,1231L90,1104Z" fill="#ff9d00" stroke="#ff9d00" stroke-width="1.51"/><path d="M90,1104L145,1231L304,1206Z" fill="#ffa700" stroke="#ffa700" stroke-width="1.51"/><path d="M304,1206L50,1271L544,1228Z" fill="#ffad00" stroke="#ffad00" stroke-width="1.51"/><path d="M1334,889L1339,590L995,873Z" fill="#ffa700" stroke="#ffa700" stroke-width="1.51"/><path d="M1077,425L1303,358L1082,195Z" fill="#ffb700" stroke="#ffb700" stroke-width="1.51"/><path d="M1339,590L1303,358L1077,425Z" fill="#ffbb00" stroke="#ffbb00" stroke-width="1.51"/><path d="M1082,195L1153,44L850,19Z" fill="#ffad00" stroke="#ffad00" stroke-width="1.51"/><path d="M535,-32L434,-124L444,157Z" fill="#ffd100" stroke="#ffd100" stroke-width="1.51"/><path d="M426,-197L434,-124L648,-221Z" fill="#ffc300" stroke="#ffc300" stroke-width="1.51"/><path d="M-213,408L-220,504L39,558Z" fill="#ffc700" stroke="#ffc700" stroke-width="1.51"/><path d="M136,177L-84,234L57,316Z" fill="#ffc000" stroke="#ffc000" stroke-width="1.51"/><path d="M-95,70L-84,234L136,177Z" fill="#ffb400" stroke="#ffb400" stroke-width="1.51"/><path d="M1064,1001L1307,929L995,873Z" fill="#ffa200" stroke="#ffa200" stroke-width="1.51"/><path d="M1163,1270L1307,929L1064,1001Z" fill="#ff9000" stroke="#ff9000" stroke-width="1.51"/><path d="M1307,929L1334,889L995,873Z" fill="#ff9d00" stroke="#ff9d00" stroke-width="1.51"/><path d="M-213,408L39,558L57,316Z" fill="#ffca00" stroke="#ffca00" stroke-width="1.51"/><path d="M-220,504L-224,753L39,558Z" fill="#ffbe00" stroke="#ffbe00" stroke-width="1.51"/><path d="M648,-221L434,-124L535,-32Z" fill="#ffc500" stroke="#ffc500" stroke-width="1.51"/><path d="M1310,184L1153,44L1082,195Z" fill="#ffa300" stroke="#ffa300" stroke-width="1.51"/><path d="M-84,234L-213,408L57,316Z" fill="#ffbd00" stroke="#ffbd00" stroke-width="1.51"/><path d="M145,1231L50,1271L304,1206Z" fill="#ffa100" stroke="#ffa100" stroke-width="1.51"/><path d="M544,1228L1091,1299L911,1198Z" fill="#ff9f00" stroke="#ff9f00" stroke-width="1.51"/><path d="M-185,1259L50,1271L90,1104Z" fill="#ff9200" stroke="#ff9200" stroke-width="1.51"/><path d="M-185,1259L90,1104L-79,957Z" fill="#ff9800" stroke="#ff9800" stroke-width="1.51"/><path d="M434,-124L228,-117L444,157Z" fill="#ffc600" stroke="#ffc600" stroke-width="1.51"/><path d="M911,1198L1091,1299L1064,1001Z" fill="#ff9500" stroke="#ff9500" stroke-width="1.51"/><path d="M1307,929L1163,1270L1334,889Z" fill="#ff8b00" stroke="#ff8b00" stroke-width="1.51"/><path d="M50,1271L1091,1299L544,1228Z" fill="#ffb700" stroke="#ffb700" stroke-width="1.51"/><path d="M434,-124L426,-197L228,-117Z" fill="#ffba00" stroke="#ffba00" stroke-width="1.51"/><path d="M648,-221L535,-32L850,19Z" fill="#ffbd00" stroke="#ffbd00" stroke-width="1.51"/><path d="M1303,358L1310,184L1082,195Z" fill="#ffa800" stroke="#ffa800" stroke-width="1.51"/><path d="M1339,590L1310,184L1303,358Z" fill="#ffad00" stroke="#ffad00" stroke-width="1.51"/><path d="M-224,753L-222,932L-79,957Z" fill="#ffa200" stroke="#ffa200" stroke-width="1.51"/><path d="M1091,1299L1163,1270L1064,1001Z" fill="#ff8b00" stroke="#ff8b00" stroke-width="1.51"/><path d="M914,-264L648,-221L850,19Z" fill="#ffaa00" stroke="#ffaa00" stroke-width="1.51"/><path d="M1153,44L1106,-49L850,19Z" fill="#ffa400" stroke="#ffa400" stroke-width="1.51"/><path d="M1106,-220L1106,-49L1330,-275Z" fill="#ff8400" stroke="#ff8400" stroke-width="1.51"/><path d="M-84,234L-266,186L-213,408Z" fill="#ffaf00" stroke="#ffaf00" stroke-width="1.51"/><path d="M228,-117L-95,70L136,177Z" fill="#ffb300" stroke="#ffb300" stroke-width="1.51"/><path d="M228,-117L-91,-202L-95,70Z" fill="#ffa100" stroke="#ffa100" stroke-width="1.51"/><path d="M426,-197L188,-223L228,-117Z" fill="#ffb000" stroke="#ffb000" stroke-width="1.51"/><path d="M648,-221L188,-223L426,-197Z" fill="#ffba00" stroke="#ffba00" stroke-width="1.51"/><path d="M648,-221L914,-264L188,-223Z" fill="#ffb800" stroke="#ffb800" stroke-width="1.51"/><path d="M1106,-49L914,-264L850,19Z" fill="#ffa200" stroke="#ffa200" stroke-width="1.51"/><path d="M-95,70L-266,186L-84,234Z" fill="#ffa800" stroke="#ffa800" stroke-width="1.51"/><path d="M-213,408L-266,186L-220,504Z" fill="#ffb300" stroke="#ffb300" stroke-width="1.51"/><path d="M-220,504L-266,186L-224,753Z" fill="#ffbd00" stroke="#ffbd00" stroke-width="1.51"/><path d="M-224,753L-266,186L-222,932Z" fill="#ffb400" stroke="#ffb400" stroke-width="1.51"/><path d="M-222,-118L-266,186L-95,70Z" fill="#ff9900" stroke="#ff9900" stroke-width="1.51"/><path d="M-222,932L-185,1259L-79,957Z" fill="#ff9300" stroke="#ff9300" stroke-width="1.51"/><path d="M1106,-49L1106,-220L914,-264Z" fill="#ff9200" stroke="#ff9200" stroke-width="1.51"/><path d="M1330,-275L1106,-49L1153,44Z" fill="#ff8c00" stroke="#ff8c00" stroke-width="1.51"/><path d="M188,-223L-91,-202L228,-117Z" fill="#ffa000" stroke="#ffa000" stroke-width="1.51"/><path d="M-91,-202L-222,-118L-95,70Z" fill="#ff9200" stroke="#ff9200" stroke-width="1.51"/><path d="M1106,-220L1330,-275L914,-264Z" fill="#ff8300" stroke="#ff8300" stroke-width="1.51"/><path d="M1310,184L1330,-275L1153,44Z" fill="#ff8c00" stroke="#ff8c00" stroke-width="1.51"/><path d="M1339,590L1330,-275L1310,184Z" fill="#ff9800" stroke="#ff9800" stroke-width="1.51"/><path d="M-222,-118L-316,-250L-266,186Z" fill="#ff8800" stroke="#ff8800" stroke-width="1.51"/><path d="M-266,186L-316,-250L-222,932Z" fill="#ffa900" stroke="#ffa900" stroke-width="1.51"/><path d="M-91,-202L-316,-250L-222,-118Z" fill="#ff8100" stroke="#ff8100" stroke-width="1.51"/><path d="M188,-223L-316,-250L-91,-202Z" fill="#ff8a00" stroke="#ff8a00" stroke-width="1.51"/><path d="M914,-264L-316,-250L188,-223Z" fill="#ffa900" stroke="#ffa900" stroke-width="1.51"/><path d="M1330,-275L-316,-250L914,-264Z" fill="#ffaf00" stroke="#ffaf00" stroke-width="1.51"/></svg>