<svg xmlns="http://www.w3.org/2000/svg" width="900" height="900"><path d="M482,449L395,555L655,579Z" fill="#ff6600" stroke="#ff6600" stroke-width="1.51"/><path d="M395,555L474,695L655,579Z" fill="#ff7000" stroke="#ff7000" stroke-width="1.51"/><path d="M655,579L637,499L482,449Z" fill="#ff6e00" stroke="#ff6e00" stroke-width="1.51"/><path d="M395,555L404,714L474,695Z" fill="#ff7200" stroke="#ff7200" stroke-width="1.51"/><path d="M395,555L246,629L404,714Z" fill="#ff7900" stroke="#ff7900" stroke-width="1.51"/><path d="M114,375L246,629L395,555Z" fill="#ff7700" stroke="#ff7700" stroke-width="1.51"/><path d="M637,499L619,213L482,449Z" fill="#ff6d00" stroke="#ff6d00" stroke-width="1.51"/><path d="M655,579L781,437L637,499Z" fill="#ff7b00" stroke="#ff7b00" stroke-width="1.51"/><path d="M404,714L397,839L474,695Z" fill="#ff7e00" stroke="#ff7e00" stroke-width="1.51"/><path d="M474,695L771,768L655,579Z" fill="#ff8900" stroke="#ff8900" stroke-width="1.51"/><path d="M246,629L397,839L404,714Z" fill="#ff8400" stroke="#ff8400" stroke-width="1.51"/><path d="M655,579L901,479L781,437Z" fill="#ff8500" stroke="#ff8500" stroke-width="1.51"/><path d="M520,897L771,768L474,695Z" fill="#ff9000" stroke="#ff9000" stroke-width="1.51"/><path d="M482,449L377,292L395,555Z" fill="#ff5900" stroke="#ff5900" stroke-width="1.51"/><path d="M619,213L377,292L482,449Z" fill="#ff6b00" stroke="#ff6b00" stroke-width="1.51"/><path d="M397,839L520,897L474,695Z" fill="#ff8400" stroke="#ff8400" stroke-width="1.51"/><path d="M781,437L619,213L637,499Z" fill="#ff7a00" stroke="#ff7a00" stroke-width="1.51"/><path d="M781,437L729,165L619,213Z" fill="#ff8c00" stroke="#ff8c00" stroke-width="1.51"/><path d="M771,768L901,479L655,579Z" fill="#ff9100" stroke="#ff9100" stroke-width="1.51"/><path d="M520,897L747,897L771,768Z" fill="#ffa200" stroke="#ffa200" stroke-width="1.51"/><path d="M771,768L895,786L901,479Z" fill="#ffa200" stroke="#ffa200" stroke-width="1.51"/><path d="M747,897L895,786L771,768Z" fill="#ffac00" stroke="#ffac00" stroke-width="1.51"/><path d="M377,292L114,375L395,555Z" fill="#ff6e00" stroke="#ff6e00" stroke-width="1.51"/><path d="M619,213L400,141L377,292Z" fill="#ff7500" stroke="#ff7500" stroke-width="1.51"/><path d="M51,284L114,375L122,160Z" fill="#ff9700" stroke="#ff9700" stroke-width="1.51"/><path d="M619,213L482,-29L400,141Z" fill="#ff8600" stroke="#ff8600" stroke-width="1.51"/><path d="M969,382L729,165L781,437Z" fill="#ff9300" stroke="#ff9300" stroke-width="1.51"/><path d="M246,629L76,703L397,839Z" fill="#ff9100" stroke="#ff9100" stroke-width="1.51"/><path d="M397,839L490,1105L520,897Z" fill="#ff9500" stroke="#ff9500" stroke-width="1.51"/><path d="M35,502L76,703L246,629Z" fill="#ff9200" stroke="#ff9200" stroke-width="1.51"/><path d="M901,479L969,382L781,437Z" fill="#ff8e00" stroke="#ff8e00" stroke-width="1.51"/><path d="M1205,531L969,382L901,479Z" fill="#ff9d00" stroke="#ff9d00" stroke-width="1.51"/><path d="M114,375L35,502L246,629Z" fill="#ff8400" stroke="#ff8400" stroke-width="1.51"/><path d="M76,703L44,752L397,839Z" fill="#ff9e00" stroke="#ff9e00" stroke-width="1.51"/><path d="M-201,678L44,752L76,703Z" fill="#ffae00" stroke="#ffae00" stroke-width="1.51"/><path d="M520,897L490,1105L747,897Z" fill="#ffa400" stroke="#ffa400" stroke-width="1.51"/><path d="M747,897L958,901L895,786Z" fill="#ffb800" stroke="#ffb800" stroke-width="1.51"/><path d="M273,1085L490,1105L397,839Z" fill="#ffa100" stroke="#ffa100" stroke-width="1.51"/><path d="M895,786L1205,531L901,479Z" fill="#ffa900" stroke="#ffa900" stroke-width="1.51"/><path d="M820,1078L958,901L747,897Z" fill="#ffc000" stroke="#ffc000" stroke-width="1.51"/><path d="M122,160L114,375L377,292Z" fill="#ff8a00" stroke="#ff8a00" stroke-width="1.51"/><path d="M114,375L51,284L35,502Z" fill="#ff8d00" stroke="#ff8d00" stroke-width="1.51"/><path d="M81,994L273,1085L397,839Z" fill="#ffac00" stroke="#ffac00" stroke-width="1.51"/><path d="M400,141L122,160L377,292Z" fill="#ff8800" stroke="#ff8800" stroke-width="1.51"/><path d="M490,1105L820,1078L747,897Z" fill="#ffb600" stroke="#ffb600" stroke-width="1.51"/><path d="M969,382L973,176L729,165Z" fill="#ffa400" stroke="#ffa400" stroke-width="1.51"/><path d="M765,17L482,-29L619,213Z" fill="#ff9a00" stroke="#ff9a00" stroke-width="1.51"/><path d="M400,141L205,-106L122,160Z" fill="#ff9d00" stroke="#ff9d00" stroke-width="1.51"/><path d="M765,17L619,213L729,165Z" fill="#ff9c00" stroke="#ff9c00" stroke-width="1.51"/><path d="M973,176L765,17L729,165Z" fill="#ffaa00" stroke="#ffaa00" stroke-width="1.51"/><path d="M44,752L81,994L397,839Z" fill="#ffa800" stroke="#ffa800" stroke-width="1.51"/><path d="M44,752L-71,861L81,994Z" fill="#ffba00" stroke="#ffba00" stroke-width="1.51"/><path d="M-201,678L-71,861L44,752Z" fill="#ffb900" stroke="#ffb900" stroke-width="1.51"/><path d="M-201,678L76,703L35,502Z" fill="#ffa500" stroke="#ffa500" stroke-width="1.51"/><path d="M45,1143L131,1108L81,994Z" fill="#ffc900" stroke="#ffc900" stroke-width="1.51"/><path d="M81,994L131,1108L273,1085Z" fill="#ffbf00" stroke="#ffbf00" stroke-width="1.51"/><path d="M273,1085L45,1143L490,1105Z" fill="#ffb900" stroke="#ffb900" stroke-width="1.51"/><path d="M1201,800L1205,531L895,786Z" fill="#ffbf00" stroke="#ffbf00" stroke-width="1.51"/><path d="M969,382L1173,322L973,176Z" fill="#ffae00" stroke="#ffae00" stroke-width="1.51"/><path d="M1205,531L1173,322L969,382Z" fill="#ffaa00" stroke="#ffaa00" stroke-width="1.51"/><path d="M973,176L1038,40L765,17Z" fill="#ffba00" stroke="#ffba00" stroke-width="1.51"/><path d="M482,-29L390,-112L400,141Z" fill="#ff9000" stroke="#ff9000" stroke-width="1.51"/><path d="M383,-177L390,-112L583,-199Z" fill="#ffa000" stroke="#ffa000" stroke-width="1.51"/><path d="M-192,367L-198,453L35,502Z" fill="#ff9c00" stroke="#ff9c00" stroke-width="1.51"/><path d="M122,160L-76,210L51,284Z" fill="#ffa400" stroke="#ffa400" stroke-width="1.51"/><path d="M-86,63L-76,210L122,160Z" fill="#ffb100" stroke="#ffb100" stroke-width="1.51"/><path d="M958,901L1176,836L895,786Z" fill="#ffc500" stroke="#ffc500" stroke-width="1.51"/><path d="M1047,1143L1176,836L958,901Z" fill="#ffd700" stroke="#ffd700" stroke-width="1.51"/><path d="M1176,836L1201,800L895,786Z" fill="#ffc900" stroke="#ffc900" stroke-width="1.51"/><path d="M-192,367L35,502L51,284Z" fill="#ff9900" stroke="#ff9900" stroke-width="1.51"/><path d="M-198,453L-201,678L35,502Z" fill="#ffa600" stroke="#ffa600" stroke-width="1.51"/><path d="M583,-199L390,-112L482,-29Z" fill="#ff9e00" stroke="#ff9e00" stroke-width="1.51"/><path d="M1179,166L1038,40L973,176Z" fill="#ffc300" stroke="#ffc300" stroke-width="1.51"/><path d="M131,1108L45,1143L273,1085Z" fill="#ffc600" stroke="#ffc600" stroke-width="1.51"/><path d="M490,1105L982,1169L820,1078Z" fill="#ffc800" stroke="#ffc800" stroke-width="1.51"/><path d="M-166,1133L45,1143L81,994Z" fill="#ffd500" stroke="#ffd500" stroke-width="1.51"/><path d="M-166,1133L81,994L-71,861Z" fill="#ffcf00" stroke="#ffcf00" stroke-width="1.51"/><path d="M-76,210L-192,367L51,284Z" fill="#ffa800" stroke="#ffa800" stroke-width="1.51"/><path d="M390,-112L205,-106L400,141Z" fill="#ff9e00" stroke="#ff9e00" stroke-width="1.51"/><path d="M820,1078L982,1169L958,901Z" fill="#ffd100" stroke="#ffd100" stroke-width="1.51"/><path d="M1176,836L1047,1143L1201,800Z" fill="#ffdc00" stroke="#ffdc00" stroke-width="1.51"/><path d="M45,1143L982,1169L490,1105Z" fill="#ffae00" stroke="#ffae00" stroke-width="1.51"/><path d="M390,-112L383,-177L205,-106Z" fill="#ffaa00" stroke="#ffaa00" stroke-width="1.51"/><path d="M583,-199L482,-29L765,17Z" fill="#ffa800" stroke="#ffa800" stroke-width="1.51"/><path d="M1173,322L1179,166L973,176Z" fill="#ffbe00" stroke="#ffbe00" stroke-width="1.51"/><path d="M1205,531L1179,166L1173,322Z" fill="#ffb900" stroke="#ffb900" stroke-width="1.51"/><path d="M-201,678L-200,838L-71,861Z" fill="#ffc400" stroke="#ffc400" stroke-width="1.51"/><path d="M982,1169L1047,1143L958,901Z" fill="#ffdb00" stroke="#ffdb00" stroke-width="1.51"/><path d="M822,-238L583,-199L765,17Z" fill="#ffbb00" stroke="#ffbb00" stroke-width="1.51"/><path d="M1038,40L996,-44L765,17Z" fill="#ffc200" stroke="#ffc200" stroke-width="1.51"/><path d="M996,-198L996,-44L1197,-247Z" fill="#ffe200" stroke="#ffe200" stroke-width="1.51"/><path d="M-76,210L-239,167L-192,367Z" fill="#ffb700" stroke="#ffb700" stroke-width="1.51"/><path d="M205,-106L-86,63L122,160Z" fill="#ffb300" stroke="#ffb300" stroke-width="1.51"/><path d="M205,-106L-82,-182L-86,63Z" fill="#ffc600" stroke="#ffc600" stroke-width="1.51"/><path d="M383,-177L169,-201L205,-106Z" fill="#ffb500" stroke="#ffb500" stroke-width="1.51"/><path d="M583,-199L169,-201L383,-177Z" fill="#ffab00" stroke="#ffab00" stroke-width="1.51"/><path d="M583,-199L822,-238L169,-201Z" fill="#ffae00" stroke="#ffae00" stroke-width="1.51"/><path d="M996,-44L822,-238L765,17Z" fill="#ffc500" stroke="#ffc500" stroke-width="1.51"/><path d="M-86,63L-239,167L-76,210Z" fill="#ffbd00" stroke="#ffbd00" stroke-width="1.51"/><path d="M-192,367L-239,167L-198,453Z" fill="#ffb200" stroke="#ffb200" stroke-width="1.51"/><path d="M-198,453L-239,167L-201,678Z" fill="#ffa800" stroke="#ffa800" stroke-width="1.51"/><path d="M-201,678L-239,167L-200,838Z" fill="#ffb200" stroke="#ffb200" stroke-width="1.51"/><path d="M-200,-107L-239,167L-86,63Z" fill="#ffcd00" stroke="#ffcd00" stroke-width="1.51"/><path d="M-200,838L-166,1133L-71,861Z" fill="#ffd400" stroke="#ffd400" stroke-width="1.51"/><path d="M996,-44L996,-198L822,-238Z" fill="#ffd400" stroke="#ffd400" stroke-width="1.51"/><path d="M1197,-247L996,-44L1038,40Z" fill="#ffdb00" stroke="#ffdb00" stroke-width="1.51"/><path d="M169,-201L-82,-182L205,-106Z" fill="#ffc600" stroke="#ffc600" stroke-width="1.51"/><path d="M-82,-182L-200,-107L-86,63Z" fill="#ffd400" stroke="#ffd400" stroke-width="1.51"/><path d="M996,-198L1197,-247L822,-238Z" fill="#ffe200" stroke="#ffe200" stroke-width="1.51"/><path d="M1179,166L1197,-247L1038,40Z" fill="#ffda00" stroke="#ffda00" stroke-width="1.51"/><path d="M1205,531L1197,-247L1179,166Z" fill="#ffce00" stroke="#ffce00" stroke-width="1.51"/><path d="M-200,-107L-284,-225L-239,167Z" fill="#ffdf00" stroke="#ffdf00" stroke-width="1.51"/><path d="M-239,167L-284,-225L-200,838Z" fill="#ffbd00" stroke="#ffbd00" stroke-width="1.51"/><path d="M-82,-182L-284,-225L-200,-107Z" fill="#ffe500" stroke="#ffe500" stroke-width="1.51"/><path d="M169,-201L-284,-225L-82,-182Z" fill="#ffdc00" stroke="#ffdc00" stroke-width="1.51"/><path d="M822,-238L-284,-225L169,-201Z" fill="#ffbe00" stroke="#ffbe00" stroke-width="1.51"/><path d="M1197,-247L-284,-225L822,-238Z" fill="#ffb600" stroke="#ffb600" stroke-width="1.51"/></svg>