<?xml version="1.0" encoding="utf-8"?>
<!-- Generator: Adobe Illustrator 19.1.1, SVG Export Plug-In . SVG Version: 6.00 Build 0)  -->
<svg version="1.1" id="Layer_1" xmlns="http://www.w3.org/2000/svg" xmlns:xlink="http://www.w3.org/1999/xlink" x="0px" y="0px"
	 viewBox="234 324.6 1064.4 193.3" style="enable-background:new 234 324.6 1064.4 193.3;" xml:space="preserve">
<style type="text/css">
	.st0{fill:#ECEFF1;}
	.st1{fill:#90A4AE;}
	.st2{fill:#788F9B;}
	.st3{fill:#CFD8DC;}
	.st4{fill:#FFFFFF;}
	.st5{fill:#546F7B;}
	.st6{fill:#54BFEE;}
	.st7{fill:#B6CE43;}
	.st8{fill:#47AE54;}
	.st9{fill:#08B7D3;}
	.st10{fill:#F8A913;}
	.st11{fill:none;stroke:#546F7B;stroke-width:2;stroke-miterlimit:10;}
	.st12{enable-background:new    ;}
	.st13{fill:#465A64;}
</style>
<g>
	<g>
		<g>
			<path class="st0" d="M775.7,376.2H499.1c-3.1,0-5.7,2.5-5.7,5.7v60.7c0,3.1,2.5,5.7,5.7,5.7h276.7c3.1,0,5.7-2.5,5.7-5.7v-60.7
				C781.4,378.8,778.8,376.2,775.7,376.2z"/>
		</g>
		<g>
			<g>
				<path class="st1" d="M772.4,395.2h-270c-0.6,0-1-0.4-1-1c0-0.6,0.4-1,1-1h270c0.6,0,1,0.4,1,1
					C773.4,394.8,772.9,395.2,772.4,395.2z"/>
			</g>
			<g>
				<path class="st1" d="M772.4,404.2h-270c-0.6,0-1-0.4-1-1c0-0.6,0.4-1,1-1h270c0.6,0,1,0.4,1,1
					C773.4,403.8,772.9,404.2,772.4,404.2z"/>
			</g>
			<g>
				<path class="st1" d="M772.4,413.2h-270c-0.6,0-1-0.4-1-1c0-0.6,0.4-1,1-1h270c0.6,0,1,0.4,1,1
					C773.4,412.8,772.9,413.2,772.4,413.2z"/>
			</g>
			<g>
				<path class="st1" d="M772.4,422.2h-270c-0.6,0-1-0.4-1-1c0-0.6,0.4-1,1-1h270c0.6,0,1,0.4,1,1
					C773.4,421.8,772.9,422.2,772.4,422.2z"/>
			</g>
			<g>
				<path class="st1" d="M772.4,431.2h-270c-0.6,0-1-0.4-1-1c0-0.6,0.4-1,1-1h270c0.6,0,1,0.4,1,1
					C773.4,430.8,772.9,431.2,772.4,431.2z"/>
			</g>
		</g>
	</g>
	<g>
		<g>
			<path class="st2" d="M541.3,426h-18.6c-2.5,0-4.5-2-4.5-4.5v-18.6c0-2.5,2-4.5,4.5-4.5h18.6c2.5,0,4.5,2,4.5,4.5v18.6
				C545.8,424,543.8,426,541.3,426z"/>
			<path class="st3" d="M541.3,426.8h-18.6c-2.9,0-5.3-2.4-5.3-5.3v-18.6c0-2.9,2.4-5.3,5.3-5.3h18.6c2.9,0,5.3,2.4,5.3,5.3v18.6
				C546.6,424.4,544.2,426.8,541.3,426.8z M522.7,399.2c-2,0-3.7,1.7-3.7,3.7v18.6c0,2,1.7,3.7,3.7,3.7h18.6c2,0,3.7-1.7,3.7-3.7
				v-18.6c0-2-1.7-3.7-3.7-3.7C541.3,399.2,522.7,399.2,522.7,399.2z"/>
		</g>
		<g>
			<path class="st4" d="M528.6,411.3c-0.5,0-1,0.4-1,1v10.8c0,0.5,0.4,1,1,1c0.5,0,1-0.4,1-1v-10.8
				C529.5,411.8,529.1,411.3,528.6,411.3 M531.9,413.5c-0.5,0-1,0.4-1,1v6.4c0,0.5,0.4,1,1,1c0.5,0,1-0.4,1-1v-6.4
				C532.8,414,532.4,413.5,531.9,413.5 M524.3,414.8v5.9h1.9v-5.9H524.3z M521,414.8v5.9h1.9v-5.9H521z M535.2,416c-0.5,0-1,0.4-1,1
				v1.2c0,0.5,0.4,1,1,1c0.5,0,1-0.4,1-1V417C536.2,416.5,535.7,416,535.2,416 M535.5,413.1c0.5,0,1-0.4,1-1v-10.8c0-0.5-0.4-1-1-1
				c-0.5,0-1,0.4-1,1v10.8C534.5,412.7,534.9,413.1,535.5,413.1 M532.1,410.9c0.5,0,1-0.4,1-1v-6.4c0-0.5-0.4-1-1-1
				c-0.5,0-1,0.4-1,1v6.4C531.2,410.5,531.6,410.9,532.1,410.9 M539.7,409.7v-5.9h-1.9v5.9H539.7z M543,409.7v-5.9h-1.9v5.9H543z
				 M528.8,408.4c0.5,0,1-0.4,1-1v-1.2c0-0.5-0.4-1-1-1c-0.5,0-1,0.4-1,1v1.2C527.9,408,528.3,408.4,528.8,408.4"/>
		</g>
	</g>
	<g>
		<g>
			<path class="st3" d="M601.7,426.8h-44.8c-2.1,0-3.7-1.7-3.7-3.7v-21.7c0-2.1,1.7-3.7,3.7-3.7h44.8c2.1,0,3.7,1.7,3.7,3.7v21.7
				C605.4,425.1,603.8,426.8,601.7,426.8z"/>
		</g>
		<g>
			<g>
				<rect x="558.1" y="404.3" class="st5" width="20" height="4.5"/>
			</g>
			<g>
				<rect x="558.1" y="415" class="st5" width="20" height="4.5"/>
			</g>
			<g>
				<circle class="st6" cx="586.8" cy="406.5" r="3.2"/>
			</g>
			<g>
				<circle class="st6" cx="597.3" cy="406.5" r="3.2"/>
			</g>
			<g>
				<circle class="st7" cx="586.8" cy="417.3" r="3.2"/>
			</g>
			<g>
				<circle class="st7" cx="597.3" cy="417.3" r="3.2"/>
			</g>
		</g>
	</g>
</g>
<g>
	<path class="st8" d="M360,376.2c-2.9,0-5.6,0.3-8.3,1c-8.2-11.5-21.5-19-36.7-19c-22.4,0-40.9,16.3-44.4,37.8
		c-3-1.1-6.2-1.8-9.6-1.8c-14.9,0-27,12.1-27,27s12.1,27,27,27h99c19.9,0,36-16.1,36-36S379.9,376.2,360,376.2z"/>
	<g>
		<path class="st4" d="M301.1,416.3h6.1v1.3h-7.8v-12.8h1.7C301.1,404.8,301.1,416.3,301.1,416.3z"/>
		<path class="st4" d="M316.2,414.3h-5.4l-1.2,3.3h-1.8l4.9-12.8h1.5l5,12.8h-1.8L316.2,414.3z M311.4,412.9h4.3l-2.1-5.8h-0.1
			L311.4,412.9z"/>
		<path class="st4" d="M330.6,417.6h-1.7l-6.2-9.9h-0.1v9.9h-1.7v-12.8h1.7l6.2,9.9h0.1v-9.9h1.7V417.6z"/>
	</g>
</g>
<g>
	<path class="st9" d="M1262.4,376.2c-2.9,0-5.6,0.3-8.3,1c-8.2-11.5-21.5-19-36.7-19c-22.4,0-40.9,16.4-44.4,37.8
		c-3-1.1-6.2-1.8-9.6-1.8c-14.9,0-27,12.1-27,27c0,14.9,12.1,27,27,27h99c19.9,0,36-16.1,36-36
		C1298.4,392.3,1282.3,376.2,1262.4,376.2z"/>
	<g>
		<path class="st4" d="M1189.2,420.1h-1.7v-12.8h1.7V420.1z"/>
		<path class="st4" d="M1193.7,410.6l0.1,1.4c0.3-0.5,0.7-0.9,1.2-1.2c0.5-0.3,1-0.4,1.6-0.4c1,0,1.8,0.3,2.4,0.9
			c0.6,0.6,0.8,1.5,0.8,2.8v6h-1.7v-6c0-0.8-0.2-1.4-0.5-1.8c-0.3-0.4-0.8-0.5-1.5-0.5c-0.5,0-0.9,0.1-1.3,0.4
			c-0.4,0.3-0.7,0.6-0.9,1v6.9h-1.7v-9.5H1193.7z"/>
		<path class="st4" d="M1204.7,408.3v2.3h1.8v1.3h-1.8v5.8c0,0.4,0.1,0.8,0.3,0.9s0.4,0.3,0.7,0.3c0.1,0,0.2,0,0.3,0
			s0.2-0.1,0.3-0.1l0.2,1.2c-0.1,0.1-0.3,0.2-0.6,0.3s-0.5,0.1-0.8,0.1c-0.7,0-1.3-0.2-1.7-0.6c-0.4-0.4-0.6-1.1-0.6-2V412h-1.5
			v-1.4h1.5v-2.3H1204.7z"/>
		<path class="st4" d="M1212.6,420.3c-1.3,0-2.4-0.4-3.2-1.3c-0.8-0.9-1.2-2-1.2-3.4v-0.4c0-1.4,0.4-2.5,1.2-3.4
			c0.8-0.9,1.8-1.3,2.9-1.3c1.3,0,2.3,0.4,2.9,1.2c0.6,0.8,1,1.8,1,3.1v1.1h-6.2l0,0c0,0.9,0.2,1.7,0.7,2.2s1.1,0.9,1.9,0.9
			c0.6,0,1.1-0.1,1.5-0.3c0.4-0.2,0.8-0.4,1.1-0.7l0.7,1.1c-0.3,0.3-0.8,0.6-1.3,0.8C1214,420.2,1213.4,420.3,1212.6,420.3z
			 M1212.3,411.8c-0.6,0-1.1,0.2-1.5,0.7c-0.4,0.5-0.7,1.1-0.8,1.8l0,0h4.4v-0.2c0-0.7-0.2-1.2-0.5-1.7
			C1213.6,412,1213,411.8,1212.3,411.8z"/>
		<path class="st4" d="M1222.6,412.2l-0.9-0.1c-0.5,0-0.8,0.1-1.2,0.3c-0.4,0.2-0.6,0.5-0.7,0.9v6.8h-1.7v-9.5h1.5l0.2,1.4
			c0.3-0.5,0.6-0.9,1-1.2c0.4-0.3,0.9-0.4,1.4-0.4c0.1,0,0.3,0,0.4,0s0.2,0,0.3,0.1L1222.6,412.2z"/>
		<path class="st4" d="M1225.9,410.6l0.1,1.4c0.3-0.5,0.7-0.9,1.2-1.2c0.5-0.3,1-0.4,1.6-0.4c1,0,1.8,0.3,2.4,0.9
			c0.6,0.6,0.8,1.5,0.8,2.8v6h-1.7v-6c0-0.8-0.2-1.4-0.5-1.8c-0.3-0.4-0.8-0.5-1.5-0.5c-0.5,0-0.9,0.1-1.3,0.4
			c-0.4,0.3-0.7,0.6-0.9,1v6.9h-1.7v-9.5H1225.9z"/>
		<path class="st4" d="M1238.5,420.3c-1.3,0-2.4-0.4-3.2-1.3c-0.8-0.9-1.2-2-1.2-3.4v-0.4c0-1.4,0.4-2.5,1.2-3.4
			c0.8-0.9,1.8-1.3,2.9-1.3c1.3,0,2.3,0.4,2.9,1.2c0.6,0.8,1,1.8,1,3.1v1.1h-6.2l0,0c0,0.9,0.2,1.7,0.7,2.2s1.1,0.9,1.9,0.9
			c0.6,0,1.1-0.1,1.5-0.3c0.4-0.2,0.8-0.4,1.1-0.7l0.7,1.1c-0.3,0.3-0.8,0.6-1.3,0.8C1240,420.2,1239.3,420.3,1238.5,420.3z
			 M1238.2,411.8c-0.6,0-1.1,0.2-1.5,0.7c-0.4,0.5-0.7,1.1-0.8,1.8l0,0h4.4v-0.2c0-0.7-0.2-1.2-0.5-1.7
			C1239.5,412,1238.9,411.8,1238.2,411.8z"/>
		<path class="st4" d="M1246.4,408.3v2.3h1.8v1.3h-1.8v5.8c0,0.4,0.1,0.8,0.3,0.9c0.2,0.1,0.4,0.3,0.7,0.3c0.1,0,0.2,0,0.3,0
			c0.1,0,0.2-0.1,0.3-0.1l0.2,1.2c-0.1,0.1-0.3,0.2-0.6,0.3c-0.3,0.1-0.5,0.1-0.8,0.1c-0.7,0-1.3-0.2-1.7-0.6
			c-0.4-0.4-0.6-1.1-0.6-2V412h-1.5v-1.4h1.5v-2.3H1246.4z"/>
	</g>
</g>
<g>
	<path class="st0" d="M1038.5,361.3l-77.9-36.7L881,361.3c-8.3,134.2,79.6,156.5,79.6,156.5S1046.8,495.5,1038.5,361.3z"/>
	<g>
		<path class="st5" d="M928.2,381.6h-5.4l-1.2,3.3h-1.8l4.9-12.8h1.5l4.9,12.8h-1.8L928.2,381.6z M923.4,380.2h4.3l-2.1-5.8h-0.1
			L923.4,380.2z"/>
		<path class="st5" d="M932.2,380.3c0-1.5,0.3-2.8,1-3.7c0.7-0.9,1.6-1.4,2.7-1.4c0.6,0,1.1,0.1,1.5,0.3c0.4,0.2,0.8,0.5,1.1,0.9
			v-5.2h1.7v13.7h-1.4l-0.2-1.2c-0.3,0.4-0.7,0.8-1.1,1c-0.4,0.2-1,0.3-1.6,0.3c-1.2,0-2.1-0.4-2.7-1.3s-1-1.9-1-3.3V380.3z
			 M933.9,380.5c0,1,0.2,1.7,0.6,2.3s1,0.9,1.8,0.9c0.5,0,0.9-0.1,1.3-0.4c0.4-0.3,0.6-0.6,0.9-1v-4.4c-0.2-0.4-0.5-0.7-0.9-0.9
			c-0.4-0.2-0.8-0.3-1.3-0.3c-0.8,0-1.4,0.3-1.8,1c-0.4,0.7-0.6,1.6-0.6,2.7V380.5z"/>
		<path class="st5" d="M946,382.1l0.1,0.7h0.1l0.2-0.7l2.2-6.7h1.8l-3.5,9.5h-1.3l-3.5-9.5h1.8L946,382.1z"/>
		<path class="st5" d="M957.6,384.9c-0.1-0.3-0.1-0.5-0.1-0.8c0-0.3-0.1-0.4-0.1-0.7c-0.3,0.5-0.7,0.8-1.3,1.1
			c-0.5,0.3-1.1,0.5-1.7,0.5c-1,0-1.7-0.3-2.3-0.8c-0.5-0.5-0.8-1.2-0.8-2.1c0-0.9,0.4-1.6,1.1-2.1c0.7-0.5,1.7-0.8,3-0.8h1.9v-0.9
			c0-0.6-0.2-1-0.5-1.3c-0.3-0.3-0.8-0.4-1.4-0.4s-1,0.1-1.4,0.4c-0.3,0.3-0.5,0.6-0.5,1h-1.7v-0.1c0-0.7,0.3-1.3,1-1.9
			s1.6-0.9,2.7-0.9c1.1,0,1.9,0.3,2.6,0.8s1,1.3,1,2.4v4.6c0,0.3,0,0.7,0.1,1s0.1,0.6,0.2,0.9h-1.8V384.9z M954.7,383.7
			c0.6,0,1.2-0.2,1.7-0.5c0.5-0.3,0.8-0.7,1-1.1v-1.5h-1.9c-0.7,0-1.3,0.2-1.7,0.5c-0.4,0.3-0.6,0.8-0.6,1.2s0.1,0.8,0.4,1
			C953.8,383.5,954.2,383.7,954.7,383.7z"/>
		<path class="st5" d="M963.2,375.4l0.1,1.4c0.3-0.5,0.7-0.9,1.2-1.2c0.5-0.3,1-0.4,1.6-0.4c1,0,1.8,0.3,2.4,0.9
			c0.6,0.6,0.8,1.5,0.8,2.8v6h-1.7v-6c0-0.8-0.2-1.4-0.5-1.8c-0.3-0.4-0.8-0.5-1.5-0.5c-0.5,0-0.9,0.1-1.3,0.4
			c-0.4,0.3-0.7,0.6-0.9,1v6.9h-1.7v-9.5C961.7,375.4,963.2,375.4,963.2,375.4z"/>
		<path class="st5" d="M975.7,383.8c0.6,0,1.1-0.2,1.5-0.5c0.4-0.4,0.7-0.8,0.7-1.3h1.6v0.1c0,0.8-0.3,1.5-1.1,2.2
			c-0.8,0.7-1.6,1-2.6,1c-1.4,0-2.4-0.5-3.2-1.4s-1.1-2-1.1-3.4v-0.4c0-1.4,0.4-2.5,1.1-3.4s1.8-1.4,3.2-1.4c1.1,0,2,0.3,2.7,1
			s1,1.5,1,2.4v0.1h-1.6c0-0.6-0.2-1.1-0.6-1.5s-0.9-0.6-1.6-0.6c-0.9,0-1.6,0.3-1.9,1c-0.4,0.7-0.6,1.5-0.6,2.4v0.4
			c0,1,0.2,1.8,0.6,2.4C974.2,383.4,974.8,383.8,975.7,383.8z"/>
		<path class="st5" d="M985.3,385.1c-1.3,0-2.4-0.4-3.2-1.3s-1.2-2-1.2-3.4V380c0-1.4,0.4-2.5,1.2-3.4c0.8-0.9,1.8-1.3,2.9-1.3
			c1.3,0,2.3,0.4,2.9,1.2c0.6,0.8,1,1.8,1,3.1v1h-6.2l0,0c0,0.9,0.2,1.7,0.7,2.2s1.1,0.9,1.9,0.9c0.6,0,1.1-0.1,1.5-0.3
			s0.8-0.4,1.1-0.7l0.7,1.1c-0.3,0.3-0.8,0.6-1.3,0.8C986.8,385,986.1,385.1,985.3,385.1z M985.1,376.6c-0.6,0-1.1,0.2-1.5,0.7
			s-0.7,1.1-0.8,1.8l0,0h4.4v-0.2c0-0.7-0.2-1.2-0.5-1.7C986.3,376.8,985.8,376.6,985.1,376.6z"/>
		<path class="st5" d="M990.5,380.3c0-1.5,0.3-2.8,1-3.7c0.7-0.9,1.6-1.4,2.7-1.4c0.6,0,1.1,0.1,1.5,0.3c0.4,0.2,0.8,0.5,1.1,0.9
			v-5.2h1.7v13.7h-1.4l-0.2-1.2c-0.3,0.4-0.7,0.8-1.1,1c-0.4,0.2-1,0.3-1.6,0.3c-1.2,0-2.1-0.4-2.7-1.3s-1-1.9-1-3.3V380.3z
			 M992.3,380.5c0,1,0.2,1.7,0.6,2.3s1,0.9,1.8,0.9c0.5,0,0.9-0.1,1.3-0.4c0.4-0.3,0.6-0.6,0.9-1v-4.4c-0.2-0.4-0.5-0.7-0.9-0.9
			c-0.4-0.2-0.8-0.3-1.3-0.3c-0.8,0-1.4,0.3-1.8,1c-0.4,0.7-0.6,1.6-0.6,2.7V380.5z"/>
		<path class="st5" d="M943.8,395.1h-4.1v11.4H938v-11.4h-4.1v-1.4h9.9L943.8,395.1L943.8,395.1z"/>
		<path class="st5" d="M947.1,398.3c0.3-0.5,0.7-0.8,1.2-1.1c0.5-0.3,1-0.4,1.6-0.4c1,0,1.8,0.3,2.4,0.9c0.6,0.6,0.8,1.5,0.8,2.8v6
			h-1.7v-6c0-0.8-0.2-1.4-0.5-1.7c-0.3-0.4-0.8-0.6-1.5-0.6c-0.5,0-0.9,0.1-1.3,0.3c-0.4,0.2-0.7,0.5-1,0.9v7h-1.7v-13.6h1.7V398.3z
			"/>
		<path class="st5" d="M960.1,398.5l-0.9-0.1c-0.5,0-0.8,0.1-1.2,0.3c-0.4,0.2-0.6,0.5-0.7,0.9v6.8h-1.7v-9.5h1.5l0.2,1.4
			c0.3-0.5,0.6-0.9,1-1.2s0.9-0.4,1.4-0.4c0.1,0,0.3,0,0.4,0s0.2,0,0.3,0.1L960.1,398.5z"/>
		<path class="st5" d="M965.6,406.7c-1.3,0-2.4-0.4-3.2-1.3s-1.2-2-1.2-3.4v-0.4c0-1.4,0.4-2.5,1.2-3.4c0.8-0.9,1.8-1.3,2.9-1.3
			c1.3,0,2.3,0.4,2.9,1.2c0.6,0.8,1,1.8,1,3.1v1.1H963l0,0c0,0.9,0.2,1.7,0.7,2.2s1.1,0.9,1.9,0.9c0.6,0,1.1-0.1,1.5-0.3
			c0.4-0.2,0.8-0.4,1.1-0.7l0.7,1.1c-0.3,0.3-0.8,0.6-1.3,0.8C967,406.6,966.3,406.7,965.6,406.7z M965.3,398.2
			c-0.6,0-1.1,0.2-1.5,0.7s-0.7,1.1-0.8,1.8l0,0h4.4v-0.1c0-0.7-0.2-1.2-0.5-1.7C966.5,398.4,966,398.2,965.3,398.2z"/>
		<path class="st5" d="M977,406.5c-0.1-0.3-0.1-0.5-0.1-0.8c0-0.3-0.1-0.4-0.1-0.7c-0.3,0.5-0.7,0.8-1.3,1.1
			c-0.5,0.3-1.1,0.5-1.7,0.5c-1,0-1.7-0.3-2.3-0.8c-0.5-0.5-0.8-1.2-0.8-2.1c0-0.9,0.4-1.6,1.1-2.1c0.7-0.5,1.7-0.8,3-0.8h1.9v-0.9
			c0-0.6-0.2-1-0.5-1.3c-0.3-0.3-0.8-0.5-1.4-0.5c-0.6,0-1,0.1-1.4,0.4c-0.3,0.3-0.5,0.6-0.5,1h-1.7v-0.1c0-0.7,0.3-1.3,1-1.9
			c0.7-0.6,1.6-0.9,2.7-0.9c1.1,0,1.9,0.3,2.6,0.8s1,1.3,1,2.4v4.8c0,0.3,0,0.7,0.1,1c0.1,0.3,0.1,0.6,0.2,0.9H977z M974.1,405.3
			c0.6,0,1.2-0.2,1.7-0.5c0.5-0.3,0.8-0.7,1-1.1v-1.5h-1.9c-0.7,0-1.3,0.2-1.7,0.5c-0.4,0.3-0.6,0.8-0.6,1.2s0.1,0.8,0.4,1
			C973.2,405.1,973.6,405.3,974.1,405.3z"/>
		<path class="st5" d="M983.3,394.7v2.3h1.8v1.3h-1.8v5.8c0,0.4,0.1,0.8,0.3,0.9c0.2,0.2,0.4,0.3,0.7,0.3c0.1,0,0.2,0,0.3,0
			s0.2-0.1,0.3-0.1l0.2,1.2c-0.1,0.1-0.3,0.2-0.6,0.3s-0.5,0.1-0.8,0.1c-0.7,0-1.3-0.2-1.7-0.6s-0.6-1.1-0.6-2v-5.8h-1.5v-1.3h1.5
			v-2.3h1.9V394.7z"/>
		<path class="st5" d="M921,423v5.1h-1.7v-12.8h4.9c1.4,0,2.4,0.4,3.2,1.1c0.8,0.7,1.1,1.6,1.1,2.8c0,1.2-0.4,2.1-1.1,2.8
			s-1.8,1-3.2,1H921z M921,421.6h3.2c0.9,0,1.5-0.2,1.9-0.7s0.6-1.1,0.6-1.8c0-0.7-0.2-1.3-0.6-1.8c-0.4-0.5-1.1-0.7-1.9-0.7H921
			V421.6z"/>
		<path class="st5" d="M934.9,420.1L934,420c-0.5,0-0.8,0.1-1.2,0.3c-0.4,0.2-0.6,0.5-0.7,0.9v6.8h-1.7v-9.4h1.5l0.2,1.4
			c0.3-0.5,0.6-0.9,1-1.2c0.4-0.3,0.9-0.4,1.4-0.4c0.1,0,0.3,0,0.4,0s0.2,0,0.3,0.1L934.9,420.1z"/>
		<path class="st5" d="M936,423.3c0-1.4,0.4-2.6,1.1-3.5s1.8-1.4,3.1-1.4s2.4,0.5,3.1,1.4c0.8,0.9,1.1,2.1,1.1,3.5v0.2
			c0,1.4-0.4,2.6-1.1,3.5c-0.7,0.9-1.8,1.4-3.1,1.4s-2.4-0.5-3.1-1.4c-0.8-0.9-1.1-2.1-1.1-3.5V423.3z M937.8,423.5
			c0,1,0.2,1.8,0.6,2.5c0.4,0.7,1.1,1,1.9,1c0.8,0,1.5-0.3,1.9-1c0.4-0.7,0.6-1.5,0.6-2.5v-0.2c0-1-0.2-1.8-0.6-2.5
			c-0.4-0.7-1.1-1-1.9-1c-0.8,0-1.5,0.3-1.9,1c-0.4,0.7-0.6,1.5-0.6,2.5V423.5z"/>
		<path class="st5" d="M948.9,416.3v2.3h1.8v1.3h-1.8v5.8c0,0.4,0.1,0.8,0.3,0.9c0.2,0.2,0.4,0.3,0.7,0.3c0.1,0,0.2,0,0.3,0
			s0.2-0.1,0.3-0.1l0.2,1.2c-0.1,0.1-0.3,0.2-0.6,0.3c-0.3,0.1-0.5,0.1-0.8,0.1c-0.7,0-1.3-0.2-1.7-0.6c-0.4-0.4-0.6-1.1-0.6-2V420
			h-1.5v-1.4h1.5v-2.3H948.9z"/>
		<path class="st5" d="M956.8,428.3c-1.3,0-2.4-0.4-3.2-1.3c-0.8-0.9-1.2-2-1.2-3.4v-0.4c0-1.4,0.4-2.5,1.2-3.4s1.8-1.3,2.9-1.3
			c1.3,0,2.3,0.4,2.9,1.2s1,1.8,1,3.1v1.1h-6.2l0,0c0,0.9,0.2,1.7,0.7,2.2s1.1,0.9,1.9,0.9c0.6,0,1.1-0.1,1.5-0.3
			c0.4-0.2,0.8-0.4,1.1-0.7l0.7,1.1c-0.3,0.3-0.8,0.6-1.3,0.8C958.3,428.2,957.6,428.3,956.8,428.3z M956.6,419.8
			c-0.6,0-1.1,0.2-1.5,0.7s-0.7,1.1-0.8,1.8l0,0h4.4v-0.2c0-0.7-0.2-1.2-0.5-1.7C957.8,420,957.3,419.8,956.6,419.8z"/>
		<path class="st5" d="M966.3,427c0.6,0,1.1-0.2,1.5-0.5c0.4-0.4,0.7-0.8,0.7-1.3h1.6v0.1c0,0.8-0.3,1.5-1.1,2.2
			c-0.8,0.7-1.6,1-2.6,1c-1.4,0-2.4-0.5-3.2-1.4c-0.8-0.9-1.1-2-1.1-3.4v-0.4c0-1.4,0.4-2.5,1.1-3.4c0.7-0.9,1.8-1.4,3.2-1.4
			c1.1,0,2,0.3,2.7,1c0.7,0.7,1,1.5,1,2.4v0.1h-1.6c0-0.6-0.2-1.1-0.6-1.5c-0.4-0.4-0.9-0.6-1.6-0.6c-0.9,0-1.6,0.3-1.9,1
			c-0.4,0.7-0.6,1.5-0.6,2.4v0.3c0,1,0.2,1.8,0.6,2.4C964.7,426.6,965.3,427,966.3,427z"/>
		<path class="st5" d="M974.2,416.3v2.3h1.8v1.3h-1.8v5.8c0,0.4,0.1,0.8,0.3,0.9c0.2,0.2,0.4,0.3,0.7,0.3c0.1,0,0.2,0,0.3,0
			s0.2-0.1,0.3-0.1l0.2,1.2c-0.1,0.1-0.3,0.2-0.6,0.3c-0.3,0.1-0.5,0.1-0.8,0.1c-0.7,0-1.3-0.2-1.7-0.6c-0.4-0.4-0.6-1.1-0.6-2V420
			H971v-1.4h1.5v-2.3H974.2z"/>
		<path class="st5" d="M980,416.2h-1.7v-1.8h1.7V416.2z M980,428.1h-1.7v-9.5h1.7V428.1z"/>
		<path class="st5" d="M982.3,423.3c0-1.4,0.4-2.6,1.1-3.5s1.8-1.4,3.1-1.4s2.4,0.5,3.1,1.4c0.8,0.9,1.1,2.1,1.1,3.5v0.2
			c0,1.4-0.4,2.6-1.1,3.5c-0.7,0.9-1.8,1.4-3.1,1.4s-2.4-0.5-3.1-1.4c-0.8-0.9-1.1-2.1-1.1-3.5V423.3z M984,423.5
			c0,1,0.2,1.8,0.6,2.5c0.4,0.7,1.1,1,1.9,1c0.8,0,1.5-0.3,1.9-1c0.4-0.7,0.6-1.5,0.6-2.5v-0.2c0-1-0.2-1.8-0.6-2.5
			c-0.4-0.7-1.1-1-1.9-1c-0.8,0-1.5,0.3-1.9,1c-0.4,0.7-0.6,1.5-0.6,2.5V423.5z"/>
		<path class="st5" d="M994.5,418.6l0.1,1.4c0.3-0.5,0.7-0.9,1.2-1.2c0.5-0.3,1-0.4,1.6-0.4c1,0,1.8,0.3,2.4,0.9
			c0.6,0.6,0.8,1.5,0.8,2.8v6h-1.7v-6c0-0.8-0.2-1.4-0.5-1.8c-0.3-0.4-0.8-0.5-1.5-0.5c-0.5,0-0.9,0.1-1.3,0.4
			c-0.4,0.3-0.7,0.6-0.9,1v6.9H993v-9.5H994.5z"/>
	</g>
	<path class="st10" d="M959.8,463.2c-7.1,0-12.9,5.8-12.9,12.9s5.8,12.9,12.9,12.9s12.9-5.8,12.9-12.9
		C972.7,469,966.9,463.2,959.8,463.2z M958.7,481.8l-6.8-6.8l2.3-2.3l4.5,4.5l6.8-6.8l2.3,2.3L958.7,481.8z"/>
</g>
<g>
	<g>
		<line class="st11" x1="408.6" y1="411.6" x2="480.7" y2="411.6"/>
		<g>
			<polygon class="st5" points="412.6,415 409.2,411.6 412.6,408.2 409.7,408.2 406.3,411.6 409.7,415 			"/>
		</g>
		<g>
			<polygon class="st5" points="476.7,415 480.1,411.6 476.7,408.2 479.6,408.2 483,411.6 479.6,415 			"/>
		</g>
	</g>
</g>
<g>
	<g>
		<line class="st11" x1="794.5" y1="411.6" x2="869" y2="411.6"/>
		<g>
			<polygon class="st5" points="798.5,415 795.1,411.6 798.5,408.2 795.6,408.2 792.3,411.6 795.6,415 			"/>
		</g>
		<g>
			<polygon class="st5" points="865.1,415 868.5,411.6 865.1,408.2 867.9,408.2 871.3,411.6 867.9,415 			"/>
		</g>
	</g>
</g>
<g>
	<g>
		<line class="st11" x1="1050.1" y1="411.6" x2="1125.4" y2="411.6"/>
		<g>
			<polygon class="st5" points="1054.1,415 1050.7,411.6 1054.1,408.2 1051.2,408.2 1047.9,411.6 1051.2,415 			"/>
		</g>
		<g>
			<polygon class="st5" points="1121.4,415 1124.8,411.6 1121.4,408.2 1124.3,408.2 1127.7,411.6 1124.3,415 			"/>
		</g>
	</g>
</g>
<g class="st12">
	<path class="st13" d="M430.4,400.1v-12.8h3.9c1.7,0,3,0.5,4,1.5c1,1,1.5,2.4,1.5,4v1.7c0,1.6-0.5,3-1.5,4s-2.4,1.5-4,1.5H430.4z
		 M432.1,388.6v10.1h2.2c1.2,0,2.1-0.4,2.8-1.2s1-1.8,1-3v-1.8c0-1.2-0.3-2.2-1-3s-1.6-1.2-2.8-1.2H432.1z"/>
	<path class="st13" d="M451.9,400.1h-1.7l-6.2-9.9l-0.1,0v9.9h-1.7v-12.8h1.7l6.2,9.9l0.1,0v-9.9h1.7V400.1z"/>
	<path class="st13" d="M462,396.8c0-0.6-0.2-1.1-0.7-1.5c-0.4-0.4-1.2-0.7-2.3-1c-1.4-0.3-2.4-0.8-3.2-1.4c-0.8-0.6-1.1-1.4-1.1-2.4
		c0-1,0.4-1.8,1.2-2.5c0.8-0.7,1.9-1,3.2-1c1.4,0,2.5,0.4,3.3,1.2s1.2,1.7,1.2,2.7l0,0.1H462c0-0.8-0.2-1.4-0.7-1.8
		s-1.2-0.7-2.1-0.7c-0.9,0-1.5,0.2-2,0.6c-0.5,0.4-0.7,0.9-0.7,1.5c0,0.6,0.2,1,0.7,1.4c0.5,0.4,1.3,0.7,2.4,1
		c1.3,0.3,2.4,0.8,3.1,1.5s1.1,1.5,1.1,2.4c0,1-0.4,1.9-1.3,2.5s-1.9,0.9-3.3,0.9c-1.3,0-2.4-0.3-3.4-1c-1-0.7-1.5-1.6-1.4-2.8
		l0-0.1h1.7c0,0.8,0.3,1.4,0.9,1.9s1.4,0.6,2.2,0.6c0.9,0,1.6-0.2,2.1-0.6C461.8,398,462,397.5,462,396.8z"/>
</g>
<g class="st12">
	<path class="st13" d="M430.6,439.7h-1.7v-5.7h-6.2v5.7h-1.7v-12.8h1.7v5.8h6.2v-5.8h1.7V439.7z"/>
	<path class="st13" d="M442.1,428.3H438v11.4h-1.7v-11.4h-4.1v-1.4h9.9V428.3z"/>
	<path class="st13" d="M452.8,428.3h-4.1v11.4H447v-11.4h-4.1v-1.4h9.9V428.3z"/>
	<path class="st13" d="M456.4,434.6v5.1h-1.7v-12.8h4.9c1.4,0,2.4,0.4,3.2,1.1s1.1,1.6,1.1,2.8c0,1.2-0.4,2.1-1.1,2.8
		c-0.8,0.7-1.8,1-3.2,1H456.4z M456.4,433.2h3.2c0.9,0,1.5-0.2,1.9-0.7s0.6-1.1,0.6-1.8c0-0.7-0.2-1.3-0.6-1.8s-1.1-0.7-1.9-0.7
		h-3.2V433.2z"/>
	<path class="st13" d="M471.4,437.2c0-0.4-0.1-0.7-0.4-0.9s-0.8-0.5-1.6-0.6c-1.2-0.3-2-0.6-2.6-1s-0.9-1-0.9-1.8c0-0.8,0.3-1.4,1-2
		s1.5-0.8,2.6-0.8c1.1,0,2,0.3,2.6,0.9s1,1.3,0.9,2.1l0,0.1h-1.7c0-0.4-0.2-0.8-0.5-1.1s-0.8-0.5-1.4-0.5c-0.6,0-1.1,0.1-1.4,0.4
		s-0.4,0.6-0.4,1c0,0.4,0.1,0.7,0.4,0.9s0.8,0.4,1.6,0.6c1.2,0.3,2.1,0.6,2.7,1c0.6,0.4,0.9,1,0.9,1.8c0,0.8-0.3,1.5-1,2
		s-1.6,0.8-2.7,0.8c-1.2,0-2.2-0.3-2.9-0.9s-1-1.3-1-2.2l0-0.1h1.7c0,0.6,0.3,1.1,0.7,1.3c0.4,0.3,0.9,0.4,1.5,0.4
		c0.6,0,1.1-0.1,1.4-0.4S471.4,437.6,471.4,437.2z"/>
</g>
<g class="st12">
	<path class="st13" d="M589.2,460.9v8.7c0,1.4-0.5,2.5-1.4,3.2s-2.1,1.1-3.5,1.1c-1.4,0-2.5-0.4-3.4-1.1c-0.9-0.7-1.3-1.8-1.3-3.2
		v-8.7h1.7v8.7c0,1,0.3,1.7,0.8,2.2s1.3,0.8,2.2,0.8c0.9,0,1.7-0.3,2.3-0.8s0.9-1.2,0.9-2.2v-8.7H589.2z"/>
	<path class="st13" d="M597.3,471.2c0-0.4-0.1-0.7-0.4-0.9s-0.8-0.5-1.6-0.6c-1.2-0.3-2-0.6-2.6-1s-0.9-1-0.9-1.8c0-0.8,0.3-1.4,1-2
		s1.5-0.8,2.6-0.8c1.1,0,2,0.3,2.6,0.9s1,1.3,0.9,2.1l0,0.1h-1.7c0-0.4-0.2-0.8-0.5-1.1s-0.8-0.5-1.4-0.5c-0.6,0-1.1,0.1-1.4,0.4
		s-0.4,0.6-0.4,1c0,0.4,0.1,0.7,0.4,0.9s0.8,0.4,1.6,0.6c1.2,0.3,2.1,0.6,2.7,1c0.6,0.4,0.9,1,0.9,1.8c0,0.8-0.3,1.5-1,2
		s-1.6,0.8-2.7,0.8c-1.2,0-2.2-0.3-2.9-0.9s-1-1.3-1-2.2l0-0.1h1.7c0,0.6,0.3,1.1,0.7,1.3c0.4,0.3,0.9,0.4,1.5,0.4
		c0.6,0,1.1-0.1,1.4-0.4S597.3,471.6,597.3,471.2z"/>
	<path class="st13" d="M605.1,473.9c-1.3,0-2.4-0.4-3.2-1.3c-0.8-0.9-1.2-2-1.2-3.4v-0.4c0-1.4,0.4-2.5,1.2-3.4s1.8-1.3,2.9-1.3
		c1.3,0,2.3,0.4,2.9,1.2s1,1.8,1,3.1v1.1h-6.2l0,0c0,0.9,0.2,1.7,0.7,2.2s1.1,0.9,1.9,0.9c0.6,0,1.1-0.1,1.5-0.3
		c0.4-0.2,0.8-0.4,1.1-0.7l0.7,1.1c-0.3,0.3-0.8,0.6-1.3,0.8C606.5,473.8,605.9,473.9,605.1,473.9z M604.8,465.4
		c-0.6,0-1.1,0.2-1.5,0.7s-0.7,1.1-0.8,1.8l0,0h4.4v-0.2c0-0.7-0.2-1.2-0.5-1.7C606.1,465.6,605.5,465.4,604.8,465.4z"/>
	<path class="st13" d="M615.2,465.7l-0.9-0.1c-0.5,0-0.8,0.1-1.2,0.3s-0.6,0.5-0.7,0.9v6.8h-1.7v-9.5h1.5l0.2,1.4
		c0.3-0.5,0.6-0.9,1-1.2s0.9-0.4,1.4-0.4c0.1,0,0.3,0,0.4,0s0.2,0,0.3,0.1L615.2,465.7z"/>
	<path class="st13" d="M626.4,472c-0.3,0.5-0.8,0.9-1.6,1.3s-1.7,0.6-2.9,0.6c-1.5,0-2.8-0.5-3.8-1.5s-1.5-2.2-1.5-3.8V466
		c0-1.6,0.5-2.8,1.4-3.8s2.1-1.5,3.6-1.5c1.5,0,2.6,0.4,3.5,1.1s1.3,1.6,1.3,2.8l0,0.1h-1.7c-0.1-0.7-0.3-1.4-0.8-1.8
		s-1.3-0.7-2.2-0.7c-1,0-1.8,0.4-2.4,1.1c-0.6,0.7-0.9,1.7-0.9,2.8v2.7c0,1.1,0.3,2.1,1,2.8c0.7,0.7,1.5,1.1,2.5,1.1
		c0.7,0,1.3-0.1,1.8-0.3c0.5-0.2,0.8-0.4,1-0.7v-2.9h-2.8v-1.4h4.5V472z"/>
	<path class="st13" d="M634.9,473.7c-0.1-0.3-0.1-0.5-0.1-0.8c0-0.2-0.1-0.4-0.1-0.7c-0.3,0.5-0.7,0.8-1.3,1.1
		c-0.5,0.3-1.1,0.5-1.7,0.5c-1,0-1.7-0.3-2.3-0.8c-0.5-0.5-0.8-1.2-0.8-2.1c0-0.9,0.4-1.6,1.1-2.1s1.7-0.8,3-0.8h1.9v-0.9
		c0-0.6-0.2-1-0.5-1.3c-0.3-0.3-0.8-0.5-1.4-0.5c-0.6,0-1,0.1-1.4,0.4s-0.5,0.6-0.5,1h-1.7l0-0.1c0-0.7,0.3-1.3,1-1.9
		s1.6-0.9,2.7-0.9c1.1,0,1.9,0.3,2.6,0.8s1,1.3,1,2.4v4.6c0,0.3,0,0.7,0.1,1s0.1,0.6,0.2,0.9H634.9z M632.1,472.4
		c0.6,0,1.2-0.2,1.7-0.5s0.8-0.7,1-1.1v-1.5h-1.9c-0.7,0-1.3,0.2-1.7,0.5c-0.4,0.4-0.6,0.8-0.6,1.2c0,0.4,0.1,0.8,0.4,1
		S631.6,472.4,632.1,472.4z"/>
	<path class="st13" d="M641.3,461.9v2.3h1.8v1.3h-1.8v5.8c0,0.4,0.1,0.8,0.3,0.9s0.4,0.3,0.7,0.3c0.1,0,0.2,0,0.3,0s0.2-0.1,0.3-0.1
		l0.2,1.2c-0.1,0.1-0.3,0.2-0.6,0.3c-0.2,0.1-0.5,0.1-0.8,0.1c-0.7,0-1.3-0.2-1.7-0.6c-0.4-0.4-0.6-1.1-0.6-2v-5.8H638v-1.3h1.5
		v-2.3H641.3z"/>
	<path class="st13" d="M649.2,473.9c-1.3,0-2.4-0.4-3.2-1.3c-0.8-0.9-1.2-2-1.2-3.4v-0.4c0-1.4,0.4-2.5,1.2-3.4s1.8-1.3,2.9-1.3
		c1.3,0,2.3,0.4,2.9,1.2s1,1.8,1,3.1v1.1h-6.2l0,0c0,0.9,0.2,1.7,0.7,2.2s1.1,0.9,1.9,0.9c0.6,0,1.1-0.1,1.5-0.3
		c0.4-0.2,0.8-0.4,1.1-0.7l0.7,1.1c-0.3,0.3-0.8,0.6-1.3,0.8C650.6,473.8,650,473.9,649.2,473.9z M648.9,465.4
		c-0.6,0-1.1,0.2-1.5,0.7s-0.7,1.1-0.8,1.8l0,0h4.4v-0.2c0-0.7-0.2-1.2-0.5-1.7C650.2,465.6,649.6,465.4,648.9,465.4z"/>
	<path class="st13" d="M668.9,460.9v8.7c0,1.4-0.5,2.5-1.4,3.2s-2.1,1.1-3.5,1.1c-1.4,0-2.5-0.4-3.4-1.1c-0.9-0.7-1.3-1.8-1.3-3.2
		v-8.7h1.7v8.7c0,1,0.3,1.7,0.8,2.2s1.3,0.8,2.2,0.8c0.9,0,1.7-0.3,2.3-0.8s0.9-1.2,0.9-2.2v-8.7H668.9z"/>
	<path class="st13" d="M680.4,462.3h-4.1v11.4h-1.7v-11.4h-4.1v-1.4h9.9V462.3z"/>
	<path class="st13" d="M684.5,460.9l4.1,10.4h0.1l4.1-10.4h2.2v12.8h-1.7v-5.1l0.2-5.2l0,0l-4.1,10.3H688l-4.1-10.2l0,0l0.2,5.2v5.1
		h-1.7v-12.8H684.5z"/>
</g>
</svg>
