<svg xmlns="http://www.w3.org/2000/svg" width="1440" height="900"><path d="M800,298L956,321L980,84Z" fill="#ffb40f" stroke="#ffb40f" stroke-width="1.51"/><path d="M980,84L758,100L800,298Z" fill="#ffac0c" stroke="#ffac0c" stroke-width="1.51"/><path d="M956,321L1212,249L980,84Z" fill="#ffb810" stroke="#ffb810" stroke-width="1.51"/><path d="M1212,249L1223,205L980,84Z" fill="#ffb911" stroke="#ffb911" stroke-width="1.51"/><path d="M758,100L568,285L800,298Z" fill="#ffab0b" stroke="#ffab0b" stroke-width="1.51"/><path d="M771,598L1012,518L956,321Z" fill="#ffc414" stroke="#ffc414" stroke-width="1.51"/><path d="M956,321L1105,530L1212,249Z" fill="#ffc414" stroke="#ffc414" stroke-width="1.51"/><path d="M771,598L956,321L800,298Z" fill="#ffbc12" stroke="#ffbc12" stroke-width="1.51"/><path d="M980,84L968,-150L758,100Z" fill="#ffa509" stroke="#ffa509" stroke-width="1.51"/><path d="M758,100L453,212L568,285Z" fill="#ffa509" stroke="#ffa509" stroke-width="1.51"/><path d="M1104,-113L968,-150L980,84Z" fill="#ffa90b" stroke="#ffa90b" stroke-width="1.51"/><path d="M1223,205L1104,-113L980,84Z" fill="#ffb10d" stroke="#ffb10d" stroke-width="1.51"/><path d="M1223,205L1271,189L1104,-113Z" fill="#ffb710" stroke="#ffb710" stroke-width="1.51"/><path d="M1212,249L1271,189L1223,205Z" fill="#ffc013" stroke="#ffc013" stroke-width="1.51"/><path d="M1304,355L1271,189L1212,249Z" fill="#ffc414" stroke="#ffc414" stroke-width="1.51"/><path d="M968,-150L726,-152L758,100Z" fill="#ffa108" stroke="#ffa108" stroke-width="1.51"/><path d="M1012,518L1105,530L956,321Z" fill="#ffc715" stroke="#ffc715" stroke-width="1.51"/><path d="M568,285L771,598L800,298Z" fill="#ffb70f" stroke="#ffb70f" stroke-width="1.51"/><path d="M1012,518L1180,689L1105,530Z" fill="#ffd219" stroke="#ffd219" stroke-width="1.51"/><path d="M1105,530L1304,355L1212,249Z" fill="#ffc916" stroke="#ffc916" stroke-width="1.51"/><path d="M568,285L589,616L771,598Z" fill="#ffbb11" stroke="#ffbb11" stroke-width="1.51"/><path d="M423,-11L453,212L758,100Z" fill="#ff9c06" stroke="#ff9c06" stroke-width="1.51"/><path d="M968,-150L975,-267L726,-152Z" fill="#ffa409" stroke="#ffa409" stroke-width="1.51"/><path d="M1121,-272L975,-267L968,-150Z" fill="#ffa90b" stroke="#ffa90b" stroke-width="1.51"/><path d="M726,-152L423,-11L758,100Z" fill="#ff9905" stroke="#ff9905" stroke-width="1.51"/><path d="M1104,-113L1121,-272L968,-150Z" fill="#ffab0b" stroke="#ffab0b" stroke-width="1.51"/><path d="M1257,-207L1121,-272L1104,-113Z" fill="#ffaf0d" stroke="#ffaf0d" stroke-width="1.51"/><path d="M375,649L589,616L568,285Z" fill="#ffb610" stroke="#ffb610" stroke-width="1.51"/><path d="M1423,-66L1104,-113L1271,189Z" fill="#ffb30e" stroke="#ffb30e" stroke-width="1.51"/><path d="M1423,-66L1257,-207L1104,-113Z" fill="#ffb30e" stroke="#ffb30e" stroke-width="1.51"/><path d="M726,-152L448,-190L423,-11Z" fill="#ff9504" stroke="#ff9504" stroke-width="1.51"/><path d="M975,-267L752,-354L726,-152Z" fill="#ffa108" stroke="#ffa108" stroke-width="1.51"/><path d="M1121,-272L752,-354L975,-267Z" fill="#ffa70a" stroke="#ffa70a" stroke-width="1.51"/><path d="M1105,530L1336,556L1304,355Z" fill="#ffd119" stroke="#ffd119" stroke-width="1.51"/><path d="M1304,355L1461,307L1271,189Z" fill="#ffc915" stroke="#ffc915" stroke-width="1.51"/><path d="M1180,689L1336,556L1105,530Z" fill="#ffd71b" stroke="#ffd71b" stroke-width="1.51"/><path d="M1180,689L1012,518L844,815Z" fill="#ffd519" stroke="#ffd519" stroke-width="1.51"/><path d="M844,815L1012,518L771,598Z" fill="#ffcd17" stroke="#ffcd17" stroke-width="1.51"/><path d="M1336,556L1461,307L1304,355Z" fill="#ffd119" stroke="#ffd119" stroke-width="1.51"/><path d="M1503,31L1423,-66L1271,189Z" fill="#ffbc11" stroke="#ffbc11" stroke-width="1.51"/><path d="M752,-354L448,-190L726,-152Z" fill="#ff9906" stroke="#ff9906" stroke-width="1.51"/><path d="M589,616L819,812L771,598Z" fill="#ffc916" stroke="#ffc916" stroke-width="1.51"/><path d="M819,812L844,815L771,598Z" fill="#ffd118" stroke="#ffd118" stroke-width="1.51"/><path d="M1461,307L1503,31L1271,189Z" fill="#ffc414" stroke="#ffc414" stroke-width="1.51"/><path d="M423,-11L262,144L453,212Z" fill="#ff9605" stroke="#ff9605" stroke-width="1.51"/><path d="M453,212L251,326L568,285Z" fill="#ffa308" stroke="#ffa308" stroke-width="1.51"/><path d="M220,38L262,144L423,-11Z" fill="#ff8f03" stroke="#ff8f03" stroke-width="1.51"/><path d="M262,144L251,326L453,212Z" fill="#ff9b06" stroke="#ff9b06" stroke-width="1.51"/><path d="M1634,-79L1461,-194L1423,-66Z" fill="#ffba11" stroke="#ffba11" stroke-width="1.51"/><path d="M1423,-66L1461,-194L1257,-207Z" fill="#ffb810" stroke="#ffb810" stroke-width="1.51"/><path d="M1257,-207L1461,-194L1121,-272Z" fill="#ffb40f" stroke="#ffb40f" stroke-width="1.51"/><path d="M589,616L665,915L819,812Z" fill="#ffce18" stroke="#ffce18" stroke-width="1.51"/><path d="M251,326L375,649L568,285Z" fill="#ffab0b" stroke="#ffab0b" stroke-width="1.51"/><path d="M262,144L194,281L251,326Z" fill="#ff9906" stroke="#ff9906" stroke-width="1.51"/><path d="M161,-81L220,38L423,-11Z" fill="#ff8902" stroke="#ff8902" stroke-width="1.51"/><path d="M41,580L205,733L375,649Z" fill="#ffb30e" stroke="#ffb30e" stroke-width="1.51"/><path d="M94,66L194,281L262,144Z" fill="#ff9103" stroke="#ff9103" stroke-width="1.51"/><path d="M1503,31L1634,-79L1423,-66Z" fill="#ffba11" stroke="#ffba11" stroke-width="1.51"/><path d="M1461,307L1611,188L1503,31Z" fill="#ffc515" stroke="#ffc515" stroke-width="1.51"/><path d="M1662,310L1611,188L1461,307Z" fill="#ffcb16" stroke="#ffcb16" stroke-width="1.51"/><path d="M448,-190L292,-225L423,-11Z" fill="#ff8e03" stroke="#ff8e03" stroke-width="1.51"/><path d="M205,-331L292,-225L448,-190Z" fill="#ff8b03" stroke="#ff8b03" stroke-width="1.51"/><path d="M375,649L395,753L589,616Z" fill="#ffbe12" stroke="#ffbe12" stroke-width="1.51"/><path d="M205,733L395,753L375,649Z" fill="#ffbb11" stroke="#ffbb11" stroke-width="1.51"/><path d="M395,753L475,818L589,616Z" fill="#ffc314" stroke="#ffc314" stroke-width="1.51"/><path d="M819,812L876,959L844,815Z" fill="#ffd91b" stroke="#ffd91b" stroke-width="1.51"/><path d="M576,901L665,915L589,616Z" fill="#ffcd17" stroke="#ffcd17" stroke-width="1.51"/><path d="M844,815L876,959L1180,689Z" fill="#ffdc1c" stroke="#ffdc1c" stroke-width="1.51"/><path d="M665,915L876,959L819,812Z" fill="#ffd91c" stroke="#ffd91c" stroke-width="1.51"/><path d="M1595,563L1461,307L1336,556Z" fill="#ffd81b" stroke="#ffd81b" stroke-width="1.51"/><path d="M866,1251L1041,1054L876,959Z" fill="#ffdf1d" stroke="#ffdf1d" stroke-width="1.51"/><path d="M475,818L576,901L589,616Z" fill="#ffc816" stroke="#ffc816" stroke-width="1.51"/><path d="M240,923L576,901L475,818Z" fill="#ffcb16" stroke="#ffcb16" stroke-width="1.51"/><path d="M1663,506L1662,310L1461,307Z" fill="#ffd219" stroke="#ffd219" stroke-width="1.51"/><path d="M1611,188L1634,-79L1503,31Z" fill="#ffbd12" stroke="#ffbd12" stroke-width="1.51"/><path d="M1428,776L1336,556L1180,689Z" fill="#ffe01e" stroke="#ffe01e" stroke-width="1.51"/><path d="M220,38L94,66L262,144Z" fill="#ff8c02" stroke="#ff8c02" stroke-width="1.51"/><path d="M292,-225L161,-81L423,-11Z" fill="#ff8a02" stroke="#ff8a02" stroke-width="1.51"/><path d="M1728,175L1634,-79L1611,188Z" fill="#ffc013" stroke="#ffc013" stroke-width="1.51"/><path d="M1392,827L1428,776L1180,689Z" fill="#ffe720" stroke="#ffe720" stroke-width="1.51"/><path d="M1428,776L1595,563L1336,556Z" fill="#ffe21e" stroke="#ffe21e" stroke-width="1.51"/><path d="M1704,691L1663,506L1595,563Z" fill="#ffe01e" stroke="#ffe01e" stroke-width="1.51"/><path d="M1094,1064L1392,827L1180,689Z" fill="#ffe820" stroke="#ffe820" stroke-width="1.51"/><path d="M161,-81L94,66L220,38Z" fill="#ff8501" stroke="#ff8501" stroke-width="1.51"/><path d="M41,580L375,649L251,326Z" fill="#ffab0c" stroke="#ffab0c" stroke-width="1.51"/><path d="M1595,563L1663,506L1461,307Z" fill="#ffd71b" stroke="#ffd71b" stroke-width="1.51"/><path d="M1704,691L1595,563L1428,776Z" fill="#ffe51f" stroke="#ffe51f" stroke-width="1.51"/><path d="M1837,284L1728,175L1662,310Z" fill="#ffcb16" stroke="#ffcb16" stroke-width="1.51"/><path d="M1662,310L1728,175L1611,188Z" fill="#ffc916" stroke="#ffc916" stroke-width="1.51"/><path d="M292,-225L205,-331L161,-81Z" fill="#ff8702" stroke="#ff8702" stroke-width="1.51"/><path d="M-155,-87L7,200L94,66Z" fill="#ff8200" stroke="#ff8200" stroke-width="1.51"/><path d="M752,-354L205,-331L448,-190Z" fill="#ff9204" stroke="#ff9204" stroke-width="1.51"/><path d="M876,959L1041,1054L1180,689Z" fill="#ffe31f" stroke="#ffe31f" stroke-width="1.51"/><path d="M762,1219L876,959L665,915Z" fill="#ffd91b" stroke="#ffd91b" stroke-width="1.51"/><path d="M7,451L251,326L194,281Z" fill="#ff9d06" stroke="#ff9d06" stroke-width="1.51"/><path d="M395,753L240,923L475,818Z" fill="#ffc414" stroke="#ffc414" stroke-width="1.51"/><path d="M94,66L7,200L194,281Z" fill="#ff8f03" stroke="#ff8f03" stroke-width="1.51"/><path d="M-147,255L7,200L-222,180Z" fill="#ff8c03" stroke="#ff8c03" stroke-width="1.51"/><path d="M1041,1054L1094,1064L1180,689Z" fill="#ffe620" stroke="#ffe620" stroke-width="1.51"/><path d="M7,200L7,451L194,281Z" fill="#ff9605" stroke="#ff9605" stroke-width="1.51"/><path d="M1392,827L1495,972L1428,776Z" fill="#fff123" stroke="#fff123" stroke-width="1.51"/><path d="M1094,1064L1422,956L1392,827Z" fill="#ffee22" stroke="#ffee22" stroke-width="1.51"/><path d="M7,451L41,580L251,326Z" fill="#ffa108" stroke="#ffa108" stroke-width="1.51"/><path d="M1663,506L1837,284L1662,310Z" fill="#ffd119" stroke="#ffd119" stroke-width="1.51"/><path d="M1911,-29L1734,-243L1634,-79Z" fill="#ffba11" stroke="#ffba11" stroke-width="1.51"/><path d="M1936,623L1837,284L1663,506Z" fill="#ffd81b" stroke="#ffd81b" stroke-width="1.51"/><path d="M1911,-29L1634,-79L1728,175Z" fill="#ffbc11" stroke="#ffbc11" stroke-width="1.51"/><path d="M1634,-79L1734,-243L1461,-194Z" fill="#ffba11" stroke="#ffba11" stroke-width="1.51"/><path d="M1461,-194L1839,-346L1121,-272Z" fill="#ffba11" stroke="#ffba11" stroke-width="1.51"/><path d="M1121,-272L1839,-346L752,-354Z" fill="#ffb20e" stroke="#ffb20e" stroke-width="1.51"/><path d="M1495,972L1704,691L1428,776Z" fill="#ffee22" stroke="#ffee22" stroke-width="1.51"/><path d="M205,733L240,923L395,753Z" fill="#ffbf13" stroke="#ffbf13" stroke-width="1.51"/><path d="M444,1216L762,1219L665,915Z" fill="#ffd319" stroke="#ffd319" stroke-width="1.51"/><path d="M1041,1054L866,1251L1094,1064Z" fill="#ffe21e" stroke="#ffe21e" stroke-width="1.51"/><path d="M95,913L240,923L205,733Z" fill="#ffbf12" stroke="#ffbf12" stroke-width="1.51"/><path d="M1422,956L1495,972L1392,827Z" fill="#fff324" stroke="#fff324" stroke-width="1.51"/><path d="M1397,1084L1495,972L1422,956Z" fill="#fff324" stroke="#fff324" stroke-width="1.51"/><path d="M1094,1064L1397,1084L1422,956Z" fill="#ffee22" stroke="#ffee22" stroke-width="1.51"/><path d="M1094,1064L1456,1131L1397,1084Z" fill="#ffee22" stroke="#ffee22" stroke-width="1.51"/><path d="M444,1216L665,915L576,901Z" fill="#ffd018" stroke="#ffd018" stroke-width="1.51"/><path d="M2007,74L1911,-29L1728,175Z" fill="#ffbf12" stroke="#ffbf12" stroke-width="1.51"/><path d="M-155,-87L94,66L161,-81Z" fill="#ff7f00" stroke="#ff7f00" stroke-width="1.51"/><path d="M7,200L-147,255L7,451Z" fill="#ff9304" stroke="#ff9304" stroke-width="1.51"/><path d="M7,451L-155,685L41,580Z" fill="#ffa509" stroke="#ffa509" stroke-width="1.51"/><path d="M762,1219L866,1251L876,959Z" fill="#ffdb1c" stroke="#ffdb1c" stroke-width="1.51"/><path d="M240,923L444,1216L576,901Z" fill="#ffcb16" stroke="#ffcb16" stroke-width="1.51"/><path d="M41,580L95,913L205,733Z" fill="#ffb40f" stroke="#ffb40f" stroke-width="1.51"/><path d="M3,925L95,913L41,580Z" fill="#ffb60f" stroke="#ffb60f" stroke-width="1.51"/><path d="M-87,-288L-155,-87L161,-81Z" fill="#ff7d00" stroke="#ff7d00" stroke-width="1.51"/><path d="M1911,-29L1839,-346L1734,-243Z" fill="#ffba11" stroke="#ffba11" stroke-width="1.51"/><path d="M1734,-243L1839,-346L1461,-194Z" fill="#ffba11" stroke="#ffba11" stroke-width="1.51"/><path d="M1397,1084L1456,1131L1495,972Z" fill="#fff324" stroke="#fff324" stroke-width="1.51"/><path d="M1895,820L1936,623L1704,691Z" fill="#ffe720" stroke="#ffe720" stroke-width="1.51"/><path d="M866,1251L1456,1131L1094,1064Z" fill="#ffe720" stroke="#ffe720" stroke-width="1.51"/><path d="M205,-331L-87,-288L161,-81Z" fill="#ff8100" stroke="#ff8100" stroke-width="1.51"/><path d="M413,1234L444,1216L240,923Z" fill="#ffc916" stroke="#ffc916" stroke-width="1.51"/><path d="M762,1219L413,1234L866,1251Z" fill="#ffd51a" stroke="#ffd51a" stroke-width="1.51"/><path d="M-155,-87L-222,180L7,200Z" fill="#ff8401" stroke="#ff8401" stroke-width="1.51"/><path d="M-155,685L3,925L41,580Z" fill="#ffaf0d" stroke="#ffaf0d" stroke-width="1.51"/><path d="M1911,-29L2007,74L1839,-346Z" fill="#ffba11" stroke="#ffba11" stroke-width="1.51"/><path d="M1837,284L2007,74L1728,175Z" fill="#ffc515" stroke="#ffc515" stroke-width="1.51"/><path d="M1936,623L2007,74L1837,284Z" fill="#ffcf18" stroke="#ffcf18" stroke-width="1.51"/><path d="M1704,691L1936,623L1663,506Z" fill="#ffe11e" stroke="#ffe11e" stroke-width="1.51"/><path d="M1795,889L1704,691L1495,972Z" fill="#fff023" stroke="#fff023" stroke-width="1.51"/><path d="M1864,939L1795,889L1731,1237Z" fill="#fff324" stroke="#fff324" stroke-width="1.51"/><path d="M82,1161L413,1234L240,923Z" fill="#ffc414" stroke="#ffc414" stroke-width="1.51"/><path d="M444,1216L413,1234L762,1219Z" fill="#ffd018" stroke="#ffd018" stroke-width="1.51"/><path d="M95,913L82,1161L240,923Z" fill="#ffc013" stroke="#ffc013" stroke-width="1.51"/><path d="M-155,685L7,451L-298,449Z" fill="#ffa208" stroke="#ffa208" stroke-width="1.51"/><path d="M-298,449L7,451L-147,255Z" fill="#ff9805" stroke="#ff9805" stroke-width="1.51"/><path d="M1864,939L1895,820L1795,889Z" fill="#fff224" stroke="#fff224" stroke-width="1.51"/><path d="M1795,889L1895,820L1704,691Z" fill="#ffed22" stroke="#ffed22" stroke-width="1.51"/><path d="M-299,-76L-298,449L-222,180Z" fill="#ff8a02" stroke="#ff8a02" stroke-width="1.51"/><path d="M-222,180L-298,449L-147,255Z" fill="#ff9204" stroke="#ff9204" stroke-width="1.51"/><path d="M1731,1237L1795,889L1495,972Z" fill="#fff324" stroke="#fff324" stroke-width="1.51"/><path d="M-155,-87L-299,-76L-222,180Z" fill="#ff7e00" stroke="#ff7e00" stroke-width="1.51"/><path d="M-350,-270L-299,-76L-155,-87Z" fill="#ff7d00" stroke="#ff7d00" stroke-width="1.51"/><path d="M-5,1127L82,1161L95,913Z" fill="#ffbc12" stroke="#ffbc12" stroke-width="1.51"/><path d="M-5,1127L95,913L3,925Z" fill="#ffbc11" stroke="#ffbc11" stroke-width="1.51"/><path d="M-244,750L3,925L-155,685Z" fill="#ffb30e" stroke="#ffb30e" stroke-width="1.51"/><path d="M-298,449L-316,554L-155,685Z" fill="#ffa409" stroke="#ffa409" stroke-width="1.51"/><path d="M-350,-270L-316,554L-298,449Z" fill="#ff8e03" stroke="#ff8e03" stroke-width="1.51"/><path d="M-316,554L-244,750L-155,685Z" fill="#ffab0b" stroke="#ffab0b" stroke-width="1.51"/><path d="M-349,1093L-5,1127L3,925Z" fill="#ffba11" stroke="#ffba11" stroke-width="1.51"/><path d="M-299,-76L-350,-270L-298,449Z" fill="#ff8000" stroke="#ff8000" stroke-width="1.51"/><path d="M-87,-288L-350,-270L-155,-87Z" fill="#ff7d00" stroke="#ff7d00" stroke-width="1.51"/><path d="M205,-331L-350,-270L-87,-288Z" fill="#ff7d00" stroke="#ff7d00" stroke-width="1.51"/><path d="M1456,1131L1731,1237L1495,972Z" fill="#fff324" stroke="#fff324" stroke-width="1.51"/><path d="M866,1251L1731,1237L1456,1131Z" fill="#fff023" stroke="#fff023" stroke-width="1.51"/><path d="M1731,1237L1921,1252L1864,939Z" fill="#fff324" stroke="#fff324" stroke-width="1.51"/><path d="M1864,939L1921,1252L1895,820Z" fill="#fff324" stroke="#fff324" stroke-width="1.51"/><path d="M1895,820L1921,1252L1936,623Z" fill="#fff324" stroke="#fff324" stroke-width="1.51"/><path d="M1936,623L1921,1252L2007,74Z" fill="#ffe41f" stroke="#ffe41f" stroke-width="1.51"/><path d="M866,1251L1921,1252L1731,1237Z" fill="#fff324" stroke="#fff324" stroke-width="1.51"/><path d="M-244,750L-374,1007L3,925Z" fill="#ffba11" stroke="#ffba11" stroke-width="1.51"/><path d="M-5,1127L-349,1093L82,1161Z" fill="#ffba11" stroke="#ffba11" stroke-width="1.51"/><path d="M-316,554L-374,1007L-244,750Z" fill="#ffb20d" stroke="#ffb20d" stroke-width="1.51"/><path d="M-350,-270L-374,1007L-316,554Z" fill="#ff9c06" stroke="#ff9c06" stroke-width="1.51"/><path d="M-374,1007L-349,1093L3,925Z" fill="#ffba11" stroke="#ffba11" stroke-width="1.51"/><path d="M82,1161L-349,1093L413,1234Z" fill="#ffbc12" stroke="#ffbc12" stroke-width="1.51"/></svg>