<svg xmlns="http://www.w3.org/2000/svg" width="1440" height="900"><path d="M800,298L956,321L980,84Z" fill="#ededed" stroke="#ededed" stroke-width="1.51"/><path d="M980,84L758,100L800,298Z" fill="#efefef" stroke="#efefef" stroke-width="1.51"/><path d="M956,321L1212,249L980,84Z" fill="#ebebeb" stroke="#ebebeb" stroke-width="1.51"/><path d="M1212,249L1223,205L980,84Z" fill="#eaeaea" stroke="#eaeaea" stroke-width="1.51"/><path d="M758,100L568,285L800,298Z" fill="#f0f0f0" stroke="#f0f0f0" stroke-width="1.51"/><path d="M771,598L1012,518L956,321Z" fill="#e7e7e7" stroke="#e7e7e7" stroke-width="1.51"/><path d="M956,321L1105,530L1212,249Z" fill="#e7e7e7" stroke="#e7e7e7" stroke-width="1.51"/><path d="M771,598L956,321L800,298Z" fill="#ebebeb" stroke="#ebebeb" stroke-width="1.51"/><path d="M980,84L968,-150L758,100Z" fill="#f2f2f2" stroke="#f2f2f2" stroke-width="1.51"/><path d="M758,100L453,212L568,285Z" fill="#f3f3f3" stroke="#f3f3f3" stroke-width="1.51"/><path d="M1104,-113L968,-150L980,84Z" fill="#f0f0f0" stroke="#f0f0f0" stroke-width="1.51"/><path d="M1223,205L1104,-113L980,84Z" fill="#ededed" stroke="#ededed" stroke-width="1.51"/><path d="M1223,205L1271,189L1104,-113Z" fill="#ebebeb" stroke="#ebebeb" stroke-width="1.51"/><path d="M1212,249L1271,189L1223,205Z" fill="#e7e7e7" stroke="#e7e7e7" stroke-width="1.51"/><path d="M1304,355L1271,189L1212,249Z" fill="#e6e6e6" stroke="#e6e6e6" stroke-width="1.51"/><path d="M968,-150L726,-152L758,100Z" fill="#f3f3f3" stroke="#f3f3f3" stroke-width="1.51"/><path d="M1012,518L1105,530L956,321Z" fill="#e6e6e6" stroke="#e6e6e6" stroke-width="1.51"/><path d="M568,285L771,598L800,298Z" fill="#ededed" stroke="#ededed" stroke-width="1.51"/><path d="M1012,518L1180,689L1105,530Z" fill="#e1e1e1" stroke="#e1e1e1" stroke-width="1.51"/><path d="M1105,530L1304,355L1212,249Z" fill="#e4e4e4" stroke="#e4e4e4" stroke-width="1.51"/><path d="M568,285L589,616L771,598Z" fill="#ebebeb" stroke="#ebebeb" stroke-width="1.51"/><path d="M423,-11L453,212L758,100Z" fill="#f6f6f6" stroke="#f6f6f6" stroke-width="1.51"/><path d="M968,-150L975,-267L726,-152Z" fill="#f2f2f2" stroke="#f2f2f2" stroke-width="1.51"/><path d="M1121,-272L975,-267L968,-150Z" fill="#f0f0f0" stroke="#f0f0f0" stroke-width="1.51"/><path d="M726,-152L423,-11L758,100Z" fill="#f6f6f6" stroke="#f6f6f6" stroke-width="1.51"/><path d="M1104,-113L1121,-272L968,-150Z" fill="#efefef" stroke="#efefef" stroke-width="1.51"/><path d="M1257,-207L1121,-272L1104,-113Z" fill="#ededed" stroke="#ededed" stroke-width="1.51"/><path d="M375,649L589,616L568,285Z" fill="#ececec" stroke="#ececec" stroke-width="1.51"/><path d="M1423,-66L1104,-113L1271,189Z" fill="#ebebeb" stroke="#ebebeb" stroke-width="1.51"/><path d="M1423,-66L1257,-207L1104,-113Z" fill="#ebebeb" stroke="#ebebeb" stroke-width="1.51"/><path d="M726,-152L448,-190L423,-11Z" fill="#f8f8f8" stroke="#f8f8f8" stroke-width="1.51"/><path d="M975,-267L752,-354L726,-152Z" fill="#f3f3f3" stroke="#f3f3f3" stroke-width="1.51"/><path d="M1121,-272L752,-354L975,-267Z" fill="#f1f1f1" stroke="#f1f1f1" stroke-width="1.51"/><path d="M1105,530L1336,556L1304,355Z" fill="#e1e1e1" stroke="#e1e1e1" stroke-width="1.51"/><path d="M1304,355L1461,307L1271,189Z" fill="#e4e4e4" stroke="#e4e4e4" stroke-width="1.51"/><path d="M1180,689L1336,556L1105,530Z" fill="#dfdfdf" stroke="#dfdfdf" stroke-width="1.51"/><path d="M1180,689L1012,518L844,815Z" fill="#e0e0e0" stroke="#e0e0e0" stroke-width="1.51"/><path d="M844,815L1012,518L771,598Z" fill="#e3e3e3" stroke="#e3e3e3" stroke-width="1.51"/><path d="M1336,556L1461,307L1304,355Z" fill="#e1e1e1" stroke="#e1e1e1" stroke-width="1.51"/><path d="M1503,31L1423,-66L1271,189Z" fill="#e8e8e8" stroke="#e8e8e8" stroke-width="1.51"/><path d="M752,-354L448,-190L726,-152Z" fill="#f6f6f6" stroke="#f6f6f6" stroke-width="1.51"/><path d="M589,616L819,812L771,598Z" fill="#e5e5e5" stroke="#e5e5e5" stroke-width="1.51"/><path d="M819,812L844,815L771,598Z" fill="#e2e2e2" stroke="#e2e2e2" stroke-width="1.51"/><path d="M1461,307L1503,31L1271,189Z" fill="#e5e5e5" stroke="#e5e5e5" stroke-width="1.51"/><path d="M423,-11L262,144L453,212Z" fill="#f7f7f7" stroke="#f7f7f7" stroke-width="1.51"/><path d="M453,212L251,326L568,285Z" fill="#f3f3f3" stroke="#f3f3f3" stroke-width="1.51"/><path d="M220,38L262,144L423,-11Z" fill="#fafafa" stroke="#fafafa" stroke-width="1.51"/><path d="M262,144L251,326L453,212Z" fill="#f5f5f5" stroke="#f5f5f5" stroke-width="1.51"/><path d="M1634,-79L1461,-194L1423,-66Z" fill="#e8e8e8" stroke="#e8e8e8" stroke-width="1.51"/><path d="M1423,-66L1461,-194L1257,-207Z" fill="#e9e9e9" stroke="#e9e9e9" stroke-width="1.51"/><path d="M1257,-207L1461,-194L1121,-272Z" fill="#ebebeb" stroke="#ebebeb" stroke-width="1.51"/><path d="M589,616L665,915L819,812Z" fill="#e3e3e3" stroke="#e3e3e3" stroke-width="1.51"/><path d="M251,326L375,649L568,285Z" fill="#f0f0f0" stroke="#f0f0f0" stroke-width="1.51"/><path d="M262,144L194,281L251,326Z" fill="#f6f6f6" stroke="#f6f6f6" stroke-width="1.51"/><path d="M161,-81L220,38L423,-11Z" fill="#fbfbfb" stroke="#fbfbfb" stroke-width="1.51"/><path d="M41,580L205,733L375,649Z" fill="#ededed" stroke="#ededed" stroke-width="1.51"/><path d="M94,66L194,281L262,144Z" fill="#f9f9f9" stroke="#f9f9f9" stroke-width="1.51"/><path d="M1503,31L1634,-79L1423,-66Z" fill="#e8e8e8" stroke="#e8e8e8" stroke-width="1.51"/><path d="M1461,307L1611,188L1503,31Z" fill="#e5e5e5" stroke="#e5e5e5" stroke-width="1.51"/><path d="M1662,310L1611,188L1461,307Z" fill="#e3e3e3" stroke="#e3e3e3" stroke-width="1.51"/><path d="M448,-190L292,-225L423,-11Z" fill="#fafafa" stroke="#fafafa" stroke-width="1.51"/><path d="M205,-331L292,-225L448,-190Z" fill="#fbfbfb" stroke="#fbfbfb" stroke-width="1.51"/><path d="M375,649L395,753L589,616Z" fill="#e9e9e9" stroke="#e9e9e9" stroke-width="1.51"/><path d="M205,733L395,753L375,649Z" fill="#e9e9e9" stroke="#e9e9e9" stroke-width="1.51"/><path d="M395,753L475,818L589,616Z" fill="#e7e7e7" stroke="#e7e7e7" stroke-width="1.51"/><path d="M819,812L876,959L844,815Z" fill="#dddddd" stroke="#dddddd" stroke-width="1.51"/><path d="M576,901L665,915L589,616Z" fill="#e3e3e3" stroke="#e3e3e3" stroke-width="1.51"/><path d="M844,815L876,959L1180,689Z" fill="#dddddd" stroke="#dddddd" stroke-width="1.51"/><path d="M665,915L876,959L819,812Z" fill="#dedede" stroke="#dedede" stroke-width="1.51"/><path d="M1595,563L1461,307L1336,556Z" fill="#dedede" stroke="#dedede" stroke-width="1.51"/><path d="M866,1251L1041,1054L876,959Z" fill="#dbdbdb" stroke="#dbdbdb" stroke-width="1.51"/><path d="M475,818L576,901L589,616Z" fill="#e5e5e5" stroke="#e5e5e5" stroke-width="1.51"/><path d="M240,923L576,901L475,818Z" fill="#e3e3e3" stroke="#e3e3e3" stroke-width="1.51"/><path d="M1663,506L1662,310L1461,307Z" fill="#e0e0e0" stroke="#e0e0e0" stroke-width="1.51"/><path d="M1611,188L1634,-79L1503,31Z" fill="#e7e7e7" stroke="#e7e7e7" stroke-width="1.51"/><path d="M1428,776L1336,556L1180,689Z" fill="#dadada" stroke="#dadada" stroke-width="1.51"/><path d="M220,38L94,66L262,144Z" fill="#fafafa" stroke="#fafafa" stroke-width="1.51"/><path d="M292,-225L161,-81L423,-11Z" fill="#fbfbfb" stroke="#fbfbfb" stroke-width="1.51"/><path d="M1728,175L1634,-79L1611,188Z" fill="#e6e6e6" stroke="#e6e6e6" stroke-width="1.51"/><path d="M1392,827L1428,776L1180,689Z" fill="#d8d8d8" stroke="#d8d8d8" stroke-width="1.51"/><path d="M1428,776L1595,563L1336,556Z" fill="#d9d9d9" stroke="#d9d9d9" stroke-width="1.51"/><path d="M1704,691L1663,506L1595,563Z" fill="#dbdbdb" stroke="#dbdbdb" stroke-width="1.51"/><path d="M1094,1064L1392,827L1180,689Z" fill="#d7d7d7" stroke="#d7d7d7" stroke-width="1.51"/><path d="M161,-81L94,66L220,38Z" fill="#fdfdfd" stroke="#fdfdfd" stroke-width="1.51"/><path d="M41,580L375,649L251,326Z" fill="#f0f0f0" stroke="#f0f0f0" stroke-width="1.51"/><path d="M1595,563L1663,506L1461,307Z" fill="#dedede" stroke="#dedede" stroke-width="1.51"/><path d="M1704,691L1595,563L1428,776Z" fill="#d8d8d8" stroke="#d8d8d8" stroke-width="1.51"/><path d="M1837,284L1728,175L1662,310Z" fill="#e3e3e3" stroke="#e3e3e3" stroke-width="1.51"/><path d="M1662,310L1728,175L1611,188Z" fill="#e3e3e3" stroke="#e3e3e3" stroke-width="1.51"/><path d="M292,-225L205,-331L161,-81Z" fill="#fcfcfc" stroke="#fcfcfc" stroke-width="1.51"/><path d="M-155,-87L7,200L94,66Z" fill="#fdfdfd" stroke="#fdfdfd" stroke-width="1.51"/><path d="M752,-354L205,-331L448,-190Z" fill="#f9f9f9" stroke="#f9f9f9" stroke-width="1.51"/><path d="M876,959L1041,1054L1180,689Z" fill="#d9d9d9" stroke="#d9d9d9" stroke-width="1.51"/><path d="M762,1219L876,959L665,915Z" fill="#dedede" stroke="#dedede" stroke-width="1.51"/><path d="M7,451L251,326L194,281Z" fill="#f5f5f5" stroke="#f5f5f5" stroke-width="1.51"/><path d="M395,753L240,923L475,818Z" fill="#e5e5e5" stroke="#e5e5e5" stroke-width="1.51"/><path d="M94,66L7,200L194,281Z" fill="#f9f9f9" stroke="#f9f9f9" stroke-width="1.51"/><path d="M-147,255L7,200L-222,180Z" fill="#fafafa" stroke="#fafafa" stroke-width="1.51"/><path d="M1041,1054L1094,1064L1180,689Z" fill="#d8d8d8" stroke="#d8d8d8" stroke-width="1.51"/><path d="M7,200L7,451L194,281Z" fill="#f7f7f7" stroke="#f7f7f7" stroke-width="1.51"/><path d="M1392,827L1495,972L1428,776Z" fill="#d3d3d3" stroke="#d3d3d3" stroke-width="1.51"/><path d="M1094,1064L1422,956L1392,827Z" fill="#d4d4d4" stroke="#d4d4d4" stroke-width="1.51"/><path d="M7,451L41,580L251,326Z" fill="#f4f4f4" stroke="#f4f4f4" stroke-width="1.51"/><path d="M1663,506L1837,284L1662,310Z" fill="#e0e0e0" stroke="#e0e0e0" stroke-width="1.51"/><path d="M1911,-29L1734,-243L1634,-79Z" fill="#e8e8e8" stroke="#e8e8e8" stroke-width="1.51"/><path d="M1936,623L1837,284L1663,506Z" fill="#dedede" stroke="#dedede" stroke-width="1.51"/><path d="M1911,-29L1634,-79L1728,175Z" fill="#e8e8e8" stroke="#e8e8e8" stroke-width="1.51"/><path d="M1634,-79L1734,-243L1461,-194Z" fill="#e8e8e8" stroke="#e8e8e8" stroke-width="1.51"/><path d="M1461,-194L1839,-346L1121,-272Z" fill="#e8e8e8" stroke="#e8e8e8" stroke-width="1.51"/><path d="M1121,-272L1839,-346L752,-354Z" fill="#ececec" stroke="#ececec" stroke-width="1.51"/><path d="M1495,972L1704,691L1428,776Z" fill="#d4d4d4" stroke="#d4d4d4" stroke-width="1.51"/><path d="M205,733L240,923L395,753Z" fill="#e8e8e8" stroke="#e8e8e8" stroke-width="1.51"/><path d="M444,1216L762,1219L665,915Z" fill="#e0e0e0" stroke="#e0e0e0" stroke-width="1.51"/><path d="M1041,1054L866,1251L1094,1064Z" fill="#dadada" stroke="#dadada" stroke-width="1.51"/><path d="M95,913L240,923L205,733Z" fill="#e7e7e7" stroke="#e7e7e7" stroke-width="1.51"/><path d="M1422,956L1495,972L1392,827Z" fill="#d2d2d2" stroke="#d2d2d2" stroke-width="1.51"/><path d="M1397,1084L1495,972L1422,956Z" fill="#d2d2d2" stroke="#d2d2d2" stroke-width="1.51"/><path d="M1094,1064L1397,1084L1422,956Z" fill="#d4d4d4" stroke="#d4d4d4" stroke-width="1.51"/><path d="M1094,1064L1456,1131L1397,1084Z" fill="#d4d4d4" stroke="#d4d4d4" stroke-width="1.51"/><path d="M444,1216L665,915L576,901Z" fill="#e1e1e1" stroke="#e1e1e1" stroke-width="1.51"/><path d="M2007,74L1911,-29L1728,175Z" fill="#e7e7e7" stroke="#e7e7e7" stroke-width="1.51"/><path d="M-155,-87L94,66L161,-81Z" fill="#fefefe" stroke="#fefefe" stroke-width="1.51"/><path d="M7,200L-147,255L7,451Z" fill="#f8f8f8" stroke="#f8f8f8" stroke-width="1.51"/><path d="M7,451L-155,685L41,580Z" fill="#f2f2f2" stroke="#f2f2f2" stroke-width="1.51"/><path d="M762,1219L866,1251L876,959Z" fill="#dddddd" stroke="#dddddd" stroke-width="1.51"/><path d="M240,923L444,1216L576,901Z" fill="#e3e3e3" stroke="#e3e3e3" stroke-width="1.51"/><path d="M41,580L95,913L205,733Z" fill="#ebebeb" stroke="#ebebeb" stroke-width="1.51"/><path d="M3,925L95,913L41,580Z" fill="#eaeaea" stroke="#eaeaea" stroke-width="1.51"/><path d="M-87,-288L-155,-87L161,-81Z" fill="#ffffff" stroke="#ffffff" stroke-width="1.51"/><path d="M1911,-29L1839,-346L1734,-243Z" fill="#e8e8e8" stroke="#e8e8e8" stroke-width="1.51"/><path d="M1734,-243L1839,-346L1461,-194Z" fill="#e8e8e8" stroke="#e8e8e8" stroke-width="1.51"/><path d="M1397,1084L1456,1131L1495,972Z" fill="#d2d2d2" stroke="#d2d2d2" stroke-width="1.51"/><path d="M1895,820L1936,623L1704,691Z" fill="#d7d7d7" stroke="#d7d7d7" stroke-width="1.51"/><path d="M866,1251L1456,1131L1094,1064Z" fill="#d7d7d7" stroke="#d7d7d7" stroke-width="1.51"/><path d="M205,-331L-87,-288L161,-81Z" fill="#fefefe" stroke="#fefefe" stroke-width="1.51"/><path d="M413,1234L444,1216L240,923Z" fill="#e3e3e3" stroke="#e3e3e3" stroke-width="1.51"/><path d="M762,1219L413,1234L866,1251Z" fill="#dfdfdf" stroke="#dfdfdf" stroke-width="1.51"/><path d="M-155,-87L-222,180L7,200Z" fill="#fdfdfd" stroke="#fdfdfd" stroke-width="1.51"/><path d="M-155,685L3,925L41,580Z" fill="#ededed" stroke="#ededed" stroke-width="1.51"/><path d="M1911,-29L2007,74L1839,-346Z" fill="#e8e8e8" stroke="#e8e8e8" stroke-width="1.51"/><path d="M1837,284L2007,74L1728,175Z" fill="#e4e4e4" stroke="#e4e4e4" stroke-width="1.51"/><path d="M1936,623L2007,74L1837,284Z" fill="#e1e1e1" stroke="#e1e1e1" stroke-width="1.51"/><path d="M1704,691L1936,623L1663,506Z" fill="#dadada" stroke="#dadada" stroke-width="1.51"/><path d="M1795,889L1704,691L1495,972Z" fill="#d3d3d3" stroke="#d3d3d3" stroke-width="1.51"/><path d="M1864,939L1795,889L1731,1237Z" fill="#d2d2d2" stroke="#d2d2d2" stroke-width="1.51"/><path d="M82,1161L413,1234L240,923Z" fill="#e5e5e5" stroke="#e5e5e5" stroke-width="1.51"/><path d="M444,1216L413,1234L762,1219Z" fill="#e1e1e1" stroke="#e1e1e1" stroke-width="1.51"/><path d="M95,913L82,1161L240,923Z" fill="#e6e6e6" stroke="#e6e6e6" stroke-width="1.51"/><path d="M-155,685L7,451L-298,449Z" fill="#f3f3f3" stroke="#f3f3f3" stroke-width="1.51"/><path d="M-298,449L7,451L-147,255Z" fill="#f7f7f7" stroke="#f7f7f7" stroke-width="1.51"/><path d="M1864,939L1895,820L1795,889Z" fill="#d2d2d2" stroke="#d2d2d2" stroke-width="1.51"/><path d="M1795,889L1895,820L1704,691Z" fill="#d5d5d5" stroke="#d5d5d5" stroke-width="1.51"/><path d="M-299,-76L-298,449L-222,180Z" fill="#fbfbfb" stroke="#fbfbfb" stroke-width="1.51"/><path d="M-222,180L-298,449L-147,255Z" fill="#f9f9f9" stroke="#f9f9f9" stroke-width="1.51"/><path d="M1731,1237L1795,889L1495,972Z" fill="#d2d2d2" stroke="#d2d2d2" stroke-width="1.51"/><path d="M-155,-87L-299,-76L-222,180Z" fill="#ffffff" stroke="#ffffff" stroke-width="1.51"/><path d="M-350,-270L-299,-76L-155,-87Z" fill="#ffffff" stroke="#ffffff" stroke-width="1.51"/><path d="M-5,1127L82,1161L95,913Z" fill="#e7e7e7" stroke="#e7e7e7" stroke-width="1.51"/><path d="M-5,1127L95,913L3,925Z" fill="#e8e8e8" stroke="#e8e8e8" stroke-width="1.51"/><path d="M-244,750L3,925L-155,685Z" fill="#ebebeb" stroke="#ebebeb" stroke-width="1.51"/><path d="M-298,449L-316,554L-155,685Z" fill="#f2f2f2" stroke="#f2f2f2" stroke-width="1.51"/><path d="M-350,-270L-316,554L-298,449Z" fill="#fafafa" stroke="#fafafa" stroke-width="1.51"/><path d="M-316,554L-244,750L-155,685Z" fill="#efefef" stroke="#efefef" stroke-width="1.51"/><path d="M-349,1093L-5,1127L3,925Z" fill="#e8e8e8" stroke="#e8e8e8" stroke-width="1.51"/><path d="M-299,-76L-350,-270L-298,449Z" fill="#fefefe" stroke="#fefefe" stroke-width="1.51"/><path d="M-87,-288L-350,-270L-155,-87Z" fill="#ffffff" stroke="#ffffff" stroke-width="1.51"/><path d="M205,-331L-350,-270L-87,-288Z" fill="#ffffff" stroke="#ffffff" stroke-width="1.51"/><path d="M1456,1131L1731,1237L1495,972Z" fill="#d2d2d2" stroke="#d2d2d2" stroke-width="1.51"/><path d="M866,1251L1731,1237L1456,1131Z" fill="#d3d3d3" stroke="#d3d3d3" stroke-width="1.51"/><path d="M1731,1237L1921,1252L1864,939Z" fill="#d2d2d2" stroke="#d2d2d2" stroke-width="1.51"/><path d="M1864,939L1921,1252L1895,820Z" fill="#d2d2d2" stroke="#d2d2d2" stroke-width="1.51"/><path d="M1895,820L1921,1252L1936,623Z" fill="#d2d2d2" stroke="#d2d2d2" stroke-width="1.51"/><path d="M1936,623L1921,1252L2007,74Z" fill="#d9d9d9" stroke="#d9d9d9" stroke-width="1.51"/><path d="M866,1251L1921,1252L1731,1237Z" fill="#d2d2d2" stroke="#d2d2d2" stroke-width="1.51"/><path d="M-244,750L-374,1007L3,925Z" fill="#e8e8e8" stroke="#e8e8e8" stroke-width="1.51"/><path d="M-5,1127L-349,1093L82,1161Z" fill="#e8e8e8" stroke="#e8e8e8" stroke-width="1.51"/><path d="M-316,554L-374,1007L-244,750Z" fill="#ececec" stroke="#ececec" stroke-width="1.51"/><path d="M-350,-270L-374,1007L-316,554Z" fill="#f6f6f6" stroke="#f6f6f6" stroke-width="1.51"/><path d="M-374,1007L-349,1093L3,925Z" fill="#e8e8e8" stroke="#e8e8e8" stroke-width="1.51"/><path d="M82,1161L-349,1093L413,1234Z" fill="#e8e8e8" stroke="#e8e8e8" stroke-width="1.51"/></svg>