<svg xmlns="http://www.w3.org/2000/svg" width="900" height="1440"><path d="M420,887L423,947L536,853Z" fill="#ffb32c" stroke="#ffb32c" stroke-width="1.51"/><path d="M423,947L544,974L536,853Z" fill="#ffb52b" stroke="#ffb52b" stroke-width="1.51"/><path d="M544,974L618,888L536,853Z" fill="#ffb72a" stroke="#ffb72a" stroke-width="1.51"/><path d="M544,974L606,1012L618,888Z" fill="#ffb92a" stroke="#ffb92a" stroke-width="1.51"/><path d="M650,1090L606,1012L549,1145Z" fill="#ffbd28" stroke="#ffbd28" stroke-width="1.51"/><path d="M536,853L556,729L420,887Z" fill="#ffb32c" stroke="#ffb32c" stroke-width="1.51"/><path d="M648,753L556,729L536,853Z" fill="#ffb42b" stroke="#ffb42b" stroke-width="1.51"/><path d="M782,798L648,753L618,888Z" fill="#ffb92a" stroke="#ffb92a" stroke-width="1.51"/><path d="M618,888L648,753L536,853Z" fill="#ffb62a" stroke="#ffb62a" stroke-width="1.51"/><path d="M549,1145L606,1012L544,974Z" fill="#ffbb29" stroke="#ffbb29" stroke-width="1.51"/><path d="M821,965L782,798L618,888Z" fill="#ffbd28" stroke="#ffbd28" stroke-width="1.51"/><path d="M428,1152L549,1145L544,974Z" fill="#ffba29" stroke="#ffba29" stroke-width="1.51"/><path d="M420,887L263,993L423,947Z" fill="#ffb02c" stroke="#ffb02c" stroke-width="1.51"/><path d="M423,947L428,1152L544,974Z" fill="#ffb62b" stroke="#ffb62b" stroke-width="1.51"/><path d="M246,797L263,993L420,887Z" fill="#ffac2d" stroke="#ffac2d" stroke-width="1.51"/><path d="M293,1108L428,1152L423,947Z" fill="#ffb42b" stroke="#ffb42b" stroke-width="1.51"/><path d="M556,729L344,711L420,887Z" fill="#ffaf2d" stroke="#ffaf2d" stroke-width="1.51"/><path d="M344,711L246,797L420,887Z" fill="#ffab2e" stroke="#ffab2e" stroke-width="1.51"/><path d="M263,993L293,1108L423,947Z" fill="#ffb12c" stroke="#ffb12c" stroke-width="1.51"/><path d="M556,729L514,618L344,711Z" fill="#ffae2e" stroke="#ffae2e" stroke-width="1.51"/><path d="M666,606L514,618L556,729Z" fill="#ffb12c" stroke="#ffb12c" stroke-width="1.51"/><path d="M821,965L618,888L606,1012Z" fill="#ffbd28" stroke="#ffbd28" stroke-width="1.51"/><path d="M648,753L666,606L556,729Z" fill="#ffb42c" stroke="#ffb42c" stroke-width="1.51"/><path d="M344,711L208,744L246,797Z" fill="#ffa72f" stroke="#ffa72f" stroke-width="1.51"/><path d="M246,797L162,939L263,993Z" fill="#ffa92e" stroke="#ffa92e" stroke-width="1.51"/><path d="M302,577L208,744L344,711Z" fill="#ffa630" stroke="#ffa630" stroke-width="1.51"/><path d="M263,993L119,1134L293,1108Z" fill="#ffae2d" stroke="#ffae2d" stroke-width="1.51"/><path d="M93,871L162,939L246,797Z" fill="#ffa62f" stroke="#ffa62f" stroke-width="1.51"/><path d="M650,1090L821,965L606,1012Z" fill="#ffbf27" stroke="#ffbf27" stroke-width="1.51"/><path d="M428,1152L515,1284L549,1145Z" fill="#ffbc28" stroke="#ffbc28" stroke-width="1.51"/><path d="M305,1216L375,1239L428,1152Z" fill="#ffb72a" stroke="#ffb72a" stroke-width="1.51"/><path d="M305,1216L428,1152L293,1108Z" fill="#ffb52b" stroke="#ffb52b" stroke-width="1.51"/><path d="M782,798L772,706L648,753Z" fill="#ffb929" stroke="#ffb929" stroke-width="1.51"/><path d="M804,629L772,706L873,705Z" fill="#ffbb29" stroke="#ffbb29" stroke-width="1.51"/><path d="M772,706L666,606L648,753Z" fill="#ffb72a" stroke="#ffb72a" stroke-width="1.51"/><path d="M175,1247L305,1216L293,1108Z" fill="#ffb22c" stroke="#ffb22c" stroke-width="1.51"/><path d="M689,1288L748,1241L650,1090Z" fill="#ffc425" stroke="#ffc425" stroke-width="1.51"/><path d="M650,1090L824,1130L821,965Z" fill="#ffc326" stroke="#ffc326" stroke-width="1.51"/><path d="M375,1239L515,1284L428,1152Z" fill="#ffbb29" stroke="#ffbb29" stroke-width="1.51"/><path d="M514,618L429,540L344,711Z" fill="#ffaa2f" stroke="#ffaa2f" stroke-width="1.51"/><path d="M529,424L429,540L514,618Z" fill="#ffaa2e" stroke="#ffaa2e" stroke-width="1.51"/><path d="M429,540L302,577L344,711Z" fill="#ffa72f" stroke="#ffa72f" stroke-width="1.51"/><path d="M748,1241L824,1130L650,1090Z" fill="#ffc425" stroke="#ffc425" stroke-width="1.51"/><path d="M119,760L93,871L246,797Z" fill="#ffa430" stroke="#ffa430" stroke-width="1.51"/><path d="M162,939L119,1134L263,993Z" fill="#ffab2e" stroke="#ffab2e" stroke-width="1.51"/><path d="M119,760L246,797L208,744Z" fill="#ffa52f" stroke="#ffa52f" stroke-width="1.51"/><path d="M140,609L119,760L208,744Z" fill="#ffa230" stroke="#ffa230" stroke-width="1.51"/><path d="M689,1288L650,1090L549,1145Z" fill="#ffc026" stroke="#ffc026" stroke-width="1.51"/><path d="M666,606L621,462L514,618Z" fill="#ffaf2d" stroke="#ffaf2d" stroke-width="1.51"/><path d="M772,706L804,629L666,606Z" fill="#ffb72a" stroke="#ffb72a" stroke-width="1.51"/><path d="M873,705L772,706L782,798Z" fill="#ffbc28" stroke="#ffbc28" stroke-width="1.51"/><path d="M515,1284L689,1288L549,1145Z" fill="#ffc027" stroke="#ffc027" stroke-width="1.51"/><path d="M824,1130L857,1130L821,965Z" fill="#ffc624" stroke="#ffc624" stroke-width="1.51"/><path d="M935,830L873,705L782,798Z" fill="#ffbf27" stroke="#ffbf27" stroke-width="1.51"/><path d="M748,1241L857,1130L824,1130Z" fill="#ffc723" stroke="#ffc723" stroke-width="1.51"/><path d="M-5,1022L119,1134L162,939Z" fill="#ffa72f" stroke="#ffa72f" stroke-width="1.51"/><path d="M935,830L782,798L821,965Z" fill="#ffc127" stroke="#ffc127" stroke-width="1.51"/><path d="M943,934L935,830L821,965Z" fill="#ffc425" stroke="#ffc425" stroke-width="1.51"/><path d="M998,1010L943,934L821,965Z" fill="#ffc624" stroke="#ffc624" stroke-width="1.51"/><path d="M119,1134L175,1247L293,1108Z" fill="#ffaf2d" stroke="#ffaf2d" stroke-width="1.51"/><path d="M306,1373L335,1383L375,1239Z" fill="#ffb929" stroke="#ffb929" stroke-width="1.51"/><path d="M527,1409L631,1367L515,1284Z" fill="#ffc225" stroke="#ffc225" stroke-width="1.51"/><path d="M302,577L140,609L208,744Z" fill="#ffa230" stroke="#ffa230" stroke-width="1.51"/><path d="M-10,750L9,876L93,871Z" fill="#ff9f31" stroke="#ff9f31" stroke-width="1.51"/><path d="M247,440L140,609L302,577Z" fill="#ffa031" stroke="#ffa031" stroke-width="1.51"/><path d="M758,490L621,462L666,606Z" fill="#ffb12c" stroke="#ffb12c" stroke-width="1.51"/><path d="M429,540L341,452L302,577Z" fill="#ffa530" stroke="#ffa530" stroke-width="1.51"/><path d="M748,1241L934,1240L857,1130Z" fill="#ffc923" stroke="#ffc923" stroke-width="1.51"/><path d="M689,1288L776,1336L748,1241Z" fill="#ffc823" stroke="#ffc823" stroke-width="1.51"/><path d="M515,1284L631,1367L689,1288Z" fill="#ffc325" stroke="#ffc325" stroke-width="1.51"/><path d="M335,1383L515,1284L375,1239Z" fill="#ffbb28" stroke="#ffbb28" stroke-width="1.51"/><path d="M93,871L-5,1022L162,939Z" fill="#ffa52f" stroke="#ffa52f" stroke-width="1.51"/><path d="M-10,750L93,871L119,760Z" fill="#ffa031" stroke="#ffa031" stroke-width="1.51"/><path d="M529,424L341,452L429,540Z" fill="#ffa630" stroke="#ffa630" stroke-width="1.51"/><path d="M621,462L529,424L514,618Z" fill="#ffac2e" stroke="#ffac2e" stroke-width="1.51"/><path d="M306,1373L375,1239L305,1216Z" fill="#ffb72a" stroke="#ffb72a" stroke-width="1.51"/><path d="M175,1247L306,1373L305,1216Z" fill="#ffb42b" stroke="#ffb42b" stroke-width="1.51"/><path d="M335,1383L527,1409L515,1284Z" fill="#ffbe27" stroke="#ffbe27" stroke-width="1.51"/><path d="M804,629L758,490L666,606Z" fill="#ffb52b" stroke="#ffb52b" stroke-width="1.51"/><path d="M621,462L614,356L529,424Z" fill="#ffab2e" stroke="#ffab2e" stroke-width="1.51"/><path d="M896,513L758,490L804,629Z" fill="#ffb72a" stroke="#ffb72a" stroke-width="1.51"/><path d="M9,876L-5,1022L93,871Z" fill="#ffa230" stroke="#ffa230" stroke-width="1.51"/><path d="M-42,1227L96,1364L175,1247Z" fill="#ffad2d" stroke="#ffad2d" stroke-width="1.51"/><path d="M631,1367L776,1336L689,1288Z" fill="#ffc723" stroke="#ffc723" stroke-width="1.51"/><path d="M857,1130L998,1010L821,965Z" fill="#ffc723" stroke="#ffc723" stroke-width="1.51"/><path d="M767,1458L776,1336L631,1367Z" fill="#ffca22" stroke="#ffca22" stroke-width="1.51"/><path d="M1066,1102L998,1010L857,1130Z" fill="#ffcb21" stroke="#ffcb21" stroke-width="1.51"/><path d="M943,934L1081,857L935,830Z" fill="#ffc624" stroke="#ffc624" stroke-width="1.51"/><path d="M-5,1022L5,1113L119,1134Z" fill="#ffa72f" stroke="#ffa72f" stroke-width="1.51"/><path d="M143,1477L303,1456L306,1373Z" fill="#ffb829" stroke="#ffb829" stroke-width="1.51"/><path d="M9,876L-107,1029L-5,1022Z" fill="#ffa131" stroke="#ffa131" stroke-width="1.51"/><path d="M140,609L-10,750L119,760Z" fill="#ff9f31" stroke="#ff9f31" stroke-width="1.51"/><path d="M873,705L927,610L804,629Z" fill="#ffbc28" stroke="#ffbc28" stroke-width="1.51"/><path d="M1070,679L927,610L873,705Z" fill="#ffc026" stroke="#ffc026" stroke-width="1.51"/><path d="M1070,679L873,705L935,830Z" fill="#ffc226" stroke="#ffc226" stroke-width="1.51"/><path d="M341,452L247,440L302,577Z" fill="#ffa131" stroke="#ffa131" stroke-width="1.51"/><path d="M140,609L10,554L-10,750Z" fill="#ff9b32" stroke="#ff9b32" stroke-width="1.51"/><path d="M244,294L247,440L341,452Z" fill="#ff9e32" stroke="#ff9e32" stroke-width="1.51"/><path d="M776,1336L934,1240L748,1241Z" fill="#ffca22" stroke="#ffca22" stroke-width="1.51"/><path d="M758,490L614,356L621,462Z" fill="#ffae2d" stroke="#ffae2d" stroke-width="1.51"/><path d="M927,610L896,513L804,629Z" fill="#ffba28" stroke="#ffba28" stroke-width="1.51"/><path d="M529,424L403,347L341,452Z" fill="#ffa430" stroke="#ffa430" stroke-width="1.51"/><path d="M804,303L614,356L758,490Z" fill="#ffaf2d" stroke="#ffaf2d" stroke-width="1.51"/><path d="M513,279L403,347L529,424Z" fill="#ffa52f" stroke="#ffa52f" stroke-width="1.51"/><path d="M402,1547L517,1499L527,1409Z" fill="#ffc325" stroke="#ffc325" stroke-width="1.51"/><path d="M306,1373L303,1456L335,1383Z" fill="#ffba29" stroke="#ffba29" stroke-width="1.51"/><path d="M96,1364L306,1373L175,1247Z" fill="#ffb32b" stroke="#ffb32b" stroke-width="1.51"/><path d="M-10,750L-82,832L9,876Z" fill="#ff9d32" stroke="#ff9d32" stroke-width="1.51"/><path d="M-5,1022L-107,1029L5,1113Z" fill="#ffa330" stroke="#ffa330" stroke-width="1.51"/><path d="M-152,730L-82,832L-10,750Z" fill="#ff9932" stroke="#ff9932" stroke-width="1.51"/><path d="M527,1409L673,1509L631,1367Z" fill="#ffc624" stroke="#ffc624" stroke-width="1.51"/><path d="M776,1336L932,1344L934,1240Z" fill="#ffce20" stroke="#ffce20" stroke-width="1.51"/><path d="M402,1547L527,1409L335,1383Z" fill="#ffbf27" stroke="#ffbf27" stroke-width="1.51"/><path d="M1066,1102L1081,857L998,1010Z" fill="#ffcb21" stroke="#ffcb21" stroke-width="1.51"/><path d="M998,1010L1081,857L943,934Z" fill="#ffc922" stroke="#ffc922" stroke-width="1.51"/><path d="M927,610L1011,483L896,513Z" fill="#ffbc28" stroke="#ffbc28" stroke-width="1.51"/><path d="M-42,1227L175,1247L119,1134Z" fill="#ffac2e" stroke="#ffac2e" stroke-width="1.51"/><path d="M94,429L10,554L140,609Z" fill="#ff9932" stroke="#ff9932" stroke-width="1.51"/><path d="M94,429L140,609L247,440Z" fill="#ff9c32" stroke="#ff9c32" stroke-width="1.51"/><path d="M934,1240L1066,1102L857,1130Z" fill="#ffcc21" stroke="#ffcc21" stroke-width="1.51"/><path d="M5,1113L-42,1227L119,1134Z" fill="#ffa82f" stroke="#ffa82f" stroke-width="1.51"/><path d="M-82,832L-107,1029L9,876Z" fill="#ff9e31" stroke="#ff9e31" stroke-width="1.51"/><path d="M673,1509L767,1458L631,1367Z" fill="#ffca22" stroke="#ffca22" stroke-width="1.51"/><path d="M934,1240L1077,1197L1066,1102Z" fill="#ffd01e" stroke="#ffd01e" stroke-width="1.51"/><path d="M862,1459L932,1344L776,1336Z" fill="#ffce20" stroke="#ffce20" stroke-width="1.51"/><path d="M-104,1195L-42,1227L5,1113Z" fill="#ffa62f" stroke="#ffa62f" stroke-width="1.51"/><path d="M517,1499L673,1509L527,1409Z" fill="#ffc624" stroke="#ffc624" stroke-width="1.51"/><path d="M1081,857L1070,679L935,830Z" fill="#ffc624" stroke="#ffc624" stroke-width="1.51"/><path d="M130,344L94,429L247,440Z" fill="#ff9a33" stroke="#ff9a33" stroke-width="1.51"/><path d="M614,356L513,279L529,424Z" fill="#ffa82f" stroke="#ffa82f" stroke-width="1.51"/><path d="M403,347L244,294L341,452Z" fill="#ff9f31" stroke="#ff9f31" stroke-width="1.51"/><path d="M497,197L513,279L628,154Z" fill="#ffa430" stroke="#ffa430" stroke-width="1.51"/><path d="M303,1456L402,1547L335,1383Z" fill="#ffbc28" stroke="#ffbc28" stroke-width="1.51"/><path d="M517,1499L668,1639L673,1509Z" fill="#ffca22" stroke="#ffca22" stroke-width="1.51"/><path d="M366,1626L402,1547L303,1456Z" fill="#ffbf27" stroke="#ffbf27" stroke-width="1.51"/><path d="M1072,1382L1077,1197L934,1240Z" fill="#ffd21d" stroke="#ffd21d" stroke-width="1.51"/><path d="M1066,1102L1077,1197L1081,857Z" fill="#ffce1f" stroke="#ffce1f" stroke-width="1.51"/><path d="M-138,1116L-104,1195L5,1113Z" fill="#ffa430" stroke="#ffa430" stroke-width="1.51"/><path d="M-6,1463L143,1477L96,1364Z" fill="#ffb12c" stroke="#ffb12c" stroke-width="1.51"/><path d="M932,1344L1072,1382L934,1240Z" fill="#ffd11d" stroke="#ffd11d" stroke-width="1.51"/><path d="M767,1458L862,1459L776,1336Z" fill="#ffcd20" stroke="#ffcd20" stroke-width="1.51"/><path d="M734,1587L862,1459L767,1458Z" fill="#ffcf1f" stroke="#ffcf1f" stroke-width="1.51"/><path d="M-107,1029L-138,1116L5,1113Z" fill="#ffa230" stroke="#ffa230" stroke-width="1.51"/><path d="M-152,730L-138,1116L-107,1029Z" fill="#ff9d31" stroke="#ff9d31" stroke-width="1.51"/><path d="M-54,1323L96,1364L-42,1227Z" fill="#ffab2e" stroke="#ffab2e" stroke-width="1.51"/><path d="M96,1364L143,1477L306,1373Z" fill="#ffb52b" stroke="#ffb52b" stroke-width="1.51"/><path d="M243,210L244,294L403,347Z" fill="#ff9c32" stroke="#ff9c32" stroke-width="1.51"/><path d="M1070,679L1081,601L927,610Z" fill="#ffc226" stroke="#ffc226" stroke-width="1.51"/><path d="M896,513L863,340L758,490Z" fill="#ffb52b" stroke="#ffb52b" stroke-width="1.51"/><path d="M1081,857L1081,601L1070,679Z" fill="#ffc524" stroke="#ffc524" stroke-width="1.51"/><path d="M-82,832L-152,730L-107,1029Z" fill="#ff9b32" stroke="#ff9b32" stroke-width="1.51"/><path d="M10,554L-152,730L-10,750Z" fill="#ff9833" stroke="#ff9833" stroke-width="1.51"/><path d="M-186,567L-152,730L10,554Z" fill="#ff9434" stroke="#ff9434" stroke-width="1.51"/><path d="M94,429L-53,471L10,554Z" fill="#ff9633" stroke="#ff9633" stroke-width="1.51"/><path d="M244,294L130,344L247,440Z" fill="#ff9a32" stroke="#ff9a32" stroke-width="1.51"/><path d="M1081,601L1011,483L927,610Z" fill="#ffbf27" stroke="#ffbf27" stroke-width="1.51"/><path d="M-104,1195L-54,1323L-42,1227Z" fill="#ffa72f" stroke="#ffa72f" stroke-width="1.51"/><path d="M-135,1345L-54,1323L-104,1195Z" fill="#ffa72f" stroke="#ffa72f" stroke-width="1.51"/><path d="M1018,367L863,340L896,513Z" fill="#ffb82a" stroke="#ffb82a" stroke-width="1.51"/><path d="M863,340L804,303L758,490Z" fill="#ffb22c" stroke="#ffb22c" stroke-width="1.51"/><path d="M130,344L39,378L94,429Z" fill="#ff9633" stroke="#ff9633" stroke-width="1.51"/><path d="M-51,222L39,378L130,344Z" fill="#ff9234" stroke="#ff9234" stroke-width="1.51"/><path d="M39,378L-53,471L94,429Z" fill="#ff9533" stroke="#ff9533" stroke-width="1.51"/><path d="M366,1626L479,1624L402,1547Z" fill="#ffc325" stroke="#ffc325" stroke-width="1.51"/><path d="M402,1547L479,1624L517,1499Z" fill="#ffc425" stroke="#ffc425" stroke-width="1.51"/><path d="M673,1509L734,1587L767,1458Z" fill="#ffcd20" stroke="#ffcd20" stroke-width="1.51"/><path d="M668,1639L734,1587L673,1509Z" fill="#ffcd20" stroke="#ffcd20" stroke-width="1.51"/><path d="M513,279L497,197L403,347Z" fill="#ffa230" stroke="#ffa230" stroke-width="1.51"/><path d="M628,154L513,279L614,356Z" fill="#ffa72f" stroke="#ffa72f" stroke-width="1.51"/><path d="M216,1595L366,1626L303,1456Z" fill="#ffbd28" stroke="#ffbd28" stroke-width="1.51"/><path d="M143,1477L216,1595L303,1456Z" fill="#ffb929" stroke="#ffb929" stroke-width="1.51"/><path d="M137,1586L216,1595L143,1477Z" fill="#ffb82a" stroke="#ffb82a" stroke-width="1.51"/><path d="M-54,1323L-6,1463L96,1364Z" fill="#ffae2d" stroke="#ffae2d" stroke-width="1.51"/><path d="M-135,1345L-6,1463L-54,1323Z" fill="#ffaa2e" stroke="#ffaa2e" stroke-width="1.51"/><path d="M244,294L243,210L130,344Z" fill="#ff9833" stroke="#ff9833" stroke-width="1.51"/><path d="M411,155L243,210L403,347Z" fill="#ff9d32" stroke="#ff9d32" stroke-width="1.51"/><path d="M990,1481L932,1344L862,1459Z" fill="#ffd21d" stroke="#ffd21d" stroke-width="1.51"/><path d="M990,1481L1072,1382L932,1344Z" fill="#ffd41c" stroke="#ffd41c" stroke-width="1.51"/><path d="M479,1624L668,1639L517,1499Z" fill="#ffc823" stroke="#ffc823" stroke-width="1.51"/><path d="M879,1607L990,1481L862,1459Z" fill="#ffd41c" stroke="#ffd41c" stroke-width="1.51"/><path d="M604,1762L668,1639L479,1624Z" fill="#ffcb21" stroke="#ffcb21" stroke-width="1.51"/><path d="M879,1607L862,1459L734,1587Z" fill="#ffd11d" stroke="#ffd11d" stroke-width="1.51"/><path d="M419,115L411,155L497,197Z" fill="#ff9e31" stroke="#ff9e31" stroke-width="1.51"/><path d="M947,202L772,164L804,303Z" fill="#ffb02d" stroke="#ffb02d" stroke-width="1.51"/><path d="M1011,483L1018,367L896,513Z" fill="#ffbb28" stroke="#ffbb28" stroke-width="1.51"/><path d="M1081,601L1018,367L1011,483Z" fill="#ffbe28" stroke="#ffbe28" stroke-width="1.51"/><path d="M-6,1463L137,1586L143,1477Z" fill="#ffb42b" stroke="#ffb42b" stroke-width="1.51"/><path d="M536,1775L479,1624L412,1783Z" fill="#ffc723" stroke="#ffc723" stroke-width="1.51"/><path d="M-146,1539L-135,1345L-174,1631Z" fill="#ffaa2e" stroke="#ffaa2e" stroke-width="1.51"/><path d="M-138,1116L-135,1345L-104,1195Z" fill="#ffa430" stroke="#ffa430" stroke-width="1.51"/><path d="M-97,423L-186,567L-53,471Z" fill="#ff9034" stroke="#ff9034" stroke-width="1.51"/><path d="M-53,471L-186,567L10,554Z" fill="#ff9334" stroke="#ff9334" stroke-width="1.51"/><path d="M-152,730L-186,567L-138,1116Z" fill="#ff9833" stroke="#ff9833" stroke-width="1.51"/><path d="M628,154L614,356L804,303Z" fill="#ffaa2e" stroke="#ffaa2e" stroke-width="1.51"/><path d="M497,197L411,155L403,347Z" fill="#ffa031" stroke="#ffa031" stroke-width="1.51"/><path d="M-91,379L-97,423L-53,471Z" fill="#ff9034" stroke="#ff9034" stroke-width="1.51"/><path d="M-91,379L-53,471L39,378Z" fill="#ff9234" stroke="#ff9234" stroke-width="1.51"/><path d="M772,164L628,154L804,303Z" fill="#ffac2e" stroke="#ffac2e" stroke-width="1.51"/><path d="M-97,423L-91,379L-186,567Z" fill="#ff8f34" stroke="#ff8f34" stroke-width="1.51"/><path d="M-51,222L-91,379L39,378Z" fill="#ff8f35" stroke="#ff8f35" stroke-width="1.51"/><path d="M770,1793L879,1607L734,1587Z" fill="#ffd31d" stroke="#ffd31d" stroke-width="1.51"/><path d="M947,202L804,303L863,340Z" fill="#ffb32c" stroke="#ffb32c" stroke-width="1.51"/><path d="M243,210L76,150L130,344Z" fill="#ff9434" stroke="#ff9434" stroke-width="1.51"/><path d="M411,155L288,42L243,210Z" fill="#ff9933" stroke="#ff9933" stroke-width="1.51"/><path d="M491,30L419,115L497,197Z" fill="#ff9e31" stroke="#ff9e31" stroke-width="1.51"/><path d="M491,30L497,197L628,154Z" fill="#ffa131" stroke="#ffa131" stroke-width="1.51"/><path d="M1018,367L947,202L863,340Z" fill="#ffb62b" stroke="#ffb62b" stroke-width="1.51"/><path d="M668,1639L770,1793L734,1587Z" fill="#ffd11e" stroke="#ffd11e" stroke-width="1.51"/><path d="M536,1775L604,1762L479,1624Z" fill="#ffca22" stroke="#ffca22" stroke-width="1.51"/><path d="M479,1624L366,1626L412,1783Z" fill="#ffc524" stroke="#ffc524" stroke-width="1.51"/><path d="M789,86L678,73L772,164Z" fill="#ffa92f" stroke="#ffa92f" stroke-width="1.51"/><path d="M772,164L678,73L628,154Z" fill="#ffa72f" stroke="#ffa72f" stroke-width="1.51"/><path d="M412,1783L366,1626L216,1785Z" fill="#ffc226" stroke="#ffc226" stroke-width="1.51"/><path d="M879,1607L1025,1591L990,1481Z" fill="#ffd71a" stroke="#ffd71a" stroke-width="1.51"/><path d="M990,1481L1025,1591L1072,1382Z" fill="#ffd819" stroke="#ffd819" stroke-width="1.51"/><path d="M926,1772L1025,1591L879,1607Z" fill="#ffd818" stroke="#ffd818" stroke-width="1.51"/><path d="M947,202L789,86L772,164Z" fill="#ffae2d" stroke="#ffae2d" stroke-width="1.51"/><path d="M1018,367L1045,246L947,202Z" fill="#ffb72a" stroke="#ffb72a" stroke-width="1.51"/><path d="M1081,601L1045,246L1018,367Z" fill="#ffbd28" stroke="#ffbd28" stroke-width="1.51"/><path d="M108,106L76,150L243,210Z" fill="#ff9234" stroke="#ff9234" stroke-width="1.51"/><path d="M108,106L243,210L288,42Z" fill="#ff9434" stroke="#ff9434" stroke-width="1.51"/><path d="M216,1785L366,1626L216,1595Z" fill="#ffbf27" stroke="#ffbf27" stroke-width="1.51"/><path d="M137,1586L113,1705L216,1595Z" fill="#ffba29" stroke="#ffba29" stroke-width="1.51"/><path d="M-1,1660L113,1705L137,1586Z" fill="#ffb72a" stroke="#ffb72a" stroke-width="1.51"/><path d="M-1,1660L137,1586L-6,1463Z" fill="#ffb42b" stroke="#ffb42b" stroke-width="1.51"/><path d="M-91,379L-92,242L-186,567Z" fill="#ff8d35" stroke="#ff8d35" stroke-width="1.51"/><path d="M76,150L-51,222L130,344Z" fill="#ff9035" stroke="#ff9035" stroke-width="1.51"/><path d="M768,-38L789,86L935,-17Z" fill="#ffaa2e" stroke="#ffaa2e" stroke-width="1.51"/><path d="M678,73L491,30L628,154Z" fill="#ffa330" stroke="#ffa330" stroke-width="1.51"/><path d="M637,-35L491,30L678,73Z" fill="#ffa131" stroke="#ffa131" stroke-width="1.51"/><path d="M-51,222L-92,242L-91,379Z" fill="#ff8c35" stroke="#ff8c35" stroke-width="1.51"/><path d="M-24,118L-92,242L-51,222Z" fill="#ff8b35" stroke="#ff8b35" stroke-width="1.51"/><path d="M-135,1345L-146,1539L-6,1463Z" fill="#ffab2e" stroke="#ffab2e" stroke-width="1.51"/><path d="M-174,1631L-135,1345L-138,1116Z" fill="#ffa72f" stroke="#ffa72f" stroke-width="1.51"/><path d="M76,150L-24,118L-51,222Z" fill="#ff8c35" stroke="#ff8c35" stroke-width="1.51"/><path d="M288,42L411,155L419,115Z" fill="#ff9a32" stroke="#ff9a32" stroke-width="1.51"/><path d="M-146,1539L-1,1660L-6,1463Z" fill="#ffaf2d" stroke="#ffaf2d" stroke-width="1.51"/><path d="M491,30L288,42L419,115Z" fill="#ff9a32" stroke="#ff9a32" stroke-width="1.51"/><path d="M113,1705L216,1785L216,1595Z" fill="#ffbc28" stroke="#ffbc28" stroke-width="1.51"/><path d="M-45,1780L216,1785L113,1705Z" fill="#ffb929" stroke="#ffb929" stroke-width="1.51"/><path d="M216,1785L770,1793L412,1783Z" fill="#ffc723" stroke="#ffc723" stroke-width="1.51"/><path d="M412,1783L770,1793L536,1775Z" fill="#ffcb21" stroke="#ffcb21" stroke-width="1.51"/><path d="M536,1775L770,1793L604,1762Z" fill="#ffce20" stroke="#ffce20" stroke-width="1.51"/><path d="M604,1762L770,1793L668,1639Z" fill="#ffcf1f" stroke="#ffcf1f" stroke-width="1.51"/><path d="M-21,-80L-24,118L108,106Z" fill="#ff8a35" stroke="#ff8a35" stroke-width="1.51"/><path d="M108,106L-24,118L76,150Z" fill="#ff8d35" stroke="#ff8d35" stroke-width="1.51"/><path d="M491,30L341,-109L288,42Z" fill="#ff9633" stroke="#ff9633" stroke-width="1.51"/><path d="M768,-38L637,-35L678,73Z" fill="#ffa430" stroke="#ffa430" stroke-width="1.51"/><path d="M768,-38L678,73L789,86Z" fill="#ffa72f" stroke="#ffa72f" stroke-width="1.51"/><path d="M770,1793L926,1772L879,1607Z" fill="#ffd61a" stroke="#ffd61a" stroke-width="1.51"/><path d="M-1,1660L-45,1780L113,1705Z" fill="#ffb62a" stroke="#ffb62a" stroke-width="1.51"/><path d="M-146,1539L-174,1631L-1,1660Z" fill="#ffaf2d" stroke="#ffaf2d" stroke-width="1.51"/><path d="M-186,567L-174,1631L-138,1116Z" fill="#ff9f31" stroke="#ff9f31" stroke-width="1.51"/><path d="M637,-35L526,-69L491,30Z" fill="#ff9e31" stroke="#ff9e31" stroke-width="1.51"/><path d="M288,42L214,-71L108,106Z" fill="#ff9134" stroke="#ff9134" stroke-width="1.51"/><path d="M637,-35L670,-186L526,-69Z" fill="#ff9e31" stroke="#ff9e31" stroke-width="1.51"/><path d="M946,26L789,86L947,202Z" fill="#ffaf2d" stroke="#ffaf2d" stroke-width="1.51"/><path d="M993,40L946,26L947,202Z" fill="#ffb12c" stroke="#ffb12c" stroke-width="1.51"/><path d="M770,1793L997,1776L926,1772Z" fill="#ffd819" stroke="#ffd819" stroke-width="1.51"/><path d="M926,1772L997,1776L1025,1591Z" fill="#ffdb16" stroke="#ffdb16" stroke-width="1.51"/><path d="M1025,1591L997,1776L1072,1382Z" fill="#ffda17" stroke="#ffda17" stroke-width="1.51"/><path d="M1045,246L993,40L947,202Z" fill="#ffb42b" stroke="#ffb42b" stroke-width="1.51"/><path d="M946,26L935,-17L789,86Z" fill="#ffad2e" stroke="#ffad2e" stroke-width="1.51"/><path d="M-152,1728L-45,1780L-1,1660Z" fill="#ffb32b" stroke="#ffb32b" stroke-width="1.51"/><path d="M341,-109L214,-71L288,42Z" fill="#ff9234" stroke="#ff9234" stroke-width="1.51"/><path d="M993,40L935,-17L946,26Z" fill="#ffaf2d" stroke="#ffaf2d" stroke-width="1.51"/><path d="M342,-171L341,-109L473,-218Z" fill="#ff9334" stroke="#ff9334" stroke-width="1.51"/><path d="M341,-109L526,-69L473,-218Z" fill="#ff9633" stroke="#ff9633" stroke-width="1.51"/><path d="M526,-69L341,-109L491,30Z" fill="#ff9932" stroke="#ff9932" stroke-width="1.51"/><path d="M-174,1631L-152,1728L-1,1660Z" fill="#ffb02c" stroke="#ffb02c" stroke-width="1.51"/><path d="M216,-225L164,-76L214,-71Z" fill="#ff8c35" stroke="#ff8c35" stroke-width="1.51"/><path d="M214,-71L164,-76L108,106Z" fill="#ff8e35" stroke="#ff8e35" stroke-width="1.51"/><path d="M-21,-80L-155,32L-24,118Z" fill="#ff8536" stroke="#ff8536" stroke-width="1.51"/><path d="M-24,118L-155,32L-92,242Z" fill="#ff8736" stroke="#ff8736" stroke-width="1.51"/><path d="M-92,242L-155,32L-186,567Z" fill="#ff8935" stroke="#ff8935" stroke-width="1.51"/><path d="M164,-76L-21,-80L108,106Z" fill="#ff8b35" stroke="#ff8b35" stroke-width="1.51"/><path d="M341,-109L342,-171L214,-71Z" fill="#ff9034" stroke="#ff9034" stroke-width="1.51"/><path d="M670,-186L637,-35L768,-38Z" fill="#ffa230" stroke="#ffa230" stroke-width="1.51"/><path d="M722,-219L670,-186L768,-38Z" fill="#ffa130" stroke="#ffa130" stroke-width="1.51"/><path d="M35,-188L-21,-80L164,-76Z" fill="#ff8736" stroke="#ff8736" stroke-width="1.51"/><path d="M904,-206L722,-219L768,-38Z" fill="#ffa430" stroke="#ffa430" stroke-width="1.51"/><path d="M993,40L1045,-71L935,-17Z" fill="#ffaf2c" stroke="#ffaf2c" stroke-width="1.51"/><path d="M1045,246L1045,-71L993,40Z" fill="#ffb32b" stroke="#ffb32b" stroke-width="1.51"/><path d="M1081,601L1045,-71L1045,246Z" fill="#ffb929" stroke="#ffb929" stroke-width="1.51"/><path d="M670,-186L473,-218L526,-69Z" fill="#ff9b32" stroke="#ff9b32" stroke-width="1.51"/><path d="M342,-171L216,-225L214,-71Z" fill="#ff8e34" stroke="#ff8e34" stroke-width="1.51"/><path d="M670,-186L722,-219L473,-218Z" fill="#ff9c32" stroke="#ff9c32" stroke-width="1.51"/><path d="M904,-206L768,-38L935,-17Z" fill="#ffa92f" stroke="#ffa92f" stroke-width="1.51"/><path d="M722,-219L216,-225L473,-218Z" fill="#ff9533" stroke="#ff9533" stroke-width="1.51"/><path d="M473,-218L216,-225L342,-171Z" fill="#ff9035" stroke="#ff9035" stroke-width="1.51"/><path d="M216,-225L100,-193L164,-76Z" fill="#ff8935" stroke="#ff8935" stroke-width="1.51"/><path d="M-21,-80L-157,-102L-155,32Z" fill="#ff8137" stroke="#ff8137" stroke-width="1.51"/><path d="M216,-225L35,-188L100,-193Z" fill="#ff8636" stroke="#ff8636" stroke-width="1.51"/><path d="M100,-193L35,-188L164,-76Z" fill="#ff8736" stroke="#ff8736" stroke-width="1.51"/><path d="M1045,-71L904,-206L935,-17Z" fill="#ffac2e" stroke="#ffac2e" stroke-width="1.51"/><path d="M-155,32L-157,-102L-186,567Z" fill="#ff8536" stroke="#ff8536" stroke-width="1.51"/><path d="M-129,-148L-157,-102L-21,-80Z" fill="#ff8037" stroke="#ff8037" stroke-width="1.51"/><path d="M35,-188L-129,-148L-21,-80Z" fill="#ff8237" stroke="#ff8237" stroke-width="1.51"/><path d="M1045,-71L1019,-204L904,-206Z" fill="#ffac2d" stroke="#ffac2d" stroke-width="1.51"/><path d="M904,-206L1019,-204L722,-219Z" fill="#ffa62f" stroke="#ffa62f" stroke-width="1.51"/></svg>