<svg xmlns="http://www.w3.org/2000/svg" width="900" height="1440"><path d="M556,663L646,676L692,487Z" fill="#ffb626" stroke="#ffb626" stroke-width="1.51"/><path d="M692,487L511,522L556,663Z" fill="#ffb227" stroke="#ffb227" stroke-width="1.51"/><path d="M646,676L758,673L692,487Z" fill="#ffba26" stroke="#ffba26" stroke-width="1.51"/><path d="M692,487L628,366L511,522Z" fill="#ffaf27" stroke="#ffaf27" stroke-width="1.51"/><path d="M511,522L404,586L556,663Z" fill="#ffae27" stroke="#ffae27" stroke-width="1.51"/><path d="M439,447L404,586L511,522Z" fill="#ffa928" stroke="#ffa928" stroke-width="1.51"/><path d="M692,487L762,412L628,366Z" fill="#ffb226" stroke="#ffb226" stroke-width="1.51"/><path d="M835,448L762,412L692,487Z" fill="#ffb726" stroke="#ffb726" stroke-width="1.51"/><path d="M628,366L439,447L511,522Z" fill="#ffaa27" stroke="#ffaa27" stroke-width="1.51"/><path d="M758,673L835,448L692,487Z" fill="#ffba26" stroke="#ffba26" stroke-width="1.51"/><path d="M439,447L261,540L404,586Z" fill="#ffa428" stroke="#ffa428" stroke-width="1.51"/><path d="M490,323L421,398L439,447Z" fill="#ffa428" stroke="#ffa428" stroke-width="1.51"/><path d="M628,366L490,323L439,447Z" fill="#ffa728" stroke="#ffa728" stroke-width="1.51"/><path d="M646,676L717,848L758,673Z" fill="#ffbf26" stroke="#ffbf26" stroke-width="1.51"/><path d="M758,673L940,555L835,448Z" fill="#ffc026" stroke="#ffc026" stroke-width="1.51"/><path d="M481,844L717,848L646,676Z" fill="#ffbc26" stroke="#ffbc26" stroke-width="1.51"/><path d="M481,844L646,676L556,663Z" fill="#ffb727" stroke="#ffb727" stroke-width="1.51"/><path d="M370,801L481,844L556,663Z" fill="#ffb427" stroke="#ffb427" stroke-width="1.51"/><path d="M628,366L568,258L490,323Z" fill="#ffa728" stroke="#ffa728" stroke-width="1.51"/><path d="M650,209L568,258L628,366Z" fill="#ffa827" stroke="#ffa827" stroke-width="1.51"/><path d="M650,209L628,366L762,412Z" fill="#ffae27" stroke="#ffae27" stroke-width="1.51"/><path d="M958,684L940,555L758,673Z" fill="#ffc525" stroke="#ffc525" stroke-width="1.51"/><path d="M835,448L909,415L762,412Z" fill="#ffba26" stroke="#ffba26" stroke-width="1.51"/><path d="M940,555L909,415L835,448Z" fill="#ffbf25" stroke="#ffbf25" stroke-width="1.51"/><path d="M404,586L370,801L556,663Z" fill="#ffaf27" stroke="#ffaf27" stroke-width="1.51"/><path d="M173,661L370,801L404,586Z" fill="#ffa828" stroke="#ffa828" stroke-width="1.51"/><path d="M717,848L809,849L758,673Z" fill="#ffc425" stroke="#ffc425" stroke-width="1.51"/><path d="M421,398L261,540L439,447Z" fill="#ffa228" stroke="#ffa228" stroke-width="1.51"/><path d="M197,321L261,540L421,398Z" fill="#ff9c28" stroke="#ff9c28" stroke-width="1.51"/><path d="M842,171L650,209L762,412Z" fill="#ffaf27" stroke="#ffaf27" stroke-width="1.51"/><path d="M896,848L958,684L758,673Z" fill="#ffc825" stroke="#ffc825" stroke-width="1.51"/><path d="M809,849L896,848L758,673Z" fill="#ffc724" stroke="#ffc724" stroke-width="1.51"/><path d="M481,844L644,986L717,848Z" fill="#ffc025" stroke="#ffc025" stroke-width="1.51"/><path d="M717,848L804,936L809,849Z" fill="#ffc925" stroke="#ffc925" stroke-width="1.51"/><path d="M809,849L804,936L896,848Z" fill="#ffcc24" stroke="#ffcc24" stroke-width="1.51"/><path d="M350,961L516,963L481,844Z" fill="#ffb826" stroke="#ffb826" stroke-width="1.51"/><path d="M644,986L804,936L717,848Z" fill="#ffc725" stroke="#ffc725" stroke-width="1.51"/><path d="M516,963L644,986L481,844Z" fill="#ffbe26" stroke="#ffbe26" stroke-width="1.51"/><path d="M958,684L1049,605L940,555Z" fill="#ffc924" stroke="#ffc924" stroke-width="1.51"/><path d="M940,555L1139,465L909,415Z" fill="#ffc525" stroke="#ffc525" stroke-width="1.51"/><path d="M1061,802L1049,605L958,684Z" fill="#ffcf24" stroke="#ffcf24" stroke-width="1.51"/><path d="M909,415L955,274L762,412Z" fill="#ffba26" stroke="#ffba26" stroke-width="1.51"/><path d="M1120,311L955,274L909,415Z" fill="#ffbf26" stroke="#ffbf26" stroke-width="1.51"/><path d="M490,323L374,187L421,398Z" fill="#ff9e28" stroke="#ff9e28" stroke-width="1.51"/><path d="M568,258L374,187L490,323Z" fill="#ff9f28" stroke="#ff9f28" stroke-width="1.51"/><path d="M476,96L374,187L568,258Z" fill="#ff9c28" stroke="#ff9c28" stroke-width="1.51"/><path d="M261,540L173,661L404,586Z" fill="#ffa228" stroke="#ffa228" stroke-width="1.51"/><path d="M370,801L350,961L481,844Z" fill="#ffb427" stroke="#ffb427" stroke-width="1.51"/><path d="M152,683L173,661L-11,595Z" fill="#ff9a28" stroke="#ff9a28" stroke-width="1.51"/><path d="M650,209L476,96L568,258Z" fill="#ffa228" stroke="#ffa228" stroke-width="1.51"/><path d="M842,171L687,117L650,209Z" fill="#ffaa27" stroke="#ffaa27" stroke-width="1.51"/><path d="M955,274L842,171L762,412Z" fill="#ffb626" stroke="#ffb626" stroke-width="1.51"/><path d="M173,661L221,811L370,801Z" fill="#ffa727" stroke="#ffa727" stroke-width="1.51"/><path d="M644,986L663,1040L804,936Z" fill="#ffc925" stroke="#ffc925" stroke-width="1.51"/><path d="M577,1120L663,1040L644,986Z" fill="#ffc725" stroke="#ffc725" stroke-width="1.51"/><path d="M577,1120L644,986L516,963Z" fill="#ffc425" stroke="#ffc425" stroke-width="1.51"/><path d="M258,943L350,961L370,801Z" fill="#ffb127" stroke="#ffb127" stroke-width="1.51"/><path d="M173,661L152,683L221,811Z" fill="#ffa128" stroke="#ffa128" stroke-width="1.51"/><path d="M76,486L173,661L261,540Z" fill="#ff9b29" stroke="#ff9b29" stroke-width="1.51"/><path d="M374,187L197,321L421,398Z" fill="#ff9929" stroke="#ff9929" stroke-width="1.51"/><path d="M687,117L476,96L650,209Z" fill="#ffa228" stroke="#ffa228" stroke-width="1.51"/><path d="M374,187L267,171L197,321Z" fill="#ff9329" stroke="#ff9329" stroke-width="1.51"/><path d="M896,848L1061,802L958,684Z" fill="#ffcf23" stroke="#ffcf23" stroke-width="1.51"/><path d="M804,936L970,922L896,848Z" fill="#ffd023" stroke="#ffd023" stroke-width="1.51"/><path d="M960,1045L970,922L804,936Z" fill="#ffd323" stroke="#ffd323" stroke-width="1.51"/><path d="M970,922L1061,802L896,848Z" fill="#ffd223" stroke="#ffd223" stroke-width="1.51"/><path d="M221,811L258,943L370,801Z" fill="#ffad27" stroke="#ffad27" stroke-width="1.51"/><path d="M640,1179L754,1087L663,1040Z" fill="#ffcc24" stroke="#ffcc24" stroke-width="1.51"/><path d="M186,1020L258,943L221,811Z" fill="#ffac27" stroke="#ffac27" stroke-width="1.51"/><path d="M344,54L267,171L374,187Z" fill="#ff9229" stroke="#ff9229" stroke-width="1.51"/><path d="M1049,605L1139,465L940,555Z" fill="#ffca24" stroke="#ffca24" stroke-width="1.51"/><path d="M1148,914L1139,465L1049,605Z" fill="#ffd223" stroke="#ffd223" stroke-width="1.51"/><path d="M663,1040L754,1087L804,936Z" fill="#ffcc24" stroke="#ffcc24" stroke-width="1.51"/><path d="M353,1055L516,963L350,961Z" fill="#ffb926" stroke="#ffb926" stroke-width="1.51"/><path d="M95,246L123,349L197,321Z" fill="#ff8e29" stroke="#ff8e29" stroke-width="1.51"/><path d="M197,321L123,349L261,540Z" fill="#ff9529" stroke="#ff9529" stroke-width="1.51"/><path d="M123,349L76,486L261,540Z" fill="#ff9529" stroke="#ff9529" stroke-width="1.51"/><path d="M258,943L353,1055L350,961Z" fill="#ffb427" stroke="#ffb427" stroke-width="1.51"/><path d="M353,1055L577,1120L516,963Z" fill="#ffbf25" stroke="#ffbf25" stroke-width="1.51"/><path d="M955,274L1000,29L842,171Z" fill="#ffb526" stroke="#ffb526" stroke-width="1.51"/><path d="M1139,465L1120,311L909,415Z" fill="#ffc424" stroke="#ffc424" stroke-width="1.51"/><path d="M687,117L480,-24L476,96Z" fill="#ff9b29" stroke="#ff9b29" stroke-width="1.51"/><path d="M842,171L774,11L687,117Z" fill="#ffaa27" stroke="#ffaa27" stroke-width="1.51"/><path d="M899,-34L774,11L842,171Z" fill="#ffab28" stroke="#ffab28" stroke-width="1.51"/><path d="M267,171L95,246L197,321Z" fill="#ff8f29" stroke="#ff8f29" stroke-width="1.51"/><path d="M476,96L344,54L374,187Z" fill="#ff9528" stroke="#ff9528" stroke-width="1.51"/><path d="M480,-24L344,54L476,96Z" fill="#ff9429" stroke="#ff9429" stroke-width="1.51"/><path d="M754,1087L960,1045L804,936Z" fill="#ffd123" stroke="#ffd123" stroke-width="1.51"/><path d="M970,922L1148,914L1061,802Z" fill="#ffd822" stroke="#ffd822" stroke-width="1.51"/><path d="M1120,311L1093,204L955,274Z" fill="#ffbf25" stroke="#ffbf25" stroke-width="1.51"/><path d="M729,-129L480,-24L687,117Z" fill="#ff9d28" stroke="#ff9d28" stroke-width="1.51"/><path d="M818,1272L1010,1184L960,1045Z" fill="#ffdc22" stroke="#ffdc22" stroke-width="1.51"/><path d="M577,1120L640,1179L663,1040Z" fill="#ffca24" stroke="#ffca24" stroke-width="1.51"/><path d="M552,1251L640,1179L577,1120Z" fill="#ffca24" stroke="#ffca24" stroke-width="1.51"/><path d="M117,104L95,246L267,171Z" fill="#ff8929" stroke="#ff8929" stroke-width="1.51"/><path d="M123,349L-41,366L76,486Z" fill="#ff8d29" stroke="#ff8d29" stroke-width="1.51"/><path d="M152,683L47,810L221,811Z" fill="#ffa128" stroke="#ffa128" stroke-width="1.51"/><path d="M258,943L186,1020L353,1055Z" fill="#ffb226" stroke="#ffb226" stroke-width="1.51"/><path d="M-11,595L47,810L152,683Z" fill="#ff9a28" stroke="#ff9a28" stroke-width="1.51"/><path d="M-11,595L173,661L76,486Z" fill="#ff9629" stroke="#ff9629" stroke-width="1.51"/><path d="M382,1282L552,1251L577,1120Z" fill="#ffc724" stroke="#ffc724" stroke-width="1.51"/><path d="M47,810L186,1020L221,811Z" fill="#ffa628" stroke="#ffa628" stroke-width="1.51"/><path d="M-84,478L-11,595L76,486Z" fill="#ff8e29" stroke="#ff8e29" stroke-width="1.51"/><path d="M1145,1057L1148,914L970,922Z" fill="#ffdc21" stroke="#ffdc21" stroke-width="1.51"/><path d="M1061,802L1148,914L1049,605Z" fill="#ffd522" stroke="#ffd522" stroke-width="1.51"/><path d="M480,-24L436,-56L344,54Z" fill="#ff9129" stroke="#ff9129" stroke-width="1.51"/><path d="M344,54L189,78L267,171Z" fill="#ff8d29" stroke="#ff8d29" stroke-width="1.51"/><path d="M413,-174L436,-56L480,-24Z" fill="#ff8f29" stroke="#ff8f29" stroke-width="1.51"/><path d="M148,-36L189,78L344,54Z" fill="#ff8729" stroke="#ff8729" stroke-width="1.51"/><path d="M1093,204L1000,29L955,274Z" fill="#ffba26" stroke="#ffba26" stroke-width="1.51"/><path d="M774,11L729,-129L687,117Z" fill="#ffa428" stroke="#ffa428" stroke-width="1.51"/><path d="M1000,29L899,-34L842,171Z" fill="#ffb027" stroke="#ffb027" stroke-width="1.51"/><path d="M899,-34L814,-73L774,11Z" fill="#ffa828" stroke="#ffa828" stroke-width="1.51"/><path d="M189,78L117,104L267,171Z" fill="#ff8929" stroke="#ff8929" stroke-width="1.51"/><path d="M95,246L-41,366L123,349Z" fill="#ff8a29" stroke="#ff8a29" stroke-width="1.51"/><path d="M148,-36L117,104L189,78Z" fill="#ff832a" stroke="#ff832a" stroke-width="1.51"/><path d="M382,1282L577,1120L353,1055Z" fill="#ffc125" stroke="#ffc125" stroke-width="1.51"/><path d="M1010,1184L1145,1057L960,1045Z" fill="#ffdf21" stroke="#ffdf21" stroke-width="1.51"/><path d="M-51,198L-41,366L95,246Z" fill="#ff8429" stroke="#ff8429" stroke-width="1.51"/><path d="M-41,366L-84,478L76,486Z" fill="#ff8a29" stroke="#ff8a29" stroke-width="1.51"/><path d="M-70,974L30,998L47,810Z" fill="#ffa028" stroke="#ffa028" stroke-width="1.51"/><path d="M186,1020L275,1226L353,1055Z" fill="#ffb526" stroke="#ffb526" stroke-width="1.51"/><path d="M30,998L125,1077L186,1020Z" fill="#ffaa27" stroke="#ffaa27" stroke-width="1.51"/><path d="M30,998L186,1020L47,810Z" fill="#ffa528" stroke="#ffa528" stroke-width="1.51"/><path d="M871,-160L729,-129L814,-73Z" fill="#ffa328" stroke="#ffa328" stroke-width="1.51"/><path d="M814,-73L729,-129L774,11Z" fill="#ffa328" stroke="#ffa328" stroke-width="1.51"/><path d="M960,1045L1145,1057L970,922Z" fill="#ffdb21" stroke="#ffdb21" stroke-width="1.51"/><path d="M960,1045L754,1087L818,1272Z" fill="#ffd623" stroke="#ffd623" stroke-width="1.51"/><path d="M-90,776L47,810L-11,595Z" fill="#ff9729" stroke="#ff9729" stroke-width="1.51"/><path d="M818,1272L754,1087L640,1179Z" fill="#ffd223" stroke="#ffd223" stroke-width="1.51"/><path d="M647,1314L818,1272L640,1179Z" fill="#ffd323" stroke="#ffd323" stroke-width="1.51"/><path d="M1000,29L964,-185L899,-34Z" fill="#ffad27" stroke="#ffad27" stroke-width="1.51"/><path d="M899,-34L871,-160L814,-73Z" fill="#ffa728" stroke="#ffa728" stroke-width="1.51"/><path d="M1093,204L1096,15L1000,29Z" fill="#ffb926" stroke="#ffb926" stroke-width="1.51"/><path d="M1143,-128L1096,15L1093,204Z" fill="#ffb926" stroke="#ffb926" stroke-width="1.51"/><path d="M1143,-128L1093,204L1120,311Z" fill="#ffbe25" stroke="#ffbe25" stroke-width="1.51"/><path d="M-168,598L-90,776L-11,595Z" fill="#ff8f29" stroke="#ff8f29" stroke-width="1.51"/><path d="M95,1233L275,1226L125,1077Z" fill="#ffb327" stroke="#ffb327" stroke-width="1.51"/><path d="M125,1077L275,1226L186,1020Z" fill="#ffb227" stroke="#ffb227" stroke-width="1.51"/><path d="M487,1361L647,1314L552,1251Z" fill="#ffce24" stroke="#ffce24" stroke-width="1.51"/><path d="M552,1251L647,1314L640,1179Z" fill="#ffce24" stroke="#ffce24" stroke-width="1.51"/><path d="M275,1226L382,1282L353,1055Z" fill="#ffbd26" stroke="#ffbd26" stroke-width="1.51"/><path d="M-14,130L-51,198L95,246Z" fill="#ff8129" stroke="#ff8129" stroke-width="1.51"/><path d="M-252,407L-204,506L-84,478Z" fill="#ff8229" stroke="#ff8229" stroke-width="1.51"/><path d="M117,104L-14,130L95,246Z" fill="#ff8329" stroke="#ff8329" stroke-width="1.51"/><path d="M179,-108L148,-36L344,54Z" fill="#ff8529" stroke="#ff8529" stroke-width="1.51"/><path d="M179,-108L344,54L436,-56Z" fill="#ff8a29" stroke="#ff8a29" stroke-width="1.51"/><path d="M148,-36L-14,130L117,104Z" fill="#ff802a" stroke="#ff802a" stroke-width="1.51"/><path d="M-70,974L-5,1023L30,998Z" fill="#ffa228" stroke="#ffa228" stroke-width="1.51"/><path d="M30,998L-5,1023L125,1077Z" fill="#ffa727" stroke="#ffa727" stroke-width="1.51"/><path d="M624,-212L413,-174L480,-24Z" fill="#ff9129" stroke="#ff9129" stroke-width="1.51"/><path d="M729,-129L624,-212L480,-24Z" fill="#ff9828" stroke="#ff9828" stroke-width="1.51"/><path d="M964,-185L871,-160L899,-34Z" fill="#ffa827" stroke="#ffa827" stroke-width="1.51"/><path d="M871,-160L624,-212L729,-129Z" fill="#ff9d28" stroke="#ff9d28" stroke-width="1.51"/><path d="M647,1314L802,1329L818,1272Z" fill="#ffd822" stroke="#ffd822" stroke-width="1.51"/><path d="M818,1272L970,1385L1010,1184Z" fill="#ffe021" stroke="#ffe021" stroke-width="1.51"/><path d="M-90,776L-70,974L47,810Z" fill="#ff9a29" stroke="#ff9a29" stroke-width="1.51"/><path d="M-84,478L-168,598L-11,595Z" fill="#ff8b29" stroke="#ff8b29" stroke-width="1.51"/><path d="M-204,506L-168,598L-84,478Z" fill="#ff8629" stroke="#ff8629" stroke-width="1.51"/><path d="M-154,834L-70,974L-90,776Z" fill="#ff9729" stroke="#ff9729" stroke-width="1.51"/><path d="M382,1282L487,1361L552,1251Z" fill="#ffc824" stroke="#ffc824" stroke-width="1.51"/><path d="M647,1314L603,1471L802,1329Z" fill="#ffd622" stroke="#ffd622" stroke-width="1.51"/><path d="M431,1419L487,1361L382,1282Z" fill="#ffc825" stroke="#ffc825" stroke-width="1.51"/><path d="M413,-174L179,-108L436,-56Z" fill="#ff8929" stroke="#ff8929" stroke-width="1.51"/><path d="M148,-36L-23,-105L-14,130Z" fill="#ff7a2a" stroke="#ff7a2a" stroke-width="1.51"/><path d="M1010,1184L1089,1223L1145,1057Z" fill="#ffe320" stroke="#ffe320" stroke-width="1.51"/><path d="M970,1385L1089,1223L1010,1184Z" fill="#ffe420" stroke="#ffe420" stroke-width="1.51"/><path d="M-168,598L-154,834L-90,776Z" fill="#ff9029" stroke="#ff9029" stroke-width="1.51"/><path d="M-252,407L-84,478L-41,366Z" fill="#ff8329" stroke="#ff8329" stroke-width="1.51"/><path d="M-168,598L-225,1020L-154,834Z" fill="#ff9029" stroke="#ff9029" stroke-width="1.51"/><path d="M871,-160L964,-185L624,-212Z" fill="#ffa128" stroke="#ffa128" stroke-width="1.51"/><path d="M1143,-128L964,-185L1000,29Z" fill="#ffb027" stroke="#ffb027" stroke-width="1.51"/><path d="M404,1463L431,1419L382,1282Z" fill="#ffc824" stroke="#ffc824" stroke-width="1.51"/><path d="M-5,1023L95,1233L125,1077Z" fill="#ffab27" stroke="#ffab27" stroke-width="1.51"/><path d="M30,1324L95,1233L-103,1218Z" fill="#ffad27" stroke="#ffad27" stroke-width="1.51"/><path d="M413,-174L177,-237L179,-108Z" fill="#ff8029" stroke="#ff8029" stroke-width="1.51"/><path d="M624,-212L527,-280L413,-174Z" fill="#ff8e29" stroke="#ff8e29" stroke-width="1.51"/><path d="M964,-185L527,-280L624,-212Z" fill="#ff9928" stroke="#ff9928" stroke-width="1.51"/><path d="M487,1361L603,1471L647,1314Z" fill="#ffd123" stroke="#ffd123" stroke-width="1.51"/><path d="M404,1463L382,1282L189,1421Z" fill="#ffc425" stroke="#ffc425" stroke-width="1.51"/><path d="M-225,1020L-166,953L-154,834Z" fill="#ff9529" stroke="#ff9529" stroke-width="1.51"/><path d="M-154,834L-166,953L-70,974Z" fill="#ff9828" stroke="#ff9828" stroke-width="1.51"/><path d="M-70,974L-103,1218L-5,1023Z" fill="#ffa228" stroke="#ffa228" stroke-width="1.51"/><path d="M1096,15L1143,-128L1000,29Z" fill="#ffb627" stroke="#ffb627" stroke-width="1.51"/><path d="M1139,465L1143,-128L1120,311Z" fill="#ffc225" stroke="#ffc225" stroke-width="1.51"/><path d="M1150,-272L1143,-128L1139,465Z" fill="#ffbb26" stroke="#ffbb26" stroke-width="1.51"/><path d="M-204,506L-225,1020L-168,598Z" fill="#ff8b29" stroke="#ff8b29" stroke-width="1.51"/><path d="M-219,256L-252,407L-41,366Z" fill="#ff7d2a" stroke="#ff7d2a" stroke-width="1.51"/><path d="M-219,256L-41,366L-51,198Z" fill="#ff7d2a" stroke="#ff7d2a" stroke-width="1.51"/><path d="M-219,256L-51,198L-190,8Z" fill="#ff752a" stroke="#ff752a" stroke-width="1.51"/><path d="M802,1329L970,1385L818,1272Z" fill="#ffde21" stroke="#ffde21" stroke-width="1.51"/><path d="M861,1464L970,1385L802,1329Z" fill="#ffe121" stroke="#ffe121" stroke-width="1.51"/><path d="M-190,8L-51,198L-14,130Z" fill="#ff782a" stroke="#ff782a" stroke-width="1.51"/><path d="M487,1516L603,1471L487,1361Z" fill="#ffd123" stroke="#ffd123" stroke-width="1.51"/><path d="M179,-108L-23,-105L148,-36Z" fill="#ff7a2a" stroke="#ff7a2a" stroke-width="1.51"/><path d="M527,-280L177,-237L413,-174Z" fill="#ff8529" stroke="#ff8529" stroke-width="1.51"/><path d="M431,1419L487,1516L487,1361Z" fill="#ffcd24" stroke="#ffcd24" stroke-width="1.51"/><path d="M189,1421L382,1282L275,1226Z" fill="#ffbf25" stroke="#ffbf25" stroke-width="1.51"/><path d="M133,-239L-23,-105L179,-108Z" fill="#ff772a" stroke="#ff772a" stroke-width="1.51"/><path d="M603,1471L861,1464L802,1329Z" fill="#ffdc22" stroke="#ffdc22" stroke-width="1.51"/><path d="M177,-237L133,-239L179,-108Z" fill="#ff792a" stroke="#ff792a" stroke-width="1.51"/><path d="M527,-280L133,-239L177,-237Z" fill="#ff7e29" stroke="#ff7e29" stroke-width="1.51"/><path d="M95,1233L189,1421L275,1226Z" fill="#ffb926" stroke="#ffb926" stroke-width="1.51"/><path d="M30,1324L189,1421L95,1233Z" fill="#ffb526" stroke="#ffb526" stroke-width="1.51"/><path d="M-252,407L-225,1020L-204,506Z" fill="#ff8729" stroke="#ff8729" stroke-width="1.51"/><path d="M-166,953L-225,1020L-70,974Z" fill="#ff9929" stroke="#ff9929" stroke-width="1.51"/><path d="M-103,1218L95,1233L-5,1023Z" fill="#ffa828" stroke="#ffa828" stroke-width="1.51"/><path d="M791,1691L946,1532L861,1464Z" fill="#ffe71f" stroke="#ffe71f" stroke-width="1.51"/><path d="M404,1463L487,1516L431,1419Z" fill="#ffcc24" stroke="#ffcc24" stroke-width="1.51"/><path d="M361,1608L487,1516L404,1463Z" fill="#ffce24" stroke="#ffce24" stroke-width="1.51"/><path d="M1148,914L1150,-272L1139,465Z" fill="#ffc825" stroke="#ffc825" stroke-width="1.51"/><path d="M1145,1057L1158,1362L1148,914Z" fill="#ffe520" stroke="#ffe520" stroke-width="1.51"/><path d="M1089,1223L1158,1362L1145,1057Z" fill="#ffe81f" stroke="#ffe81f" stroke-width="1.51"/><path d="M970,1385L1158,1362L1089,1223Z" fill="#ffe91f" stroke="#ffe91f" stroke-width="1.51"/><path d="M1074,1468L1158,1362L970,1385Z" fill="#ffec1f" stroke="#ffec1f" stroke-width="1.51"/><path d="M-225,1020L-103,1218L-70,974Z" fill="#ff9e28" stroke="#ff9e28" stroke-width="1.51"/><path d="M-239,-121L-190,8L-23,-105Z" fill="#ff6b2a" stroke="#ff6b2a" stroke-width="1.51"/><path d="M-23,-105L-190,8L-14,130Z" fill="#ff742a" stroke="#ff742a" stroke-width="1.51"/><path d="M-219,256L-239,-121L-252,407Z" fill="#ff712a" stroke="#ff712a" stroke-width="1.51"/><path d="M1143,-128L1150,-272L964,-185Z" fill="#ffaf27" stroke="#ffaf27" stroke-width="1.51"/><path d="M964,-185L1150,-272L527,-280Z" fill="#ffa228" stroke="#ffa228" stroke-width="1.51"/><path d="M1158,1362L1150,-272L1148,914Z" fill="#ffd423" stroke="#ffd423" stroke-width="1.51"/><path d="M133,-239L-29,-195L-23,-105Z" fill="#ff712a" stroke="#ff712a" stroke-width="1.51"/><path d="M-225,1020L-158,1216L-103,1218Z" fill="#ffa028" stroke="#ffa028" stroke-width="1.51"/><path d="M-143,1398L-6,1408L30,1324Z" fill="#ffaf27" stroke="#ffaf27" stroke-width="1.51"/><path d="M69,1548L224,1504L189,1421Z" fill="#ffbf25" stroke="#ffbf25" stroke-width="1.51"/><path d="M946,1532L970,1385L861,1464Z" fill="#ffe720" stroke="#ffe720" stroke-width="1.51"/><path d="M946,1532L1074,1468L970,1385Z" fill="#ffea1f" stroke="#ffea1f" stroke-width="1.51"/><path d="M-6,1408L189,1421L30,1324Z" fill="#ffb626" stroke="#ffb626" stroke-width="1.51"/><path d="M189,1421L224,1504L404,1463Z" fill="#ffc425" stroke="#ffc425" stroke-width="1.51"/><path d="M791,1691L861,1464L603,1471Z" fill="#ffe021" stroke="#ffe021" stroke-width="1.51"/><path d="M-143,1398L30,1324L-103,1218Z" fill="#ffab27" stroke="#ffab27" stroke-width="1.51"/><path d="M551,1703L674,1702L603,1471Z" fill="#ffdc21" stroke="#ffdc21" stroke-width="1.51"/><path d="M224,1504L361,1608L404,1463Z" fill="#ffc924" stroke="#ffc924" stroke-width="1.51"/><path d="M202,1622L361,1608L224,1504Z" fill="#ffc724" stroke="#ffc724" stroke-width="1.51"/><path d="M-29,-195L-239,-121L-23,-105Z" fill="#ff6b2a" stroke="#ff6b2a" stroke-width="1.51"/><path d="M-190,8L-239,-121L-219,256Z" fill="#ff6c2a" stroke="#ff6c2a" stroke-width="1.51"/><path d="M-6,1408L69,1548L189,1421Z" fill="#ffb926" stroke="#ffb926" stroke-width="1.51"/><path d="M-60,1495L69,1548L-6,1408Z" fill="#ffb626" stroke="#ffb626" stroke-width="1.51"/><path d="M-158,1216L-143,1398L-103,1218Z" fill="#ffa628" stroke="#ffa628" stroke-width="1.51"/><path d="M-250,1571L-143,1398L-158,1216Z" fill="#ffa827" stroke="#ffa827" stroke-width="1.51"/><path d="M69,1548L202,1622L224,1504Z" fill="#ffc125" stroke="#ffc125" stroke-width="1.51"/><path d="M946,1532L1049,1653L1074,1468Z" fill="#ffef1e" stroke="#ffef1e" stroke-width="1.51"/><path d="M551,1703L603,1471L487,1516Z" fill="#ffd622" stroke="#ffd622" stroke-width="1.51"/><path d="M551,1703L487,1516L361,1608Z" fill="#ffd323" stroke="#ffd323" stroke-width="1.51"/><path d="M674,1702L791,1691L603,1471Z" fill="#ffe021" stroke="#ffe021" stroke-width="1.51"/><path d="M202,1622L551,1703L361,1608Z" fill="#ffd023" stroke="#ffd023" stroke-width="1.51"/><path d="M-29,-195L-207,-230L-239,-121Z" fill="#ff652a" stroke="#ff652a" stroke-width="1.51"/><path d="M133,-239L-207,-230L-29,-195Z" fill="#ff6b2a" stroke="#ff6b2a" stroke-width="1.51"/><path d="M527,-280L-207,-230L133,-239Z" fill="#ff762a" stroke="#ff762a" stroke-width="1.51"/><path d="M69,1548L70,1611L202,1622Z" fill="#ffc025" stroke="#ffc025" stroke-width="1.51"/><path d="M-143,1398L-60,1495L-6,1408Z" fill="#ffb027" stroke="#ffb027" stroke-width="1.51"/><path d="M791,1691L997,1650L946,1532Z" fill="#ffec1e" stroke="#ffec1e" stroke-width="1.51"/><path d="M1074,1468L1049,1653L1158,1362Z" fill="#fff11d" stroke="#fff11d" stroke-width="1.51"/><path d="M791,1691L1049,1653L997,1650Z" fill="#ffef1e" stroke="#ffef1e" stroke-width="1.51"/><path d="M997,1650L1049,1653L946,1532Z" fill="#fff01e" stroke="#fff01e" stroke-width="1.51"/><path d="M-6,1664L70,1611L69,1548Z" fill="#ffbd25" stroke="#ffbd25" stroke-width="1.51"/><path d="M202,1622L-6,1664L551,1703Z" fill="#ffca24" stroke="#ffca24" stroke-width="1.51"/><path d="M-60,1495L-6,1664L69,1548Z" fill="#ffb926" stroke="#ffb926" stroke-width="1.51"/><path d="M70,1611L-6,1664L202,1622Z" fill="#ffc025" stroke="#ffc025" stroke-width="1.51"/><path d="M-159,1636L-6,1664L-60,1495Z" fill="#ffb627" stroke="#ffb627" stroke-width="1.51"/><path d="M-250,1571L-159,1636L-60,1495Z" fill="#ffb027" stroke="#ffb027" stroke-width="1.51"/><path d="M-250,1571L-60,1495L-143,1398Z" fill="#ffae27" stroke="#ffae27" stroke-width="1.51"/><path d="M-225,1020L-250,1571L-158,1216Z" fill="#ffa228" stroke="#ffa228" stroke-width="1.51"/><path d="M-252,407L-250,1571L-225,1020Z" fill="#ff9529" stroke="#ff9529" stroke-width="1.51"/></svg>