<svg xmlns="http://www.w3.org/2000/svg" width="900" height="1440"><path d="M438,804L315,805L407,853Z" fill="#ffce2b" stroke="#ffce2b" stroke-width="1.51"/><path d="M315,805L298,916L407,853Z" fill="#ffcd2b" stroke="#ffcd2b" stroke-width="1.51"/><path d="M272,815L298,916L315,805Z" fill="#ffcb2c" stroke="#ffcb2c" stroke-width="1.51"/><path d="M438,804L457,657L315,805Z" fill="#ffcd2b" stroke="#ffcd2b" stroke-width="1.51"/><path d="M315,805L307,636L272,815Z" fill="#ffc82d" stroke="#ffc82d" stroke-width="1.51"/><path d="M298,916L311,955L407,853Z" fill="#ffcf2a" stroke="#ffcf2a" stroke-width="1.51"/><path d="M407,853L531,873L438,804Z" fill="#ffd129" stroke="#ffd129" stroke-width="1.51"/><path d="M438,804L596,776L457,657Z" fill="#ffd02a" stroke="#ffd02a" stroke-width="1.51"/><path d="M479,978L531,873L407,853Z" fill="#ffd428" stroke="#ffd428" stroke-width="1.51"/><path d="M457,657L307,636L315,805Z" fill="#ffc92c" stroke="#ffc92c" stroke-width="1.51"/><path d="M311,955L479,978L407,853Z" fill="#ffd129" stroke="#ffd129" stroke-width="1.51"/><path d="M272,815L225,942L298,916Z" fill="#ffcb2c" stroke="#ffcb2c" stroke-width="1.51"/><path d="M298,916L225,942L311,955Z" fill="#ffcd2b" stroke="#ffcd2b" stroke-width="1.51"/><path d="M80,873L225,942L272,815Z" fill="#ffc82d" stroke="#ffc82d" stroke-width="1.51"/><path d="M225,942L221,955L311,955Z" fill="#ffcc2b" stroke="#ffcc2b" stroke-width="1.51"/><path d="M513,1125L605,1025L479,978Z" fill="#ffda25" stroke="#ffda25" stroke-width="1.51"/><path d="M80,873L221,955L225,942Z" fill="#ffc82d" stroke="#ffc82d" stroke-width="1.51"/><path d="M531,873L596,776L438,804Z" fill="#ffd329" stroke="#ffd329" stroke-width="1.51"/><path d="M634,847L596,776L531,873Z" fill="#ffd727" stroke="#ffd727" stroke-width="1.51"/><path d="M307,636L201,617L272,815Z" fill="#ffc52e" stroke="#ffc52e" stroke-width="1.51"/><path d="M313,545L201,617L307,636Z" fill="#ffc32f" stroke="#ffc32f" stroke-width="1.51"/><path d="M596,776L591,653L457,657Z" fill="#ffd129" stroke="#ffd129" stroke-width="1.51"/><path d="M457,657L313,545L307,636Z" fill="#ffc72d" stroke="#ffc72d" stroke-width="1.51"/><path d="M605,1025L634,847L531,873Z" fill="#ffd926" stroke="#ffd926" stroke-width="1.51"/><path d="M596,776L690,728L591,653Z" fill="#ffd528" stroke="#ffd528" stroke-width="1.51"/><path d="M473,540L313,545L457,657Z" fill="#ffc92d" stroke="#ffc92d" stroke-width="1.51"/><path d="M591,653L473,540L457,657Z" fill="#ffcd2b" stroke="#ffcd2b" stroke-width="1.51"/><path d="M313,545L258,518L201,617Z" fill="#ffc22f" stroke="#ffc22f" stroke-width="1.51"/><path d="M253,468L258,518L313,545Z" fill="#ffc130" stroke="#ffc130" stroke-width="1.51"/><path d="M64,740L80,873L272,815Z" fill="#ffc32f" stroke="#ffc32f" stroke-width="1.51"/><path d="M201,617L64,740L272,815Z" fill="#ffc32f" stroke="#ffc32f" stroke-width="1.51"/><path d="M102,635L64,740L201,617Z" fill="#ffbf30" stroke="#ffbf30" stroke-width="1.51"/><path d="M103,551L102,635L201,617Z" fill="#ffbe30" stroke="#ffbe30" stroke-width="1.51"/><path d="M479,978L605,1025L531,873Z" fill="#ffd827" stroke="#ffd827" stroke-width="1.51"/><path d="M320,1143L479,978L311,955Z" fill="#ffd329" stroke="#ffd329" stroke-width="1.51"/><path d="M634,847L690,728L596,776Z" fill="#ffd727" stroke="#ffd727" stroke-width="1.51"/><path d="M591,653L613,520L473,540Z" fill="#ffce2b" stroke="#ffce2b" stroke-width="1.51"/><path d="M761,786L690,728L634,847Z" fill="#ffd925" stroke="#ffd925" stroke-width="1.51"/><path d="M221,955L174,1061L311,955Z" fill="#ffcc2b" stroke="#ffcc2b" stroke-width="1.51"/><path d="M69,995L174,1061L221,955Z" fill="#ffc92c" stroke="#ffc92c" stroke-width="1.51"/><path d="M174,1061L320,1143L311,955Z" fill="#ffd02a" stroke="#ffd02a" stroke-width="1.51"/><path d="M320,1143L495,1129L479,978Z" fill="#ffd727" stroke="#ffd727" stroke-width="1.51"/><path d="M495,1129L513,1125L479,978Z" fill="#ffd925" stroke="#ffd925" stroke-width="1.51"/><path d="M258,518L103,551L201,617Z" fill="#ffbf30" stroke="#ffbf30" stroke-width="1.51"/><path d="M390,446L253,468L313,545Z" fill="#ffc22f" stroke="#ffc22f" stroke-width="1.51"/><path d="M473,540L390,446L313,545Z" fill="#ffc62e" stroke="#ffc62e" stroke-width="1.51"/><path d="M428,413L390,446L473,540Z" fill="#ffc62e" stroke="#ffc62e" stroke-width="1.51"/><path d="M-9,940L50,959L80,873Z" fill="#ffc32f" stroke="#ffc32f" stroke-width="1.51"/><path d="M80,873L69,995L221,955Z" fill="#ffc72d" stroke="#ffc72d" stroke-width="1.51"/><path d="M50,959L69,995L80,873Z" fill="#ffc42e" stroke="#ffc42e" stroke-width="1.51"/><path d="M729,673L613,520L591,653Z" fill="#ffd329" stroke="#ffd329" stroke-width="1.51"/><path d="M-1,679L-6,783L64,740Z" fill="#ffbc30" stroke="#ffbc30" stroke-width="1.51"/><path d="M253,468L103,551L258,518Z" fill="#ffbe30" stroke="#ffbe30" stroke-width="1.51"/><path d="M605,1025L699,985L634,847Z" fill="#ffdc25" stroke="#ffdc25" stroke-width="1.51"/><path d="M748,1017L699,985L605,1025Z" fill="#ffdf23" stroke="#ffdf23" stroke-width="1.51"/><path d="M690,728L729,673L591,653Z" fill="#ffd627" stroke="#ffd627" stroke-width="1.51"/><path d="M745,675L729,673L690,728Z" fill="#ffd826" stroke="#ffd826" stroke-width="1.51"/><path d="M64,740L-6,783L80,873Z" fill="#ffbf2f" stroke="#ffbf2f" stroke-width="1.51"/><path d="M-1,679L64,740L102,635Z" fill="#ffbd30" stroke="#ffbd30" stroke-width="1.51"/><path d="M814,932L761,786L634,847Z" fill="#ffdd24" stroke="#ffdd24" stroke-width="1.51"/><path d="M761,786L745,675L690,728Z" fill="#ffd926" stroke="#ffd926" stroke-width="1.51"/><path d="M729,673L720,502L613,520Z" fill="#ffd329" stroke="#ffd329" stroke-width="1.51"/><path d="M390,446L368,371L253,468Z" fill="#ffc12f" stroke="#ffc12f" stroke-width="1.51"/><path d="M519,388L428,413L473,540Z" fill="#ffc72d" stroke="#ffc72d" stroke-width="1.51"/><path d="M513,1125L625,1141L605,1025Z" fill="#ffdd24" stroke="#ffdd24" stroke-width="1.51"/><path d="M495,1129L469,1181L513,1125Z" fill="#ffdb25" stroke="#ffdb25" stroke-width="1.51"/><path d="M320,1143L469,1181L495,1129Z" fill="#ffd926" stroke="#ffd926" stroke-width="1.51"/><path d="M-4,567L-1,679L102,635Z" fill="#ffba31" stroke="#ffba31" stroke-width="1.51"/><path d="M320,1143L320,1203L469,1181Z" fill="#ffd727" stroke="#ffd727" stroke-width="1.51"/><path d="M183,1279L320,1203L320,1143Z" fill="#ffd428" stroke="#ffd428" stroke-width="1.51"/><path d="M183,1279L320,1143L174,1061Z" fill="#ffd12a" stroke="#ffd12a" stroke-width="1.51"/><path d="M-6,783L-9,940L80,873Z" fill="#ffc02f" stroke="#ffc02f" stroke-width="1.51"/><path d="M50,959L-9,940L69,995Z" fill="#ffc42f" stroke="#ffc42f" stroke-width="1.51"/><path d="M69,995L74,1088L174,1061Z" fill="#ffc92c" stroke="#ffc92c" stroke-width="1.51"/><path d="M-9,940L74,1088L69,995Z" fill="#ffc52e" stroke="#ffc52e" stroke-width="1.51"/><path d="M605,1240L625,1141L513,1125Z" fill="#ffdf22" stroke="#ffdf22" stroke-width="1.51"/><path d="M428,413L368,371L390,446Z" fill="#ffc32e" stroke="#ffc32e" stroke-width="1.51"/><path d="M-4,438L-4,567L103,551Z" fill="#ffb732" stroke="#ffb732" stroke-width="1.51"/><path d="M458,342L368,371L428,413Z" fill="#ffc32f" stroke="#ffc32f" stroke-width="1.51"/><path d="M699,985L814,932L634,847Z" fill="#ffde23" stroke="#ffde23" stroke-width="1.51"/><path d="M625,1141L748,1017L605,1025Z" fill="#ffdf23" stroke="#ffdf23" stroke-width="1.51"/><path d="M613,520L519,388L473,540Z" fill="#ffca2c" stroke="#ffca2c" stroke-width="1.51"/><path d="M729,475L519,388L613,520Z" fill="#ffcd2b" stroke="#ffcd2b" stroke-width="1.51"/><path d="M103,551L-4,567L102,635Z" fill="#ffba31" stroke="#ffba31" stroke-width="1.51"/><path d="M-145,791L-100,873L-6,783Z" fill="#ffbb31" stroke="#ffbb31" stroke-width="1.51"/><path d="M-6,783L-100,873L-9,940Z" fill="#ffbe30" stroke="#ffbe30" stroke-width="1.51"/><path d="M128,424L103,551L253,468Z" fill="#ffbb31" stroke="#ffbb31" stroke-width="1.51"/><path d="M266,353L128,424L253,468Z" fill="#ffbc31" stroke="#ffbc31" stroke-width="1.51"/><path d="M784,518L720,502L729,673Z" fill="#ffd528" stroke="#ffd528" stroke-width="1.51"/><path d="M748,1017L814,932L699,985Z" fill="#ffe121" stroke="#ffe121" stroke-width="1.51"/><path d="M924,687L784,518L745,675Z" fill="#ffda26" stroke="#ffda26" stroke-width="1.51"/><path d="M784,518L729,475L720,502Z" fill="#ffd328" stroke="#ffd328" stroke-width="1.51"/><path d="M422,232L266,353L368,371Z" fill="#ffbf30" stroke="#ffbf30" stroke-width="1.51"/><path d="M368,371L266,353L253,468Z" fill="#ffbf30" stroke="#ffbf30" stroke-width="1.51"/><path d="M519,388L458,342L428,413Z" fill="#ffc52e" stroke="#ffc52e" stroke-width="1.51"/><path d="M511,313L458,342L519,388Z" fill="#ffc52d" stroke="#ffc52d" stroke-width="1.51"/><path d="M720,502L729,475L613,520Z" fill="#ffd129" stroke="#ffd129" stroke-width="1.51"/><path d="M784,518L729,673L745,675Z" fill="#ffd727" stroke="#ffd727" stroke-width="1.51"/><path d="M-129,1101L-13,1170L74,1088Z" fill="#ffc52e" stroke="#ffc52e" stroke-width="1.51"/><path d="M-145,791L-6,783L-1,679Z" fill="#ffba31" stroke="#ffba31" stroke-width="1.51"/><path d="M748,1017L905,991L814,932Z" fill="#ffe420" stroke="#ffe420" stroke-width="1.51"/><path d="M625,1141L774,1092L748,1017Z" fill="#ffe321" stroke="#ffe321" stroke-width="1.51"/><path d="M924,687L745,675L761,786Z" fill="#ffdc24" stroke="#ffdc24" stroke-width="1.51"/><path d="M625,1141L690,1209L774,1092Z" fill="#ffe320" stroke="#ffe320" stroke-width="1.51"/><path d="M469,1181L605,1240L513,1125Z" fill="#ffde24" stroke="#ffde24" stroke-width="1.51"/><path d="M526,1321L605,1240L469,1181Z" fill="#ffdf22" stroke="#ffdf22" stroke-width="1.51"/><path d="M458,342L422,232L368,371Z" fill="#ffc12f" stroke="#ffc12f" stroke-width="1.51"/><path d="M717,303L511,313L519,388Z" fill="#ffc82d" stroke="#ffc82d" stroke-width="1.51"/><path d="M814,932L875,901L761,786Z" fill="#ffe122" stroke="#ffe122" stroke-width="1.51"/><path d="M905,991L875,901L814,932Z" fill="#ffe51f" stroke="#ffe51f" stroke-width="1.51"/><path d="M875,901L888,803L761,786Z" fill="#ffe122" stroke="#ffe122" stroke-width="1.51"/><path d="M605,1240L690,1209L625,1141Z" fill="#ffe321" stroke="#ffe321" stroke-width="1.51"/><path d="M84,1231L183,1279L174,1061Z" fill="#ffce2a" stroke="#ffce2a" stroke-width="1.51"/><path d="M320,1203L368,1339L469,1181Z" fill="#ffd926" stroke="#ffd926" stroke-width="1.51"/><path d="M84,1231L174,1061L74,1088Z" fill="#ffcb2c" stroke="#ffcb2c" stroke-width="1.51"/><path d="M-13,1170L84,1231L74,1088Z" fill="#ffca2c" stroke="#ffca2c" stroke-width="1.51"/><path d="M-147,612L-145,791L-1,679Z" fill="#ffb632" stroke="#ffb632" stroke-width="1.51"/><path d="M-129,1101L74,1088L-9,940Z" fill="#ffc32e" stroke="#ffc32e" stroke-width="1.51"/><path d="M-4,567L-147,612L-1,679Z" fill="#ffb632" stroke="#ffb632" stroke-width="1.51"/><path d="M128,424L-4,438L103,551Z" fill="#ffb832" stroke="#ffb832" stroke-width="1.51"/><path d="M68,323L-4,438L128,424Z" fill="#ffb533" stroke="#ffb533" stroke-width="1.51"/><path d="M-149,1015L-9,940L-100,873Z" fill="#ffbe30" stroke="#ffbe30" stroke-width="1.51"/><path d="M183,1279L368,1339L320,1203Z" fill="#ffd727" stroke="#ffd727" stroke-width="1.51"/><path d="M710,1318L766,1245L690,1209Z" fill="#ffe71e" stroke="#ffe71e" stroke-width="1.51"/><path d="M368,1339L526,1321L469,1181Z" fill="#ffdd24" stroke="#ffdd24" stroke-width="1.51"/><path d="M-126,505L-147,612L-4,567Z" fill="#ffb333" stroke="#ffb333" stroke-width="1.51"/><path d="M993,821L924,687L888,803Z" fill="#ffe221" stroke="#ffe221" stroke-width="1.51"/><path d="M888,803L924,687L761,786Z" fill="#ffdf23" stroke="#ffdf23" stroke-width="1.51"/><path d="M875,901L969,841L888,803Z" fill="#ffe420" stroke="#ffe420" stroke-width="1.51"/><path d="M774,1092L905,991L748,1017Z" fill="#ffe51f" stroke="#ffe51f" stroke-width="1.51"/><path d="M916,1064L905,991L774,1092Z" fill="#ffe81e" stroke="#ffe81e" stroke-width="1.51"/><path d="M266,353L68,323L128,424Z" fill="#ffb832" stroke="#ffb832" stroke-width="1.51"/><path d="M-97,448L-126,505L-4,567Z" fill="#ffb233" stroke="#ffb233" stroke-width="1.51"/><path d="M147,149L68,323L266,353Z" fill="#ffb633" stroke="#ffb633" stroke-width="1.51"/><path d="M-147,612L-149,1015L-145,791Z" fill="#ffb732" stroke="#ffb732" stroke-width="1.51"/><path d="M-145,791L-149,1015L-100,873Z" fill="#ffbb31" stroke="#ffbb31" stroke-width="1.51"/><path d="M511,313L422,232L458,342Z" fill="#ffc32e" stroke="#ffc32e" stroke-width="1.51"/><path d="M570,160L422,232L511,313Z" fill="#ffc22f" stroke="#ffc22f" stroke-width="1.51"/><path d="M717,303L519,388L729,475Z" fill="#ffcd2b" stroke="#ffcd2b" stroke-width="1.51"/><path d="M368,1339L404,1374L526,1321Z" fill="#ffde23" stroke="#ffde23" stroke-width="1.51"/><path d="M279,1423L404,1374L368,1339Z" fill="#ffdc25" stroke="#ffdc25" stroke-width="1.51"/><path d="M-97,448L-4,567L-4,438Z" fill="#ffb333" stroke="#ffb333" stroke-width="1.51"/><path d="M-72,1263L-2,1244L-13,1170Z" fill="#ffc82d" stroke="#ffc82d" stroke-width="1.51"/><path d="M-13,1170L-2,1244L84,1231Z" fill="#ffca2c" stroke="#ffca2c" stroke-width="1.51"/><path d="M84,1231L58,1330L183,1279Z" fill="#ffcf2a" stroke="#ffcf2a" stroke-width="1.51"/><path d="M183,1279L260,1395L368,1339Z" fill="#ffd727" stroke="#ffd727" stroke-width="1.51"/><path d="M-149,1015L-129,1101L-9,940Z" fill="#ffc02f" stroke="#ffc02f" stroke-width="1.51"/><path d="M-117,345L-97,448L-4,438Z" fill="#ffb033" stroke="#ffb033" stroke-width="1.51"/><path d="M690,1209L766,1245L774,1092Z" fill="#ffe61f" stroke="#ffe61f" stroke-width="1.51"/><path d="M710,1318L690,1209L605,1240Z" fill="#ffe51f" stroke="#ffe51f" stroke-width="1.51"/><path d="M710,1318L605,1240L526,1321Z" fill="#ffe420" stroke="#ffe420" stroke-width="1.51"/><path d="M994,966L969,841L875,901Z" fill="#ffe71e" stroke="#ffe71e" stroke-width="1.51"/><path d="M883,1242L916,1064L774,1092Z" fill="#ffe91c" stroke="#ffe91c" stroke-width="1.51"/><path d="M994,966L993,821L969,841Z" fill="#ffe71e" stroke="#ffe71e" stroke-width="1.51"/><path d="M810,361L717,303L729,475Z" fill="#ffd12a" stroke="#ffd12a" stroke-width="1.51"/><path d="M818,381L729,475L784,518Z" fill="#ffd428" stroke="#ffd428" stroke-width="1.51"/><path d="M162,1490L260,1395L183,1279Z" fill="#ffd627" stroke="#ffd627" stroke-width="1.51"/><path d="M930,399L818,381L784,518Z" fill="#ffd627" stroke="#ffd627" stroke-width="1.51"/><path d="M1025,575L926,536L924,687Z" fill="#ffdf23" stroke="#ffdf23" stroke-width="1.51"/><path d="M924,687L926,536L784,518Z" fill="#ffdb25" stroke="#ffdb25" stroke-width="1.51"/><path d="M922,327L810,361L818,381Z" fill="#ffd328" stroke="#ffd328" stroke-width="1.51"/><path d="M818,381L810,361L729,475Z" fill="#ffd229" stroke="#ffd229" stroke-width="1.51"/><path d="M584,1476L710,1318L526,1321Z" fill="#ffe61e" stroke="#ffe61e" stroke-width="1.51"/><path d="M766,1245L883,1242L774,1092Z" fill="#ffe91c" stroke="#ffe91c" stroke-width="1.51"/><path d="M969,841L993,821L888,803Z" fill="#ffe41f" stroke="#ffe41f" stroke-width="1.51"/><path d="M994,966L875,901L905,991Z" fill="#ffe71e" stroke="#ffe71e" stroke-width="1.51"/><path d="M-18,1376L58,1330L-2,1244Z" fill="#ffcc2b" stroke="#ffcc2b" stroke-width="1.51"/><path d="M-2,1244L58,1330L84,1231Z" fill="#ffcd2b" stroke="#ffcd2b" stroke-width="1.51"/><path d="M422,232L279,177L266,353Z" fill="#ffbb31" stroke="#ffbb31" stroke-width="1.51"/><path d="M287,170L279,177L422,232Z" fill="#ffba31" stroke="#ffba31" stroke-width="1.51"/><path d="M664,1495L785,1340L710,1318Z" fill="#ffeb1b" stroke="#ffeb1b" stroke-width="1.51"/><path d="M260,1395L279,1423L368,1339Z" fill="#ffda25" stroke="#ffda25" stroke-width="1.51"/><path d="M162,1490L279,1423L260,1395Z" fill="#ffd926" stroke="#ffd926" stroke-width="1.51"/><path d="M62,174L-22,269L68,323Z" fill="#ffb034" stroke="#ffb034" stroke-width="1.51"/><path d="M420,72L287,170L422,232Z" fill="#ffbb31" stroke="#ffbb31" stroke-width="1.51"/><path d="M916,1064L994,966L905,991Z" fill="#ffe91d" stroke="#ffe91d" stroke-width="1.51"/><path d="M-129,1101L-72,1263L-13,1170Z" fill="#ffc62d" stroke="#ffc62d" stroke-width="1.51"/><path d="M-97,448L-117,345L-126,505Z" fill="#ffaf34" stroke="#ffaf34" stroke-width="1.51"/><path d="M68,323L-22,269L-4,438Z" fill="#ffb134" stroke="#ffb134" stroke-width="1.51"/><path d="M147,149L266,353L279,177Z" fill="#ffb732" stroke="#ffb732" stroke-width="1.51"/><path d="M635,177L570,160L511,313Z" fill="#ffc42e" stroke="#ffc42e" stroke-width="1.51"/><path d="M635,177L511,313L717,303Z" fill="#ffc82d" stroke="#ffc82d" stroke-width="1.51"/><path d="M-22,269L-117,345L-4,438Z" fill="#ffaf34" stroke="#ffaf34" stroke-width="1.51"/><path d="M-126,505L-160,186L-147,612Z" fill="#ffad34" stroke="#ffad34" stroke-width="1.51"/><path d="M916,1064L1063,1083L994,966Z" fill="#ffec1a" stroke="#ffec1a" stroke-width="1.51"/><path d="M785,1340L883,1242L766,1245Z" fill="#ffeb1b" stroke="#ffeb1b" stroke-width="1.51"/><path d="M664,92L635,177L801,159Z" fill="#ffc82d" stroke="#ffc82d" stroke-width="1.51"/><path d="M468,1481L526,1321L404,1374Z" fill="#ffe122" stroke="#ffe122" stroke-width="1.51"/><path d="M710,1318L785,1340L766,1245Z" fill="#ffea1c" stroke="#ffea1c" stroke-width="1.51"/><path d="M810,361L801,159L717,303Z" fill="#ffcf2b" stroke="#ffcf2b" stroke-width="1.51"/><path d="M926,536L930,399L784,518Z" fill="#ffd826" stroke="#ffd826" stroke-width="1.51"/><path d="M1039,383L930,399L926,536Z" fill="#ffdb25" stroke="#ffdb25" stroke-width="1.51"/><path d="M1049,648L1025,575L924,687Z" fill="#ffe121" stroke="#ffe121" stroke-width="1.51"/><path d="M1049,648L924,687L993,821Z" fill="#ffe320" stroke="#ffe320" stroke-width="1.51"/><path d="M314,1500L468,1481L404,1374Z" fill="#ffe022" stroke="#ffe022" stroke-width="1.51"/><path d="M1063,1083L1049,648L993,821Z" fill="#ffe91d" stroke="#ffe91d" stroke-width="1.51"/><path d="M225,69L147,149L279,177Z" fill="#ffb433" stroke="#ffb433" stroke-width="1.51"/><path d="M225,69L279,177L287,170Z" fill="#ffb632" stroke="#ffb632" stroke-width="1.51"/><path d="M-22,269L-51,258L-117,345Z" fill="#ffac34" stroke="#ffac34" stroke-width="1.51"/><path d="M62,174L-51,258L-22,269Z" fill="#ffad34" stroke="#ffad34" stroke-width="1.51"/><path d="M58,1330L162,1490L183,1279Z" fill="#ffd329" stroke="#ffd329" stroke-width="1.51"/><path d="M279,1423L314,1500L404,1374Z" fill="#ffdd24" stroke="#ffdd24" stroke-width="1.51"/><path d="M-72,1263L-18,1376L-2,1244Z" fill="#ffca2c" stroke="#ffca2c" stroke-width="1.51"/><path d="M147,149L62,174L68,323Z" fill="#ffb134" stroke="#ffb134" stroke-width="1.51"/><path d="M162,1490L314,1500L279,1423Z" fill="#ffda25" stroke="#ffda25" stroke-width="1.51"/><path d="M477,1538L584,1476L468,1481Z" fill="#ffe51f" stroke="#ffe51f" stroke-width="1.51"/><path d="M468,1481L584,1476L526,1321Z" fill="#ffe420" stroke="#ffe420" stroke-width="1.51"/><path d="M570,160L420,72L422,232Z" fill="#ffbf30" stroke="#ffbf30" stroke-width="1.51"/><path d="M635,177L568,107L570,160Z" fill="#ffc32e" stroke="#ffc32e" stroke-width="1.51"/><path d="M664,92L568,107L635,177Z" fill="#ffc42f" stroke="#ffc42f" stroke-width="1.51"/><path d="M930,399L922,327L818,381Z" fill="#ffd627" stroke="#ffd627" stroke-width="1.51"/><path d="M1042,365L922,327L930,399Z" fill="#ffd826" stroke="#ffd826" stroke-width="1.51"/><path d="M33,1514L162,1490L58,1330Z" fill="#ffd329" stroke="#ffd329" stroke-width="1.51"/><path d="M568,107L420,72L570,160Z" fill="#ffbf30" stroke="#ffbf30" stroke-width="1.51"/><path d="M-72,1263L-159,1302L-18,1376Z" fill="#ffc92d" stroke="#ffc92d" stroke-width="1.51"/><path d="M33,1514L146,1534L162,1490Z" fill="#ffd627" stroke="#ffd627" stroke-width="1.51"/><path d="M-129,1101L-159,1302L-72,1263Z" fill="#ffc42e" stroke="#ffc42e" stroke-width="1.51"/><path d="M-149,1015L-159,1302L-129,1101Z" fill="#ffc12f" stroke="#ffc12f" stroke-width="1.51"/><path d="M-147,612L-159,1302L-149,1015Z" fill="#ffbd30" stroke="#ffbd30" stroke-width="1.51"/><path d="M1051,1280L1063,1083L883,1242Z" fill="#fff116" stroke="#fff116" stroke-width="1.51"/><path d="M883,1242L1063,1083L916,1064Z" fill="#ffed19" stroke="#ffed19" stroke-width="1.51"/><path d="M994,966L1063,1083L993,821Z" fill="#ffeb1b" stroke="#ffeb1b" stroke-width="1.51"/><path d="M314,1500L477,1538L468,1481Z" fill="#ffe221" stroke="#ffe221" stroke-width="1.51"/><path d="M313,1621L477,1538L314,1500Z" fill="#ffe121" stroke="#ffe121" stroke-width="1.51"/><path d="M147,149L46,79L62,174Z" fill="#ffaf34" stroke="#ffaf34" stroke-width="1.51"/><path d="M323,52L225,69L287,170Z" fill="#ffb532" stroke="#ffb532" stroke-width="1.51"/><path d="M420,72L323,52L287,170Z" fill="#ffb832" stroke="#ffb832" stroke-width="1.51"/><path d="M584,1476L664,1495L710,1318Z" fill="#ffe91c" stroke="#ffe91c" stroke-width="1.51"/><path d="M785,1340L909,1341L883,1242Z" fill="#ffee18" stroke="#ffee18" stroke-width="1.51"/><path d="M601,1537L664,1495L584,1476Z" fill="#ffea1c" stroke="#ffea1c" stroke-width="1.51"/><path d="M808,1509L909,1341L785,1340Z" fill="#fff017" stroke="#fff017" stroke-width="1.51"/><path d="M568,107L464,15L420,72Z" fill="#ffbd30" stroke="#ffbd30" stroke-width="1.51"/><path d="M420,72L464,15L323,52Z" fill="#ffb932" stroke="#ffb932" stroke-width="1.51"/><path d="M801,159L635,177L717,303Z" fill="#ffca2c" stroke="#ffca2c" stroke-width="1.51"/><path d="M896,205L801,159L810,361Z" fill="#ffd02a" stroke="#ffd02a" stroke-width="1.51"/><path d="M162,1490L180,1560L314,1500Z" fill="#ffda25" stroke="#ffda25" stroke-width="1.51"/><path d="M33,1514L58,1330L-18,1376Z" fill="#ffcf2a" stroke="#ffcf2a" stroke-width="1.51"/><path d="M664,1495L808,1509L785,1340Z" fill="#ffee19" stroke="#ffee19" stroke-width="1.51"/><path d="M477,1538L601,1537L584,1476Z" fill="#ffe81d" stroke="#ffe81d" stroke-width="1.51"/><path d="M-125,1439L-41,1455L-18,1376Z" fill="#ffcc2b" stroke="#ffcc2b" stroke-width="1.51"/><path d="M922,327L896,205L810,361Z" fill="#ffd328" stroke="#ffd328" stroke-width="1.51"/><path d="M1025,575L1039,383L926,536Z" fill="#ffdd24" stroke="#ffdd24" stroke-width="1.51"/><path d="M1049,648L1039,383L1025,575Z" fill="#ffe022" stroke="#ffe022" stroke-width="1.51"/><path d="M147,1637L180,1560L146,1534Z" fill="#ffd925" stroke="#ffd925" stroke-width="1.51"/><path d="M146,1534L180,1560L162,1490Z" fill="#ffd826" stroke="#ffd826" stroke-width="1.51"/><path d="M477,1538L467,1705L601,1537Z" fill="#ffe81d" stroke="#ffe81d" stroke-width="1.51"/><path d="M601,1537L681,1524L664,1495Z" fill="#ffeb1a" stroke="#ffeb1a" stroke-width="1.51"/><path d="M46,79L-73,151L62,174Z" fill="#ffac35" stroke="#ffac35" stroke-width="1.51"/><path d="M62,174L-73,151L-51,258Z" fill="#ffac35" stroke="#ffac35" stroke-width="1.51"/><path d="M-51,258L-160,186L-117,345Z" fill="#ffaa35" stroke="#ffaa35" stroke-width="1.51"/><path d="M513,-23L464,15L568,107Z" fill="#ffbd31" stroke="#ffbd31" stroke-width="1.51"/><path d="M160,-45L46,79L225,69Z" fill="#ffae35" stroke="#ffae35" stroke-width="1.51"/><path d="M991,185L896,205L922,327Z" fill="#ffd428" stroke="#ffd428" stroke-width="1.51"/><path d="M801,159L797,53L664,92Z" fill="#ffc92c" stroke="#ffc92c" stroke-width="1.51"/><path d="M225,69L46,79L147,149Z" fill="#ffb034" stroke="#ffb034" stroke-width="1.51"/><path d="M271,-56L225,69L323,52Z" fill="#ffb333" stroke="#ffb333" stroke-width="1.51"/><path d="M-41,1455L33,1514L-18,1376Z" fill="#ffcf2a" stroke="#ffcf2a" stroke-width="1.51"/><path d="M1039,383L1042,365L930,399Z" fill="#ffdb25" stroke="#ffdb25" stroke-width="1.51"/><path d="M1049,648L1042,365L1039,383Z" fill="#ffde23" stroke="#ffde23" stroke-width="1.51"/><path d="M1063,1083L1042,365L1049,648Z" fill="#ffe51f" stroke="#ffe51f" stroke-width="1.51"/><path d="M948,1507L976,1336L909,1341Z" fill="#fff413" stroke="#fff413" stroke-width="1.51"/><path d="M909,1341L976,1336L883,1242Z" fill="#fff116" stroke="#fff116" stroke-width="1.51"/><path d="M-159,1302L-125,1439L-18,1376Z" fill="#ffc92c" stroke="#ffc92c" stroke-width="1.51"/><path d="M-41,1455L-82,1525L33,1514Z" fill="#ffd02a" stroke="#ffd02a" stroke-width="1.51"/><path d="M-96,17L-160,186L-73,151Z" fill="#ffa636" stroke="#ffa636" stroke-width="1.51"/><path d="M-73,151L-160,186L-51,258Z" fill="#ffa936" stroke="#ffa936" stroke-width="1.51"/><path d="M-117,345L-160,186L-126,505Z" fill="#ffab34" stroke="#ffab34" stroke-width="1.51"/><path d="M-147,612L-160,186L-159,1302Z" fill="#ffb433" stroke="#ffb433" stroke-width="1.51"/><path d="M147,1637L313,1621L180,1560Z" fill="#ffdc24" stroke="#ffdc24" stroke-width="1.51"/><path d="M180,1560L313,1621L314,1500Z" fill="#ffdd24" stroke="#ffdd24" stroke-width="1.51"/><path d="M670,1721L757,1565L681,1524Z" fill="#fff016" stroke="#fff016" stroke-width="1.51"/><path d="M664,92L513,-23L568,107Z" fill="#ffc02f" stroke="#ffc02f" stroke-width="1.51"/><path d="M896,205L854,127L801,159Z" fill="#ffce2b" stroke="#ffce2b" stroke-width="1.51"/><path d="M981,85L854,127L896,205Z" fill="#ffd029" stroke="#ffd029" stroke-width="1.51"/><path d="M976,1336L1051,1280L883,1242Z" fill="#fff214" stroke="#fff214" stroke-width="1.51"/><path d="M681,1524L808,1509L664,1495Z" fill="#ffee18" stroke="#ffee18" stroke-width="1.51"/><path d="M976,1336L962,1510L1051,1280Z" fill="#fff511" stroke="#fff511" stroke-width="1.51"/><path d="M757,1565L808,1509L681,1524Z" fill="#fff017" stroke="#fff017" stroke-width="1.51"/><path d="M464,15L298,-57L323,52Z" fill="#ffb632" stroke="#ffb632" stroke-width="1.51"/><path d="M664,-70L513,-23L664,92Z" fill="#ffc02f" stroke="#ffc02f" stroke-width="1.51"/><path d="M808,1509L948,1507L909,1341Z" fill="#fff313" stroke="#fff313" stroke-width="1.51"/><path d="M789,1630L757,1565L670,1721Z" fill="#fff214" stroke="#fff214" stroke-width="1.51"/><path d="M854,127L797,53L801,159Z" fill="#ffcb2c" stroke="#ffcb2c" stroke-width="1.51"/><path d="M940,25L797,53L854,127Z" fill="#ffcc2b" stroke="#ffcc2b" stroke-width="1.51"/><path d="M33,1514L147,1637L146,1534Z" fill="#ffd727" stroke="#ffd727" stroke-width="1.51"/><path d="M-125,1439L-82,1525L-41,1455Z" fill="#ffcd2b" stroke="#ffcd2b" stroke-width="1.51"/><path d="M443,-126L298,-57L464,15Z" fill="#ffb632" stroke="#ffb632" stroke-width="1.51"/><path d="M46,79L-96,17L-73,151Z" fill="#ffa836" stroke="#ffa836" stroke-width="1.51"/><path d="M298,-57L271,-56L323,52Z" fill="#ffb333" stroke="#ffb333" stroke-width="1.51"/><path d="M2,1685L147,1637L33,1514Z" fill="#ffd627" stroke="#ffd627" stroke-width="1.51"/><path d="M1042,365L991,185L922,327Z" fill="#ffd726" stroke="#ffd726" stroke-width="1.51"/><path d="M271,-56L160,-45L225,69Z" fill="#ffb034" stroke="#ffb034" stroke-width="1.51"/><path d="M313,1621L349,1674L477,1538Z" fill="#ffe320" stroke="#ffe320" stroke-width="1.51"/><path d="M264,1704L349,1674L313,1621Z" fill="#ffe122" stroke="#ffe122" stroke-width="1.51"/><path d="M915,1622L948,1507L808,1509Z" fill="#fff610" stroke="#fff610" stroke-width="1.51"/><path d="M349,1674L467,1705L477,1538Z" fill="#ffe61e" stroke="#ffe61e" stroke-width="1.51"/><path d="M915,1622L962,1510L948,1507Z" fill="#fff80d" stroke="#fff80d" stroke-width="1.51"/><path d="M264,1704L467,1705L349,1674Z" fill="#ffe320" stroke="#ffe320" stroke-width="1.51"/><path d="M2,1685L264,1704L147,1637Z" fill="#ffda26" stroke="#ffda26" stroke-width="1.51"/><path d="M147,1637L264,1704L313,1621Z" fill="#ffde23" stroke="#ffde23" stroke-width="1.51"/><path d="M-40,-17L-96,17L46,79Z" fill="#ffa636" stroke="#ffa636" stroke-width="1.51"/><path d="M797,53L664,-70L664,92Z" fill="#ffc42e" stroke="#ffc42e" stroke-width="1.51"/><path d="M513,-23L443,-126L464,15Z" fill="#ffb932" stroke="#ffb932" stroke-width="1.51"/><path d="M791,-51L664,-70L797,53Z" fill="#ffc62e" stroke="#ffc62e" stroke-width="1.51"/><path d="M65,-76L-40,-17L46,79Z" fill="#ffa836" stroke="#ffa836" stroke-width="1.51"/><path d="M948,1507L962,1510L976,1336Z" fill="#fff610" stroke="#fff610" stroke-width="1.51"/><path d="M789,1630L808,1509L757,1565Z" fill="#fff215" stroke="#fff215" stroke-width="1.51"/><path d="M670,1721L681,1524L601,1537Z" fill="#ffee18" stroke="#ffee18" stroke-width="1.51"/><path d="M46,-163L65,-76L160,-45Z" fill="#ffa836" stroke="#ffa836" stroke-width="1.51"/><path d="M160,-45L65,-76L46,79Z" fill="#ffaa35" stroke="#ffaa35" stroke-width="1.51"/><path d="M298,-57L279,-144L271,-56Z" fill="#ffb033" stroke="#ffb033" stroke-width="1.51"/><path d="M555,-160L443,-126L513,-23Z" fill="#ffb931" stroke="#ffb931" stroke-width="1.51"/><path d="M279,-144L160,-45L271,-56Z" fill="#ffae34" stroke="#ffae34" stroke-width="1.51"/><path d="M991,185L981,85L896,205Z" fill="#ffd229" stroke="#ffd229" stroke-width="1.51"/><path d="M1033,-23L981,85L991,185Z" fill="#ffd229" stroke="#ffd229" stroke-width="1.51"/><path d="M467,1705L514,1732L601,1537Z" fill="#ffea1c" stroke="#ffea1c" stroke-width="1.51"/><path d="M264,1704L514,1732L467,1705Z" fill="#ffe51f" stroke="#ffe51f" stroke-width="1.51"/><path d="M664,-70L555,-160L513,-23Z" fill="#ffbc30" stroke="#ffbc30" stroke-width="1.51"/><path d="M940,25L791,-51L797,53Z" fill="#ffca2c" stroke="#ffca2c" stroke-width="1.51"/><path d="M345,-154L279,-144L298,-57Z" fill="#ffb034" stroke="#ffb034" stroke-width="1.51"/><path d="M791,-51L661,-107L664,-70Z" fill="#ffc22f" stroke="#ffc22f" stroke-width="1.51"/><path d="M443,-126L345,-154L298,-57Z" fill="#ffb233" stroke="#ffb233" stroke-width="1.51"/><path d="M555,-160L345,-154L443,-126Z" fill="#ffb533" stroke="#ffb533" stroke-width="1.51"/><path d="M981,85L940,25L854,127Z" fill="#ffce2a" stroke="#ffce2a" stroke-width="1.51"/><path d="M-74,1662L2,1685L33,1514Z" fill="#ffd429" stroke="#ffd429" stroke-width="1.51"/><path d="M264,1704L2,1685L514,1732Z" fill="#ffdf23" stroke="#ffdf23" stroke-width="1.51"/><path d="M789,1630L915,1622L808,1509Z" fill="#fff512" stroke="#fff512" stroke-width="1.51"/><path d="M514,1732L670,1721L601,1537Z" fill="#ffec1a" stroke="#ffec1a" stroke-width="1.51"/><path d="M-82,1525L-74,1662L33,1514Z" fill="#ffd129" stroke="#ffd129" stroke-width="1.51"/><path d="M-125,1439L-74,1662L-82,1525Z" fill="#ffce2a" stroke="#ffce2a" stroke-width="1.51"/><path d="M-159,1302L-74,1662L-125,1439Z" fill="#ffcb2b" stroke="#ffcb2b" stroke-width="1.51"/><path d="M840,-150L555,-160L661,-107Z" fill="#ffbf30" stroke="#ffbf30" stroke-width="1.51"/><path d="M661,-107L555,-160L664,-70Z" fill="#ffbe30" stroke="#ffbe30" stroke-width="1.51"/><path d="M965,1672L915,1622L876,1728Z" fill="#fff90b" stroke="#fff90b" stroke-width="1.51"/><path d="M65,-76L46,-163L-40,-17Z" fill="#ffa636" stroke="#ffa636" stroke-width="1.51"/><path d="M-40,-17L-103,-166L-96,17Z" fill="#ffa237" stroke="#ffa237" stroke-width="1.51"/><path d="M279,-144L46,-163L160,-45Z" fill="#ffaa35" stroke="#ffaa35" stroke-width="1.51"/><path d="M345,-154L46,-163L279,-144Z" fill="#ffac35" stroke="#ffac35" stroke-width="1.51"/><path d="M555,-160L46,-163L345,-154Z" fill="#ffb034" stroke="#ffb034" stroke-width="1.51"/><path d="M962,1510L1055,1596L1051,1280Z" fill="#fff90b" stroke="#fff90b" stroke-width="1.51"/><path d="M1051,1280L1055,1596L1063,1083Z" fill="#fff610" stroke="#fff610" stroke-width="1.51"/><path d="M915,1622L1055,1596L962,1510Z" fill="#fffa0a" stroke="#fffa0a" stroke-width="1.51"/><path d="M965,1672L1055,1596L915,1622Z" fill="#fffc07" stroke="#fffc07" stroke-width="1.51"/><path d="M981,85L1033,-23L940,25Z" fill="#ffd02a" stroke="#ffd02a" stroke-width="1.51"/><path d="M865,-151L840,-150L791,-51Z" fill="#ffc62d" stroke="#ffc62d" stroke-width="1.51"/><path d="M791,-51L840,-150L661,-107Z" fill="#ffc42e" stroke="#ffc42e" stroke-width="1.51"/><path d="M1042,365L1033,-23L991,185Z" fill="#ffd527" stroke="#ffd527" stroke-width="1.51"/><path d="M1063,1083L1033,-23L1042,365Z" fill="#ffdf23" stroke="#ffdf23" stroke-width="1.51"/><path d="M876,1728L915,1622L789,1630Z" fill="#fff70f" stroke="#fff70f" stroke-width="1.51"/><path d="M670,1721L876,1728L789,1630Z" fill="#fff413" stroke="#fff413" stroke-width="1.51"/><path d="M514,1732L876,1728L670,1721Z" fill="#fff017" stroke="#fff017" stroke-width="1.51"/><path d="M865,-151L791,-51L940,25Z" fill="#ffc92d" stroke="#ffc92d" stroke-width="1.51"/><path d="M840,-150L865,-151L555,-160Z" fill="#ffc22f" stroke="#ffc22f" stroke-width="1.51"/><path d="M1000,-153L865,-151L940,25Z" fill="#ffca2c" stroke="#ffca2c" stroke-width="1.51"/><path d="M46,-163L-103,-166L-40,-17Z" fill="#ffa237" stroke="#ffa237" stroke-width="1.51"/><path d="M-96,17L-103,-166L-160,186Z" fill="#ffa337" stroke="#ffa337" stroke-width="1.51"/><path d="M555,-160L-103,-166L46,-163Z" fill="#ffa935" stroke="#ffa935" stroke-width="1.51"/><path d="M1033,-23L1000,-153L940,25Z" fill="#ffce2b" stroke="#ffce2b" stroke-width="1.51"/><path d="M865,-151L1000,-153L555,-160Z" fill="#ffc42f" stroke="#ffc42f" stroke-width="1.51"/></svg>