<svg xmlns="http://www.w3.org/2000/svg" width="1440" height="900"><path d="M888,244L980,-18L614,183Z" fill="#ffa827" stroke="#ffa827" stroke-width="1.51"/><path d="M980,-18L491,-129L614,183Z" fill="#ff9f28" stroke="#ff9f28" stroke-width="1.51"/><path d="M1312,253L1264,-35L980,-18Z" fill="#ffaf27" stroke="#ffaf27" stroke-width="1.51"/><path d="M980,-18L816,-453L491,-129Z" fill="#ff9928" stroke="#ff9928" stroke-width="1.51"/><path d="M1303,-390L816,-453L980,-18Z" fill="#ff9e28" stroke="#ff9e28" stroke-width="1.51"/><path d="M816,-453L564,-433L491,-129Z" fill="#ff9029" stroke="#ff9029" stroke-width="1.51"/><path d="M888,244L1312,253L980,-18Z" fill="#ffaf27" stroke="#ffaf27" stroke-width="1.51"/><path d="M491,-129L249,-120L614,183Z" fill="#ff9729" stroke="#ff9729" stroke-width="1.51"/><path d="M564,-433L249,-120L491,-129Z" fill="#ff8e29" stroke="#ff8e29" stroke-width="1.51"/><path d="M481,603L979,643L888,244Z" fill="#ffb426" stroke="#ffb426" stroke-width="1.51"/><path d="M888,244L1234,598L1312,253Z" fill="#ffb926" stroke="#ffb926" stroke-width="1.51"/><path d="M249,-120L227,307L614,183Z" fill="#ff9a28" stroke="#ff9a28" stroke-width="1.51"/><path d="M481,603L888,244L614,183Z" fill="#ffab27" stroke="#ffab27" stroke-width="1.51"/><path d="M227,307L481,603L614,183Z" fill="#ffa628" stroke="#ffa628" stroke-width="1.51"/><path d="M1513,-338L1303,-390L1264,-35Z" fill="#ffa828" stroke="#ffa828" stroke-width="1.51"/><path d="M1264,-35L1303,-390L980,-18Z" fill="#ffa727" stroke="#ffa727" stroke-width="1.51"/><path d="M979,643L1234,598L888,244Z" fill="#ffbb26" stroke="#ffbb26" stroke-width="1.51"/><path d="M227,307L236,574L481,603Z" fill="#ffa727" stroke="#ffa727" stroke-width="1.51"/><path d="M249,-120L-99,-16L227,307Z" fill="#ff9129" stroke="#ff9129" stroke-width="1.51"/><path d="M227,307L-119,301L236,574Z" fill="#ff9d28" stroke="#ff9d28" stroke-width="1.51"/><path d="M564,-433L96,-344L249,-120Z" fill="#ff8829" stroke="#ff8829" stroke-width="1.51"/><path d="M1674,-91L1264,-35L1312,253Z" fill="#ffb426" stroke="#ffb426" stroke-width="1.51"/><path d="M1674,-91L1513,-338L1264,-35Z" fill="#ffaf27" stroke="#ffaf27" stroke-width="1.51"/><path d="M1513,555L1623,287L1312,253Z" fill="#ffc225" stroke="#ffc225" stroke-width="1.51"/><path d="M1234,598L1513,555L1312,253Z" fill="#ffc325" stroke="#ffc325" stroke-width="1.51"/><path d="M1362,1045L1513,555L1234,598Z" fill="#ffcd24" stroke="#ffcd24" stroke-width="1.51"/><path d="M96,-344L-99,-16L249,-120Z" fill="#ff8729" stroke="#ff8729" stroke-width="1.51"/><path d="M1623,287L1674,-91L1312,253Z" fill="#ffbc25" stroke="#ffbc25" stroke-width="1.51"/><path d="M979,643L971,948L1234,598Z" fill="#ffc425" stroke="#ffc425" stroke-width="1.51"/><path d="M481,603L971,948L979,643Z" fill="#ffbe26" stroke="#ffbe26" stroke-width="1.51"/><path d="M515,1050L971,948L481,603Z" fill="#ffbe25" stroke="#ffbe25" stroke-width="1.51"/><path d="M-99,-16L-119,301L227,307Z" fill="#ff9229" stroke="#ff9229" stroke-width="1.51"/><path d="M251,1084L481,603L236,574Z" fill="#ffb126" stroke="#ffb126" stroke-width="1.51"/><path d="M251,1084L515,1050L481,603Z" fill="#ffb926" stroke="#ffb926" stroke-width="1.51"/><path d="M-517,164L-218,528L-119,301Z" fill="#ff9029" stroke="#ff9029" stroke-width="1.51"/><path d="M96,-344L-123,-527L-99,-16Z" fill="#ff7d2a" stroke="#ff7d2a" stroke-width="1.51"/><path d="M564,-433L-123,-527L96,-344Z" fill="#ff7e2a" stroke="#ff7e2a" stroke-width="1.51"/><path d="M816,-453L-123,-527L564,-433Z" fill="#ff8429" stroke="#ff8429" stroke-width="1.51"/><path d="M-119,301L-218,528L236,574Z" fill="#ff9c28" stroke="#ff9c28" stroke-width="1.51"/><path d="M-517,164L-119,301L-99,-16Z" fill="#ff8929" stroke="#ff8929" stroke-width="1.51"/><path d="M1895,282L1878,-146L1674,-91Z" fill="#ffbe25" stroke="#ffbe25" stroke-width="1.51"/><path d="M1674,-91L1878,-146L1513,-338Z" fill="#ffb426" stroke="#ffb426" stroke-width="1.51"/><path d="M1895,282L1674,-91L1623,287Z" fill="#ffc225" stroke="#ffc225" stroke-width="1.51"/><path d="M2028,552L1895,282L1513,555Z" fill="#ffce24" stroke="#ffce24" stroke-width="1.51"/><path d="M1513,555L1895,282L1623,287Z" fill="#ffc824" stroke="#ffc824" stroke-width="1.51"/><path d="M971,948L1362,1045L1234,598Z" fill="#ffcd24" stroke="#ffcd24" stroke-width="1.51"/><path d="M1185,1375L1362,1045L971,948Z" fill="#ffd523" stroke="#ffd523" stroke-width="1.51"/><path d="M515,1050L625,1248L971,948Z" fill="#ffc725" stroke="#ffc725" stroke-width="1.51"/><path d="M-107,973L251,1084L236,574Z" fill="#ffb027" stroke="#ffb027" stroke-width="1.51"/><path d="M251,1084L625,1248L515,1050Z" fill="#ffc225" stroke="#ffc225" stroke-width="1.51"/><path d="M1513,-338L1876,-478L1303,-390Z" fill="#ffa828" stroke="#ffa828" stroke-width="1.51"/><path d="M1303,-390L1876,-478L816,-453Z" fill="#ffa028" stroke="#ffa028" stroke-width="1.51"/><path d="M816,-453L1876,-478L-123,-527Z" fill="#ff9129" stroke="#ff9129" stroke-width="1.51"/><path d="M1878,-146L1876,-478L1513,-338Z" fill="#ffb027" stroke="#ffb027" stroke-width="1.51"/><path d="M2028,552L1876,-478L1878,-146Z" fill="#ffc025" stroke="#ffc025" stroke-width="1.51"/><path d="M1362,1045L1578,1048L1513,555Z" fill="#ffd523" stroke="#ffd523" stroke-width="1.51"/><path d="M1580,1267L1578,1048L1362,1045Z" fill="#ffde22" stroke="#ffde22" stroke-width="1.51"/><path d="M-218,528L-107,973L236,574Z" fill="#ffa428" stroke="#ffa428" stroke-width="1.51"/><path d="M251,1084L189,1314L625,1248Z" fill="#ffc325" stroke="#ffc325" stroke-width="1.51"/><path d="M-218,528L-566,696L-107,973Z" fill="#ff9e28" stroke="#ff9e28" stroke-width="1.51"/><path d="M-600,-168L-517,164L-99,-16Z" fill="#ff7e2a" stroke="#ff7e2a" stroke-width="1.51"/><path d="M1895,282L2028,552L1878,-146Z" fill="#ffca24" stroke="#ffca24" stroke-width="1.51"/><path d="M1909,921L2028,552L1513,555Z" fill="#ffd722" stroke="#ffd722" stroke-width="1.51"/><path d="M625,1248L997,1405L971,948Z" fill="#ffcf23" stroke="#ffcf23" stroke-width="1.51"/><path d="M189,1314L997,1405L625,1248Z" fill="#ffcd24" stroke="#ffcd24" stroke-width="1.51"/><path d="M997,1405L1185,1375L971,948Z" fill="#ffd622" stroke="#ffd622" stroke-width="1.51"/><path d="M-107,973L189,1314L251,1084Z" fill="#ffb826" stroke="#ffb826" stroke-width="1.51"/><path d="M-123,-527L-600,-168L-99,-16Z" fill="#ff782a" stroke="#ff782a" stroke-width="1.51"/><path d="M1580,1267L1909,921L1578,1048Z" fill="#ffe221" stroke="#ffe221" stroke-width="1.51"/><path d="M1578,1048L1909,921L1513,555Z" fill="#ffd922" stroke="#ffd922" stroke-width="1.51"/><path d="M-123,-527L-547,-468L-600,-168Z" fill="#ff6c2a" stroke="#ff6c2a" stroke-width="1.51"/><path d="M1185,1375L1580,1267L1362,1045Z" fill="#ffde21" stroke="#ffde21" stroke-width="1.51"/><path d="M-107,973L-80,1395L189,1314Z" fill="#ffb926" stroke="#ffb926" stroke-width="1.51"/><path d="M-517,164L-566,696L-218,528Z" fill="#ff9029" stroke="#ff9029" stroke-width="1.51"/><path d="M-600,-168L-566,696L-517,164Z" fill="#ff8329" stroke="#ff8329" stroke-width="1.51"/><path d="M189,1314L-80,1395L997,1405Z" fill="#ffc824" stroke="#ffc824" stroke-width="1.51"/><path d="M-541,1347L-80,1395L-107,973Z" fill="#ffb327" stroke="#ffb327" stroke-width="1.51"/><path d="M-566,696L-622,1066L-107,973Z" fill="#ffa228" stroke="#ffa228" stroke-width="1.51"/><path d="M-600,-168L-622,1066L-566,696Z" fill="#ff8e29" stroke="#ff8e29" stroke-width="1.51"/><path d="M1185,1375L2016,1405L1580,1267Z" fill="#ffe91f" stroke="#ffe91f" stroke-width="1.51"/><path d="M1580,1267L2016,1405L1909,921Z" fill="#ffe91f" stroke="#ffe91f" stroke-width="1.51"/><path d="M1909,921L2016,1405L2028,552Z" fill="#ffe51f" stroke="#ffe51f" stroke-width="1.51"/><path d="M997,1405L2016,1405L1185,1375Z" fill="#ffe51f" stroke="#ffe51f" stroke-width="1.51"/><path d="M-622,1066L-541,1347L-107,973Z" fill="#ffa927" stroke="#ffa927" stroke-width="1.51"/></svg>